<svg width="15" height="15" viewBox="0 0 15 15" fill="none" xmlns="http://www.w3.org/2000/svg">
<path d="M9.66659 0.666504C10.0348 0.666504 10.3333 0.964981 10.3333 1.33317V1.99984H13.6666V5.99984H12.3206L14.1513 11.0297C14.2688 11.3304 14.3333 11.6576 14.3333 11.9998C14.3333 13.4726 13.1393 14.6665 11.6666 14.6665C10.424 14.6665 9.37996 13.8167 9.08393 12.6665H6.24924C5.95321 13.8167 4.90914 14.6665 3.66659 14.6665C2.37026 14.6665 1.28997 13.7415 1.04975 12.5155C0.623895 12.2929 0.333252 11.847 0.333252 11.3332V4.6665C0.333252 4.29831 0.631729 3.99984 0.999919 3.99984H5.66659C6.03478 3.99984 6.33325 4.29831 6.33325 4.6665V7.99984C6.33325 8.36803 6.63173 8.6665 6.99992 8.6665H8.33325C8.70144 8.6665 8.99992 8.36803 8.99992 7.99984V1.99984H6.99992V0.666504H9.66659ZM11.6666 10.6665C10.9302 10.6665 10.3333 11.2635 10.3333 11.9998C10.3333 12.7362 10.9302 13.3332 11.6666 13.3332C12.403 13.3332 12.9999 12.7362 12.9999 11.9998C12.9999 11.8396 12.9717 11.686 12.9198 11.5437L12.9089 11.5148C12.7149 11.0182 12.2318 10.6665 11.6666 10.6665ZM3.66659 10.6665C2.93021 10.6665 2.33325 11.2635 2.33325 11.9998C2.33325 12.7362 2.93021 13.3332 3.66659 13.3332C4.40297 13.3332 4.99992 12.7362 4.99992 11.9998C4.99992 11.2635 4.40297 10.6665 3.66659 10.6665ZM4.99992 5.33317H1.66659V6.6665H4.99992V5.33317ZM12.3333 3.33317H10.3333V4.6665H12.3333V3.33317Z" fill="#727272"/>
</svg>
