<svg width="16" height="16" viewBox="0 0 16 16" fill="none" xmlns="http://www.w3.org/2000/svg">
<path d="M14.0467 3.48683C12.9733 3.38016 11.9 3.30016 10.82 3.24016V3.2335L10.6733 2.36683C10.5733 1.7535 10.4267 0.833496 8.86667 0.833496H7.12C5.56667 0.833496 5.42 1.7135 5.31333 2.36016L5.17333 3.2135C4.55333 3.2535 3.93333 3.2935 3.31333 3.3535L1.95333 3.48683C1.67333 3.5135 1.47333 3.76016 1.5 4.0335C1.52667 4.30683 1.76667 4.50683 2.04667 4.48016L3.40667 4.34683C6.9 4.00016 10.42 4.1335 13.9533 4.48683C13.9733 4.48683 13.9867 4.48683 14.0067 4.48683C14.26 4.48683 14.48 4.2935 14.5067 4.0335C14.5267 3.76016 14.3267 3.5135 14.0467 3.48683Z" fill="#DC0019"/>
<path d="M12.82 5.4265C12.66 5.25984 12.44 5.1665 12.2133 5.1665H3.78667C3.56 5.1665 3.33333 5.25984 3.18 5.4265C3.02667 5.59317 2.94 5.81984 2.95333 6.05317L3.36667 12.8932C3.44 13.9065 3.53333 15.1732 5.86 15.1732H10.14C12.4667 15.1732 12.56 13.9132 12.6333 12.8932L13.0467 6.05984C13.06 5.81984 12.9733 5.59317 12.82 5.4265ZM9.10667 11.8332H6.88667C6.61333 11.8332 6.38667 11.6065 6.38667 11.3332C6.38667 11.0598 6.61333 10.8332 6.88667 10.8332H9.10667C9.38 10.8332 9.60667 11.0598 9.60667 11.3332C9.60667 11.6065 9.38 11.8332 9.10667 11.8332ZM9.66667 9.1665H6.33333C6.06 9.1665 5.83333 8.93984 5.83333 8.6665C5.83333 8.39317 6.06 8.1665 6.33333 8.1665H9.66667C9.94 8.1665 10.1667 8.39317 10.1667 8.6665C10.1667 8.93984 9.94 9.1665 9.66667 9.1665Z" fill="#DC0019"/>
</svg>
