<svg width="84" height="16" viewBox="0 0 84 16" fill="none" xmlns="http://www.w3.org/2000/svg">
<path d="M8.00004 1.3335C4.32671 1.3335 1.33337 4.32683 1.33337 8.00016C1.33337 11.6735 4.32671 14.6668 8.00004 14.6668C11.6734 14.6668 14.6667 11.6735 14.6667 8.00016C14.6667 4.32683 11.6734 1.3335 8.00004 1.3335ZM11.1867 6.46683L7.40671 10.2468C7.31337 10.3402 7.18671 10.3935 7.05337 10.3935C6.92004 10.3935 6.79337 10.3402 6.70004 10.2468L4.81337 8.36016C4.62004 8.16683 4.62004 7.84683 4.81337 7.6535C5.00671 7.46016 5.32671 7.46016 5.52004 7.6535L7.05337 9.18683L10.48 5.76016C10.6734 5.56683 10.9934 5.56683 11.1867 5.76016C11.38 5.9535 11.38 6.26683 11.1867 6.46683Z" fill="#008000"/>
<path d="M20.42 7.68C20.42 7.16 20.512 6.652 20.696 6.156C20.88 5.652 21.148 5.196 21.5 4.788C21.86 4.372 22.296 4.044 22.808 3.804C23.32 3.556 23.9 3.432 24.548 3.432C25.316 3.432 25.98 3.608 26.54 3.96C27.1 4.304 27.516 4.748 27.788 5.292L26.732 6C26.572 5.656 26.368 5.384 26.12 5.184C25.88 4.984 25.616 4.844 25.328 4.764C25.048 4.684 24.772 4.644 24.5 4.644C24.052 4.644 23.66 4.736 23.324 4.92C22.988 5.096 22.704 5.332 22.472 5.628C22.248 5.924 22.076 6.256 21.956 6.624C21.844 6.992 21.788 7.36 21.788 7.728C21.788 8.136 21.856 8.532 21.992 8.916C22.128 9.292 22.316 9.628 22.556 9.924C22.804 10.212 23.096 10.44 23.432 10.608C23.768 10.776 24.136 10.86 24.536 10.86C24.808 10.86 25.092 10.812 25.388 10.716C25.684 10.62 25.956 10.472 26.204 10.272C26.46 10.064 26.66 9.792 26.804 9.456L27.92 10.092C27.744 10.516 27.468 10.876 27.092 11.172C26.724 11.468 26.308 11.692 25.844 11.844C25.388 11.996 24.936 12.072 24.488 12.072C23.888 12.072 23.34 11.948 22.844 11.7C22.348 11.444 21.92 11.108 21.56 10.692C21.2 10.268 20.92 9.796 20.72 9.276C20.52 8.748 20.42 8.216 20.42 7.68ZM31.8034 12.12C31.3074 12.12 30.8634 12.036 30.4714 11.868C30.0794 11.692 29.7394 11.452 29.4514 11.148C29.1714 10.844 28.9554 10.5 28.8034 10.116C28.6514 9.724 28.5754 9.308 28.5754 8.868C28.5754 8.428 28.6514 8.012 28.8034 7.62C28.9554 7.228 29.1714 6.884 29.4514 6.588C29.7394 6.284 30.0794 6.048 30.4714 5.88C30.8714 5.704 31.3154 5.616 31.8034 5.616C32.2914 5.616 32.7314 5.704 33.1234 5.88C33.5234 6.048 33.8634 6.284 34.1434 6.588C34.4314 6.884 34.6514 7.228 34.8034 7.62C34.9554 8.012 35.0314 8.428 35.0314 8.868C35.0314 9.308 34.9554 9.724 34.8034 10.116C34.6514 10.5 34.4314 10.844 34.1434 11.148C33.8634 11.452 33.5234 11.692 33.1234 11.868C32.7314 12.036 32.2914 12.12 31.8034 12.12ZM29.9314 8.88C29.9314 9.28 30.0154 9.64 30.1834 9.96C30.3514 10.28 30.5754 10.532 30.8554 10.716C31.1354 10.9 31.4514 10.992 31.8034 10.992C32.1474 10.992 32.4594 10.9 32.7394 10.716C33.0274 10.524 33.2554 10.268 33.4234 9.948C33.5914 9.62 33.6754 9.26 33.6754 8.868C33.6754 8.468 33.5914 8.108 33.4234 7.788C33.2554 7.468 33.0274 7.216 32.7394 7.032C32.4594 6.84 32.1474 6.744 31.8034 6.744C31.4514 6.744 31.1354 6.84 30.8554 7.032C30.5754 7.224 30.3514 7.48 30.1834 7.8C30.0154 8.112 29.9314 8.472 29.9314 8.88ZM45.8022 12H44.4822V8.484C44.4822 7.9 44.3862 7.472 44.1942 7.2C44.0022 6.928 43.7222 6.792 43.3542 6.792C42.9862 6.792 42.6422 6.932 42.3222 7.212C42.0102 7.484 41.7902 7.84 41.6622 8.28V12H40.3422V8.484C40.3422 7.9 40.2462 7.472 40.0542 7.2C39.8622 6.928 39.5862 6.792 39.2262 6.792C38.8582 6.792 38.5142 6.928 38.1942 7.2C37.8822 7.472 37.6582 7.828 37.5222 8.268V12H36.2022V5.724H37.4022V6.984C37.6502 6.544 37.9742 6.208 38.3742 5.976C38.7822 5.736 39.2462 5.616 39.7662 5.616C40.2862 5.616 40.6942 5.752 40.9902 6.024C41.2942 6.296 41.4822 6.636 41.5542 7.044C41.8262 6.58 42.1582 6.228 42.5502 5.988C42.9502 5.74 43.4062 5.616 43.9182 5.616C44.2862 5.616 44.5942 5.684 44.8422 5.82C45.0902 5.956 45.2822 6.144 45.4182 6.384C45.5542 6.616 45.6502 6.888 45.7062 7.2C45.7702 7.504 45.8022 7.828 45.8022 8.172V12ZM50.8873 12.12C50.3833 12.12 49.9393 12 49.5553 11.76C49.1713 11.52 48.8673 11.208 48.6433 10.824V14.556H47.3232V5.724H48.4873V6.852C48.7273 6.476 49.0393 6.176 49.4233 5.952C49.8073 5.728 50.2353 5.616 50.7073 5.616C51.1393 5.616 51.5353 5.704 51.8953 5.88C52.2553 6.048 52.5673 6.284 52.8313 6.588C53.0953 6.892 53.2993 7.24 53.4433 7.632C53.5953 8.016 53.6713 8.424 53.6713 8.856C53.6713 9.456 53.5513 10.004 53.3112 10.5C53.0793 10.996 52.7513 11.392 52.3273 11.688C51.9113 11.976 51.4313 12.12 50.8873 12.12ZM50.4553 10.992C50.7353 10.992 50.9873 10.932 51.2113 10.812C51.4433 10.692 51.6393 10.532 51.7993 10.332C51.9673 10.132 52.0953 9.904 52.1833 9.648C52.2713 9.392 52.3153 9.128 52.3153 8.856C52.3153 8.568 52.2673 8.296 52.1713 8.04C52.0753 7.784 51.9353 7.56 51.7513 7.368C51.5753 7.176 51.3673 7.024 51.1273 6.912C50.8953 6.8 50.6393 6.744 50.3593 6.744C50.1913 6.744 50.0153 6.776 49.8313 6.84C49.6473 6.904 49.4753 6.992 49.3153 7.104C49.1553 7.216 49.0153 7.348 48.8953 7.5C48.7753 7.652 48.6913 7.812 48.6433 7.98V9.624C48.7553 9.88 48.9033 10.112 49.0873 10.32C49.2713 10.52 49.4833 10.684 49.7233 10.812C49.9633 10.932 50.2073 10.992 50.4553 10.992ZM54.8704 3.24H56.1904V10.188C56.1904 10.508 56.2384 10.712 56.3344 10.8C56.4304 10.888 56.5504 10.932 56.6944 10.932C56.8544 10.932 57.0024 10.916 57.1384 10.884C57.2824 10.852 57.4064 10.812 57.5104 10.764L57.7024 11.808C57.5104 11.888 57.2824 11.956 57.0184 12.012C56.7544 12.068 56.5184 12.096 56.3104 12.096C55.8624 12.096 55.5104 11.972 55.2544 11.724C54.9984 11.468 54.8704 11.116 54.8704 10.668V3.24ZM61.3118 12.12C60.8238 12.12 60.3798 12.036 59.9798 11.868C59.5878 11.692 59.2478 11.456 58.9598 11.16C58.6718 10.856 58.4478 10.512 58.2878 10.128C58.1358 9.736 58.0598 9.32 58.0598 8.88C58.0598 8.288 58.1958 7.748 58.4678 7.26C58.7398 6.764 59.1198 6.368 59.6078 6.072C60.0958 5.768 60.6678 5.616 61.3238 5.616C61.9798 5.616 62.5438 5.768 63.0158 6.072C63.4958 6.368 63.8678 6.76 64.1318 7.248C64.3958 7.736 64.5278 8.26 64.5278 8.82C64.5278 8.916 64.5238 9.008 64.5158 9.096C64.5078 9.176 64.4998 9.244 64.4918 9.3H59.4638C59.4878 9.668 59.5878 9.992 59.7638 10.272C59.9478 10.544 60.1798 10.76 60.4598 10.92C60.7398 11.072 61.0398 11.148 61.3598 11.148C61.7118 11.148 62.0438 11.06 62.3558 10.884C62.6758 10.708 62.8918 10.476 63.0038 10.188L64.1318 10.512C63.9958 10.816 63.7878 11.092 63.5078 11.34C63.2358 11.58 62.9118 11.772 62.5358 11.916C62.1598 12.052 61.7518 12.12 61.3118 12.12ZM59.4278 8.424H63.2198C63.1958 8.064 63.0918 7.748 62.9078 7.476C62.7318 7.196 62.5038 6.98 62.2238 6.828C61.9518 6.668 61.6478 6.588 61.3118 6.588C60.9838 6.588 60.6798 6.668 60.3998 6.828C60.1278 6.98 59.9038 7.196 59.7278 7.476C59.5518 7.748 59.4518 8.064 59.4278 8.424ZM69.0379 11.676C68.9259 11.732 68.7859 11.792 68.6179 11.856C68.4499 11.92 68.2579 11.976 68.0419 12.024C67.8339 12.072 67.6179 12.096 67.3939 12.096C67.1219 12.096 66.8699 12.048 66.6379 11.952C66.4059 11.856 66.2179 11.704 66.0739 11.496C65.9379 11.28 65.8699 11.004 65.8699 10.668V6.744H65.0419V5.724H65.8699V3.66H67.1899V5.724H68.5579V6.744H67.1899V10.248C67.2059 10.464 67.2739 10.624 67.3939 10.728C67.5219 10.832 67.6779 10.884 67.8619 10.884C68.0459 10.884 68.2219 10.852 68.3899 10.788C68.5579 10.724 68.6819 10.672 68.7619 10.632L69.0379 11.676ZM72.7141 12.12C72.2261 12.12 71.7821 12.036 71.3821 11.868C70.9901 11.692 70.6501 11.456 70.3621 11.16C70.0741 10.856 69.8501 10.512 69.6901 10.128C69.5381 9.736 69.4621 9.32 69.4621 8.88C69.4621 8.288 69.5981 7.748 69.8701 7.26C70.1421 6.764 70.5221 6.368 71.0101 6.072C71.4981 5.768 72.0701 5.616 72.7261 5.616C73.3821 5.616 73.9461 5.768 74.4181 6.072C74.8981 6.368 75.2701 6.76 75.5341 7.248C75.7981 7.736 75.9301 8.26 75.9301 8.82C75.9301 8.916 75.9261 9.008 75.9181 9.096C75.9101 9.176 75.9021 9.244 75.8941 9.3H70.8661C70.8901 9.668 70.9901 9.992 71.1661 10.272C71.3501 10.544 71.5821 10.76 71.8621 10.92C72.1421 11.072 72.4421 11.148 72.7621 11.148C73.1141 11.148 73.4461 11.06 73.7581 10.884C74.0781 10.708 74.2941 10.476 74.4061 10.188L75.5341 10.512C75.3981 10.816 75.1901 11.092 74.9101 11.34C74.6381 11.58 74.3141 11.772 73.9381 11.916C73.5621 12.052 73.1541 12.12 72.7141 12.12ZM70.8301 8.424H74.6221C74.5981 8.064 74.4941 7.748 74.3101 7.476C74.1341 7.196 73.9061 6.98 73.6261 6.828C73.3541 6.668 73.0501 6.588 72.7141 6.588C72.3861 6.588 72.0821 6.668 71.8021 6.828C71.5301 6.98 71.3061 7.196 71.1301 7.476C70.9541 7.748 70.8541 8.064 70.8301 8.424ZM76.6108 8.868C76.6108 8.268 76.7308 7.724 76.9708 7.236C77.2188 6.74 77.5548 6.348 77.9788 6.06C78.4028 5.764 78.8908 5.616 79.4428 5.616C79.9228 5.616 80.3548 5.74 80.7388 5.988C81.1308 6.236 81.4348 6.544 81.6508 6.912V3.24H82.9708V10.512C82.9708 10.664 82.9988 10.772 83.0548 10.836C83.1108 10.9 83.2028 10.936 83.3308 10.944V12C83.0828 12.04 82.8908 12.06 82.7548 12.06C82.5068 12.06 82.2948 11.988 82.1188 11.844C81.9508 11.7 81.8628 11.528 81.8548 11.328L81.8428 10.86C81.6028 11.26 81.2788 11.572 80.8708 11.796C80.4628 12.012 80.0388 12.12 79.5988 12.12C79.1668 12.12 78.7668 12.036 78.3988 11.868C78.0388 11.7 77.7228 11.464 77.4508 11.16C77.1868 10.856 76.9788 10.508 76.8268 10.116C76.6828 9.724 76.6108 9.308 76.6108 8.868ZM81.6508 9.744V8.1C81.5628 7.844 81.4188 7.616 81.2188 7.416C81.0268 7.208 80.8068 7.044 80.5588 6.924C80.3188 6.804 80.0788 6.744 79.8388 6.744C79.5588 6.744 79.3028 6.804 79.0708 6.924C78.8468 7.044 78.6508 7.204 78.4828 7.404C78.3228 7.604 78.1988 7.832 78.1108 8.088C78.0228 8.344 77.9788 8.612 77.9788 8.892C77.9788 9.18 78.0268 9.452 78.1228 9.708C78.2188 9.956 78.3548 10.18 78.5308 10.38C78.7148 10.572 78.9228 10.724 79.1548 10.836C79.3948 10.94 79.6548 10.992 79.9348 10.992C80.1108 10.992 80.2868 10.96 80.4628 10.896C80.6468 10.832 80.8188 10.744 80.9788 10.632C81.1468 10.52 81.2868 10.388 81.3988 10.236C81.5188 10.084 81.6028 9.92 81.6508 9.744Z" fill="#008000"/>
</svg>
