<svg width="83" height="16" viewBox="0 0 83 16" fill="none" xmlns="http://www.w3.org/2000/svg">
<g opacity="0.5">
<path d="M8.00004 1.3335C4.32671 1.3335 1.33337 4.32683 1.33337 8.00016C1.33337 11.6735 4.32671 14.6668 8.00004 14.6668C11.6734 14.6668 14.6667 11.6735 14.6667 8.00016C14.6667 4.32683 11.6734 1.3335 8.00004 1.3335ZM11.1867 6.46683L7.40671 10.2468C7.31337 10.3402 7.18671 10.3935 7.05337 10.3935C6.92004 10.3935 6.79337 10.3402 6.70004 10.2468L4.81337 8.36016C4.62004 8.16683 4.62004 7.84683 4.81337 7.6535C5.00671 7.46016 5.32671 7.46016 5.52004 7.6535L7.05337 9.18683L10.48 5.76016C10.6734 5.56683 10.9934 5.56683 11.1867 5.76016C11.38 5.9535 11.38 6.26683 11.1867 6.46683Z" fill="#727272"/>
</g>
<path d="M20.504 7.68C20.504 7.16 20.592 6.652 20.768 6.156C20.952 5.652 21.216 5.196 21.56 4.788C21.904 4.372 22.328 4.044 22.832 3.804C23.336 3.556 23.908 3.432 24.548 3.432C25.308 3.432 25.956 3.608 26.492 3.96C27.036 4.304 27.436 4.748 27.692 5.292L27.032 5.7C26.848 5.324 26.616 5.028 26.336 4.812C26.056 4.588 25.756 4.428 25.436 4.332C25.124 4.236 24.812 4.188 24.5 4.188C23.988 4.188 23.536 4.292 23.144 4.5C22.752 4.7 22.42 4.972 22.148 5.316C21.884 5.652 21.684 6.032 21.548 6.456C21.412 6.872 21.344 7.296 21.344 7.728C21.344 8.2 21.424 8.652 21.584 9.084C21.744 9.516 21.968 9.9 22.256 10.236C22.544 10.564 22.88 10.828 23.264 11.028C23.656 11.22 24.08 11.316 24.536 11.316C24.856 11.316 25.184 11.26 25.52 11.148C25.856 11.036 26.168 10.864 26.456 10.632C26.752 10.4 26.988 10.1 27.164 9.732L27.86 10.092C27.684 10.516 27.412 10.876 27.044 11.172C26.676 11.468 26.264 11.692 25.808 11.844C25.36 11.996 24.92 12.072 24.488 12.072C23.904 12.072 23.368 11.948 22.88 11.7C22.392 11.444 21.968 11.108 21.608 10.692C21.256 10.268 20.984 9.796 20.792 9.276C20.6 8.748 20.504 8.216 20.504 7.68ZM31.7906 12.12C31.3426 12.12 30.9266 12.036 30.5426 11.868C30.1666 11.692 29.8386 11.456 29.5586 11.16C29.2866 10.856 29.0746 10.512 28.9226 10.128C28.7706 9.736 28.6946 9.324 28.6946 8.892C28.6946 8.444 28.7706 8.028 28.9226 7.644C29.0746 7.252 29.2906 6.908 29.5706 6.612C29.8506 6.308 30.1786 6.072 30.5546 5.904C30.9386 5.728 31.3546 5.64 31.8026 5.64C32.2506 5.64 32.6626 5.728 33.0386 5.904C33.4146 6.072 33.7426 6.308 34.0226 6.612C34.3026 6.908 34.5186 7.252 34.6706 7.644C34.8226 8.028 34.8986 8.444 34.8986 8.892C34.8986 9.324 34.8226 9.736 34.6706 10.128C34.5186 10.512 34.3026 10.856 34.0226 11.16C33.7506 11.456 33.4226 11.692 33.0386 11.868C32.6626 12.036 32.2466 12.12 31.7906 12.12ZM29.5226 8.904C29.5226 9.368 29.6226 9.792 29.8226 10.176C30.0306 10.552 30.3066 10.852 30.6506 11.076C30.9946 11.292 31.3746 11.4 31.7906 11.4C32.2066 11.4 32.5866 11.288 32.9306 11.064C33.2746 10.84 33.5506 10.536 33.7586 10.152C33.9666 9.76 34.0706 9.336 34.0706 8.88C34.0706 8.416 33.9666 7.992 33.7586 7.608C33.5506 7.224 33.2746 6.92 32.9306 6.696C32.5866 6.472 32.2066 6.36 31.7906 6.36C31.3746 6.36 30.9946 6.476 30.6506 6.708C30.3146 6.94 30.0426 7.248 29.8346 7.632C29.6266 8.008 29.5226 8.432 29.5226 8.904ZM45.5633 12H44.7473V8.508C44.7473 7.78 44.6313 7.244 44.3993 6.9C44.1673 6.556 43.8233 6.384 43.3673 6.384C42.8953 6.384 42.4713 6.552 42.0953 6.888C41.7273 7.224 41.4673 7.656 41.3153 8.184V12H40.4993V8.508C40.4993 7.772 40.3873 7.236 40.1633 6.9C39.9393 6.556 39.5953 6.384 39.1313 6.384C38.6673 6.384 38.2473 6.548 37.8713 6.876C37.4953 7.204 37.2313 7.636 37.0793 8.172V12H36.2633V5.748H37.0073V7.164C37.2713 6.676 37.6073 6.3 38.0153 6.036C38.4313 5.772 38.8913 5.64 39.3953 5.64C39.9153 5.64 40.3353 5.788 40.6553 6.084C40.9753 6.38 41.1713 6.768 41.2433 7.248C41.5313 6.72 41.8753 6.32 42.2753 6.048C42.6833 5.776 43.1433 5.64 43.6553 5.64C44.0073 5.64 44.3033 5.704 44.5433 5.832C44.7913 5.96 44.9873 6.144 45.1313 6.384C45.2833 6.616 45.3913 6.9 45.4553 7.236C45.5273 7.564 45.5633 7.932 45.5633 8.34V12ZM50.4826 12.12C49.9626 12.12 49.4946 11.984 49.0786 11.712C48.6706 11.44 48.3466 11.104 48.1066 10.704V14.556H47.2906V5.748H48.0226V6.96C48.2706 6.568 48.6026 6.252 49.0186 6.012C49.4346 5.764 49.8786 5.64 50.3506 5.64C50.7826 5.64 51.1786 5.732 51.5386 5.916C51.8986 6.092 52.2106 6.332 52.4746 6.636C52.7386 6.94 52.9426 7.288 53.0866 7.68C53.2386 8.064 53.3146 8.464 53.3146 8.88C53.3146 9.464 53.1946 10.004 52.9546 10.5C52.7226 10.988 52.3946 11.38 51.9706 11.676C51.5466 11.972 51.0506 12.12 50.4826 12.12ZM50.2546 11.4C50.5986 11.4 50.9066 11.332 51.1786 11.196C51.4506 11.052 51.6826 10.86 51.8746 10.62C52.0746 10.38 52.2266 10.112 52.3306 9.816C52.4346 9.512 52.4866 9.2 52.4866 8.88C52.4866 8.544 52.4266 8.224 52.3066 7.92C52.1946 7.616 52.0306 7.348 51.8146 7.116C51.5986 6.884 51.3506 6.7 51.0706 6.564C50.7906 6.428 50.4866 6.36 50.1586 6.36C49.9506 6.36 49.7346 6.4 49.5106 6.48C49.2866 6.56 49.0706 6.676 48.8626 6.828C48.6626 6.972 48.4946 7.136 48.3586 7.32C48.2226 7.504 48.1386 7.7 48.1066 7.908V9.828C48.2346 10.124 48.4066 10.392 48.6226 10.632C48.8386 10.864 49.0866 11.052 49.3666 11.196C49.6546 11.332 49.9506 11.4 50.2546 11.4ZM54.7329 3.24H55.5489V10.584C55.5489 10.896 55.6049 11.1 55.7169 11.196C55.8289 11.292 55.9649 11.34 56.1249 11.34C56.2689 11.34 56.4129 11.324 56.5569 11.292C56.7009 11.26 56.8249 11.228 56.9289 11.196L57.0729 11.856C56.9209 11.92 56.7329 11.972 56.5089 12.012C56.2929 12.052 56.1049 12.072 55.9449 12.072C55.5769 12.072 55.2809 11.964 55.0569 11.748C54.8409 11.532 54.7329 11.236 54.7329 10.86V3.24ZM60.6664 12.12C60.2184 12.12 59.8024 12.036 59.4184 11.868C59.0344 11.692 58.7024 11.456 58.4224 11.16C58.1424 10.856 57.9224 10.508 57.7624 10.116C57.6104 9.724 57.5344 9.304 57.5344 8.856C57.5344 8.272 57.6664 7.736 57.9304 7.248C58.2024 6.76 58.5744 6.372 59.0464 6.084C59.5184 5.788 60.0544 5.64 60.6544 5.64C61.2704 5.64 61.8064 5.788 62.2624 6.084C62.7264 6.38 63.0904 6.772 63.3544 7.26C63.6184 7.74 63.7504 8.268 63.7504 8.844C63.7504 8.908 63.7504 8.972 63.7504 9.036C63.7504 9.092 63.7464 9.136 63.7384 9.168H58.3864C58.4264 9.616 58.5504 10.016 58.7584 10.368C58.9744 10.712 59.2504 10.988 59.5864 11.196C59.9304 11.396 60.3024 11.496 60.7024 11.496C61.1104 11.496 61.4944 11.392 61.8544 11.184C62.2224 10.976 62.4784 10.704 62.6224 10.368L63.3304 10.56C63.2024 10.856 63.0064 11.124 62.7424 11.364C62.4784 11.604 62.1664 11.792 61.8064 11.928C61.4544 12.056 61.0744 12.12 60.6664 12.12ZM58.3624 8.58H62.9824C62.9504 8.124 62.8264 7.724 62.6104 7.38C62.4024 7.036 62.1264 6.768 61.7824 6.576C61.4464 6.376 61.0744 6.276 60.6664 6.276C60.2584 6.276 59.8864 6.376 59.5504 6.576C59.2144 6.768 58.9384 7.04 58.7224 7.392C58.5144 7.736 58.3944 8.132 58.3624 8.58ZM67.9508 11.7C67.8868 11.724 67.7868 11.768 67.6508 11.832C67.5148 11.896 67.3508 11.952 67.1588 12C66.9668 12.048 66.7588 12.072 66.5348 12.072C66.3028 12.072 66.0828 12.028 65.8748 11.94C65.6748 11.852 65.5148 11.72 65.3948 11.544C65.2748 11.36 65.2148 11.136 65.2148 10.872V6.396H64.3508V5.748H65.2148V3.636H66.0308V5.748H67.4708V6.396H66.0308V10.644C66.0468 10.868 66.1268 11.036 66.2708 11.148C66.4228 11.26 66.5948 11.316 66.7868 11.316C67.0108 11.316 67.2148 11.28 67.3988 11.208C67.5828 11.128 67.6948 11.072 67.7348 11.04L67.9508 11.7ZM71.5648 12.12C71.1168 12.12 70.7008 12.036 70.3168 11.868C69.9328 11.692 69.6008 11.456 69.3208 11.16C69.0408 10.856 68.8208 10.508 68.6608 10.116C68.5088 9.724 68.4328 9.304 68.4328 8.856C68.4328 8.272 68.5648 7.736 68.8288 7.248C69.1008 6.76 69.4728 6.372 69.9448 6.084C70.4168 5.788 70.9528 5.64 71.5528 5.64C72.1688 5.64 72.7048 5.788 73.1608 6.084C73.6248 6.38 73.9888 6.772 74.2528 7.26C74.5168 7.74 74.6488 8.268 74.6488 8.844C74.6488 8.908 74.6488 8.972 74.6488 9.036C74.6488 9.092 74.6448 9.136 74.6368 9.168H69.2848C69.3248 9.616 69.4488 10.016 69.6568 10.368C69.8728 10.712 70.1488 10.988 70.4848 11.196C70.8288 11.396 71.2008 11.496 71.6008 11.496C72.0088 11.496 72.3928 11.392 72.7528 11.184C73.1208 10.976 73.3768 10.704 73.5208 10.368L74.2288 10.56C74.1008 10.856 73.9048 11.124 73.6408 11.364C73.3768 11.604 73.0648 11.792 72.7048 11.928C72.3528 12.056 71.9728 12.12 71.5648 12.12ZM69.2608 8.58H73.8808C73.8488 8.124 73.7248 7.724 73.5088 7.38C73.3008 7.036 73.0248 6.768 72.6808 6.576C72.3448 6.376 71.9728 6.276 71.5648 6.276C71.1568 6.276 70.7848 6.376 70.4488 6.576C70.1128 6.768 69.8368 7.04 69.6208 7.392C69.4128 7.736 69.2928 8.132 69.2608 8.58ZM75.4878 8.892C75.4878 8.3 75.6078 7.76 75.8478 7.272C76.0958 6.776 76.4358 6.38 76.8678 6.084C77.2998 5.788 77.7918 5.64 78.3438 5.64C78.8638 5.64 79.3278 5.78 79.7358 6.06C80.1518 6.332 80.4758 6.664 80.7078 7.056V3.24H81.5238V11.016C81.5238 11.128 81.5478 11.212 81.5958 11.268C81.6438 11.316 81.7158 11.344 81.8118 11.352V12C81.6518 12.024 81.5278 12.032 81.4398 12.024C81.2718 12.016 81.1238 11.948 80.9958 11.82C80.8678 11.692 80.8038 11.552 80.8038 11.4V10.788C80.5558 11.196 80.2198 11.52 79.7958 11.76C79.3718 12 78.9318 12.12 78.4758 12.12C78.0438 12.12 77.6438 12.032 77.2758 11.856C76.9158 11.68 76.5998 11.44 76.3278 11.136C76.0638 10.832 75.8558 10.488 75.7038 10.104C75.5598 9.712 75.4878 9.308 75.4878 8.892ZM80.7078 9.852V7.92C80.6038 7.632 80.4358 7.372 80.2038 7.14C79.9718 6.9 79.7078 6.712 79.4118 6.576C79.1238 6.432 78.8358 6.36 78.5478 6.36C78.2118 6.36 77.9078 6.432 77.6358 6.576C77.3638 6.712 77.1278 6.9 76.9278 7.14C76.7358 7.38 76.5878 7.652 76.4838 7.956C76.3798 8.26 76.3278 8.572 76.3278 8.892C76.3278 9.228 76.3838 9.548 76.4958 9.852C76.6158 10.156 76.7838 10.428 76.9998 10.668C77.2158 10.9 77.4638 11.08 77.7438 11.208C78.0238 11.336 78.3278 11.4 78.6558 11.4C78.8638 11.4 79.0798 11.36 79.3038 11.28C79.5278 11.2 79.7398 11.092 79.9398 10.956C80.1478 10.812 80.3198 10.644 80.4558 10.452C80.5918 10.26 80.6758 10.06 80.7078 9.852Z" fill="#727272"/>
</svg>
