<svg width="129" height="20" viewBox="0 0 129 20" fill="none" xmlns="http://www.w3.org/2000/svg">
<path d="M5.2545 13.256V14H1.1865V13.256H2.8905V8.12C2.8265 8.216 2.7185 8.32 2.5665 8.432C2.4145 8.544 2.2385 8.648 2.0385 8.744C1.8465 8.84 1.6545 8.92 1.4625 8.984C1.2705 9.048 1.0945 9.08 0.9345 9.08V8.288C1.1185 8.288 1.3185 8.236 1.5345 8.132C1.7505 8.028 1.9585 7.908 2.1585 7.772C2.3585 7.636 2.5265 7.508 2.6625 7.388C2.7985 7.268 2.8745 7.188 2.8905 7.148H3.7305V13.256H5.2545ZM8.41931 15.788C7.81931 15.788 7.27531 15.636 6.78731 15.332C6.29931 15.036 5.93531 14.644 5.69531 14.156L6.23531 13.748C6.45931 14.14 6.76331 14.456 7.14731 14.696C7.53931 14.936 7.96731 15.056 8.43131 15.056C8.83131 15.056 9.18731 14.968 9.49931 14.792C9.81931 14.616 10.0713 14.372 10.2553 14.06C10.4473 13.748 10.5433 13.388 10.5433 12.98C10.5433 12.588 10.4513 12.244 10.2673 11.948C10.0913 11.644 9.84731 11.408 9.53531 11.24C9.23131 11.072 8.88731 10.988 8.50331 10.988C8.13531 10.988 7.78331 11.072 7.44731 11.24C7.11131 11.4 6.83931 11.636 6.63131 11.948H5.87531L6.82331 7.148H10.9393V7.904H7.43531L6.84731 10.964C7.05531 10.74 7.31131 10.568 7.61531 10.448C7.91931 10.32 8.24731 10.256 8.59931 10.256C9.11931 10.256 9.58731 10.372 10.0033 10.604C10.4273 10.836 10.7633 11.156 11.0113 11.564C11.2593 11.972 11.3833 12.44 11.3833 12.968C11.3833 13.528 11.2473 14.02 10.9753 14.444C10.7113 14.868 10.3553 15.196 9.90731 15.428C9.45931 15.668 8.96331 15.788 8.41931 15.788ZM15.461 14V5.48H21.053V6.224H16.301V9.356H20.309V10.052H16.301V14H15.461ZM24.4209 14.12C23.9729 14.12 23.5569 14.036 23.1729 13.868C22.7889 13.692 22.4569 13.456 22.1769 13.16C21.8969 12.856 21.6769 12.508 21.5169 12.116C21.3649 11.724 21.2889 11.304 21.2889 10.856C21.2889 10.272 21.4209 9.736 21.6849 9.248C21.9569 8.76 22.3289 8.372 22.8009 8.084C23.2729 7.788 23.8089 7.64 24.4089 7.64C25.0249 7.64 25.5609 7.788 26.0169 8.084C26.4809 8.38 26.8449 8.772 27.1089 9.26C27.3729 9.74 27.5049 10.268 27.5049 10.844C27.5049 10.908 27.5049 10.972 27.5049 11.036C27.5049 11.092 27.5009 11.136 27.4929 11.168H22.1409C22.1809 11.616 22.3049 12.016 22.5129 12.368C22.7289 12.712 23.0049 12.988 23.3409 13.196C23.6849 13.396 24.0569 13.496 24.4569 13.496C24.8649 13.496 25.2489 13.392 25.6089 13.184C25.9769 12.976 26.2329 12.704 26.3769 12.368L27.0849 12.56C26.9569 12.856 26.7609 13.124 26.4969 13.364C26.2329 13.604 25.9209 13.792 25.5609 13.928C25.2089 14.056 24.8289 14.12 24.4209 14.12ZM22.1169 10.58H26.7369C26.7049 10.124 26.5809 9.724 26.3649 9.38C26.1569 9.036 25.8809 8.768 25.5369 8.576C25.2009 8.376 24.8289 8.276 24.4209 8.276C24.0129 8.276 23.6409 8.376 23.3049 8.576C22.9689 8.768 22.6929 9.04 22.4769 9.392C22.2689 9.736 22.1489 10.132 22.1169 10.58ZM31.5839 14.12C31.0959 14.12 30.6439 13.996 30.2279 13.748C29.8119 13.492 29.4879 13.172 29.2559 12.788V14H28.5239V5.24H29.3399V9.056C29.6199 8.632 29.9559 8.292 30.3479 8.036C30.7399 7.772 31.1959 7.64 31.7159 7.64C32.1559 7.64 32.5479 7.732 32.8919 7.916C33.2439 8.1 33.5439 8.348 33.7919 8.66C34.0399 8.964 34.2279 9.312 34.3559 9.704C34.4839 10.088 34.5479 10.484 34.5479 10.892C34.5479 11.332 34.4719 11.744 34.3199 12.128C34.1759 12.512 33.9679 12.856 33.6959 13.16C33.4239 13.456 33.1079 13.692 32.7479 13.868C32.3959 14.036 32.0079 14.12 31.5839 14.12ZM31.3919 13.4C31.7279 13.4 32.0399 13.332 32.3279 13.196C32.6159 13.06 32.8639 12.872 33.0719 12.632C33.2799 12.392 33.4399 12.124 33.5519 11.828C33.6639 11.524 33.7199 11.212 33.7199 10.892C33.7199 10.452 33.6239 10.04 33.4319 9.656C33.2479 9.264 32.9879 8.952 32.6519 8.72C32.3239 8.48 31.9359 8.36 31.4879 8.36C31.1679 8.36 30.8679 8.432 30.5879 8.576C30.3159 8.72 30.0719 8.912 29.8559 9.152C29.6479 9.384 29.4759 9.64 29.3399 9.92V11.864C29.3719 12.08 29.4559 12.284 29.5919 12.476C29.7279 12.66 29.8959 12.82 30.0959 12.956C30.3039 13.092 30.5199 13.2 30.7439 13.28C30.9679 13.36 31.1839 13.4 31.3919 13.4ZM35.8222 14.972L36.0262 13.964H35.7502V12.824H36.5422V13.964L36.2422 14.972H35.8222ZM40.5921 14C40.5921 13.728 40.6161 13.456 40.6641 13.184C40.7121 12.904 40.8041 12.628 40.9401 12.356C41.0761 12.084 41.2761 11.824 41.5401 11.576C41.8041 11.32 42.1521 11.08 42.5841 10.856C42.8161 10.736 43.0561 10.62 43.3041 10.508C43.5521 10.388 43.7841 10.26 44.0001 10.124C44.2241 9.98 44.4001 9.82 44.5281 9.644C44.6641 9.46 44.7321 9.244 44.7321 8.996C44.7321 8.796 44.6721 8.6 44.5521 8.408C44.4401 8.216 44.2641 8.06 44.0241 7.94C43.7921 7.82 43.5001 7.76 43.1481 7.76C42.8921 7.76 42.6601 7.796 42.4521 7.868C42.2441 7.94 42.0601 8.032 41.9001 8.144C41.7401 8.248 41.6041 8.356 41.4921 8.468C41.3801 8.572 41.2881 8.66 41.2161 8.732L40.7001 8.168C40.7401 8.12 40.8281 8.036 40.9641 7.916C41.1081 7.788 41.2881 7.656 41.5041 7.52C41.7281 7.384 41.9881 7.268 42.2841 7.172C42.5881 7.076 42.9201 7.028 43.2801 7.028C43.7681 7.028 44.1841 7.116 44.5281 7.292C44.8801 7.46 45.1481 7.688 45.3321 7.976C45.5161 8.264 45.6081 8.576 45.6081 8.912C45.6081 9.24 45.5361 9.524 45.3921 9.764C45.2561 9.996 45.0761 10.2 44.8521 10.376C44.6361 10.544 44.4081 10.692 44.1681 10.82C43.9361 10.94 43.7241 11.044 43.5321 11.132C43.1561 11.308 42.8401 11.484 42.5841 11.66C42.3281 11.836 42.1241 12.016 41.9721 12.2C41.8201 12.376 41.7001 12.552 41.6121 12.728C41.5321 12.896 41.4761 13.072 41.4441 13.256H45.7401V14H40.5921ZM52.7659 10.484C52.7659 11.188 52.6339 11.816 52.3699 12.368C52.1139 12.912 51.7579 13.34 51.3019 13.652C50.8459 13.964 50.3299 14.12 49.7539 14.12C49.1779 14.12 48.6619 13.964 48.2059 13.652C47.7579 13.34 47.4019 12.912 47.1379 12.368C46.8739 11.816 46.7419 11.188 46.7419 10.484C46.7419 9.78 46.8739 9.156 47.1379 8.612C47.4019 8.06 47.7579 7.628 48.2059 7.316C48.6619 6.996 49.1779 6.836 49.7539 6.836C50.3299 6.836 50.8459 6.996 51.3019 7.316C51.7579 7.628 52.1139 8.06 52.3699 8.612C52.6339 9.156 52.7659 9.78 52.7659 10.484ZM51.9379 10.484C51.9379 9.916 51.8459 9.416 51.6619 8.984C51.4779 8.552 51.2219 8.216 50.8939 7.976C50.5659 7.728 50.1859 7.604 49.7539 7.604C49.3219 7.604 48.9419 7.728 48.6139 7.976C48.2859 8.216 48.0259 8.552 47.8339 8.984C47.6499 9.416 47.5579 9.916 47.5579 10.484C47.5579 11.052 47.6499 11.552 47.8339 11.984C48.0259 12.416 48.2859 12.752 48.6139 12.992C48.9419 13.232 49.3219 13.352 49.7539 13.352C50.1859 13.352 50.5659 13.232 50.8939 12.992C51.2219 12.744 51.4779 12.408 51.6619 11.984C51.8459 11.552 51.9379 11.052 51.9379 10.484ZM53.7175 14C53.7175 13.728 53.7415 13.456 53.7895 13.184C53.8375 12.904 53.9295 12.628 54.0655 12.356C54.2015 12.084 54.4015 11.824 54.6655 11.576C54.9295 11.32 55.2775 11.08 55.7095 10.856C55.9415 10.736 56.1815 10.62 56.4295 10.508C56.6775 10.388 56.9095 10.26 57.1255 10.124C57.3495 9.98 57.5255 9.82 57.6535 9.644C57.7895 9.46 57.8575 9.244 57.8575 8.996C57.8575 8.796 57.7975 8.6 57.6775 8.408C57.5655 8.216 57.3895 8.06 57.1495 7.94C56.9175 7.82 56.6255 7.76 56.2735 7.76C56.0175 7.76 55.7855 7.796 55.5775 7.868C55.3695 7.94 55.1855 8.032 55.0255 8.144C54.8655 8.248 54.7295 8.356 54.6175 8.468C54.5055 8.572 54.4135 8.66 54.3415 8.732L53.8255 8.168C53.8655 8.12 53.9535 8.036 54.0895 7.916C54.2335 7.788 54.4135 7.656 54.6295 7.52C54.8535 7.384 55.1135 7.268 55.4095 7.172C55.7135 7.076 56.0455 7.028 56.4055 7.028C56.8935 7.028 57.3095 7.116 57.6535 7.292C58.0055 7.46 58.2735 7.688 58.4575 7.976C58.6415 8.264 58.7335 8.576 58.7335 8.912C58.7335 9.24 58.6615 9.524 58.5175 9.764C58.3815 9.996 58.2015 10.2 57.9775 10.376C57.7615 10.544 57.5335 10.692 57.2935 10.82C57.0615 10.94 56.8495 11.044 56.6575 11.132C56.2815 11.308 55.9655 11.484 55.7095 11.66C55.4535 11.836 55.2495 12.016 55.0975 12.2C54.9455 12.376 54.8255 12.552 54.7375 12.728C54.6575 12.896 54.6015 13.072 54.5695 13.256H58.8655V14H53.7175ZM63.3233 11.168C63.6833 11.224 63.9913 11.352 64.2473 11.552C64.5033 11.752 64.7033 12.004 64.8473 12.308C64.9913 12.612 65.0633 12.956 65.0633 13.34C65.0633 13.82 64.9473 14.244 64.7153 14.612C64.4833 14.98 64.1593 15.264 63.7433 15.464C63.3273 15.664 62.8433 15.764 62.2913 15.764C61.6833 15.764 61.1513 15.64 60.6953 15.392C60.2393 15.152 59.8953 14.816 59.6633 14.384L60.2273 13.868C60.4033 14.212 60.6633 14.488 61.0073 14.696C61.3513 14.912 61.7793 15.02 62.2913 15.02C62.8833 15.02 63.3513 14.872 63.6953 14.576C64.0473 14.288 64.2233 13.872 64.2233 13.328C64.2233 12.784 64.0393 12.352 63.6713 12.032C63.3113 11.704 62.7953 11.54 62.1233 11.54H61.8233V10.844H62.1473C62.7633 10.844 63.2353 10.7 63.5633 10.412C63.8913 10.124 64.0553 9.756 64.0553 9.308C64.0553 8.98 63.9793 8.708 63.8273 8.492C63.6753 8.276 63.4673 8.112 63.2033 8C62.9473 7.888 62.6513 7.832 62.3153 7.832C61.8593 7.832 61.4553 7.936 61.1033 8.144C60.7593 8.344 60.4993 8.624 60.3233 8.984L59.7953 8.48C59.9313 8.2 60.1273 7.956 60.3833 7.748C60.6393 7.54 60.9393 7.38 61.2833 7.268C61.6273 7.148 61.9953 7.088 62.3873 7.088C62.8833 7.088 63.3193 7.18 63.6953 7.364C64.0713 7.54 64.3673 7.788 64.5833 8.108C64.7993 8.428 64.9073 8.804 64.9073 9.236C64.9073 9.556 64.8433 9.852 64.7153 10.124C64.5873 10.396 64.4033 10.624 64.1633 10.808C63.9313 10.992 63.6513 11.112 63.3233 11.168Z" fill="#727272"/>
<line x1="74.5" y1="4.5" x2="74.5" y2="15.5" stroke="#CDCDCD"/>
<path d="M88.7428 10.484C88.7428 11.188 88.6108 11.816 88.3468 12.368C88.0908 12.912 87.7348 13.34 87.2788 13.652C86.8228 13.964 86.3068 14.12 85.7308 14.12C85.1548 14.12 84.6388 13.964 84.1828 13.652C83.7348 13.34 83.3788 12.912 83.1148 12.368C82.8508 11.816 82.7188 11.188 82.7188 10.484C82.7188 9.78 82.8508 9.156 83.1148 8.612C83.3788 8.06 83.7348 7.628 84.1828 7.316C84.6388 6.996 85.1548 6.836 85.7308 6.836C86.3068 6.836 86.8228 6.996 87.2788 7.316C87.7348 7.628 88.0908 8.06 88.3468 8.612C88.6108 9.156 88.7428 9.78 88.7428 10.484ZM87.9148 10.484C87.9148 9.916 87.8228 9.416 87.6388 8.984C87.4548 8.552 87.1988 8.216 86.8708 7.976C86.5428 7.728 86.1628 7.604 85.7308 7.604C85.2988 7.604 84.9188 7.728 84.5908 7.976C84.2628 8.216 84.0028 8.552 83.8108 8.984C83.6268 9.416 83.5348 9.916 83.5348 10.484C83.5348 11.052 83.6268 11.552 83.8108 11.984C84.0028 12.416 84.2628 12.752 84.5908 12.992C84.9188 13.232 85.2988 13.352 85.7308 13.352C86.1628 13.352 86.5428 13.232 86.8708 12.992C87.1988 12.744 87.4548 12.408 87.6388 11.984C87.8228 11.552 87.9148 11.052 87.9148 10.484ZM94.0384 13.256V14H89.9704V13.256H91.6744V8.12C91.6104 8.216 91.5024 8.32 91.3504 8.432C91.1984 8.544 91.0224 8.648 90.8224 8.744C90.6304 8.84 90.4384 8.92 90.2464 8.984C90.0544 9.048 89.8784 9.08 89.7184 9.08V8.288C89.9024 8.288 90.1024 8.236 90.3184 8.132C90.5344 8.028 90.7424 7.908 90.9424 7.772C91.1424 7.636 91.3104 7.508 91.4464 7.388C91.5824 7.268 91.6584 7.188 91.6744 7.148H92.5144V13.256H94.0384ZM94.8392 8.96V7.784H95.5352V8.96H94.8392ZM94.8392 14V12.824H95.5352V14H94.8392ZM100.197 11.168C100.557 11.224 100.865 11.352 101.121 11.552C101.377 11.752 101.577 12.004 101.721 12.308C101.865 12.612 101.937 12.956 101.937 13.34C101.937 13.82 101.821 14.244 101.589 14.612C101.357 14.98 101.033 15.264 100.617 15.464C100.201 15.664 99.7169 15.764 99.1649 15.764C98.5569 15.764 98.0249 15.64 97.5689 15.392C97.1129 15.152 96.7689 14.816 96.5369 14.384L97.1009 13.868C97.2769 14.212 97.5369 14.488 97.8809 14.696C98.2249 14.912 98.6529 15.02 99.1649 15.02C99.7569 15.02 100.225 14.872 100.569 14.576C100.921 14.288 101.097 13.872 101.097 13.328C101.097 12.784 100.913 12.352 100.545 12.032C100.185 11.704 99.6689 11.54 98.9969 11.54H98.6969V10.844H99.0209C99.6369 10.844 100.109 10.7 100.437 10.412C100.765 10.124 100.929 9.756 100.929 9.308C100.929 8.98 100.853 8.708 100.701 8.492C100.549 8.276 100.341 8.112 100.077 8C99.8209 7.888 99.5249 7.832 99.1889 7.832C98.7329 7.832 98.3289 7.936 97.9769 8.144C97.6329 8.344 97.3729 8.624 97.1969 8.984L96.6689 8.48C96.8049 8.2 97.0009 7.956 97.2569 7.748C97.5129 7.54 97.8129 7.38 98.1569 7.268C98.5009 7.148 98.8689 7.088 99.2609 7.088C99.7569 7.088 100.193 7.18 100.569 7.364C100.945 7.54 101.241 7.788 101.457 8.108C101.673 8.428 101.781 8.804 101.781 9.236C101.781 9.556 101.717 9.852 101.589 10.124C101.461 10.396 101.277 10.624 101.037 10.808C100.805 10.992 100.525 11.112 100.197 11.168ZM107.197 7.76H102.601V7.004H108.493L104.185 15.524H103.249L107.197 7.76ZM112.261 14V5.48H115.789C116.157 5.48 116.493 5.556 116.797 5.708C117.109 5.86 117.377 6.068 117.601 6.332C117.825 6.588 118.001 6.876 118.129 7.196C118.257 7.508 118.321 7.828 118.321 8.156C118.321 8.62 118.217 9.06 118.009 9.476C117.809 9.884 117.525 10.216 117.157 10.472C116.789 10.728 116.357 10.856 115.861 10.856H113.101V14H112.261ZM113.101 10.112H115.825C116.161 10.112 116.453 10.02 116.701 9.836C116.949 9.652 117.141 9.412 117.277 9.116C117.413 8.82 117.481 8.5 117.481 8.156C117.481 7.804 117.401 7.48 117.241 7.184C117.081 6.888 116.869 6.656 116.605 6.488C116.349 6.312 116.065 6.224 115.753 6.224H113.101V10.112ZM127.034 14V7.064L123.95 12.452H123.422L120.326 7.064V14H119.486V5.48H120.35L123.674 11.312L127.022 5.48H127.874V14H127.034Z" fill="#727272"/>
</svg>
