<svg width="65" height="16" viewBox="0 0 65 16" fill="none" xmlns="http://www.w3.org/2000/svg">
<g opacity="0.5">
<path d="M8.00004 1.3335C4.32671 1.3335 1.33337 4.32683 1.33337 8.00016C1.33337 11.6735 4.32671 14.6668 8.00004 14.6668C11.6734 14.6668 14.6667 11.6735 14.6667 8.00016C14.6667 4.32683 11.6734 1.3335 8.00004 1.3335ZM11.1867 6.46683L7.40671 10.2468C7.31337 10.3402 7.18671 10.3935 7.05337 10.3935C6.92004 10.3935 6.79337 10.3402 6.70004 10.2468L4.81337 8.36016C4.62004 8.16683 4.62004 7.84683 4.81337 7.6535C5.00671 7.46016 5.32671 7.46016 5.52004 7.6535L7.05337 9.18683L10.48 5.76016C10.6734 5.56683 10.9934 5.56683 11.1867 5.76016C11.38 5.9535 11.38 6.26683 11.1867 6.46683Z" fill="#727272"/>
</g>
<path d="M20.89 12V4.9H23.3C24.0533 4.9 24.68 5.06 25.18 5.38C25.6867 5.69333 26.0667 6.12 26.32 6.66C26.5733 7.19333 26.7 7.78667 26.7 8.44C26.7 9.16 26.56 9.78667 26.28 10.32C26.0067 10.8533 25.6133 11.2667 25.1 11.56C24.5933 11.8533 23.9933 12 23.3 12H20.89ZM26 8.44C26 7.87333 25.8933 7.37 25.68 6.93C25.4733 6.49 25.17 6.14667 24.77 5.9C24.37 5.64667 23.88 5.52 23.3 5.52H21.59V11.38H23.3C23.8867 11.38 24.38 11.25 24.78 10.99C25.18 10.73 25.4833 10.38 25.69 9.94C25.8967 9.49333 26 8.99333 26 8.44ZM30.1484 12.1C29.7751 12.1 29.4284 12.03 29.1084 11.89C28.7884 11.7433 28.5118 11.5467 28.2784 11.3C28.0451 11.0467 27.8618 10.7567 27.7284 10.43C27.6018 10.1033 27.5384 9.75333 27.5384 9.38C27.5384 8.89333 27.6484 8.44667 27.8684 8.04C28.0951 7.63333 28.4051 7.31 28.7984 7.07C29.1918 6.82333 29.6384 6.7 30.1384 6.7C30.6518 6.7 31.0984 6.82333 31.4784 7.07C31.8651 7.31667 32.1684 7.64333 32.3884 8.05C32.6084 8.45 32.7184 8.89 32.7184 9.37C32.7184 9.42333 32.7184 9.47667 32.7184 9.53C32.7184 9.57667 32.7151 9.61333 32.7084 9.64H28.2484C28.2818 10.0133 28.3851 10.3467 28.5584 10.64C28.7384 10.9267 28.9684 11.1567 29.2484 11.33C29.5351 11.4967 29.8451 11.58 30.1784 11.58C30.5184 11.58 30.8384 11.4933 31.1384 11.32C31.4451 11.1467 31.6584 10.92 31.7784 10.64L32.3684 10.8C32.2618 11.0467 32.0984 11.27 31.8784 11.47C31.6584 11.67 31.3984 11.8267 31.0984 11.94C30.8051 12.0467 30.4884 12.1 30.1484 12.1ZM28.2284 9.15H32.0784C32.0518 8.77 31.9484 8.43667 31.7684 8.15C31.5951 7.86333 31.3651 7.64 31.0784 7.48C30.7984 7.31333 30.4884 7.23 30.1484 7.23C29.8084 7.23 29.4984 7.31333 29.2184 7.48C28.9384 7.64 28.7084 7.86667 28.5284 8.16C28.3551 8.44667 28.2551 8.77667 28.2284 9.15ZM33.7976 4.7H34.4776V10.82C34.4776 11.08 34.5242 11.25 34.6176 11.33C34.7109 11.41 34.8242 11.45 34.9576 11.45C35.0776 11.45 35.1976 11.4367 35.3176 11.41C35.4376 11.3833 35.5409 11.3567 35.6276 11.33L35.7476 11.88C35.6209 11.9333 35.4642 11.9767 35.2776 12.01C35.0976 12.0433 34.9409 12.06 34.8076 12.06C34.5009 12.06 34.2542 11.97 34.0676 11.79C33.8876 11.61 33.7976 11.3633 33.7976 11.05V4.7ZM36.4922 12V6.79H37.1722V12H36.4922ZM36.4922 5.7V4.7H37.1722V5.7H36.4922ZM40.2199 12L38.1099 6.79H38.8199L40.5999 11.32L42.3899 6.79H43.0599L40.9499 12H40.2199ZM46.0762 12.1C45.7028 12.1 45.3562 12.03 45.0362 11.89C44.7162 11.7433 44.4395 11.5467 44.2062 11.3C43.9728 11.0467 43.7895 10.7567 43.6562 10.43C43.5295 10.1033 43.4662 9.75333 43.4662 9.38C43.4662 8.89333 43.5762 8.44667 43.7962 8.04C44.0228 7.63333 44.3328 7.31 44.7262 7.07C45.1195 6.82333 45.5662 6.7 46.0662 6.7C46.5795 6.7 47.0262 6.82333 47.4062 7.07C47.7928 7.31667 48.0962 7.64333 48.3162 8.05C48.5362 8.45 48.6462 8.89 48.6462 9.37C48.6462 9.42333 48.6462 9.47667 48.6462 9.53C48.6462 9.57667 48.6428 9.61333 48.6362 9.64H44.1762C44.2095 10.0133 44.3128 10.3467 44.4862 10.64C44.6662 10.9267 44.8962 11.1567 45.1762 11.33C45.4628 11.4967 45.7728 11.58 46.1062 11.58C46.4462 11.58 46.7662 11.4933 47.0662 11.32C47.3728 11.1467 47.5862 10.92 47.7062 10.64L48.2962 10.8C48.1895 11.0467 48.0262 11.27 47.8062 11.47C47.5862 11.67 47.3262 11.8267 47.0262 11.94C46.7328 12.0467 46.4162 12.1 46.0762 12.1ZM44.1562 9.15H48.0062C47.9795 8.77 47.8762 8.43667 47.6962 8.15C47.5228 7.86333 47.2928 7.64 47.0062 7.48C46.7262 7.31333 46.4162 7.23 46.0762 7.23C45.7362 7.23 45.4262 7.31333 45.1462 7.48C44.8662 7.64 44.6362 7.86667 44.4562 8.16C44.2828 8.44667 44.1828 8.77667 44.1562 9.15ZM52.2953 7.39C51.842 7.40333 51.442 7.53 51.0953 7.77C50.7553 8.01 50.5153 8.34 50.3753 8.76V12H49.6953V6.79H50.3353V8.04C50.5153 7.67333 50.752 7.37667 51.0453 7.15C51.3453 6.92333 51.662 6.79667 51.9953 6.77C52.062 6.76333 52.1186 6.76 52.1653 6.76C52.2186 6.76 52.262 6.76333 52.2953 6.77V7.39ZM55.2852 12.1C54.9118 12.1 54.5652 12.03 54.2452 11.89C53.9252 11.7433 53.6485 11.5467 53.4152 11.3C53.1818 11.0467 52.9985 10.7567 52.8652 10.43C52.7385 10.1033 52.6752 9.75333 52.6752 9.38C52.6752 8.89333 52.7852 8.44667 53.0052 8.04C53.2318 7.63333 53.5418 7.31 53.9352 7.07C54.3285 6.82333 54.7752 6.7 55.2752 6.7C55.7885 6.7 56.2352 6.82333 56.6152 7.07C57.0018 7.31667 57.3052 7.64333 57.5252 8.05C57.7452 8.45 57.8552 8.89 57.8552 9.37C57.8552 9.42333 57.8552 9.47667 57.8552 9.53C57.8552 9.57667 57.8518 9.61333 57.8452 9.64H53.3852C53.4185 10.0133 53.5218 10.3467 53.6952 10.64C53.8752 10.9267 54.1052 11.1567 54.3852 11.33C54.6718 11.4967 54.9818 11.58 55.3152 11.58C55.6552 11.58 55.9752 11.4933 56.2752 11.32C56.5818 11.1467 56.7952 10.92 56.9152 10.64L57.5052 10.8C57.3985 11.0467 57.2352 11.27 57.0152 11.47C56.7952 11.67 56.5352 11.8267 56.2352 11.94C55.9418 12.0467 55.6252 12.1 55.2852 12.1ZM53.3652 9.15H57.2152C57.1885 8.77 57.0852 8.43667 56.9052 8.15C56.7318 7.86333 56.5018 7.64 56.2152 7.48C55.9352 7.31333 55.6252 7.23 55.2852 7.23C54.9452 7.23 54.6352 7.31333 54.3552 7.48C54.0752 7.64 53.8452 7.86667 53.6652 8.16C53.4918 8.44667 53.3918 8.77667 53.3652 9.15ZM58.5543 9.41C58.5543 8.91667 58.6543 8.46667 58.8543 8.06C59.061 7.64667 59.3443 7.31667 59.7043 7.07C60.0643 6.82333 60.4743 6.7 60.9343 6.7C61.3676 6.7 61.7543 6.81667 62.0943 7.05C62.441 7.27667 62.711 7.55333 62.9043 7.88V4.7H63.5843V11.18C63.5843 11.2733 63.6043 11.3433 63.6443 11.39C63.6843 11.43 63.7443 11.4533 63.8243 11.46V12C63.691 12.02 63.5876 12.0267 63.5143 12.02C63.3743 12.0133 63.251 11.9567 63.1443 11.85C63.0376 11.7433 62.9843 11.6267 62.9843 11.5V10.99C62.7776 11.33 62.4976 11.6 62.1443 11.8C61.791 12 61.4243 12.1 61.0443 12.1C60.6843 12.1 60.351 12.0267 60.0443 11.88C59.7443 11.7333 59.481 11.5333 59.2543 11.28C59.0343 11.0267 58.861 10.74 58.7343 10.42C58.6143 10.0933 58.5543 9.75667 58.5543 9.41ZM62.9043 10.21V8.6C62.8176 8.36 62.6776 8.14333 62.4843 7.95C62.291 7.75 62.071 7.59333 61.8243 7.48C61.5843 7.36 61.3443 7.3 61.1043 7.3C60.8243 7.3 60.571 7.36 60.3443 7.48C60.1176 7.59333 59.921 7.75 59.7543 7.95C59.5943 8.15 59.471 8.37667 59.3843 8.63C59.2976 8.88333 59.2543 9.14333 59.2543 9.41C59.2543 9.69 59.301 9.95667 59.3943 10.21C59.4943 10.4633 59.6343 10.69 59.8143 10.89C59.9943 11.0833 60.201 11.2333 60.4343 11.34C60.6676 11.4467 60.921 11.5 61.1943 11.5C61.3676 11.5 61.5476 11.4667 61.7343 11.4C61.921 11.3333 62.0976 11.2433 62.2643 11.13C62.4376 11.01 62.581 10.87 62.6943 10.71C62.8076 10.55 62.8776 10.3833 62.9043 10.21Z" fill="#727272"/>
</svg>
