<svg width="327" height="196" viewBox="0 0 327 196" fill="none" xmlns="http://www.w3.org/2000/svg">
<rect x="0.5" y="0.5" width="326" height="195" rx="7.5" fill="#F8F8F8"/>
<path d="M17.5582 30V21.48H21.1582C21.5262 21.48 21.8622 21.556 22.1662 21.708C22.4702 21.86 22.7342 22.068 22.9582 22.332C23.1902 22.588 23.3662 22.876 23.4862 23.196C23.6142 23.508 23.6782 23.828 23.6782 24.156C23.6782 24.564 23.5982 24.948 23.4382 25.308C23.2862 25.668 23.0662 25.972 22.7782 26.22C22.4982 26.468 22.1662 26.632 21.7822 26.712L23.8702 30H22.9222L20.9182 26.856H18.3982V30H17.5582ZM18.3982 26.112H21.1822C21.5182 26.112 21.8102 26.02 22.0582 25.836C22.3062 25.652 22.4982 25.412 22.6342 25.116C22.7702 24.812 22.8382 24.492 22.8382 24.156C22.8382 23.812 22.7582 23.496 22.5982 23.208C22.4462 22.912 22.2382 22.676 21.9742 22.5C21.7182 22.316 21.4302 22.224 21.1102 22.224H18.3982V26.112ZM30.882 29.256V30H25.158V21.48H30.774V22.224H25.998V25.296H30.162V26.004H25.998V29.256H30.882ZM31.5024 25.68C31.5024 25.16 31.5904 24.652 31.7664 24.156C31.9504 23.652 32.2144 23.196 32.5584 22.788C32.9024 22.372 33.3264 22.044 33.8304 21.804C34.3344 21.556 34.9064 21.432 35.5464 21.432C36.3064 21.432 36.9544 21.608 37.4904 21.96C38.0344 22.304 38.4344 22.748 38.6904 23.292L38.0304 23.7C37.8464 23.324 37.6144 23.028 37.3344 22.812C37.0544 22.588 36.7544 22.428 36.4344 22.332C36.1224 22.236 35.8104 22.188 35.4984 22.188C34.9864 22.188 34.5344 22.292 34.1424 22.5C33.7504 22.7 33.4184 22.972 33.1464 23.316C32.8824 23.652 32.6824 24.032 32.5464 24.456C32.4104 24.872 32.3424 25.296 32.3424 25.728C32.3424 26.2 32.4224 26.652 32.5824 27.084C32.7424 27.516 32.9664 27.9 33.2544 28.236C33.5424 28.564 33.8784 28.828 34.2624 29.028C34.6544 29.22 35.0784 29.316 35.5344 29.316C35.8544 29.316 36.1824 29.26 36.5184 29.148C36.8544 29.036 37.1664 28.864 37.4544 28.632C37.7504 28.4 37.9864 28.1 38.1624 27.732L38.8584 28.092C38.6824 28.516 38.4104 28.876 38.0424 29.172C37.6744 29.468 37.2624 29.692 36.8064 29.844C36.3584 29.996 35.9184 30.072 35.4864 30.072C34.9024 30.072 34.3664 29.948 33.8784 29.7C33.3904 29.444 32.9664 29.108 32.6064 28.692C32.2544 28.268 31.9824 27.796 31.7904 27.276C31.5984 26.748 31.5024 26.216 31.5024 25.68ZM40.053 30V21.48H40.893V30H40.053ZM42.7896 30V21.48H46.3176C46.6856 21.48 47.0216 21.556 47.3256 21.708C47.6376 21.86 47.9056 22.068 48.1296 22.332C48.3536 22.588 48.5296 22.876 48.6576 23.196C48.7856 23.508 48.8496 23.828 48.8496 24.156C48.8496 24.62 48.7456 25.06 48.5376 25.476C48.3376 25.884 48.0536 26.216 47.6856 26.472C47.3176 26.728 46.8856 26.856 46.3896 26.856H43.6296V30H42.7896ZM43.6296 26.112H46.3536C46.6896 26.112 46.9816 26.02 47.2296 25.836C47.4776 25.652 47.6696 25.412 47.8056 25.116C47.9416 24.82 48.0096 24.5 48.0096 24.156C48.0096 23.804 47.9296 23.48 47.7696 23.184C47.6096 22.888 47.3976 22.656 47.1336 22.488C46.8776 22.312 46.5936 22.224 46.2816 22.224H43.6296V26.112ZM50.0144 30V21.48H50.8544V30H50.0144ZM58.475 29.256V30H52.751V21.48H58.367V22.224H53.591V25.296H57.755V26.004H53.591V29.256H58.475ZM60.6635 23.028V30H59.8235V21.48H60.5195L66.1115 28.584V21.492H66.9515V30H66.1715L60.6635 23.028ZM74.901 22.224H71.865V30H71.025V22.224H67.989V21.48H74.901V22.224ZM75.0281 24.96V23.784H75.7241V24.96H75.0281ZM75.0281 30V28.824H75.7241V30H75.0281Z" fill="#727272"/>
<path d="M17.3128 56V44.64H19.1048V56H17.3128ZM28.7122 56H26.9522V51.312C26.9522 50.5333 26.8242 49.9627 26.5682 49.6C26.3229 49.2373 25.9549 49.056 25.4642 49.056C25.1229 49.056 24.7815 49.1413 24.4402 49.312C24.1095 49.4827 23.8109 49.7173 23.5442 50.016C23.2775 50.304 23.0855 50.64 22.9682 51.024V56H21.2082V47.632H22.8082V49.312C23.0215 48.9387 23.2989 48.6187 23.6402 48.352C23.9922 48.0747 24.3869 47.8613 24.8242 47.712C25.2615 47.5627 25.7255 47.488 26.2162 47.488C26.7175 47.488 27.1282 47.5787 27.4482 47.76C27.7789 47.9413 28.0349 48.192 28.2162 48.512C28.4082 48.8213 28.5362 49.184 28.6002 49.6C28.6749 50.0053 28.7122 50.4373 28.7122 50.896V56ZM33.4911 56.16C32.7871 56.16 32.1204 56.048 31.4911 55.824C30.8617 55.5893 30.3231 55.2427 29.8751 54.784L30.5311 53.6C31.0111 54.0267 31.4911 54.336 31.9711 54.528C32.4617 54.72 32.9471 54.816 33.4271 54.816C33.9177 54.816 34.3177 54.7253 34.6271 54.544C34.9364 54.352 35.0911 54.0747 35.0911 53.712C35.0911 53.4453 35.0111 53.248 34.8511 53.12C34.6911 52.992 34.4564 52.88 34.1471 52.784C33.8484 52.688 33.4857 52.5813 33.0591 52.464C32.4617 52.2827 31.9604 52.096 31.5551 51.904C31.1497 51.7013 30.8457 51.456 30.6431 51.168C30.4404 50.88 30.3391 50.512 30.3391 50.064C30.3391 49.52 30.4777 49.056 30.7551 48.672C31.0324 48.288 31.4164 47.9947 31.9071 47.792C32.4084 47.5893 32.9844 47.488 33.6351 47.488C34.2431 47.488 34.8031 47.584 35.3151 47.776C35.8377 47.9573 36.2964 48.2453 36.6911 48.64L35.9391 49.808C35.5657 49.4667 35.1817 49.216 34.7871 49.056C34.4031 48.896 33.9871 48.816 33.5391 48.816C33.2831 48.816 33.0377 48.848 32.8031 48.912C32.5684 48.9653 32.3711 49.072 32.2111 49.232C32.0617 49.3813 31.9871 49.5947 31.9871 49.872C31.9871 50.096 32.0511 50.2773 32.1791 50.416C32.3071 50.5547 32.4991 50.672 32.7551 50.768C33.0111 50.864 33.3257 50.9707 33.6991 51.088C34.3497 51.28 34.9044 51.472 35.3631 51.664C35.8217 51.8453 36.1737 52.0853 36.4191 52.384C36.6751 52.672 36.8031 53.072 36.8031 53.584C36.8031 54.3947 36.4991 55.0293 35.8911 55.488C35.2937 55.936 34.4937 56.16 33.4911 56.16ZM42.7748 55.568C42.6255 55.6427 42.4388 55.7227 42.2148 55.808C41.9908 55.8933 41.7348 55.968 41.4468 56.032C41.1695 56.096 40.8815 56.128 40.5828 56.128C40.2201 56.128 39.8841 56.064 39.5748 55.936C39.2655 55.808 39.0148 55.6053 38.8228 55.328C38.6415 55.04 38.5508 54.672 38.5508 54.224V48.992H37.4468V47.632H38.5508V44.88H40.3108V47.632H42.1348V48.992H40.3108V53.664C40.3321 53.952 40.4228 54.1653 40.5828 54.304C40.7535 54.4427 40.9615 54.512 41.2068 54.512C41.4521 54.512 41.6868 54.4693 41.9108 54.384C42.1348 54.2987 42.3001 54.2293 42.4068 54.176L42.7748 55.568ZM43.1458 53.552C43.1458 53.0187 43.2951 52.5547 43.5938 52.16C43.9031 51.7547 44.3245 51.4453 44.8578 51.232C45.3911 51.008 46.0098 50.896 46.7138 50.896C47.0871 50.896 47.4658 50.9227 47.8498 50.976C48.2445 51.0293 48.5911 51.1147 48.8898 51.232V50.704C48.8898 50.1173 48.7138 49.6587 48.3618 49.328C48.0098 48.9973 47.5031 48.832 46.8418 48.832C46.3725 48.832 45.9298 48.9173 45.5138 49.088C45.0978 49.248 44.6551 49.4773 44.1858 49.776L43.5938 48.592C44.1485 48.2187 44.7031 47.9413 45.2578 47.76C45.8231 47.5787 46.4151 47.488 47.0338 47.488C48.1538 47.488 49.0338 47.7867 49.6738 48.384C50.3245 48.9707 50.6498 49.808 50.6498 50.896V54.016C50.6498 54.2187 50.6818 54.3627 50.7458 54.448C50.8205 54.5333 50.9431 54.5813 51.1138 54.592V56C50.9538 56.032 50.8098 56.0533 50.6818 56.064C50.5538 56.0747 50.4471 56.08 50.3618 56.08C49.9885 56.08 49.7058 55.9893 49.5138 55.808C49.3218 55.6267 49.2098 55.4133 49.1778 55.168L49.1298 54.688C48.7671 55.1573 48.3031 55.52 47.7378 55.776C47.1725 56.032 46.6018 56.16 46.0258 56.16C45.4711 56.16 44.9751 56.048 44.5378 55.824C44.1005 55.5893 43.7591 55.2747 43.5138 54.88C43.2685 54.4853 43.1458 54.0427 43.1458 53.552ZM48.4738 54.064C48.6018 53.9253 48.7031 53.7867 48.7778 53.648C48.8525 53.5093 48.8898 53.3867 48.8898 53.28V52.32C48.5911 52.2027 48.2765 52.1173 47.9458 52.064C47.6151 52 47.2898 51.968 46.9698 51.968C46.3298 51.968 45.8071 52.096 45.4018 52.352C45.0071 52.608 44.8098 52.96 44.8098 53.408C44.8098 53.6533 44.8738 53.888 45.0018 54.112C45.1405 54.336 45.3325 54.5173 45.5778 54.656C45.8338 54.7947 46.1485 54.864 46.5218 54.864C46.9058 54.864 47.2738 54.7893 47.6258 54.64C47.9778 54.4907 48.2605 54.2987 48.4738 54.064ZM57.2971 56.16C56.6251 56.16 56.0331 56 55.5211 55.68C55.0091 55.36 54.6037 54.944 54.3051 54.432V59.408H52.5451V47.632H54.0971V49.136C54.4171 48.6347 54.8331 48.2347 55.3451 47.936C55.8571 47.6373 56.4277 47.488 57.0571 47.488C57.6331 47.488 58.1611 47.6053 58.6411 47.84C59.1211 48.064 59.5371 48.3787 59.8891 48.784C60.2411 49.1893 60.5131 49.6533 60.7051 50.176C60.9077 50.688 61.0091 51.232 61.0091 51.808C61.0091 52.608 60.8491 53.3387 60.5291 54C60.2197 54.6613 59.7824 55.1893 59.2171 55.584C58.6624 55.968 58.0224 56.16 57.2971 56.16ZM56.7211 54.656C57.0944 54.656 57.4304 54.576 57.7291 54.416C58.0384 54.256 58.2997 54.0427 58.5131 53.776C58.7371 53.5093 58.9077 53.2053 59.0251 52.864C59.1424 52.5227 59.2011 52.1707 59.2011 51.808C59.2011 51.424 59.1371 51.0613 59.0091 50.72C58.8811 50.3787 58.6944 50.08 58.4491 49.824C58.2144 49.568 57.9371 49.3653 57.6171 49.216C57.3077 49.0667 56.9664 48.992 56.5931 48.992C56.3691 48.992 56.1344 49.0347 55.8891 49.12C55.6437 49.2053 55.4144 49.3227 55.2011 49.472C54.9877 49.6213 54.8011 49.7973 54.6411 50C54.4811 50.2027 54.3691 50.416 54.3051 50.64V52.832C54.4544 53.1733 54.6517 53.4827 54.8971 53.76C55.1424 54.0267 55.4251 54.2453 55.7451 54.416C56.0651 54.576 56.3904 54.656 56.7211 54.656ZM69.8559 56H68.0959V51.312C68.0959 50.5547 67.9573 49.9893 67.6799 49.616C67.4026 49.2427 67.0133 49.056 66.5119 49.056C66.2026 49.056 65.8826 49.1413 65.5519 49.312C65.2213 49.4827 64.9279 49.7173 64.6719 50.016C64.4159 50.304 64.2293 50.64 64.1119 51.024V56H62.3519V44.32H64.1119V49.312C64.4319 48.7467 64.8693 48.304 65.4239 47.984C65.9786 47.6533 66.5759 47.488 67.2159 47.488C67.7386 47.488 68.1706 47.5787 68.5119 47.76C68.8533 47.9413 69.1199 48.192 69.3119 48.512C69.5146 48.8213 69.6533 49.184 69.7279 49.6C69.8133 50.0053 69.8559 50.4373 69.8559 50.896V56ZM71.0508 53.552C71.0508 53.0187 71.2001 52.5547 71.4988 52.16C71.8081 51.7547 72.2295 51.4453 72.7628 51.232C73.2961 51.008 73.9148 50.896 74.6188 50.896C74.9921 50.896 75.3708 50.9227 75.7548 50.976C76.1495 51.0293 76.4961 51.1147 76.7948 51.232V50.704C76.7948 50.1173 76.6188 49.6587 76.2668 49.328C75.9148 48.9973 75.4081 48.832 74.7468 48.832C74.2775 48.832 73.8348 48.9173 73.4188 49.088C73.0028 49.248 72.5601 49.4773 72.0908 49.776L71.4988 48.592C72.0535 48.2187 72.6081 47.9413 73.1628 47.76C73.7281 47.5787 74.3201 47.488 74.9388 47.488C76.0588 47.488 76.9388 47.7867 77.5788 48.384C78.2295 48.9707 78.5548 49.808 78.5548 50.896V54.016C78.5548 54.2187 78.5868 54.3627 78.6508 54.448C78.7255 54.5333 78.8481 54.5813 79.0188 54.592V56C78.8588 56.032 78.7148 56.0533 78.5868 56.064C78.4588 56.0747 78.3521 56.08 78.2668 56.08C77.8935 56.08 77.6108 55.9893 77.4188 55.808C77.2268 55.6267 77.1148 55.4133 77.0828 55.168L77.0348 54.688C76.6721 55.1573 76.2081 55.52 75.6428 55.776C75.0775 56.032 74.5068 56.16 73.9308 56.16C73.3761 56.16 72.8801 56.048 72.4428 55.824C72.0055 55.5893 71.6641 55.2747 71.4188 54.88C71.1735 54.4853 71.0508 54.0427 71.0508 53.552ZM76.3788 54.064C76.5068 53.9253 76.6081 53.7867 76.6828 53.648C76.7575 53.5093 76.7948 53.3867 76.7948 53.28V52.32C76.4961 52.2027 76.1815 52.1173 75.8508 52.064C75.5201 52 75.1948 51.968 74.8748 51.968C74.2348 51.968 73.7121 52.096 73.3068 52.352C72.9121 52.608 72.7148 52.96 72.7148 53.408C72.7148 53.6533 72.7788 53.888 72.9068 54.112C73.0455 54.336 73.2375 54.5173 73.4828 54.656C73.7388 54.7947 74.0535 54.864 74.4268 54.864C74.8108 54.864 75.1788 54.7893 75.5308 54.64C75.8828 54.4907 76.1655 54.2987 76.3788 54.064ZM85.1541 49.152C84.4714 49.1627 83.8634 49.3173 83.3301 49.616C82.8074 49.9147 82.4341 50.336 82.2101 50.88V56H80.4501V47.632H82.0821V49.504C82.3701 48.928 82.7487 48.4693 83.2181 48.128C83.6874 47.776 84.1834 47.584 84.7061 47.552C84.8127 47.552 84.8981 47.552 84.9621 47.552C85.0367 47.552 85.1007 47.5573 85.1541 47.568V49.152ZM98.9944 56H97.2344V51.312C97.2344 50.5333 97.1064 49.9627 96.8504 49.6C96.5944 49.2373 96.2211 49.056 95.7304 49.056C95.2398 49.056 94.7811 49.2427 94.3544 49.616C93.9384 49.9787 93.6451 50.4533 93.4744 51.04V56H91.7144V51.312C91.7144 50.5333 91.5864 49.9627 91.3304 49.6C91.0744 49.2373 90.7064 49.056 90.2264 49.056C89.7358 49.056 89.2771 49.2373 88.8504 49.6C88.4344 49.9627 88.1358 50.4373 87.9544 51.024V56H86.1944V47.632H87.7944V49.312C88.1251 48.7253 88.5571 48.2773 89.0904 47.968C89.6344 47.648 90.2531 47.488 90.9464 47.488C91.6398 47.488 92.1838 47.6693 92.5784 48.032C92.9838 48.3947 93.2344 48.848 93.3304 49.392C93.6931 48.7733 94.1358 48.304 94.6584 47.984C95.1918 47.6533 95.7998 47.488 96.4824 47.488C96.9731 47.488 97.3838 47.5787 97.7144 47.76C98.0451 47.9413 98.3011 48.192 98.4824 48.512C98.6638 48.8213 98.7918 49.184 98.8664 49.6C98.9518 50.0053 98.9944 50.4373 98.9944 50.896V56ZM104.72 56V44.64H109.664C110.176 44.64 110.645 44.7467 111.072 44.96C111.498 45.1733 111.866 45.456 112.176 45.808C112.496 46.16 112.741 46.5547 112.912 46.992C113.093 47.4293 113.184 47.8773 113.184 48.336C113.184 48.8373 113.093 49.3173 112.912 49.776C112.73 50.2347 112.469 50.6293 112.128 50.96C111.797 51.2907 111.408 51.5307 110.96 51.68L113.632 56H111.616L109.152 52.048H106.512V56H104.72ZM106.512 50.464H109.648C109.978 50.464 110.272 50.368 110.528 50.176C110.784 49.984 110.986 49.728 111.136 49.408C111.285 49.0773 111.36 48.72 111.36 48.336C111.36 47.9413 111.274 47.5893 111.104 47.28C110.933 46.96 110.709 46.704 110.432 46.512C110.165 46.32 109.872 46.224 109.552 46.224H106.512V50.464ZM118.36 56.16C117.71 56.16 117.118 56.048 116.584 55.824C116.062 55.5893 115.608 55.2747 115.224 54.88C114.84 54.4747 114.542 54.016 114.328 53.504C114.126 52.9813 114.024 52.4267 114.024 51.84C114.024 51.0507 114.206 50.3307 114.568 49.68C114.931 49.0187 115.438 48.4907 116.088 48.096C116.739 47.6907 117.502 47.488 118.376 47.488C119.251 47.488 120.003 47.6907 120.632 48.096C121.272 48.4907 121.768 49.0133 122.12 49.664C122.472 50.3147 122.648 51.0133 122.648 51.76C122.648 51.888 122.643 52.0107 122.632 52.128C122.622 52.2347 122.611 52.3253 122.6 52.4H115.896C115.928 52.8907 116.062 53.3227 116.296 53.696C116.542 54.0587 116.851 54.3467 117.224 54.56C117.598 54.7627 117.998 54.864 118.424 54.864C118.894 54.864 119.336 54.7467 119.752 54.512C120.179 54.2773 120.467 53.968 120.616 53.584L122.12 54.016C121.939 54.4213 121.662 54.7893 121.288 55.12C120.926 55.44 120.494 55.696 119.992 55.888C119.491 56.0693 118.947 56.16 118.36 56.16ZM115.848 51.232H120.904C120.872 50.752 120.734 50.3307 120.488 49.968C120.254 49.5947 119.95 49.3067 119.576 49.104C119.214 48.8907 118.808 48.784 118.36 48.784C117.923 48.784 117.518 48.8907 117.144 49.104C116.782 49.3067 116.483 49.5947 116.248 49.968C116.014 50.3307 115.88 50.752 115.848 51.232ZM126.82 56.16C126.116 56.16 125.449 56.048 124.82 55.824C124.19 55.5893 123.652 55.2427 123.204 54.784L123.86 53.6C124.34 54.0267 124.82 54.336 125.3 54.528C125.79 54.72 126.276 54.816 126.756 54.816C127.246 54.816 127.646 54.7253 127.956 54.544C128.265 54.352 128.42 54.0747 128.42 53.712C128.42 53.4453 128.34 53.248 128.18 53.12C128.02 52.992 127.785 52.88 127.476 52.784C127.177 52.688 126.814 52.5813 126.388 52.464C125.79 52.2827 125.289 52.096 124.884 51.904C124.478 51.7013 124.174 51.456 123.972 51.168C123.769 50.88 123.668 50.512 123.668 50.064C123.668 49.52 123.806 49.056 124.084 48.672C124.361 48.288 124.745 47.9947 125.236 47.792C125.737 47.5893 126.313 47.488 126.964 47.488C127.572 47.488 128.132 47.584 128.644 47.776C129.166 47.9573 129.625 48.2453 130.02 48.64L129.268 49.808C128.894 49.4667 128.51 49.216 128.116 49.056C127.732 48.896 127.316 48.816 126.868 48.816C126.612 48.816 126.366 48.848 126.132 48.912C125.897 48.9653 125.7 49.072 125.54 49.232C125.39 49.3813 125.316 49.5947 125.316 49.872C125.316 50.096 125.38 50.2773 125.508 50.416C125.636 50.5547 125.828 50.672 126.084 50.768C126.34 50.864 126.654 50.9707 127.028 51.088C127.678 51.28 128.233 51.472 128.692 51.664C129.15 51.8453 129.502 52.0853 129.748 52.384C130.004 52.672 130.132 53.072 130.132 53.584C130.132 54.3947 129.828 55.0293 129.22 55.488C128.622 55.936 127.822 56.16 126.82 56.16ZM136.104 55.568C135.954 55.6427 135.768 55.7227 135.544 55.808C135.32 55.8933 135.064 55.968 134.776 56.032C134.498 56.096 134.21 56.128 133.912 56.128C133.549 56.128 133.213 56.064 132.904 55.936C132.594 55.808 132.344 55.6053 132.152 55.328C131.97 55.04 131.88 54.672 131.88 54.224V48.992H130.776V47.632H131.88V44.88H133.64V47.632H135.464V48.992H133.64V53.664C133.661 53.952 133.752 54.1653 133.912 54.304C134.082 54.4427 134.29 54.512 134.536 54.512C134.781 54.512 135.016 54.4693 135.24 54.384C135.464 54.2987 135.629 54.2293 135.736 54.176L136.104 55.568ZM136.475 53.552C136.475 53.0187 136.624 52.5547 136.923 52.16C137.232 51.7547 137.653 51.4453 138.187 51.232C138.72 51.008 139.339 50.896 140.043 50.896C140.416 50.896 140.795 50.9227 141.179 50.976C141.573 51.0293 141.92 51.1147 142.219 51.232V50.704C142.219 50.1173 142.043 49.6587 141.691 49.328C141.339 48.9973 140.832 48.832 140.171 48.832C139.701 48.832 139.259 48.9173 138.843 49.088C138.427 49.248 137.984 49.4773 137.515 49.776L136.923 48.592C137.477 48.2187 138.032 47.9413 138.587 47.76C139.152 47.5787 139.744 47.488 140.363 47.488C141.483 47.488 142.363 47.7867 143.003 48.384C143.653 48.9707 143.979 49.808 143.979 50.896V54.016C143.979 54.2187 144.011 54.3627 144.075 54.448C144.149 54.5333 144.272 54.5813 144.443 54.592V56C144.283 56.032 144.139 56.0533 144.011 56.064C143.883 56.0747 143.776 56.08 143.691 56.08C143.317 56.08 143.035 55.9893 142.843 55.808C142.651 55.6267 142.539 55.4133 142.507 55.168L142.459 54.688C142.096 55.1573 141.632 55.52 141.067 55.776C140.501 56.032 139.931 56.16 139.355 56.16C138.8 56.16 138.304 56.048 137.867 55.824C137.429 55.5893 137.088 55.2747 136.843 54.88C136.597 54.4853 136.475 54.0427 136.475 53.552ZM141.803 54.064C141.931 53.9253 142.032 53.7867 142.107 53.648C142.181 53.5093 142.219 53.3867 142.219 53.28V52.32C141.92 52.2027 141.605 52.1173 141.275 52.064C140.944 52 140.619 51.968 140.299 51.968C139.659 51.968 139.136 52.096 138.731 52.352C138.336 52.608 138.139 52.96 138.139 53.408C138.139 53.6533 138.203 53.888 138.331 54.112C138.469 54.336 138.661 54.5173 138.907 54.656C139.163 54.7947 139.477 54.864 139.851 54.864C140.235 54.864 140.603 54.7893 140.955 54.64C141.307 54.4907 141.589 54.2987 141.803 54.064ZM145.794 52.752V47.632H147.554V52.4C147.554 53.1467 147.687 53.712 147.954 54.096C148.231 54.4693 148.631 54.656 149.154 54.656C149.484 54.656 149.804 54.5867 150.114 54.448C150.434 54.3093 150.722 54.1067 150.978 53.84C151.244 53.5627 151.458 53.232 151.618 52.848V47.632H153.378V54.016C153.378 54.2187 153.415 54.3627 153.49 54.448C153.564 54.5333 153.687 54.5813 153.858 54.592V56C153.676 56.032 153.527 56.0533 153.41 56.064C153.292 56.0747 153.18 56.08 153.074 56.08C152.754 56.08 152.487 55.9947 152.274 55.824C152.06 55.6427 151.938 55.4133 151.906 55.136L151.874 54.304C151.5 54.912 151.015 55.376 150.418 55.696C149.82 56.0053 149.164 56.16 148.45 56.16C147.575 56.16 146.914 55.872 146.466 55.296C146.018 54.72 145.794 53.872 145.794 52.752ZM160.088 49.152C159.405 49.1627 158.797 49.3173 158.264 49.616C157.741 49.9147 157.368 50.336 157.144 50.88V56H155.384V47.632H157.016V49.504C157.304 48.928 157.682 48.4693 158.152 48.128C158.621 47.776 159.117 47.584 159.64 47.552C159.746 47.552 159.832 47.552 159.896 47.552C159.97 47.552 160.034 47.5573 160.088 47.568V49.152ZM160.505 53.552C160.505 53.0187 160.654 52.5547 160.953 52.16C161.262 51.7547 161.683 51.4453 162.217 51.232C162.75 51.008 163.369 50.896 164.073 50.896C164.446 50.896 164.825 50.9227 165.209 50.976C165.603 51.0293 165.95 51.1147 166.249 51.232V50.704C166.249 50.1173 166.073 49.6587 165.721 49.328C165.369 48.9973 164.862 48.832 164.201 48.832C163.731 48.832 163.289 48.9173 162.873 49.088C162.457 49.248 162.014 49.4773 161.545 49.776L160.953 48.592C161.507 48.2187 162.062 47.9413 162.617 47.76C163.182 47.5787 163.774 47.488 164.393 47.488C165.513 47.488 166.393 47.7867 167.033 48.384C167.683 48.9707 168.009 49.808 168.009 50.896V54.016C168.009 54.2187 168.041 54.3627 168.105 54.448C168.179 54.5333 168.302 54.5813 168.473 54.592V56C168.313 56.032 168.169 56.0533 168.041 56.064C167.913 56.0747 167.806 56.08 167.721 56.08C167.347 56.08 167.065 55.9893 166.873 55.808C166.681 55.6267 166.569 55.4133 166.537 55.168L166.489 54.688C166.126 55.1573 165.662 55.52 165.097 55.776C164.531 56.032 163.961 56.16 163.385 56.16C162.83 56.16 162.334 56.048 161.897 55.824C161.459 55.5893 161.118 55.2747 160.873 54.88C160.627 54.4853 160.505 54.0427 160.505 53.552ZM165.833 54.064C165.961 53.9253 166.062 53.7867 166.137 53.648C166.211 53.5093 166.249 53.3867 166.249 53.28V52.32C165.95 52.2027 165.635 52.1173 165.305 52.064C164.974 52 164.649 51.968 164.329 51.968C163.689 51.968 163.166 52.096 162.761 52.352C162.366 52.608 162.169 52.96 162.169 53.408C162.169 53.6533 162.233 53.888 162.361 54.112C162.499 54.336 162.691 54.5173 162.937 54.656C163.193 54.7947 163.507 54.864 163.881 54.864C164.265 54.864 164.633 54.7893 164.985 54.64C165.337 54.4907 165.619 54.2987 165.833 54.064ZM177.408 56H175.648V51.312C175.648 50.5333 175.52 49.9627 175.264 49.6C175.018 49.2373 174.65 49.056 174.16 49.056C173.818 49.056 173.477 49.1413 173.136 49.312C172.805 49.4827 172.506 49.7173 172.24 50.016C171.973 50.304 171.781 50.64 171.664 51.024V56H169.904V47.632H171.504V49.312C171.717 48.9387 171.994 48.6187 172.336 48.352C172.688 48.0747 173.082 47.8613 173.52 47.712C173.957 47.5627 174.421 47.488 174.912 47.488C175.413 47.488 175.824 47.5787 176.144 47.76C176.474 47.9413 176.73 48.192 176.912 48.512C177.104 48.8213 177.232 49.184 177.296 49.6C177.37 50.0053 177.408 50.4373 177.408 50.896V56ZM183.804 55.568C183.655 55.6427 183.468 55.7227 183.244 55.808C183.02 55.8933 182.764 55.968 182.476 56.032C182.199 56.096 181.911 56.128 181.612 56.128C181.25 56.128 180.914 56.064 180.604 55.936C180.295 55.808 180.044 55.6053 179.852 55.328C179.671 55.04 179.58 54.672 179.58 54.224V48.992H178.476V47.632H179.58V44.88H181.34V47.632H183.164V48.992H181.34V53.664C181.362 53.952 181.452 54.1653 181.612 54.304C181.783 54.4427 181.991 54.512 182.236 54.512C182.482 54.512 182.716 54.4693 182.94 54.384C183.164 54.2987 183.33 54.2293 183.436 54.176L183.804 55.568Z" fill="#1E1E1E"/>
<path d="M19.7196 81.48H20.4276L23.9676 90H23.0796L21.9756 87.336H18.1476L17.0556 90H16.1556L19.7196 81.48ZM21.7836 86.676L20.0676 82.464L18.3276 86.676H21.7836ZM30.1767 82.224H27.1407V90H26.3007V82.224H23.2647V81.48H30.1767V82.224ZM37.2609 82.224H34.2249V90H33.3849V82.224H30.3489V81.48H37.2609V82.224ZM44.0211 89.256V90H38.2971V81.48H43.9131V82.224H39.1371V85.296H43.3011V86.004H39.1371V89.256H44.0211ZM46.2096 83.028V90H45.3696V81.48H46.0656L51.6576 88.584V81.492H52.4976V90H51.7176L46.2096 83.028ZM54.3992 90V81.48H57.2912C58.1952 81.48 58.9472 81.672 59.5472 82.056C60.1552 82.432 60.6112 82.944 60.9152 83.592C61.2192 84.232 61.3712 84.944 61.3712 85.728C61.3712 86.592 61.2032 87.344 60.8672 87.984C60.5392 88.624 60.0672 89.12 59.4512 89.472C58.8432 89.824 58.1232 90 57.2912 90H54.3992ZM60.5312 85.728C60.5312 85.048 60.4032 84.444 60.1472 83.916C59.8992 83.388 59.5352 82.976 59.0552 82.68C58.5752 82.376 57.9872 82.224 57.2912 82.224H55.2392V89.256H57.2912C57.9952 89.256 58.5872 89.1 59.0672 88.788C59.5472 88.476 59.9112 88.056 60.1592 87.528C60.4072 86.992 60.5312 86.392 60.5312 85.728ZM65.0726 81.48H65.7806L69.3206 90H68.4326L67.3286 87.336H63.5006L62.4086 90H61.5086L65.0726 81.48ZM67.1366 86.676L65.4206 82.464L63.6806 86.676H67.1366ZM71.142 83.028V90H70.302V81.48H70.998L76.59 88.584V81.492H77.43V90H76.65L71.142 83.028ZM85.3795 82.224H82.3435V90H81.5035V82.224H78.4675V81.48H85.3795V82.224ZM85.5066 84.96V83.784H86.2026V84.96H85.5066ZM85.5066 90V88.824H86.2026V90H85.5066Z" fill="#727272"/>
<path d="M21.0091 104.64H22.7051L27.1211 116H25.2331L24.0331 112.912H19.6491L18.4651 116H16.5611L21.0091 104.64ZM23.6811 111.584L21.8571 106.608L19.9691 111.584H23.6811ZM35.5659 116H33.8059V111.312C33.8059 110.533 33.6779 109.963 33.4219 109.6C33.1766 109.237 32.8086 109.056 32.3179 109.056C31.9766 109.056 31.6353 109.141 31.2939 109.312C30.9633 109.483 30.6646 109.717 30.3979 110.016C30.1313 110.304 29.9393 110.64 29.8219 111.024V116H28.0619V107.632H29.6619V109.312C29.8753 108.939 30.1526 108.619 30.4939 108.352C30.8459 108.075 31.2406 107.861 31.6779 107.712C32.1153 107.563 32.5793 107.488 33.0699 107.488C33.5713 107.488 33.9819 107.579 34.3019 107.76C34.6326 107.941 34.8886 108.192 35.0699 108.512C35.2619 108.821 35.3899 109.184 35.4539 109.6C35.5286 110.005 35.5659 110.437 35.5659 110.896V116ZM37.2888 112.752V107.632H39.0488V112.4C39.0488 113.147 39.1822 113.712 39.4488 114.096C39.7262 114.469 40.1262 114.656 40.6488 114.656C40.9795 114.656 41.2995 114.587 41.6088 114.448C41.9288 114.309 42.2168 114.107 42.4728 113.84C42.7395 113.563 42.9528 113.232 43.1128 112.848V107.632H44.8728V114.016C44.8728 114.219 44.9102 114.363 44.9848 114.448C45.0595 114.533 45.1822 114.581 45.3528 114.592V116C45.1715 116.032 45.0222 116.053 44.9048 116.064C44.7875 116.075 44.6755 116.08 44.5688 116.08C44.2488 116.08 43.9822 115.995 43.7688 115.824C43.5555 115.643 43.4328 115.413 43.4008 115.136L43.3688 114.304C42.9955 114.912 42.5102 115.376 41.9128 115.696C41.3155 116.005 40.6595 116.16 39.9448 116.16C39.0702 116.16 38.4088 115.872 37.9608 115.296C37.5128 114.72 37.2888 113.872 37.2888 112.752ZM50.6388 116.16C49.9775 116.16 49.3855 116.048 48.8628 115.824C48.3402 115.589 47.8868 115.269 47.5028 114.864C47.1295 114.459 46.8415 114 46.6388 113.488C46.4362 112.965 46.3348 112.411 46.3348 111.824C46.3348 111.237 46.4362 110.683 46.6388 110.16C46.8415 109.637 47.1295 109.179 47.5028 108.784C47.8868 108.379 48.3402 108.064 48.8628 107.84C49.3962 107.605 49.9882 107.488 50.6388 107.488C51.2895 107.488 51.8762 107.605 52.3988 107.84C52.9322 108.064 53.3855 108.379 53.7588 108.784C54.1428 109.179 54.4362 109.637 54.6388 110.16C54.8415 110.683 54.9428 111.237 54.9428 111.824C54.9428 112.411 54.8415 112.965 54.6388 113.488C54.4362 114 54.1428 114.459 53.7588 114.864C53.3855 115.269 52.9322 115.589 52.3988 115.824C51.8762 116.048 51.2895 116.16 50.6388 116.16ZM48.1428 111.84C48.1428 112.373 48.2548 112.853 48.4788 113.28C48.7028 113.707 49.0015 114.043 49.3748 114.288C49.7482 114.533 50.1695 114.656 50.6388 114.656C51.0975 114.656 51.5135 114.533 51.8868 114.288C52.2708 114.032 52.5748 113.691 52.7988 113.264C53.0228 112.827 53.1348 112.347 53.1348 111.824C53.1348 111.291 53.0228 110.811 52.7988 110.384C52.5748 109.957 52.2708 109.621 51.8868 109.376C51.5135 109.12 51.0975 108.992 50.6388 108.992C50.1695 108.992 49.7482 109.12 49.3748 109.376C49.0015 109.632 48.7028 109.973 48.4788 110.4C48.2548 110.816 48.1428 111.296 48.1428 111.84ZM56.2798 104.32H58.0398V113.584C58.0398 114.011 58.1038 114.283 58.2318 114.4C58.3598 114.517 58.5198 114.576 58.7118 114.576C58.9252 114.576 59.1225 114.555 59.3038 114.512C59.4958 114.469 59.6612 114.416 59.7998 114.352L60.0558 115.744C59.7998 115.851 59.4958 115.941 59.1438 116.016C58.7918 116.091 58.4772 116.128 58.1998 116.128C57.6025 116.128 57.1332 115.963 56.7918 115.632C56.4505 115.291 56.2798 114.821 56.2798 114.224V104.32ZM60.7563 112.752V107.632H62.5163V112.4C62.5163 113.147 62.6496 113.712 62.9163 114.096C63.1936 114.469 63.5936 114.656 64.1163 114.656C64.447 114.656 64.767 114.587 65.0763 114.448C65.3963 114.309 65.6843 114.107 65.9403 113.84C66.207 113.563 66.4203 113.232 66.5803 112.848V107.632H68.3403V114.016C68.3403 114.219 68.3776 114.363 68.4523 114.448C68.527 114.533 68.6496 114.581 68.8203 114.592V116C68.639 116.032 68.4896 116.053 68.3723 116.064C68.255 116.075 68.143 116.08 68.0363 116.08C67.7163 116.08 67.4496 115.995 67.2363 115.824C67.023 115.643 66.9003 115.413 66.8683 115.136L66.8363 114.304C66.463 114.912 65.9776 115.376 65.3803 115.696C64.783 116.005 64.127 116.16 63.4123 116.16C62.5376 116.16 61.8763 115.872 61.4283 115.296C60.9803 114.72 60.7563 113.872 60.7563 112.752ZM80.7627 107.632H82.4427L78.9227 116H77.4187L75.9147 112.224L74.4107 116H72.9067L69.3707 107.632H71.0507L73.7387 114.288L74.9227 111.2L73.4827 107.648H74.9707L75.9147 110.256L76.8427 107.648H78.3307L76.9067 111.2L78.0907 114.288L80.7627 107.632ZM82.5608 113.552C82.5608 113.019 82.7101 112.555 83.0088 112.16C83.3181 111.755 83.7395 111.445 84.2728 111.232C84.8061 111.008 85.4248 110.896 86.1288 110.896C86.5021 110.896 86.8808 110.923 87.2648 110.976C87.6595 111.029 88.0061 111.115 88.3048 111.232V110.704C88.3048 110.117 88.1288 109.659 87.7768 109.328C87.4248 108.997 86.9181 108.832 86.2568 108.832C85.7875 108.832 85.3448 108.917 84.9288 109.088C84.5128 109.248 84.0701 109.477 83.6008 109.776L83.0088 108.592C83.5635 108.219 84.1181 107.941 84.6728 107.76C85.2381 107.579 85.8301 107.488 86.4488 107.488C87.5688 107.488 88.4488 107.787 89.0888 108.384C89.7395 108.971 90.0648 109.808 90.0648 110.896V114.016C90.0648 114.219 90.0968 114.363 90.1608 114.448C90.2355 114.533 90.3581 114.581 90.5288 114.592V116C90.3688 116.032 90.2248 116.053 90.0968 116.064C89.9688 116.075 89.8621 116.08 89.7768 116.08C89.4035 116.08 89.1208 115.989 88.9288 115.808C88.7368 115.627 88.6248 115.413 88.5928 115.168L88.5448 114.688C88.1821 115.157 87.7181 115.52 87.1528 115.776C86.5875 116.032 86.0168 116.16 85.4408 116.16C84.8861 116.16 84.3901 116.048 83.9528 115.824C83.5155 115.589 83.1741 115.275 82.9288 114.88C82.6835 114.485 82.5608 114.043 82.5608 113.552ZM87.8888 114.064C88.0168 113.925 88.1181 113.787 88.1928 113.648C88.2675 113.509 88.3048 113.387 88.3048 113.28V112.32C88.0061 112.203 87.6915 112.117 87.3608 112.064C87.0301 112 86.7048 111.968 86.3848 111.968C85.7448 111.968 85.2221 112.096 84.8168 112.352C84.4221 112.608 84.2248 112.96 84.2248 113.408C84.2248 113.653 84.2888 113.888 84.4168 114.112C84.5555 114.336 84.7475 114.517 84.9928 114.656C85.2488 114.795 85.5635 114.864 85.9368 114.864C86.3208 114.864 86.6888 114.789 87.0408 114.64C87.3928 114.491 87.6755 114.299 87.8888 114.064ZM96.7121 116.16C96.0401 116.16 95.4481 116 94.9361 115.68C94.4241 115.36 94.0187 114.944 93.7201 114.432V119.408H91.9601V107.632H93.5121V109.136C93.8321 108.635 94.2481 108.235 94.7601 107.936C95.2721 107.637 95.8427 107.488 96.4721 107.488C97.0481 107.488 97.5761 107.605 98.0561 107.84C98.5361 108.064 98.9521 108.379 99.3041 108.784C99.6561 109.189 99.9281 109.653 100.12 110.176C100.323 110.688 100.424 111.232 100.424 111.808C100.424 112.608 100.264 113.339 99.9441 114C99.6347 114.661 99.1974 115.189 98.6321 115.584C98.0774 115.968 97.4374 116.16 96.7121 116.16ZM96.1361 114.656C96.5094 114.656 96.8454 114.576 97.1441 114.416C97.4534 114.256 97.7147 114.043 97.9281 113.776C98.1521 113.509 98.3227 113.205 98.4401 112.864C98.5574 112.523 98.6161 112.171 98.6161 111.808C98.6161 111.424 98.5521 111.061 98.4241 110.72C98.2961 110.379 98.1094 110.08 97.8641 109.824C97.6294 109.568 97.3521 109.365 97.0321 109.216C96.7227 109.067 96.3814 108.992 96.0081 108.992C95.7841 108.992 95.5494 109.035 95.3041 109.12C95.0587 109.205 94.8294 109.323 94.6161 109.472C94.4027 109.621 94.2161 109.797 94.0561 110C93.8961 110.203 93.7841 110.416 93.7201 110.64V112.832C93.8694 113.173 94.0667 113.483 94.3121 113.76C94.5574 114.027 94.8401 114.245 95.1601 114.416C95.4801 114.576 95.8054 114.656 96.1361 114.656ZM105.527 116.16C104.866 116.16 104.274 116.048 103.751 115.824C103.228 115.589 102.775 115.269 102.391 114.864C102.018 114.459 101.73 114 101.527 113.488C101.324 112.965 101.223 112.411 101.223 111.824C101.223 111.237 101.324 110.683 101.527 110.16C101.73 109.637 102.018 109.179 102.391 108.784C102.775 108.379 103.228 108.064 103.751 107.84C104.284 107.605 104.876 107.488 105.527 107.488C106.178 107.488 106.764 107.605 107.287 107.84C107.82 108.064 108.274 108.379 108.647 108.784C109.031 109.179 109.324 109.637 109.527 110.16C109.73 110.683 109.831 111.237 109.831 111.824C109.831 112.411 109.73 112.965 109.527 113.488C109.324 114 109.031 114.459 108.647 114.864C108.274 115.269 107.82 115.589 107.287 115.824C106.764 116.048 106.178 116.16 105.527 116.16ZM103.031 111.84C103.031 112.373 103.143 112.853 103.367 113.28C103.591 113.707 103.89 114.043 104.263 114.288C104.636 114.533 105.058 114.656 105.527 114.656C105.986 114.656 106.402 114.533 106.775 114.288C107.159 114.032 107.463 113.691 107.687 113.264C107.911 112.827 108.023 112.347 108.023 111.824C108.023 111.291 107.911 110.811 107.687 110.384C107.463 109.957 107.159 109.621 106.775 109.376C106.402 109.12 105.986 108.992 105.527 108.992C105.058 108.992 104.636 109.12 104.263 109.376C103.89 109.632 103.591 109.973 103.367 110.4C103.143 110.816 103.031 111.296 103.031 111.84ZM122.881 114.416V116H115.089V104.64H122.737V106.224H116.881V109.456H121.953V110.944H116.881V114.416H122.881ZM128.778 116.16C128.138 116.16 127.556 116.011 127.034 115.712C126.522 115.403 126.116 114.992 125.818 114.48V116H124.266V104.32H126.026V109.216C126.356 108.683 126.767 108.261 127.258 107.952C127.759 107.643 128.346 107.488 129.018 107.488C129.572 107.488 130.079 107.605 130.538 107.84C130.996 108.075 131.386 108.395 131.706 108.8C132.036 109.205 132.287 109.669 132.458 110.192C132.639 110.715 132.73 111.269 132.73 111.856C132.73 112.443 132.628 112.997 132.426 113.52C132.234 114.043 131.956 114.501 131.594 114.896C131.231 115.291 130.81 115.6 130.33 115.824C129.86 116.048 129.343 116.16 128.778 116.16ZM128.314 114.656C128.698 114.656 129.05 114.581 129.37 114.432C129.69 114.272 129.967 114.064 130.202 113.808C130.436 113.552 130.612 113.253 130.73 112.912C130.858 112.571 130.922 112.219 130.922 111.856C130.922 111.355 130.815 110.885 130.602 110.448C130.399 110.011 130.111 109.659 129.738 109.392C129.364 109.125 128.932 108.992 128.442 108.992C128.09 108.992 127.759 109.077 127.45 109.248C127.14 109.408 126.863 109.627 126.618 109.904C126.383 110.171 126.186 110.469 126.026 110.8V113.008C126.09 113.253 126.202 113.477 126.362 113.68C126.522 113.872 126.708 114.043 126.922 114.192C127.135 114.331 127.364 114.443 127.61 114.528C127.855 114.613 128.09 114.656 128.314 114.656ZM137.865 116.16C137.214 116.16 136.622 116.048 136.089 115.824C135.566 115.589 135.113 115.275 134.729 114.88C134.345 114.475 134.046 114.016 133.833 113.504C133.63 112.981 133.529 112.427 133.529 111.84C133.529 111.051 133.71 110.331 134.073 109.68C134.435 109.019 134.942 108.491 135.593 108.096C136.243 107.691 137.006 107.488 137.881 107.488C138.755 107.488 139.507 107.691 140.137 108.096C140.777 108.491 141.273 109.013 141.625 109.664C141.977 110.315 142.153 111.013 142.153 111.76C142.153 111.888 142.147 112.011 142.137 112.128C142.126 112.235 142.115 112.325 142.105 112.4H135.401C135.433 112.891 135.566 113.323 135.801 113.696C136.046 114.059 136.355 114.347 136.729 114.56C137.102 114.763 137.502 114.864 137.929 114.864C138.398 114.864 138.841 114.747 139.257 114.512C139.683 114.277 139.971 113.968 140.121 113.584L141.625 114.016C141.443 114.421 141.166 114.789 140.793 115.12C140.43 115.44 139.998 115.696 139.497 115.888C138.995 116.069 138.451 116.16 137.865 116.16ZM135.353 111.232H140.409C140.377 110.752 140.238 110.331 139.993 109.968C139.758 109.595 139.454 109.307 139.081 109.104C138.718 108.891 138.313 108.784 137.865 108.784C137.427 108.784 137.022 108.891 136.649 109.104C136.286 109.307 135.987 109.595 135.753 109.968C135.518 110.331 135.385 110.752 135.353 111.232ZM150.852 116H149.092V111.312C149.092 110.533 148.964 109.963 148.708 109.6C148.463 109.237 148.095 109.056 147.604 109.056C147.263 109.056 146.922 109.141 146.58 109.312C146.25 109.483 145.951 109.717 145.684 110.016C145.418 110.304 145.226 110.64 145.108 111.024V116H143.348V107.632H144.948V109.312C145.162 108.939 145.439 108.619 145.78 108.352C146.132 108.075 146.527 107.861 146.964 107.712C147.402 107.563 147.866 107.488 148.356 107.488C148.858 107.488 149.268 107.579 149.588 107.76C149.919 107.941 150.175 108.192 150.356 108.512C150.548 108.821 150.676 109.184 150.74 109.6C150.815 110.005 150.852 110.437 150.852 110.896V116ZM156.447 116.16C155.796 116.16 155.204 116.048 154.671 115.824C154.148 115.589 153.695 115.275 153.311 114.88C152.927 114.475 152.628 114.016 152.415 113.504C152.212 112.981 152.111 112.427 152.111 111.84C152.111 111.051 152.292 110.331 152.655 109.68C153.018 109.019 153.524 108.491 154.175 108.096C154.826 107.691 155.588 107.488 156.463 107.488C157.338 107.488 158.09 107.691 158.719 108.096C159.359 108.491 159.855 109.013 160.207 109.664C160.559 110.315 160.735 111.013 160.735 111.76C160.735 111.888 160.73 112.011 160.719 112.128C160.708 112.235 160.698 112.325 160.687 112.4H153.983C154.015 112.891 154.148 113.323 154.383 113.696C154.628 114.059 154.938 114.347 155.311 114.56C155.684 114.763 156.084 114.864 156.511 114.864C156.98 114.864 157.423 114.747 157.839 114.512C158.266 114.277 158.554 113.968 158.703 113.584L160.207 114.016C160.026 114.421 159.748 114.789 159.375 115.12C159.012 115.44 158.58 115.696 158.079 115.888C157.578 116.069 157.034 116.16 156.447 116.16ZM153.935 111.232H158.991C158.959 110.752 158.82 110.331 158.575 109.968C158.34 109.595 158.036 109.307 157.663 109.104C157.3 108.891 156.895 108.784 156.447 108.784C156.01 108.784 155.604 108.891 155.231 109.104C154.868 109.307 154.57 109.595 154.335 109.968C154.1 110.331 153.967 110.752 153.935 111.232ZM161.229 114.896L166.189 108.88H161.405V107.632H168.109V108.736L163.181 114.752H168.157V116H161.229V114.896ZM173.139 116.16C172.488 116.16 171.896 116.048 171.363 115.824C170.84 115.589 170.387 115.275 170.003 114.88C169.619 114.475 169.32 114.016 169.107 113.504C168.904 112.981 168.803 112.427 168.803 111.84C168.803 111.051 168.984 110.331 169.347 109.68C169.71 109.019 170.216 108.491 170.867 108.096C171.518 107.691 172.28 107.488 173.155 107.488C174.03 107.488 174.782 107.691 175.411 108.096C176.051 108.491 176.547 109.013 176.899 109.664C177.251 110.315 177.427 111.013 177.427 111.76C177.427 111.888 177.422 112.011 177.411 112.128C177.4 112.235 177.39 112.325 177.379 112.4H170.675C170.707 112.891 170.84 113.323 171.075 113.696C171.32 114.059 171.63 114.347 172.003 114.56C172.376 114.763 172.776 114.864 173.203 114.864C173.672 114.864 174.115 114.747 174.531 114.512C174.958 114.277 175.246 113.968 175.395 113.584L176.899 114.016C176.718 114.421 176.44 114.789 176.067 115.12C175.704 115.44 175.272 115.696 174.771 115.888C174.27 116.069 173.726 116.16 173.139 116.16ZM170.627 111.232H175.683C175.651 110.752 175.512 110.331 175.267 109.968C175.032 109.595 174.728 109.307 174.355 109.104C173.992 108.891 173.587 108.784 173.139 108.784C172.702 108.784 172.296 108.891 171.923 109.104C171.56 109.307 171.262 109.595 171.027 109.968C170.792 110.331 170.659 110.752 170.627 111.232ZM183.327 109.152C182.644 109.163 182.036 109.317 181.503 109.616C180.98 109.915 180.607 110.336 180.383 110.88V116H178.623V107.632H180.255V109.504C180.543 108.928 180.921 108.469 181.391 108.128C181.86 107.776 182.356 107.584 182.879 107.552C182.985 107.552 183.071 107.552 183.135 107.552C183.209 107.552 183.273 107.557 183.327 107.568V109.152Z" fill="#1E1E1E"/>
<path d="M20.1237 141.48H20.8317L24.3717 150H23.4837L22.3797 147.336H18.5517L17.4597 150H16.5597L20.1237 141.48ZM22.1877 146.676L20.4717 142.464L18.7317 146.676H22.1877ZM32.9011 150V143.064L29.8171 148.452H29.2891L26.1931 143.064V150H25.3531V141.48H26.2171L29.5411 147.312L32.8891 141.48H33.7411V150H32.9011ZM39.0685 150.06C38.4685 150.06 37.9245 149.94 37.4365 149.7C36.9485 149.46 36.5285 149.136 36.1765 148.728C35.8245 148.312 35.5525 147.848 35.3605 147.336C35.1685 146.816 35.0725 146.284 35.0725 145.74C35.0725 145.172 35.1725 144.632 35.3725 144.12C35.5725 143.6 35.8525 143.14 36.2125 142.74C36.5805 142.332 37.0085 142.012 37.4965 141.78C37.9845 141.54 38.5125 141.42 39.0805 141.42C39.6805 141.42 40.2245 141.544 40.7125 141.792C41.2005 142.04 41.6165 142.372 41.9605 142.788C42.3125 143.204 42.5845 143.668 42.7765 144.18C42.9685 144.692 43.0645 145.216 43.0645 145.752C43.0645 146.32 42.9645 146.864 42.7645 147.384C42.5645 147.896 42.2845 148.356 41.9245 148.764C41.5645 149.164 41.1405 149.48 40.6525 149.712C40.1645 149.944 39.6365 150.06 39.0685 150.06ZM35.9125 145.74C35.9125 146.204 35.9885 146.652 36.1405 147.084C36.2925 147.508 36.5085 147.888 36.7885 148.224C37.0685 148.552 37.4005 148.816 37.7845 149.016C38.1765 149.208 38.6045 149.304 39.0685 149.304C39.5565 149.304 39.9925 149.204 40.3765 149.004C40.7685 148.796 41.1005 148.524 41.3725 148.188C41.6525 147.844 41.8645 147.46 42.0085 147.036C42.1525 146.612 42.2245 146.18 42.2245 145.74C42.2245 145.276 42.1485 144.832 41.9965 144.408C41.8445 143.984 41.6245 143.604 41.3365 143.268C41.0565 142.932 40.7245 142.668 40.3405 142.476C39.9565 142.284 39.5325 142.188 39.0685 142.188C38.5885 142.188 38.1525 142.288 37.7605 142.488C37.3765 142.688 37.0445 142.96 36.7645 143.304C36.4925 143.64 36.2805 144.02 36.1285 144.444C35.9845 144.868 35.9125 145.3 35.9125 145.74ZM47.8762 150.06C47.2042 150.06 46.6362 149.94 46.1722 149.7C45.7082 149.46 45.3402 149.14 45.0682 148.74C44.7962 148.332 44.5962 147.872 44.4682 147.36C44.3482 146.848 44.2882 146.32 44.2882 145.776V141.48H45.1162V145.776C45.1162 146.216 45.1602 146.648 45.2482 147.072C45.3442 147.496 45.4962 147.876 45.7042 148.212C45.9122 148.548 46.1922 148.816 46.5442 149.016C46.8962 149.208 47.3362 149.304 47.8642 149.304C48.4082 149.304 48.8562 149.204 49.2082 149.004C49.5682 148.796 49.8482 148.524 50.0482 148.188C50.2562 147.852 50.4042 147.476 50.4922 147.06C50.5802 146.636 50.6242 146.208 50.6242 145.776V141.48H51.4642V145.776C51.4642 146.344 51.4002 146.888 51.2722 147.408C51.1442 147.928 50.9362 148.384 50.6482 148.776C50.3682 149.168 50.0002 149.48 49.5442 149.712C49.0882 149.944 48.5322 150.06 47.8762 150.06ZM54.0668 143.028V150H53.2268V141.48H53.9228L59.5148 148.584V141.492H60.3548V150H59.5748L54.0668 143.028ZM68.3044 142.224H65.2684V150H64.4284V142.224H61.3924V141.48H68.3044V142.224ZM71.8076 150V141.48H75.3356C75.7036 141.48 76.0396 141.556 76.3436 141.708C76.6556 141.86 76.9236 142.068 77.1476 142.332C77.3716 142.588 77.5476 142.876 77.6756 143.196C77.8036 143.508 77.8676 143.828 77.8676 144.156C77.8676 144.62 77.7636 145.06 77.5556 145.476C77.3556 145.884 77.0716 146.216 76.7036 146.472C76.3356 146.728 75.9036 146.856 75.4076 146.856H72.6476V150H71.8076ZM72.6476 146.112H75.3716C75.7076 146.112 75.9996 146.02 76.2476 145.836C76.4956 145.652 76.6876 145.412 76.8236 145.116C76.9596 144.82 77.0276 144.5 77.0276 144.156C77.0276 143.804 76.9476 143.48 76.7876 143.184C76.6276 142.888 76.4156 142.656 76.1516 142.488C75.8956 142.312 75.6116 142.224 75.2996 142.224H72.6476V146.112ZM81.0865 141.48H81.7945L85.3345 150H84.4465L83.3425 147.336H79.5145L78.4225 150H77.5225L81.0865 141.48ZM83.1505 146.676L81.4345 142.464L79.6945 146.676H83.1505ZM86.3159 150V141.48H87.1559V150H86.3159ZM89.0525 150V141.48H91.9445C92.8485 141.48 93.6005 141.672 94.2005 142.056C94.8085 142.432 95.2645 142.944 95.5685 143.592C95.8725 144.232 96.0245 144.944 96.0245 145.728C96.0245 146.592 95.8565 147.344 95.5205 147.984C95.1925 148.624 94.7205 149.12 94.1045 149.472C93.4965 149.824 92.7765 150 91.9445 150H89.0525ZM95.1845 145.728C95.1845 145.048 95.0565 144.444 94.8005 143.916C94.5525 143.388 94.1885 142.976 93.7085 142.68C93.2285 142.376 92.6405 142.224 91.9445 142.224H89.8925V149.256H91.9445C92.6485 149.256 93.2405 149.1 93.7205 148.788C94.2005 148.476 94.5645 148.056 94.8125 147.528C95.0605 146.992 95.1845 146.392 95.1845 145.728ZM97.1026 144.96V143.784H97.7986V144.96H97.1026ZM97.1026 150V148.824H97.7986V150H97.1026Z" fill="#727272"/>
<path d="M29.1181 172.176H16.6061V171.12H29.1181V172.176ZM29.1181 169.792H16.6061V168.72H29.1181V169.792ZM19.8381 167.968V176H18.0301V164.64H19.5021L25.9341 172.848V164.656H27.7421V176H26.1741L19.8381 167.968ZM30.1328 176C30.1328 175.552 30.1701 175.141 30.2448 174.768C30.3195 174.384 30.4475 174.021 30.6288 173.68C30.8208 173.339 31.0821 173.019 31.4128 172.72C31.7541 172.411 32.1861 172.117 32.7088 171.84C33.0821 171.627 33.4341 171.44 33.7648 171.28C34.0955 171.109 34.3888 170.944 34.6448 170.784C34.9008 170.613 35.0981 170.432 35.2368 170.24C35.3861 170.048 35.4608 169.829 35.4608 169.584C35.4608 169.349 35.3968 169.131 35.2688 168.928C35.1408 168.725 34.9488 168.565 34.6928 168.448C34.4368 168.32 34.1275 168.256 33.7648 168.256C33.4768 168.256 33.2101 168.293 32.9648 168.368C32.7301 168.443 32.5115 168.544 32.3088 168.672C32.1168 168.789 31.9408 168.923 31.7808 169.072C31.6208 169.211 31.4821 169.349 31.3648 169.488L30.2608 168.224C30.3675 168.096 30.5328 167.952 30.7568 167.792C30.9915 167.621 31.2688 167.456 31.5888 167.296C31.9195 167.125 32.2928 166.987 32.7088 166.88C33.1248 166.763 33.5781 166.704 34.0688 166.704C34.7621 166.704 35.3541 166.821 35.8448 167.056C36.3355 167.28 36.7088 167.595 36.9648 168C37.2315 168.395 37.3648 168.843 37.3648 169.344C37.3648 169.739 37.2848 170.085 37.1248 170.384C36.9755 170.683 36.7781 170.949 36.5328 171.184C36.2875 171.408 36.0261 171.605 35.7488 171.776C35.4821 171.936 35.2315 172.08 34.9968 172.208C34.5808 172.411 34.2181 172.597 33.9088 172.768C33.6101 172.939 33.3541 173.109 33.1408 173.28C32.9275 173.44 32.7515 173.611 32.6128 173.792C32.4741 173.963 32.3568 174.171 32.2608 174.416H37.5408V176H30.1328ZM39.2021 177.552L39.5861 175.904H39.0101V173.952H40.5941V175.904L40.0341 177.552H39.2021ZM47.2293 172.224C47.6773 172.299 48.0666 172.469 48.3973 172.736C48.7386 172.992 49 173.323 49.1813 173.728C49.3626 174.123 49.4533 174.571 49.4533 175.072C49.4533 175.733 49.288 176.309 48.9573 176.8C48.6373 177.291 48.1786 177.669 47.5813 177.936C46.984 178.213 46.28 178.352 45.4693 178.352C44.6586 178.352 43.944 178.208 43.3253 177.92C42.7066 177.643 42.2106 177.237 41.8373 176.704L42.9093 175.488C43.1653 175.872 43.496 176.176 43.9013 176.4C44.3066 176.635 44.8186 176.752 45.4373 176.752C46.1306 176.752 46.6693 176.603 47.0533 176.304C47.4373 176.005 47.6293 175.557 47.6293 174.96C47.6293 174.341 47.416 173.856 46.9893 173.504C46.5733 173.152 45.944 172.976 45.1013 172.976H44.6693V171.6H45.1493C45.864 171.6 46.4133 171.435 46.7973 171.104C47.1813 170.763 47.3733 170.336 47.3733 169.824C47.3733 169.483 47.2933 169.205 47.1333 168.992C46.984 168.768 46.7706 168.603 46.4933 168.496C46.216 168.389 45.896 168.336 45.5333 168.336C44.9893 168.336 44.5093 168.453 44.0933 168.688C43.6773 168.923 43.3466 169.259 43.1013 169.696L41.9973 168.496C42.2106 168.155 42.504 167.856 42.8773 167.6C43.2506 167.344 43.6773 167.147 44.1573 167.008C44.648 166.859 45.1653 166.784 45.7093 166.784C46.4133 166.784 47.032 166.901 47.5653 167.136C48.0986 167.371 48.5093 167.701 48.7973 168.128C49.096 168.555 49.2453 169.056 49.2453 169.632C49.2453 170.048 49.1653 170.443 49.0053 170.816C48.8453 171.179 48.6106 171.488 48.3013 171.744C47.992 171.989 47.6346 172.149 47.2293 172.224ZM57.0186 174.416V176H50.9066V174.416H53.1786V168.832C53.0826 168.96 52.9332 169.093 52.7306 169.232C52.5279 169.371 52.2986 169.504 52.0426 169.632C51.7972 169.749 51.5466 169.845 51.2906 169.92C51.0346 169.995 50.7999 170.032 50.5866 170.032V168.384C50.7999 168.384 51.0452 168.32 51.3226 168.192C51.5999 168.064 51.8719 167.915 52.1386 167.744C52.4159 167.563 52.6506 167.392 52.8426 167.232C53.0346 167.061 53.1466 166.939 53.1786 166.864H54.9866V174.416H57.0186ZM66.1658 171.312C66.1658 172.251 65.9845 173.088 65.6218 173.824C65.2698 174.549 64.7845 175.12 64.1658 175.536C63.5578 175.952 62.8591 176.16 62.0698 176.16C61.2911 176.16 60.5925 175.952 59.9738 175.536C59.3551 175.12 58.8645 174.549 58.5018 173.824C58.1498 173.088 57.9738 172.251 57.9738 171.312C57.9738 170.373 58.1498 169.541 58.5018 168.816C58.8645 168.08 59.3551 167.504 59.9738 167.088C60.5925 166.661 61.2911 166.448 62.0698 166.448C62.8591 166.448 63.5578 166.661 64.1658 167.088C64.7845 167.504 65.2698 168.08 65.6218 168.816C65.9845 169.541 66.1658 170.373 66.1658 171.312ZM64.3738 171.312C64.3738 170.672 64.2778 170.112 64.0858 169.632C63.8938 169.141 63.6218 168.763 63.2698 168.496C62.9178 168.219 62.5178 168.08 62.0698 168.08C61.6111 168.08 61.2058 168.219 60.8538 168.496C60.5018 168.763 60.2245 169.141 60.0218 169.632C59.8298 170.112 59.7338 170.672 59.7338 171.312C59.7338 171.952 59.8298 172.512 60.0218 172.992C60.2245 173.472 60.5018 173.851 60.8538 174.128C61.2058 174.395 61.6111 174.528 62.0698 174.528C62.5178 174.528 62.9125 174.395 63.2538 174.128C63.6058 173.851 63.8778 173.472 64.0698 172.992C64.2725 172.512 64.3738 171.952 64.3738 171.312Z" fill="#1E1E1E"/>
<rect x="0.5" y="0.5" width="326" height="195" rx="7.5" stroke="#CDCDCD"/>
</svg>
