<svg width="44" height="44" viewBox="0 0 44 44" fill="none" xmlns="http://www.w3.org/2000/svg">
<g clip-path="url(#clip0_40_3626)">
<path d="M13 30C13 29.4477 13.4477 29 14 29H30C30.5523 29 31 29.4477 31 30C31 30.5523 30.5523 31 30 31H14C13.4477 31 13 30.5523 13 30ZM23 18C23 18.5523 23.4477 19 24 19H27.5858C28.4767 19 28.9229 20.0771 28.2929 20.7071L22.7071 26.2929C22.3166 26.6834 21.6834 26.6834 21.2929 26.2929L15.7071 20.7071C15.0771 20.0771 15.5233 19 16.4142 19H20C20.5523 19 21 18.5523 21 18V12C21 11.4477 21.4477 11 22 11C22.5523 11 23 11.4477 23 12V18Z" fill="#1E1E1E"/>
</g>
<rect x="0.5" y="0.5" width="43" height="43" rx="7.5" stroke="#CDCDCD"/>
<defs>
<clipPath id="clip0_40_3626">
<rect width="24" height="24" fill="white" transform="translate(10 10)"/>
</clipPath>
</defs>
</svg>
