<svg width="60" height="15" viewBox="0 0 60 15" fill="none" xmlns="http://www.w3.org/2000/svg">
<path d="M13.104 8.176H0.592V7.12H13.104V8.176ZM13.104 5.792H0.592V4.72H13.104V5.792ZM3.824 3.968V12H2.016V0.639999H3.488L9.92 8.848V0.655999H11.728V12H10.16L3.824 3.968ZM20.8708 10.416V12H14.7588V10.416H17.0308V4.832C16.9348 4.96 16.7854 5.09333 16.5828 5.232C16.3801 5.37067 16.1508 5.504 15.8948 5.632C15.6494 5.74933 15.3988 5.84533 15.1428 5.92C14.8868 5.99467 14.6521 6.032 14.4388 6.032V4.384C14.6521 4.384 14.8974 4.32 15.1748 4.192C15.4521 4.064 15.7241 3.91467 15.9908 3.744C16.2681 3.56267 16.5028 3.392 16.6948 3.232C16.8868 3.06133 16.9988 2.93867 17.0308 2.864H18.8388V10.416H20.8708ZM21.89 12C21.89 11.552 21.9273 11.1413 22.002 10.768C22.0767 10.384 22.2047 10.0213 22.386 9.68C22.578 9.33867 22.8393 9.01867 23.17 8.72C23.5113 8.41067 23.9433 8.11733 24.466 7.84C24.8393 7.62667 25.1913 7.44 25.522 7.28C25.8527 7.10933 26.146 6.944 26.402 6.784C26.658 6.61333 26.8553 6.432 26.994 6.24C27.1433 6.048 27.218 5.82933 27.218 5.584C27.218 5.34933 27.154 5.13067 27.026 4.928C26.898 4.72533 26.706 4.56533 26.45 4.448C26.194 4.32 25.8847 4.256 25.522 4.256C25.234 4.256 24.9673 4.29333 24.722 4.368C24.4873 4.44267 24.2687 4.544 24.066 4.672C23.874 4.78933 23.698 4.92267 23.538 5.072C23.378 5.21067 23.2393 5.34933 23.122 5.488L22.018 4.224C22.1247 4.096 22.29 3.952 22.514 3.792C22.7487 3.62133 23.026 3.456 23.346 3.296C23.6767 3.12533 24.05 2.98667 24.466 2.88C24.882 2.76267 25.3353 2.704 25.826 2.704C26.5193 2.704 27.1113 2.82133 27.602 3.056C28.0927 3.28 28.466 3.59467 28.722 4C28.9887 4.39467 29.122 4.84267 29.122 5.344C29.122 5.73867 29.042 6.08533 28.882 6.384C28.7327 6.68267 28.5353 6.94933 28.29 7.184C28.0447 7.408 27.7833 7.60533 27.506 7.776C27.2393 7.936 26.9887 8.08 26.754 8.208C26.338 8.41067 25.9753 8.59733 25.666 8.768C25.3673 8.93867 25.1113 9.10933 24.898 9.28C24.6847 9.44 24.5087 9.61067 24.37 9.792C24.2313 9.96267 24.114 10.1707 24.018 10.416H29.298V12H21.89ZM31.1993 13.552L31.5833 11.904H31.0073V9.952H32.5913V11.904L32.0312 13.552H31.1993ZM37.7545 14.384C36.9332 14.384 36.1972 14.1973 35.5465 13.824C34.8958 13.4613 34.3998 12.9653 34.0585 12.336L35.1145 11.328C35.4132 11.7867 35.7972 12.1493 36.2665 12.416C36.7358 12.6933 37.2372 12.832 37.7705 12.832C38.2078 12.832 38.5972 12.736 38.9385 12.544C39.2798 12.3627 39.5465 12.1067 39.7385 11.776C39.9412 11.4347 40.0425 11.0453 40.0425 10.608C40.0425 10.1813 39.9465 9.808 39.7545 9.488C39.5625 9.15733 39.3065 8.90667 38.9865 8.736C38.6665 8.55467 38.2985 8.464 37.8825 8.464C37.4772 8.464 37.0985 8.55467 36.7465 8.736C36.3945 8.91733 36.1065 9.17333 35.8825 9.504H34.3305L35.6265 2.864H41.1785V4.48H36.9065L36.3305 7.584C36.5118 7.392 36.7572 7.23733 37.0665 7.12C37.3758 6.992 37.7278 6.928 38.1225 6.928C38.8372 6.928 39.4718 7.088 40.0265 7.408C40.5918 7.71733 41.0345 8.144 41.3545 8.688C41.6852 9.232 41.8505 9.86133 41.8505 10.576C41.8505 11.3333 41.6692 11.9947 41.3065 12.56C40.9438 13.136 40.4532 13.584 39.8345 13.904C39.2158 14.224 38.5225 14.384 37.7545 14.384ZM43.015 12C43.015 11.552 43.0523 11.1413 43.127 10.768C43.2017 10.384 43.3297 10.0213 43.511 9.68C43.703 9.33867 43.9643 9.01867 44.295 8.72C44.6363 8.41067 45.0683 8.11733 45.591 7.84C45.9643 7.62667 46.3163 7.44 46.647 7.28C46.9777 7.10933 47.271 6.944 47.527 6.784C47.783 6.61333 47.9803 6.432 48.119 6.24C48.2683 6.048 48.343 5.82933 48.343 5.584C48.343 5.34933 48.279 5.13067 48.151 4.928C48.023 4.72533 47.831 4.56533 47.575 4.448C47.319 4.32 47.0097 4.256 46.647 4.256C46.359 4.256 46.0923 4.29333 45.847 4.368C45.6123 4.44267 45.3937 4.544 45.191 4.672C44.999 4.78933 44.823 4.92267 44.663 5.072C44.503 5.21067 44.3643 5.34933 44.247 5.488L43.143 4.224C43.2497 4.096 43.415 3.952 43.639 3.792C43.8737 3.62133 44.151 3.456 44.471 3.296C44.8017 3.12533 45.175 2.98667 45.591 2.88C46.007 2.76267 46.4603 2.704 46.951 2.704C47.6443 2.704 48.2363 2.82133 48.727 3.056C49.2177 3.28 49.591 3.59467 49.847 4C50.1137 4.39467 50.247 4.84267 50.247 5.344C50.247 5.73867 50.167 6.08533 50.007 6.384C49.8577 6.68267 49.6603 6.94933 49.415 7.184C49.1697 7.408 48.9083 7.60533 48.631 7.776C48.3643 7.936 48.1137 8.08 47.879 8.208C47.463 8.41067 47.1003 8.59733 46.791 8.768C46.4923 8.93867 46.2363 9.10933 46.023 9.28C45.8097 9.44 45.6337 9.61067 45.495 9.792C45.3563 9.96267 45.239 10.1707 45.143 10.416H50.423V12H43.015ZM57.0603 8.224C57.5083 8.29867 57.8976 8.46933 58.2283 8.736C58.5696 8.992 58.8309 9.32267 59.0123 9.728C59.1936 10.1227 59.2843 10.5707 59.2843 11.072C59.2843 11.7333 59.1189 12.3093 58.7883 12.8C58.4683 13.2907 58.0096 13.6693 57.4123 13.936C56.8149 14.2133 56.1109 14.352 55.3003 14.352C54.4896 14.352 53.7749 14.208 53.1562 13.92C52.5376 13.6427 52.0416 13.2373 51.6683 12.704L52.7403 11.488C52.9963 11.872 53.3269 12.176 53.7323 12.4C54.1376 12.6347 54.6496 12.752 55.2682 12.752C55.9616 12.752 56.5003 12.6027 56.8843 12.304C57.2683 12.0053 57.4603 11.5573 57.4603 10.96C57.4603 10.3413 57.2469 9.856 56.8203 9.504C56.4043 9.152 55.7749 8.976 54.9323 8.976H54.5003V7.6H54.9803C55.6949 7.6 56.2443 7.43467 56.6283 7.104C57.0123 6.76267 57.2043 6.336 57.2043 5.824C57.2043 5.48267 57.1243 5.20533 56.9643 4.992C56.8149 4.768 56.6016 4.60267 56.3243 4.496C56.0469 4.38933 55.7269 4.336 55.3643 4.336C54.8203 4.336 54.3403 4.45333 53.9243 4.688C53.5083 4.92267 53.1776 5.25867 52.9323 5.696L51.8283 4.496C52.0416 4.15467 52.3349 3.856 52.7083 3.6C53.0816 3.344 53.5082 3.14667 53.9883 3.008C54.4789 2.85867 54.9963 2.784 55.5403 2.784C56.2443 2.784 56.8629 2.90133 57.3963 3.136C57.9296 3.37067 58.3403 3.70133 58.6283 4.128C58.9269 4.55467 59.0763 5.056 59.0763 5.632C59.0763 6.048 58.9963 6.44267 58.8363 6.816C58.6763 7.17867 58.4416 7.488 58.1323 7.744C57.8229 7.98933 57.4656 8.14933 57.0603 8.224Z" fill="#C57600"/>
</svg>
