<svg width="95" height="16" viewBox="0 0 95 16" fill="none" xmlns="http://www.w3.org/2000/svg">
<g clip-path="url(#clip0_1953_7505)">
<path d="M10.6667 0.666504C11.0349 0.666504 11.3334 0.964981 11.3334 1.33317V1.99984H14.6667V5.99984H13.3207L15.1514 11.0297C15.2689 11.3304 15.3334 11.6576 15.3334 11.9998C15.3334 13.4726 14.1395 14.6665 12.6667 14.6665C11.4241 14.6665 10.3801 13.8167 10.0841 12.6665H7.24936C6.95333 13.8167 5.90927 14.6665 4.66671 14.6665C3.37038 14.6665 2.29009 13.7415 2.04987 12.5155C1.62402 12.2929 1.33337 11.847 1.33337 11.3332V4.6665C1.33337 4.29831 1.63185 3.99984 2.00004 3.99984H6.66671C7.0349 3.99984 7.33337 4.29831 7.33337 4.6665V7.99984C7.33337 8.36803 7.63185 8.6665 8.00004 8.6665H9.33337C9.70156 8.6665 10 8.36803 10 7.99984V1.99984H8.00004V0.666504H10.6667ZM12.6667 10.6665C11.9303 10.6665 11.3334 11.2635 11.3334 11.9998C11.3334 12.7362 11.9303 13.3332 12.6667 13.3332C13.4031 13.3332 14 12.7362 14 11.9998C14 11.8396 13.9718 11.686 13.92 11.5437L13.9091 11.5148C13.7151 11.0182 13.232 10.6665 12.6667 10.6665ZM4.66671 10.6665C3.93033 10.6665 3.33337 11.2635 3.33337 11.9998C3.33337 12.7362 3.93033 13.3332 4.66671 13.3332C5.40309 13.3332 6.00004 12.7362 6.00004 11.9998C6.00004 11.2635 5.40309 10.6665 4.66671 10.6665ZM6.00004 5.33317H2.66671V6.6665H6.00004V5.33317ZM13.3334 3.33317H11.3334V4.6665H13.3334V3.33317Z" fill="#C57600"/>
</g>
<path d="M23.75 12.05C23.2367 12.05 22.7733 11.95 22.36 11.75C21.9467 11.55 21.59 11.28 21.29 10.94C20.99 10.5933 20.7567 10.2067 20.59 9.78C20.43 9.34667 20.35 8.90333 20.35 8.45C20.35 7.97667 20.4367 7.52667 20.61 7.1C20.7833 6.66667 21.0233 6.28333 21.33 5.95C21.6367 5.61 21.9967 5.34333 22.41 5.15C22.83 4.95 23.2833 4.85 23.77 4.85C24.2767 4.85 24.7367 4.95333 25.15 5.16C25.57 5.36667 25.9267 5.64333 26.22 5.99C26.52 6.33667 26.75 6.72333 26.91 7.15C27.0767 7.57667 27.16 8.01333 27.16 8.46C27.16 8.93333 27.0733 9.38667 26.9 9.82C26.7333 10.2467 26.4967 10.63 26.19 10.97C25.8833 11.3033 25.52 11.5667 25.1 11.76C24.6867 11.9533 24.2367 12.05 23.75 12.05ZM21.49 8.45C21.49 8.78333 21.5433 9.10667 21.65 9.42C21.7567 9.73333 21.9067 10.0133 22.1 10.26C22.3 10.5 22.54 10.69 22.82 10.83C23.1 10.97 23.4133 11.04 23.76 11.04C24.12 11.04 24.44 10.9667 24.72 10.82C25 10.6733 25.2333 10.4767 25.42 10.23C25.6133 9.97667 25.76 9.69667 25.86 9.39C25.96 9.07667 26.01 8.76333 26.01 8.45C26.01 8.11667 25.9567 7.79667 25.85 7.49C25.75 7.17667 25.6 6.9 25.4 6.66C25.2 6.41333 24.96 6.22 24.68 6.08C24.4067 5.94 24.1 5.87 23.76 5.87C23.4 5.87 23.08 5.94333 22.8 6.09C22.52 6.23667 22.2833 6.43333 22.09 6.68C21.8967 6.92667 21.7467 7.20333 21.64 7.51C21.54 7.81667 21.49 8.13 21.49 8.45ZM28.1295 9.97V6.77H29.2295V9.75C29.2295 10.2167 29.3129 10.57 29.4795 10.81C29.6529 11.0433 29.9029 11.16 30.2295 11.16C30.4362 11.16 30.6362 11.1167 30.8295 11.03C31.0295 10.9433 31.2095 10.8167 31.3695 10.65C31.5362 10.4767 31.6695 10.27 31.7695 10.03V6.77H32.8695V10.76C32.8695 10.8867 32.8929 10.9767 32.9395 11.03C32.9862 11.0833 33.0629 11.1133 33.1695 11.12V12C33.0562 12.02 32.9629 12.0333 32.8895 12.04C32.8162 12.0467 32.7462 12.05 32.6795 12.05C32.4795 12.05 32.3129 11.9967 32.1795 11.89C32.0462 11.7767 31.9695 11.6333 31.9495 11.46L31.9295 10.94C31.6962 11.32 31.3929 11.61 31.0195 11.81C30.6462 12.0033 30.2362 12.1 29.7895 12.1C29.2429 12.1 28.8295 11.92 28.5495 11.56C28.2695 11.2 28.1295 10.67 28.1295 9.97ZM37.1735 11.73C37.0802 11.7767 36.9635 11.8267 36.8235 11.88C36.6835 11.9333 36.5235 11.98 36.3435 12.02C36.1702 12.06 35.9902 12.08 35.8035 12.08C35.5768 12.08 35.3668 12.04 35.1735 11.96C34.9802 11.88 34.8235 11.7533 34.7035 11.58C34.5902 11.4 34.5335 11.17 34.5335 10.89V7.62H33.8435V6.77H34.5335V5.05H35.6335V6.77H36.7735V7.62H35.6335V10.54C35.6468 10.72 35.7035 10.8533 35.8035 10.94C35.9102 11.0267 36.0402 11.07 36.1935 11.07C36.3468 11.07 36.4935 11.0433 36.6335 10.99C36.7735 10.9367 36.8768 10.8933 36.9435 10.86L37.1735 11.73ZM40.7061 12V7.75H40.0061V6.9H40.7061V6.69C40.7061 6.26333 40.7728 5.89333 40.9061 5.58C41.0461 5.26667 41.2394 5.02667 41.4861 4.86C41.7394 4.68667 42.0361 4.6 42.3761 4.6C42.5894 4.6 42.7994 4.63 43.0061 4.69C43.2128 4.74333 43.4094 4.82 43.5961 4.92L43.3561 5.74C43.2561 5.67333 43.1361 5.62333 42.9961 5.59C42.8628 5.55 42.7328 5.53 42.6061 5.53C42.3528 5.53 42.1561 5.62667 42.0161 5.82C41.8761 6.01333 41.8061 6.29333 41.8061 6.66V6.9H43.1461V7.75H41.8061V12H40.7061ZM46.2229 12.1C45.8096 12.1 45.4396 12.03 45.1129 11.89C44.7862 11.7433 44.5029 11.5433 44.2629 11.29C44.0296 11.0367 43.8496 10.75 43.7229 10.43C43.5962 10.1033 43.5329 9.75667 43.5329 9.39C43.5329 9.02333 43.5962 8.67667 43.7229 8.35C43.8496 8.02333 44.0296 7.73667 44.2629 7.49C44.5029 7.23667 44.7862 7.04 45.1129 6.9C45.4462 6.75333 45.8162 6.68 46.2229 6.68C46.6296 6.68 46.9962 6.75333 47.3229 6.9C47.6562 7.04 47.9396 7.23667 48.1729 7.49C48.4129 7.73667 48.5962 8.02333 48.7229 8.35C48.8496 8.67667 48.9129 9.02333 48.9129 9.39C48.9129 9.75667 48.8496 10.1033 48.7229 10.43C48.5962 10.75 48.4129 11.0367 48.1729 11.29C47.9396 11.5433 47.6562 11.7433 47.3229 11.89C46.9962 12.03 46.6296 12.1 46.2229 12.1ZM44.6629 9.4C44.6629 9.73333 44.7329 10.0333 44.8729 10.3C45.0129 10.5667 45.1996 10.7767 45.4329 10.93C45.6662 11.0833 45.9296 11.16 46.2229 11.16C46.5096 11.16 46.7696 11.0833 47.0029 10.93C47.2429 10.77 47.4329 10.5567 47.5729 10.29C47.7129 10.0167 47.7829 9.71667 47.7829 9.39C47.7829 9.05667 47.7129 8.75667 47.5729 8.49C47.4329 8.22333 47.2429 8.01333 47.0029 7.86C46.7696 7.7 46.5096 7.62 46.2229 7.62C45.9296 7.62 45.6662 7.7 45.4329 7.86C45.1996 8.02 45.0129 8.23333 44.8729 8.5C44.7329 8.76 44.6629 9.06 44.6629 9.4ZM52.8285 7.72C52.4018 7.72667 52.0218 7.82333 51.6885 8.01C51.3618 8.19667 51.1285 8.46 50.9885 8.8V12H49.8885V6.77H50.9085V7.94C51.0885 7.58 51.3252 7.29333 51.6185 7.08C51.9118 6.86 52.2218 6.74 52.5485 6.72C52.6152 6.72 52.6685 6.72 52.7085 6.72C52.7552 6.72 52.7952 6.72333 52.8285 6.73V7.72ZM56.0148 12V4.9H58.5348C59.3015 4.9 59.9415 5.06 60.4548 5.38C60.9682 5.69333 61.3515 6.12 61.6048 6.66C61.8648 7.19333 61.9948 7.78667 61.9948 8.44C61.9948 9.16 61.8515 9.78667 61.5648 10.32C61.2848 10.8533 60.8848 11.2667 60.3648 11.56C59.8448 11.8533 59.2348 12 58.5348 12H56.0148ZM60.8548 8.44C60.8548 7.94 60.7615 7.5 60.5748 7.12C60.3948 6.73333 60.1315 6.43333 59.7848 6.22C59.4448 6 59.0282 5.89 58.5348 5.89H57.1348V11.01H58.5348C59.0348 11.01 59.4548 10.8967 59.7948 10.67C60.1415 10.4433 60.4048 10.1367 60.5848 9.75C60.7648 9.36333 60.8548 8.92667 60.8548 8.44ZM65.403 12.1C64.9964 12.1 64.6264 12.03 64.293 11.89C63.9664 11.7433 63.683 11.5467 63.443 11.3C63.203 11.0467 63.0164 10.76 62.883 10.44C62.7564 10.1133 62.693 9.76667 62.693 9.4C62.693 8.90667 62.8064 8.45667 63.033 8.05C63.2597 7.63667 63.5764 7.30667 63.983 7.06C64.3897 6.80667 64.8664 6.68 65.413 6.68C65.9597 6.68 66.4297 6.80667 66.823 7.06C67.223 7.30667 67.533 7.63333 67.753 8.04C67.973 8.44667 68.083 8.88333 68.083 9.35C68.083 9.43 68.0797 9.50667 68.073 9.58C68.0664 9.64667 68.0597 9.70333 68.053 9.75H63.863C63.883 10.0567 63.9664 10.3267 64.113 10.56C64.2664 10.7867 64.4597 10.9667 64.693 11.1C64.9264 11.2267 65.1764 11.29 65.443 11.29C65.7364 11.29 66.013 11.2167 66.273 11.07C66.5397 10.9233 66.7197 10.73 66.813 10.49L67.753 10.76C67.6397 11.0133 67.4664 11.2433 67.233 11.45C67.0064 11.65 66.7364 11.81 66.423 11.93C66.1097 12.0433 65.7697 12.1 65.403 12.1ZM63.833 9.02H66.993C66.973 8.72 66.8864 8.45667 66.733 8.23C66.5864 7.99667 66.3964 7.81667 66.163 7.69C65.9364 7.55667 65.683 7.49 65.403 7.49C65.1297 7.49 64.8764 7.55667 64.643 7.69C64.4164 7.81667 64.2297 7.99667 64.083 8.23C63.9364 8.45667 63.853 8.72 63.833 9.02ZM68.9903 4.7H70.0903V10.49C70.0903 10.7567 70.1303 10.9267 70.2103 11C70.2903 11.0733 70.3903 11.11 70.5103 11.11C70.6436 11.11 70.767 11.0967 70.8803 11.07C71.0003 11.0433 71.1036 11.01 71.1903 10.97L71.3503 11.84C71.1903 11.9067 71.0003 11.9633 70.7803 12.01C70.5603 12.0567 70.3636 12.08 70.1903 12.08C69.817 12.08 69.5236 11.9767 69.3103 11.77C69.097 11.5567 68.9903 11.2633 68.9903 10.89V4.7ZM71.9881 12V6.77H73.0881V12H71.9881ZM71.9881 5.91V4.7H73.0881V5.91H71.9881ZM75.87 12L73.88 6.77H75.02L76.51 10.98L78 6.77H79.06L77.07 12H75.87ZM82.0437 12.1C81.637 12.1 81.267 12.03 80.9337 11.89C80.607 11.7433 80.3237 11.5467 80.0837 11.3C79.8437 11.0467 79.657 10.76 79.5237 10.44C79.397 10.1133 79.3337 9.76667 79.3337 9.4C79.3337 8.90667 79.447 8.45667 79.6737 8.05C79.9003 7.63667 80.217 7.30667 80.6237 7.06C81.0303 6.80667 81.507 6.68 82.0537 6.68C82.6003 6.68 83.0703 6.80667 83.4637 7.06C83.8637 7.30667 84.1737 7.63333 84.3937 8.04C84.6137 8.44667 84.7237 8.88333 84.7237 9.35C84.7237 9.43 84.7203 9.50667 84.7137 9.58C84.707 9.64667 84.7003 9.70333 84.6937 9.75H80.5037C80.5237 10.0567 80.607 10.3267 80.7537 10.56C80.907 10.7867 81.1003 10.9667 81.3337 11.1C81.567 11.2267 81.817 11.29 82.0837 11.29C82.377 11.29 82.6537 11.2167 82.9137 11.07C83.1803 10.9233 83.3603 10.73 83.4537 10.49L84.3937 10.76C84.2803 11.0133 84.107 11.2433 83.8737 11.45C83.647 11.65 83.377 11.81 83.0637 11.93C82.7503 12.0433 82.4103 12.1 82.0437 12.1ZM80.4737 9.02H83.6337C83.6137 8.72 83.527 8.45667 83.3737 8.23C83.227 7.99667 83.037 7.81667 82.8037 7.69C82.577 7.55667 82.3237 7.49 82.0437 7.49C81.7703 7.49 81.517 7.55667 81.2837 7.69C81.057 7.81667 80.8703 7.99667 80.7237 8.23C80.577 8.45667 80.4937 8.72 80.4737 9.02ZM88.5609 7.72C88.1343 7.72667 87.7543 7.82333 87.4209 8.01C87.0943 8.19667 86.8609 8.46 86.7209 8.8V12H85.6209V6.77H86.6409V7.94C86.8209 7.58 87.0576 7.29333 87.3509 7.08C87.6443 6.86 87.9543 6.74 88.2809 6.72C88.3476 6.72 88.4009 6.72 88.4409 6.72C88.4876 6.72 88.5276 6.72333 88.5609 6.73V7.72ZM89.5412 13.23C89.6412 13.2433 89.7378 13.2567 89.8312 13.27C89.9312 13.29 90.0112 13.3 90.0712 13.3C90.1845 13.3 90.2812 13.2633 90.3612 13.19C90.4478 13.1233 90.5345 12.9967 90.6212 12.81C90.7078 12.6233 90.8145 12.3533 90.9412 12L88.7912 6.77H89.9412L91.5412 10.88L92.9612 6.77H94.0212L91.6512 13.21C91.5778 13.4033 91.4712 13.58 91.3312 13.74C91.1912 13.9067 91.0178 14.0367 90.8112 14.13C90.6045 14.2233 90.3612 14.27 90.0812 14.27C90.0012 14.27 89.9178 14.2633 89.8312 14.25C89.7445 14.2367 89.6478 14.2167 89.5412 14.19V13.23Z" fill="#C57600"/>
<defs>
<clipPath id="clip0_1953_7505">
<rect width="16" height="16" fill="white"/>
</clipPath>
</defs>
</svg>
