<svg width="66" height="16" viewBox="0 0 66 16" fill="none" xmlns="http://www.w3.org/2000/svg">
<g opacity="0.5">
<path d="M8.00004 1.3335C4.32671 1.3335 1.33337 4.32683 1.33337 8.00016C1.33337 11.6735 4.32671 14.6668 8.00004 14.6668C11.6734 14.6668 14.6667 11.6735 14.6667 8.00016C14.6667 4.32683 11.6734 1.3335 8.00004 1.3335ZM11.1867 6.46683L7.40671 10.2468C7.31337 10.3402 7.18671 10.3935 7.05337 10.3935C6.92004 10.3935 6.79337 10.3402 6.70004 10.2468L4.81337 8.36016C4.62004 8.16683 4.62004 7.84683 4.81337 7.6535C5.00671 7.46016 5.32671 7.46016 5.52004 7.6535L7.05337 9.18683L10.48 5.76016C10.6734 5.56683 10.9934 5.56683 11.1867 5.76016C11.38 5.9535 11.38 6.26683 11.1867 6.46683Z" fill="#727272"/>
</g>
<path d="M21.068 12V3.48H24.596C24.964 3.48 25.3 3.556 25.604 3.708C25.916 3.86 26.184 4.068 26.408 4.332C26.632 4.588 26.808 4.876 26.936 5.196C27.064 5.508 27.128 5.828 27.128 6.156C27.128 6.62 27.024 7.06 26.816 7.476C26.616 7.884 26.332 8.216 25.964 8.472C25.596 8.728 25.164 8.856 24.668 8.856H21.908V12H21.068ZM21.908 8.112H24.632C24.968 8.112 25.26 8.02 25.508 7.836C25.756 7.652 25.948 7.412 26.084 7.116C26.22 6.82 26.288 6.5 26.288 6.156C26.288 5.804 26.208 5.48 26.048 5.184C25.888 4.888 25.676 4.656 25.412 4.488C25.156 4.312 24.872 4.224 24.56 4.224H21.908V8.112ZM30.9477 12.12C30.4997 12.12 30.0837 12.036 29.6997 11.868C29.3157 11.692 28.9837 11.456 28.7037 11.16C28.4237 10.856 28.2037 10.508 28.0437 10.116C27.8917 9.724 27.8157 9.304 27.8157 8.856C27.8157 8.272 27.9477 7.736 28.2117 7.248C28.4837 6.76 28.8557 6.372 29.3277 6.084C29.7997 5.788 30.3357 5.64 30.9357 5.64C31.5517 5.64 32.0877 5.788 32.5437 6.084C33.0077 6.38 33.3717 6.772 33.6357 7.26C33.8997 7.74 34.0317 8.268 34.0317 8.844C34.0317 8.908 34.0317 8.972 34.0317 9.036C34.0317 9.092 34.0277 9.136 34.0197 9.168H28.6677C28.7077 9.616 28.8317 10.016 29.0397 10.368C29.2557 10.712 29.5317 10.988 29.8677 11.196C30.2117 11.396 30.5837 11.496 30.9837 11.496C31.3917 11.496 31.7757 11.392 32.1357 11.184C32.5037 10.976 32.7597 10.704 32.9037 10.368L33.6117 10.56C33.4837 10.856 33.2877 11.124 33.0237 11.364C32.7597 11.604 32.4477 11.792 32.0877 11.928C31.7357 12.056 31.3557 12.12 30.9477 12.12ZM28.6437 8.58H33.2637C33.2317 8.124 33.1077 7.724 32.8917 7.38C32.6837 7.036 32.4077 6.768 32.0637 6.576C31.7277 6.376 31.3557 6.276 30.9477 6.276C30.5397 6.276 30.1677 6.376 29.8317 6.576C29.4957 6.768 29.2197 7.04 29.0037 7.392C28.7957 7.736 28.6757 8.132 28.6437 8.58ZM40.5466 12H39.7306V8.508C39.7306 7.772 39.6226 7.236 39.4066 6.9C39.1906 6.556 38.8506 6.384 38.3866 6.384C38.0666 6.384 37.7506 6.464 37.4386 6.624C37.1266 6.776 36.8506 6.988 36.6106 7.26C36.3786 7.524 36.2106 7.828 36.1066 8.172V12H35.2906V5.748H36.0346V7.164C36.2026 6.86 36.4226 6.596 36.6946 6.372C36.9666 6.14 37.2746 5.96 37.6186 5.832C37.9626 5.704 38.3186 5.64 38.6866 5.64C39.0306 5.64 39.3226 5.704 39.5626 5.832C39.8026 5.96 39.9946 6.144 40.1386 6.384C40.2826 6.616 40.3866 6.9 40.4506 7.236C40.5146 7.564 40.5466 7.932 40.5466 8.34V12ZM41.8667 8.892C41.8667 8.3 41.9867 7.76 42.2267 7.272C42.4747 6.776 42.8147 6.38 43.2467 6.084C43.6787 5.788 44.1707 5.64 44.7227 5.64C45.2427 5.64 45.7067 5.78 46.1147 6.06C46.5307 6.332 46.8547 6.664 47.0867 7.056V3.24H47.9027V11.016C47.9027 11.128 47.9267 11.212 47.9747 11.268C48.0227 11.316 48.0947 11.344 48.1907 11.352V12C48.0307 12.024 47.9067 12.032 47.8187 12.024C47.6507 12.016 47.5027 11.948 47.3747 11.82C47.2467 11.692 47.1827 11.552 47.1827 11.4V10.788C46.9347 11.196 46.5987 11.52 46.1747 11.76C45.7507 12 45.3107 12.12 44.8547 12.12C44.4227 12.12 44.0227 12.032 43.6547 11.856C43.2947 11.68 42.9787 11.44 42.7067 11.136C42.4427 10.832 42.2347 10.488 42.0827 10.104C41.9387 9.712 41.8667 9.308 41.8667 8.892ZM47.0867 9.852V7.92C46.9827 7.632 46.8147 7.372 46.5827 7.14C46.3507 6.9 46.0867 6.712 45.7907 6.576C45.5027 6.432 45.2147 6.36 44.9267 6.36C44.5907 6.36 44.2867 6.432 44.0147 6.576C43.7427 6.712 43.5067 6.9 43.3067 7.14C43.1147 7.38 42.9667 7.652 42.8627 7.956C42.7587 8.26 42.7067 8.572 42.7067 8.892C42.7067 9.228 42.7627 9.548 42.8747 9.852C42.9947 10.156 43.1627 10.428 43.3787 10.668C43.5947 10.9 43.8427 11.08 44.1227 11.208C44.4027 11.336 44.7067 11.4 45.0347 11.4C45.2427 11.4 45.4587 11.36 45.6827 11.28C45.9067 11.2 46.1187 11.092 46.3187 10.956C46.5267 10.812 46.6987 10.644 46.8347 10.452C46.9707 10.26 47.0547 10.06 47.0867 9.852ZM49.7516 12V5.748H50.5676V12H49.7516ZM49.7516 4.44V3.24H50.5676V4.44H49.7516ZM57.6208 12H56.8048V8.508C56.8048 7.772 56.6968 7.236 56.4808 6.9C56.2648 6.556 55.9248 6.384 55.4608 6.384C55.1408 6.384 54.8248 6.464 54.5128 6.624C54.2008 6.776 53.9248 6.988 53.6848 7.26C53.4528 7.524 53.2848 7.828 53.1808 8.172V12H52.3648V5.748H53.1088V7.164C53.2768 6.86 53.4968 6.596 53.7688 6.372C54.0408 6.14 54.3488 5.96 54.6928 5.832C55.0368 5.704 55.3928 5.64 55.7608 5.64C56.1048 5.64 56.3968 5.704 56.6368 5.832C56.8768 5.96 57.0688 6.144 57.2128 6.384C57.3568 6.616 57.4608 6.9 57.5248 7.236C57.5888 7.564 57.6208 7.932 57.6208 8.34V12ZM61.8689 12.084C61.4449 12.084 61.0529 11.996 60.6929 11.82C60.3329 11.644 60.0209 11.408 59.7569 11.112C59.5009 10.808 59.3009 10.464 59.1569 10.08C59.0129 9.696 58.9409 9.3 58.9409 8.892C58.9409 8.452 59.0089 8.04 59.1449 7.656C59.2889 7.264 59.4889 6.916 59.7449 6.612C60.0089 6.308 60.3169 6.072 60.6689 5.904C61.0209 5.728 61.4129 5.64 61.8449 5.64C62.3809 5.64 62.8449 5.776 63.2369 6.048C63.6369 6.32 63.9729 6.656 64.2449 7.056V5.748H64.9769V12.024C64.9769 12.6 64.8369 13.084 64.5569 13.476C64.2849 13.876 63.9129 14.176 63.4409 14.376C62.9769 14.576 62.4689 14.676 61.9169 14.676C61.2049 14.676 60.6289 14.548 60.1889 14.292C59.7489 14.036 59.3889 13.692 59.1089 13.26L59.6129 12.864C59.8609 13.256 60.1889 13.548 60.5969 13.74C61.0129 13.932 61.4529 14.028 61.9169 14.028C62.3249 14.028 62.6969 13.952 63.0329 13.8C63.3769 13.656 63.6489 13.436 63.8489 13.14C64.0569 12.844 64.1609 12.472 64.1609 12.024V10.788C63.9209 11.18 63.5929 11.496 63.1769 11.736C62.7609 11.968 62.3249 12.084 61.8689 12.084ZM62.0969 11.4C62.3449 11.4 62.5809 11.356 62.8049 11.268C63.0369 11.18 63.2489 11.064 63.4409 10.92C63.6329 10.768 63.7929 10.6 63.9209 10.416C64.0489 10.232 64.1289 10.044 64.1609 9.852V7.92C64.0409 7.616 63.8689 7.348 63.6449 7.116C63.4209 6.876 63.1649 6.692 62.8769 6.564C62.5969 6.428 62.3049 6.36 62.0009 6.36C61.6489 6.36 61.3329 6.436 61.0529 6.588C60.7809 6.732 60.5489 6.928 60.3569 7.176C60.1729 7.416 60.0289 7.688 59.9249 7.992C59.8209 8.296 59.7689 8.6 59.7689 8.904C59.7689 9.24 59.8289 9.56 59.9489 9.864C60.0689 10.16 60.2329 10.428 60.4409 10.668C60.6569 10.9 60.9049 11.08 61.1849 11.208C61.4729 11.336 61.7769 11.4 62.0969 11.4Z" fill="#727272"/>
</svg>
