<svg width="67" height="16" viewBox="0 0 67 16" fill="none" xmlns="http://www.w3.org/2000/svg">
<path d="M8.00004 1.3335C4.32671 1.3335 1.33337 4.32683 1.33337 8.00016C1.33337 11.6735 4.32671 14.6668 8.00004 14.6668C11.6734 14.6668 14.6667 11.6735 14.6667 8.00016C14.6667 4.32683 11.6734 1.3335 8.00004 1.3335ZM11.1867 6.46683L7.40671 10.2468C7.31337 10.3402 7.18671 10.3935 7.05337 10.3935C6.92004 10.3935 6.79337 10.3402 6.70004 10.2468L4.81337 8.36016C4.62004 8.16683 4.62004 7.84683 4.81337 7.6535C5.00671 7.46016 5.32671 7.46016 5.52004 7.6535L7.05337 9.18683L10.48 5.76016C10.6734 5.56683 10.9934 5.56683 11.1867 5.76016C11.38 5.9535 11.38 6.26683 11.1867 6.46683Z" fill="#C57600"/>
<path d="M20.96 12V3.48H24.536C24.92 3.48 25.272 3.56 25.592 3.72C25.912 3.88 26.192 4.092 26.432 4.356C26.672 4.62 26.856 4.916 26.984 5.244C27.112 5.572 27.176 5.908 27.176 6.252C27.176 6.724 27.068 7.176 26.852 7.608C26.644 8.032 26.344 8.376 25.952 8.64C25.568 8.904 25.12 9.036 24.608 9.036H22.304V12H20.96ZM22.304 7.848H24.524C24.78 7.848 25.004 7.78 25.196 7.644C25.388 7.5 25.536 7.308 25.64 7.068C25.752 6.828 25.808 6.556 25.808 6.252C25.808 5.94 25.744 5.664 25.616 5.424C25.488 5.184 25.32 5 25.112 4.872C24.912 4.736 24.692 4.668 24.452 4.668H22.304V7.848ZM30.9954 12.12C30.5074 12.12 30.0634 12.036 29.6634 11.868C29.2714 11.692 28.9314 11.456 28.6434 11.16C28.3554 10.856 28.1314 10.512 27.9714 10.128C27.8194 9.736 27.7434 9.32 27.7434 8.88C27.7434 8.288 27.8794 7.748 28.1514 7.26C28.4234 6.764 28.8034 6.368 29.2914 6.072C29.7794 5.768 30.3514 5.616 31.0074 5.616C31.6634 5.616 32.2274 5.768 32.6994 6.072C33.1794 6.368 33.5514 6.76 33.8154 7.248C34.0794 7.736 34.2114 8.26 34.2114 8.82C34.2114 8.916 34.2074 9.008 34.1994 9.096C34.1914 9.176 34.1834 9.244 34.1754 9.3H29.1474C29.1714 9.668 29.2714 9.992 29.4474 10.272C29.6314 10.544 29.8634 10.76 30.1434 10.92C30.4234 11.072 30.7234 11.148 31.0434 11.148C31.3954 11.148 31.7274 11.06 32.0394 10.884C32.3594 10.708 32.5754 10.476 32.6874 10.188L33.8154 10.512C33.6794 10.816 33.4714 11.092 33.1914 11.34C32.9194 11.58 32.5954 11.772 32.2194 11.916C31.8434 12.052 31.4354 12.12 30.9954 12.12ZM29.1114 8.424H32.9034C32.8794 8.064 32.7754 7.748 32.5914 7.476C32.4154 7.196 32.1874 6.98 31.9074 6.828C31.6354 6.668 31.3314 6.588 30.9954 6.588C30.6674 6.588 30.3634 6.668 30.0834 6.828C29.8114 6.98 29.5874 7.196 29.4114 7.476C29.2354 7.748 29.1354 8.064 29.1114 8.424ZM40.9161 12H39.5961V8.484C39.5961 7.9 39.5001 7.472 39.3081 7.2C39.1241 6.928 38.8481 6.792 38.4801 6.792C38.2241 6.792 37.9681 6.856 37.7121 6.984C37.4641 7.112 37.2401 7.288 37.0401 7.512C36.8401 7.728 36.6961 7.98 36.6081 8.268V12H35.2881V5.724H36.4881V6.984C36.6481 6.704 36.8561 6.464 37.1121 6.264C37.3761 6.056 37.6721 5.896 38.0001 5.784C38.3281 5.672 38.6761 5.616 39.0441 5.616C39.4201 5.616 39.7281 5.684 39.9681 5.82C40.2161 5.956 40.4081 6.144 40.5441 6.384C40.6881 6.616 40.7841 6.888 40.8321 7.2C40.8881 7.504 40.9161 7.828 40.9161 8.172V12ZM42.0522 8.868C42.0522 8.268 42.1723 7.724 42.4123 7.236C42.6603 6.74 42.9963 6.348 43.4202 6.06C43.8443 5.764 44.3323 5.616 44.8843 5.616C45.3643 5.616 45.7963 5.74 46.1803 5.988C46.5723 6.236 46.8763 6.544 47.0923 6.912V3.24H48.4123V10.512C48.4123 10.664 48.4403 10.772 48.4963 10.836C48.5523 10.9 48.6443 10.936 48.7723 10.944V12C48.5243 12.04 48.3323 12.06 48.1963 12.06C47.9483 12.06 47.7363 11.988 47.5603 11.844C47.3923 11.7 47.3043 11.528 47.2963 11.328L47.2843 10.86C47.0443 11.26 46.7203 11.572 46.3123 11.796C45.9043 12.012 45.4803 12.12 45.0403 12.12C44.6083 12.12 44.2083 12.036 43.8403 11.868C43.4803 11.7 43.1643 11.464 42.8923 11.16C42.6283 10.856 42.4203 10.508 42.2683 10.116C42.1243 9.724 42.0522 9.308 42.0522 8.868ZM47.0923 9.744V8.1C47.0043 7.844 46.8603 7.616 46.6603 7.416C46.4683 7.208 46.2483 7.044 46.0003 6.924C45.7603 6.804 45.5203 6.744 45.2803 6.744C45.0003 6.744 44.7443 6.804 44.5123 6.924C44.2883 7.044 44.0923 7.204 43.9243 7.404C43.7643 7.604 43.6403 7.832 43.5523 8.088C43.4643 8.344 43.4202 8.612 43.4202 8.892C43.4202 9.18 43.4683 9.452 43.5643 9.708C43.6603 9.956 43.7963 10.18 43.9723 10.38C44.1563 10.572 44.3643 10.724 44.5963 10.836C44.8363 10.94 45.0963 10.992 45.3763 10.992C45.5523 10.992 45.7283 10.96 45.9043 10.896C46.0883 10.832 46.2603 10.744 46.4203 10.632C46.5883 10.52 46.7283 10.388 46.8403 10.236C46.9603 10.084 47.0443 9.92 47.0923 9.744ZM50.0889 12V5.724H51.4089V12H50.0889ZM50.0889 4.692V3.24H51.4089V4.692H50.0889ZM58.6231 12H57.3031V8.484C57.3031 7.9 57.2071 7.472 57.0151 7.2C56.8311 6.928 56.5551 6.792 56.1871 6.792C55.9311 6.792 55.6751 6.856 55.4191 6.984C55.1711 7.112 54.9471 7.288 54.7471 7.512C54.5471 7.728 54.4031 7.98 54.3151 8.268V12H52.9951V5.724H54.1951V6.984C54.3551 6.704 54.5631 6.464 54.8191 6.264C55.0831 6.056 55.3791 5.896 55.7071 5.784C56.0351 5.672 56.3831 5.616 56.7511 5.616C57.1271 5.616 57.4351 5.684 57.6751 5.82C57.9231 5.956 58.1151 6.144 58.2511 6.384C58.3951 6.616 58.4911 6.888 58.5391 7.2C58.5951 7.504 58.6231 7.828 58.6231 8.172V12ZM62.6393 12.06C62.2153 12.06 61.8273 11.976 61.4753 11.808C61.1233 11.632 60.8193 11.396 60.5633 11.1C60.3153 10.804 60.1193 10.464 59.9753 10.08C59.8393 9.696 59.7713 9.292 59.7713 8.868C59.7713 8.42 59.8433 8 59.9873 7.608C60.1313 7.216 60.3313 6.872 60.5873 6.576C60.8513 6.272 61.1593 6.036 61.5113 5.868C61.8633 5.7 62.2553 5.616 62.6873 5.616C63.1913 5.616 63.6313 5.736 64.0073 5.976C64.3913 6.216 64.7073 6.528 64.9553 6.912V5.724H66.1193V11.82C66.1193 12.428 65.9713 12.944 65.6753 13.368C65.3873 13.792 64.9913 14.116 64.4873 14.34C63.9833 14.564 63.4153 14.676 62.7833 14.676C62.0873 14.676 61.5113 14.556 61.0553 14.316C60.5993 14.076 60.2113 13.748 59.8913 13.332L60.6353 12.636C60.8753 12.972 61.1833 13.228 61.5593 13.404C61.9433 13.58 62.3513 13.668 62.7833 13.668C63.1433 13.668 63.4753 13.6 63.7793 13.464C64.0913 13.336 64.3393 13.132 64.5233 12.852C64.7073 12.58 64.7993 12.236 64.7993 11.82V10.86C64.5753 11.236 64.2673 11.532 63.8753 11.748C63.4833 11.956 63.0713 12.06 62.6393 12.06ZM63.0713 10.992C63.2713 10.992 63.4633 10.96 63.6473 10.896C63.8313 10.824 63.9993 10.732 64.1513 10.62C64.3113 10.5 64.4473 10.368 64.5593 10.224C64.6713 10.072 64.7513 9.912 64.7993 9.744V8.1C64.6953 7.828 64.5473 7.592 64.3553 7.392C64.1633 7.184 63.9473 7.024 63.7073 6.912C63.4673 6.8 63.2233 6.744 62.9753 6.744C62.6873 6.744 62.4273 6.808 62.1953 6.936C61.9713 7.056 61.7793 7.22 61.6193 7.428C61.4593 7.628 61.3353 7.856 61.2473 8.112C61.1593 8.368 61.1153 8.632 61.1153 8.904C61.1153 9.192 61.1633 9.46 61.2593 9.708C61.3633 9.956 61.5033 10.18 61.6793 10.38C61.8553 10.572 62.0633 10.724 62.3033 10.836C62.5433 10.94 62.7993 10.992 63.0713 10.992Z" fill="#C57600"/>
</svg>
