<svg width="71" height="16" viewBox="0 0 71 16" fill="none" xmlns="http://www.w3.org/2000/svg">
<g opacity="0.5" clip-path="url(#clip0_1953_7494)">
<path d="M8 1.3335V4.00016" stroke="#727272" stroke-width="2.5" stroke-linecap="round" stroke-linejoin="round"/>
<path d="M8 12V14.6667" stroke="#727272" stroke-width="2.5" stroke-linecap="round" stroke-linejoin="round"/>
<path d="M3.28662 3.28662L5.17329 5.17329" stroke="#727272" stroke-width="2.5" stroke-linecap="round" stroke-linejoin="round"/>
<path d="M10.8267 10.8267L12.7133 12.7133" stroke="#727272" stroke-width="2.5" stroke-linecap="round" stroke-linejoin="round"/>
<path d="M1.33337 8H4.00004" stroke="#727272" stroke-width="2.5" stroke-linecap="round" stroke-linejoin="round"/>
<path d="M12 8H14.6667" stroke="#727272" stroke-width="2.5" stroke-linecap="round" stroke-linejoin="round"/>
<path d="M3.28662 12.7133L5.17329 10.8267" stroke="#727272" stroke-width="2.5" stroke-linecap="round" stroke-linejoin="round"/>
<path d="M10.8267 5.17329L12.7133 3.28662" stroke="#727272" stroke-width="2.5" stroke-linecap="round" stroke-linejoin="round"/>
</g>
<path d="M20.89 12V4.9H23.83C24.1367 4.9 24.4167 4.96333 24.67 5.09C24.93 5.21667 25.1533 5.39 25.34 5.61C25.5267 5.82333 25.6733 6.06333 25.78 6.33C25.8867 6.59 25.94 6.85667 25.94 7.13C25.94 7.51667 25.8533 7.88333 25.68 8.23C25.5133 8.57 25.2767 8.84667 24.97 9.06C24.6633 9.27333 24.3033 9.38 23.89 9.38H21.59V12H20.89ZM21.59 8.76H23.86C24.14 8.76 24.3833 8.68333 24.59 8.53C24.7967 8.37667 24.9567 8.17667 25.07 7.93C25.1833 7.68333 25.24 7.41667 25.24 7.13C25.24 6.83667 25.1733 6.56667 25.04 6.32C24.9067 6.07333 24.73 5.88 24.51 5.74C24.2967 5.59333 24.06 5.52 23.8 5.52H21.59V8.76ZM29.5707 7.39C29.1174 7.40333 28.7174 7.53 28.3707 7.77C28.0307 8.01 27.7907 8.34 27.6507 8.76V12H26.9707V6.79H27.6107V8.04C27.7907 7.67333 28.0274 7.37667 28.3207 7.15C28.6207 6.92333 28.9374 6.79667 29.2707 6.77C29.3374 6.76333 29.394 6.76 29.4407 6.76C29.494 6.76 29.5374 6.76333 29.5707 6.77V7.39ZM32.5305 12.1C32.1572 12.1 31.8105 12.03 31.4905 11.89C31.1772 11.7433 30.9039 11.5467 30.6705 11.3C30.4439 11.0467 30.2672 10.76 30.1405 10.44C30.0139 10.1133 29.9505 9.77 29.9505 9.41C29.9505 9.03667 30.0139 8.69 30.1405 8.37C30.2672 8.04333 30.4472 7.75667 30.6805 7.51C30.9139 7.25667 31.1872 7.06 31.5005 6.92C31.8205 6.77333 32.1672 6.7 32.5405 6.7C32.9139 6.7 33.2572 6.77333 33.5705 6.92C33.8839 7.06 34.1572 7.25667 34.3905 7.51C34.6239 7.75667 34.8039 8.04333 34.9305 8.37C35.0572 8.69 35.1205 9.03667 35.1205 9.41C35.1205 9.77 35.0572 10.1133 34.9305 10.44C34.8039 10.76 34.6239 11.0467 34.3905 11.3C34.1639 11.5467 33.8905 11.7433 33.5705 11.89C33.2572 12.03 32.9105 12.1 32.5305 12.1ZM30.6405 9.42C30.6405 9.80667 30.7239 10.16 30.8905 10.48C31.0639 10.7933 31.2939 11.0433 31.5805 11.23C31.8672 11.41 32.1839 11.5 32.5305 11.5C32.8772 11.5 33.1939 11.4067 33.4805 11.22C33.7672 11.0333 33.9972 10.78 34.1705 10.46C34.3439 10.1333 34.4305 9.78 34.4305 9.4C34.4305 9.01333 34.3439 8.66 34.1705 8.34C33.9972 8.02 33.7672 7.76667 33.4805 7.58C33.1939 7.39333 32.8772 7.3 32.5305 7.3C32.1839 7.3 31.8672 7.39667 31.5805 7.59C31.3005 7.78333 31.0739 8.04 30.9005 8.36C30.7272 8.67333 30.6405 9.02667 30.6405 9.42ZM38.5178 12.1C38.1378 12.1 37.7878 12.03 37.4678 11.89C37.1545 11.7433 36.8778 11.5433 36.6378 11.29C36.4045 11.0367 36.2211 10.7467 36.0878 10.42C35.9611 10.0933 35.8978 9.74667 35.8978 9.38C35.8978 8.88667 36.0078 8.43667 36.2278 8.03C36.4478 7.62333 36.7545 7.3 37.1478 7.06C37.5411 6.82 37.9945 6.7 38.5078 6.7C38.9945 6.7 39.4245 6.81333 39.7978 7.04C40.1711 7.26 40.4478 7.56 40.6278 7.94L39.9678 8.15C39.8211 7.88333 39.6145 7.67667 39.3478 7.53C39.0878 7.37667 38.7978 7.3 38.4778 7.3C38.1311 7.3 37.8145 7.39 37.5278 7.57C37.2411 7.75 37.0111 7.99667 36.8378 8.31C36.6711 8.62333 36.5878 8.98 36.5878 9.38C36.5878 9.77333 36.6745 10.13 36.8478 10.45C37.0211 10.77 37.2511 11.0267 37.5378 11.22C37.8245 11.4067 38.1411 11.5 38.4878 11.5C38.7145 11.5 38.9311 11.46 39.1378 11.38C39.3511 11.3 39.5345 11.1933 39.6878 11.06C39.8478 10.92 39.9545 10.77 40.0078 10.61L40.6778 10.81C40.5845 11.0567 40.4278 11.28 40.2078 11.48C39.9945 11.6733 39.7411 11.8267 39.4478 11.94C39.1611 12.0467 38.8511 12.1 38.5178 12.1ZM43.9473 12.1C43.5739 12.1 43.2273 12.03 42.9073 11.89C42.5873 11.7433 42.3106 11.5467 42.0773 11.3C41.8439 11.0467 41.6606 10.7567 41.5273 10.43C41.4006 10.1033 41.3373 9.75333 41.3373 9.38C41.3373 8.89333 41.4473 8.44667 41.6673 8.04C41.8939 7.63333 42.2039 7.31 42.5973 7.07C42.9906 6.82333 43.4373 6.7 43.9373 6.7C44.4506 6.7 44.8973 6.82333 45.2773 7.07C45.6639 7.31667 45.9673 7.64333 46.1873 8.05C46.4073 8.45 46.5173 8.89 46.5173 9.37C46.5173 9.42333 46.5173 9.47667 46.5173 9.53C46.5173 9.57667 46.5139 9.61333 46.5073 9.64H42.0473C42.0806 10.0133 42.1839 10.3467 42.3573 10.64C42.5373 10.9267 42.7673 11.1567 43.0473 11.33C43.3339 11.4967 43.6439 11.58 43.9773 11.58C44.3173 11.58 44.6373 11.4933 44.9373 11.32C45.2439 11.1467 45.4573 10.92 45.5773 10.64L46.1673 10.8C46.0606 11.0467 45.8973 11.27 45.6773 11.47C45.4573 11.67 45.1973 11.8267 44.8973 11.94C44.6039 12.0467 44.2873 12.1 43.9473 12.1ZM42.0273 9.15H45.8773C45.8506 8.77 45.7473 8.43667 45.5673 8.15C45.3939 7.86333 45.1639 7.64 44.8773 7.48C44.5973 7.31333 44.2873 7.23 43.9473 7.23C43.6073 7.23 43.2973 7.31333 43.0173 7.48C42.7373 7.64 42.5073 7.86667 42.3273 8.16C42.1539 8.44667 42.0539 8.77667 42.0273 9.15ZM49.2764 12.1C48.8497 12.1 48.4531 12.03 48.0864 11.89C47.7197 11.75 47.4031 11.5367 47.1364 11.25L47.4164 10.77C47.7097 11.0433 48.0031 11.2433 48.2964 11.37C48.5964 11.49 48.9131 11.55 49.2464 11.55C49.6531 11.55 49.9831 11.47 50.2364 11.31C50.4897 11.1433 50.6164 10.9067 50.6164 10.6C50.6164 10.3933 50.5531 10.2367 50.4264 10.13C50.3064 10.0167 50.1297 9.92667 49.8964 9.86C49.6697 9.78667 49.3964 9.71 49.0764 9.63C48.7164 9.53 48.4131 9.42667 48.1664 9.32C47.9264 9.20667 47.7431 9.06667 47.6164 8.9C47.4964 8.72667 47.4364 8.50333 47.4364 8.23C47.4364 7.89 47.5197 7.61 47.6864 7.39C47.8597 7.16333 48.0931 6.99333 48.3864 6.88C48.6864 6.76 49.0197 6.7 49.3864 6.7C49.7864 6.7 50.1397 6.76333 50.4464 6.89C50.7531 7.01667 51.0031 7.19333 51.1964 7.42L50.8664 7.88C50.6797 7.66667 50.4564 7.51 50.1964 7.41C49.9431 7.30333 49.6597 7.25 49.3464 7.25C49.1331 7.25 48.9297 7.28 48.7364 7.34C48.5431 7.39333 48.3831 7.48667 48.2564 7.62C48.1364 7.74667 48.0764 7.92333 48.0764 8.15C48.0764 8.33667 48.1231 8.48333 48.2164 8.59C48.3097 8.69 48.4497 8.77667 48.6364 8.85C48.8231 8.91667 49.0531 8.99 49.3264 9.07C49.7197 9.17667 50.0631 9.28667 50.3564 9.4C50.6497 9.50667 50.8764 9.64667 51.0364 9.82C51.1964 9.99333 51.2764 10.2367 51.2764 10.55C51.2764 11.0367 51.0931 11.4167 50.7264 11.69C50.3597 11.9633 49.8764 12.1 49.2764 12.1ZM54.1104 12.1C53.6837 12.1 53.2871 12.03 52.9204 11.89C52.5537 11.75 52.2371 11.5367 51.9704 11.25L52.2504 10.77C52.5437 11.0433 52.8371 11.2433 53.1304 11.37C53.4304 11.49 53.7471 11.55 54.0804 11.55C54.4871 11.55 54.8171 11.47 55.0704 11.31C55.3237 11.1433 55.4504 10.9067 55.4504 10.6C55.4504 10.3933 55.3871 10.2367 55.2604 10.13C55.1404 10.0167 54.9637 9.92667 54.7304 9.86C54.5037 9.78667 54.2304 9.71 53.9104 9.63C53.5504 9.53 53.2471 9.42667 53.0004 9.32C52.7604 9.20667 52.5771 9.06667 52.4504 8.9C52.3304 8.72667 52.2704 8.50333 52.2704 8.23C52.2704 7.89 52.3537 7.61 52.5204 7.39C52.6937 7.16333 52.9271 6.99333 53.2204 6.88C53.5204 6.76 53.8537 6.7 54.2204 6.7C54.6204 6.7 54.9737 6.76333 55.2804 6.89C55.5871 7.01667 55.8371 7.19333 56.0304 7.42L55.7004 7.88C55.5137 7.66667 55.2904 7.51 55.0304 7.41C54.7771 7.30333 54.4937 7.25 54.1804 7.25C53.9671 7.25 53.7637 7.28 53.5704 7.34C53.3771 7.39333 53.2171 7.48667 53.0904 7.62C52.9704 7.74667 52.9104 7.92333 52.9104 8.15C52.9104 8.33667 52.9571 8.48333 53.0504 8.59C53.1437 8.69 53.2837 8.77667 53.4704 8.85C53.6571 8.91667 53.8871 8.99 54.1604 9.07C54.5537 9.17667 54.8971 9.28667 55.1904 9.4C55.4837 9.50667 55.7104 9.64667 55.8704 9.82C56.0304 9.99333 56.1104 10.2367 56.1104 10.55C56.1104 11.0367 55.9271 11.4167 55.5604 11.69C55.1937 11.9633 54.7104 12.1 54.1104 12.1ZM57.2344 12V6.79H57.9144V12H57.2344ZM57.2344 5.7V4.7H57.9144V5.7H57.2344ZM63.7921 12H63.1121V9.09C63.1121 8.47667 63.0221 8.03 62.8421 7.75C62.6621 7.46333 62.3788 7.32 61.9921 7.32C61.7254 7.32 61.4621 7.38667 61.2021 7.52C60.9421 7.64667 60.7121 7.82333 60.5121 8.05C60.3188 8.27 60.1788 8.52333 60.0921 8.81V12H59.4121V6.79H60.0321V7.97C60.1721 7.71667 60.3554 7.49667 60.5821 7.31C60.8088 7.11667 61.0654 6.96667 61.3521 6.86C61.6388 6.75333 61.9354 6.7 62.2421 6.7C62.5288 6.7 62.7721 6.75333 62.9721 6.86C63.1721 6.96667 63.3321 7.12 63.4521 7.32C63.5721 7.51333 63.6588 7.75 63.7121 8.03C63.7654 8.30333 63.7921 8.61 63.7921 8.95V12ZM67.3322 12.07C66.9789 12.07 66.6522 11.9967 66.3522 11.85C66.0522 11.7033 65.7922 11.5067 65.5722 11.26C65.3589 11.0067 65.1922 10.72 65.0722 10.4C64.9522 10.08 64.8922 9.75 64.8922 9.41C64.8922 9.04333 64.9489 8.7 65.0622 8.38C65.1822 8.05333 65.3489 7.76333 65.5622 7.51C65.7822 7.25667 66.0389 7.06 66.3322 6.92C66.6255 6.77333 66.9522 6.7 67.3122 6.7C67.7589 6.7 68.1455 6.81333 68.4722 7.04C68.8055 7.26667 69.0855 7.54667 69.3122 7.88V6.79H69.9222V12.02C69.9222 12.5 69.8055 12.9033 69.5722 13.23C69.3455 13.5633 69.0355 13.8133 68.6422 13.98C68.2555 14.1467 67.8322 14.23 67.3722 14.23C66.7789 14.23 66.2989 14.1233 65.9322 13.91C65.5655 13.6967 65.2655 13.41 65.0322 13.05L65.4522 12.72C65.6589 13.0467 65.9322 13.29 66.2722 13.45C66.6189 13.61 66.9855 13.69 67.3722 13.69C67.7122 13.69 68.0222 13.6267 68.3022 13.5C68.5889 13.38 68.8155 13.1967 68.9822 12.95C69.1555 12.7033 69.2422 12.3933 69.2422 12.02V10.99C69.0422 11.3167 68.7689 11.58 68.4222 11.78C68.0755 11.9733 67.7122 12.07 67.3322 12.07ZM67.5222 11.5C67.7289 11.5 67.9255 11.4633 68.1122 11.39C68.3055 11.3167 68.4822 11.22 68.6422 11.1C68.8022 10.9733 68.9355 10.8333 69.0422 10.68C69.1489 10.5267 69.2155 10.37 69.2422 10.21V8.6C69.1422 8.34667 68.9989 8.12333 68.8122 7.93C68.6255 7.73 68.4122 7.57667 68.1722 7.47C67.9389 7.35667 67.6955 7.3 67.4422 7.3C67.1489 7.3 66.8855 7.36333 66.6522 7.49C66.4255 7.61 66.2322 7.77333 66.0722 7.98C65.9189 8.18 65.7989 8.40667 65.7122 8.66C65.6255 8.91333 65.5822 9.16667 65.5822 9.42C65.5822 9.7 65.6322 9.96667 65.7322 10.22C65.8322 10.4667 65.9689 10.69 66.1422 10.89C66.3222 11.0833 66.5289 11.2333 66.7622 11.34C67.0022 11.4467 67.2555 11.5 67.5222 11.5Z" fill="#727272"/>
<defs>
<clipPath id="clip0_1953_7494">
<rect width="16" height="16" fill="white"/>
</clipPath>
</defs>
</svg>
