<svg width="44" height="44" viewBox="0 0 44 44" fill="none" xmlns="http://www.w3.org/2000/svg">
<rect width="44" height="44" rx="8" fill="#DC0019" fill-opacity="0.1"/>
<path d="M24.1108 22.7137C23.5249 22.1278 22.575 22.1279 21.9893 22.7139L17.7477 26.9569C17.5525 27.1522 17.2357 27.1522 17.0404 26.9568L16.6907 27.3063L17.0404 26.9568C16.8452 26.7615 16.8453 26.4449 17.0405 26.2497L16.6913 25.9005L17.0405 26.2497L21.2833 22.0077C21.8691 21.4219 21.8692 20.4721 21.2834 19.8863L18.7476 17.3506C18.4327 17.0356 18.6557 16.497 19.1012 16.497H27C27.2761 16.497 27.5 16.7209 27.5 16.997V24.8958C27.5 25.3412 26.9614 25.5643 26.6464 25.2493L24.1108 22.7137Z" fill="#DC0019" stroke="#DC0019"/>
</svg>
