<svg width="64" height="16" viewBox="0 0 64 16" fill="none" xmlns="http://www.w3.org/2000/svg">
<path d="M8.00004 1.3335C4.32671 1.3335 1.33337 4.32683 1.33337 8.00016C1.33337 11.6735 4.32671 14.6668 8.00004 14.6668C11.6734 14.6668 14.6667 11.6735 14.6667 8.00016C14.6667 4.32683 11.6734 1.3335 8.00004 1.3335ZM11.1867 6.46683L7.40671 10.2468C7.31337 10.3402 7.18671 10.3935 7.05337 10.3935C6.92004 10.3935 6.79337 10.3402 6.70004 10.2468L4.81337 8.36016C4.62004 8.16683 4.62004 7.84683 4.81337 7.6535C5.00671 7.46016 5.32671 7.46016 5.52004 7.6535L7.05337 9.18683L10.48 5.76016C10.6734 5.56683 10.9934 5.56683 11.1867 5.76016C11.38 5.9535 11.38 6.26683 11.1867 6.46683Z" fill="#C57600"/>
<path d="M26 5.484C25.92 5.396 25.804 5.304 25.652 5.208C25.5 5.104 25.32 5.008 25.112 4.92C24.904 4.832 24.68 4.76 24.44 4.704C24.2 4.648 23.952 4.62 23.696 4.62C23.136 4.62 22.72 4.724 22.448 4.932C22.176 5.14 22.04 5.428 22.04 5.796C22.04 6.068 22.116 6.284 22.268 6.444C22.42 6.596 22.652 6.724 22.964 6.828C23.276 6.932 23.668 7.044 24.14 7.164C24.716 7.3 25.216 7.464 25.64 7.656C26.064 7.84 26.388 8.088 26.612 8.4C26.836 8.712 26.948 9.124 26.948 9.636C26.948 10.068 26.868 10.44 26.708 10.752C26.548 11.064 26.324 11.32 26.036 11.52C25.748 11.712 25.416 11.856 25.04 11.952C24.664 12.04 24.26 12.084 23.828 12.084C23.404 12.084 22.98 12.04 22.556 11.952C22.14 11.864 21.74 11.736 21.356 11.568C20.98 11.392 20.632 11.18 20.312 10.932L20.924 9.78C21.028 9.884 21.176 10 21.368 10.128C21.568 10.248 21.796 10.364 22.052 10.476C22.316 10.588 22.6 10.684 22.904 10.764C23.216 10.836 23.532 10.872 23.852 10.872C24.388 10.872 24.796 10.78 25.076 10.596C25.364 10.404 25.508 10.132 25.508 9.78C25.508 9.492 25.416 9.264 25.232 9.096C25.048 8.92 24.78 8.772 24.428 8.652C24.076 8.532 23.656 8.412 23.168 8.292C22.608 8.14 22.14 7.976 21.764 7.8C21.388 7.616 21.104 7.384 20.912 7.104C20.728 6.816 20.636 6.452 20.636 6.012C20.636 5.452 20.772 4.98 21.044 4.596C21.316 4.204 21.684 3.912 22.148 3.72C22.62 3.52 23.148 3.42 23.732 3.42C24.116 3.42 24.48 3.464 24.824 3.552C25.168 3.632 25.488 3.744 25.784 3.888C26.088 4.032 26.364 4.196 26.612 4.38L26 5.484ZM30.9719 12.12C30.4839 12.12 30.0399 12.036 29.6399 11.868C29.2479 11.692 28.9079 11.456 28.6199 11.16C28.3319 10.856 28.1079 10.512 27.9479 10.128C27.7959 9.736 27.7199 9.32 27.7199 8.88C27.7199 8.288 27.8559 7.748 28.1279 7.26C28.3999 6.764 28.7799 6.368 29.2679 6.072C29.7559 5.768 30.3279 5.616 30.9839 5.616C31.6399 5.616 32.2039 5.768 32.6759 6.072C33.1559 6.368 33.5279 6.76 33.7919 7.248C34.0559 7.736 34.1879 8.26 34.1879 8.82C34.1879 8.916 34.1839 9.008 34.1759 9.096C34.1679 9.176 34.1599 9.244 34.1519 9.3H29.1239C29.1479 9.668 29.2479 9.992 29.4239 10.272C29.6079 10.544 29.8399 10.76 30.1199 10.92C30.3999 11.072 30.6999 11.148 31.0199 11.148C31.3719 11.148 31.7039 11.06 32.0159 10.884C32.3359 10.708 32.5519 10.476 32.6639 10.188L33.7919 10.512C33.6559 10.816 33.4479 11.092 33.1679 11.34C32.8959 11.58 32.5719 11.772 32.1959 11.916C31.8199 12.052 31.4119 12.12 30.9719 12.12ZM29.0879 8.424H32.8799C32.8559 8.064 32.7519 7.748 32.5679 7.476C32.3919 7.196 32.1639 6.98 31.8839 6.828C31.6119 6.668 31.3079 6.588 30.9719 6.588C30.6439 6.588 30.3399 6.668 30.0599 6.828C29.7879 6.98 29.5639 7.196 29.3879 7.476C29.2119 7.748 29.1119 8.064 29.0879 8.424ZM38.7927 6.864C38.2807 6.872 37.8247 6.988 37.4247 7.212C37.0327 7.436 36.7527 7.752 36.5847 8.16V12H35.2647V5.724H36.4887V7.128C36.7047 6.696 36.9887 6.352 37.3407 6.096C37.6927 5.832 38.0647 5.688 38.4567 5.664C38.5367 5.664 38.6007 5.664 38.6487 5.664C38.7047 5.664 38.7527 5.668 38.7927 5.676V6.864ZM41.5049 12L39.1169 5.724H40.4849L42.2729 10.776L44.0609 5.724H45.3329L42.9449 12H41.5049ZM46.2803 12V5.724H47.6003V12H46.2803ZM46.2803 4.692V3.24H47.6003V4.692H46.2803ZM54.8145 12H53.4945V8.484C53.4945 7.9 53.3985 7.472 53.2065 7.2C53.0225 6.928 52.7465 6.792 52.3785 6.792C52.1225 6.792 51.8665 6.856 51.6105 6.984C51.3625 7.112 51.1385 7.288 50.9385 7.512C50.7385 7.728 50.5945 7.98 50.5065 8.268V12H49.1865V5.724H50.3865V6.984C50.5465 6.704 50.7545 6.464 51.0105 6.264C51.2745 6.056 51.5705 5.896 51.8985 5.784C52.2265 5.672 52.5745 5.616 52.9425 5.616C53.3185 5.616 53.6265 5.684 53.8665 5.82C54.1145 5.956 54.3065 6.144 54.4425 6.384C54.5865 6.616 54.6825 6.888 54.7305 7.2C54.7865 7.504 54.8145 7.828 54.8145 8.172V12ZM58.8307 12.06C58.4067 12.06 58.0187 11.976 57.6667 11.808C57.3147 11.632 57.0107 11.396 56.7547 11.1C56.5067 10.804 56.3107 10.464 56.1667 10.08C56.0307 9.696 55.9627 9.292 55.9627 8.868C55.9627 8.42 56.0347 8 56.1787 7.608C56.3227 7.216 56.5227 6.872 56.7787 6.576C57.0427 6.272 57.3507 6.036 57.7027 5.868C58.0547 5.7 58.4467 5.616 58.8787 5.616C59.3827 5.616 59.8227 5.736 60.1987 5.976C60.5827 6.216 60.8987 6.528 61.1467 6.912V5.724H62.3107V11.82C62.3107 12.428 62.1627 12.944 61.8667 13.368C61.5787 13.792 61.1827 14.116 60.6787 14.34C60.1747 14.564 59.6067 14.676 58.9747 14.676C58.2787 14.676 57.7027 14.556 57.2467 14.316C56.7907 14.076 56.4027 13.748 56.0827 13.332L56.8267 12.636C57.0667 12.972 57.3747 13.228 57.7507 13.404C58.1347 13.58 58.5427 13.668 58.9747 13.668C59.3347 13.668 59.6667 13.6 59.9707 13.464C60.2827 13.336 60.5307 13.132 60.7147 12.852C60.8987 12.58 60.9907 12.236 60.9907 11.82V10.86C60.7667 11.236 60.4587 11.532 60.0667 11.748C59.6747 11.956 59.2627 12.06 58.8307 12.06ZM59.2627 10.992C59.4627 10.992 59.6547 10.96 59.8387 10.896C60.0227 10.824 60.1907 10.732 60.3427 10.62C60.5027 10.5 60.6387 10.368 60.7507 10.224C60.8627 10.072 60.9427 9.912 60.9907 9.744V8.1C60.8867 7.828 60.7387 7.592 60.5467 7.392C60.3547 7.184 60.1387 7.024 59.8987 6.912C59.6587 6.8 59.4147 6.744 59.1667 6.744C58.8787 6.744 58.6187 6.808 58.3867 6.936C58.1627 7.056 57.9707 7.22 57.8107 7.428C57.6507 7.628 57.5267 7.856 57.4387 8.112C57.3507 8.368 57.3067 8.632 57.3067 8.904C57.3067 9.192 57.3547 9.46 57.4507 9.708C57.5547 9.956 57.6947 10.18 57.8707 10.38C58.0467 10.572 58.2547 10.724 58.4947 10.836C58.7347 10.94 58.9907 10.992 59.2627 10.992Z" fill="#C57600"/>
</svg>
