<svg width="63" height="16" viewBox="0 0 63 16" fill="none" xmlns="http://www.w3.org/2000/svg">
<g opacity="0.5">
<path d="M8.50004 1.3335C4.82671 1.3335 1.83337 4.32683 1.83337 8.00016C1.83337 11.6735 4.82671 14.6668 8.50004 14.6668C12.1734 14.6668 15.1667 11.6735 15.1667 8.00016C15.1667 4.32683 12.1734 1.3335 8.50004 1.3335ZM11.6867 6.46683L7.90671 10.2468C7.81337 10.3402 7.68671 10.3935 7.55337 10.3935C7.42004 10.3935 7.29337 10.3402 7.20004 10.2468L5.31337 8.36016C5.12004 8.16683 5.12004 7.84683 5.31337 7.6535C5.50671 7.46016 5.82671 7.46016 6.02004 7.6535L7.55337 9.18683L10.98 5.76016C11.1734 5.56683 11.4934 5.56683 11.6867 5.76016C11.88 5.9535 11.88 6.26683 11.6867 6.46683Z" fill="#727272"/>
</g>
<path d="M26.548 5.076C26.428 4.94 26.288 4.82 26.128 4.716C25.968 4.604 25.788 4.508 25.588 4.428C25.388 4.348 25.172 4.284 24.94 4.236C24.716 4.188 24.476 4.164 24.22 4.164C23.476 4.164 22.928 4.308 22.576 4.596C22.232 4.876 22.06 5.26 22.06 5.748C22.06 6.084 22.14 6.348 22.3 6.54C22.468 6.732 22.728 6.888 23.08 7.008C23.432 7.128 23.88 7.252 24.424 7.38C25.032 7.508 25.556 7.66 25.996 7.836C26.436 8.012 26.776 8.252 27.016 8.556C27.256 8.852 27.376 9.256 27.376 9.768C27.376 10.16 27.3 10.5 27.148 10.788C26.996 11.076 26.784 11.316 26.512 11.508C26.24 11.7 25.916 11.844 25.54 11.94C25.164 12.028 24.752 12.072 24.304 12.072C23.864 12.072 23.44 12.028 23.032 11.94C22.632 11.844 22.252 11.708 21.892 11.532C21.532 11.348 21.196 11.116 20.884 10.836L21.304 10.152C21.456 10.312 21.636 10.464 21.844 10.608C22.06 10.744 22.296 10.868 22.552 10.98C22.816 11.092 23.096 11.18 23.392 11.244C23.696 11.3 24.008 11.328 24.328 11.328C25.008 11.328 25.536 11.204 25.912 10.956C26.296 10.708 26.488 10.34 26.488 9.852C26.488 9.5 26.392 9.22 26.2 9.012C26.008 8.796 25.72 8.62 25.336 8.484C24.952 8.348 24.48 8.216 23.92 8.088C23.328 7.952 22.828 7.8 22.42 7.632C22.012 7.464 21.704 7.244 21.496 6.972C21.296 6.692 21.196 6.324 21.196 5.868C21.196 5.34 21.324 4.896 21.58 4.536C21.844 4.168 22.204 3.892 22.66 3.708C23.116 3.516 23.64 3.42 24.232 3.42C24.608 3.42 24.956 3.46 25.276 3.54C25.604 3.612 25.904 3.72 26.176 3.864C26.456 4.008 26.716 4.188 26.956 4.404L26.548 5.076ZM31.3891 12.12C30.9411 12.12 30.5251 12.036 30.1411 11.868C29.7571 11.692 29.4251 11.456 29.1451 11.16C28.8651 10.856 28.6451 10.508 28.4851 10.116C28.3331 9.724 28.2571 9.304 28.2571 8.856C28.2571 8.272 28.3891 7.736 28.6531 7.248C28.9251 6.76 29.2971 6.372 29.7691 6.084C30.2411 5.788 30.7771 5.64 31.3771 5.64C31.9931 5.64 32.5291 5.788 32.9851 6.084C33.4491 6.38 33.8131 6.772 34.0771 7.26C34.3411 7.74 34.4731 8.268 34.4731 8.844C34.4731 8.908 34.4731 8.972 34.4731 9.036C34.4731 9.092 34.4691 9.136 34.4611 9.168H29.1091C29.1491 9.616 29.2731 10.016 29.4811 10.368C29.6971 10.712 29.9731 10.988 30.3091 11.196C30.6531 11.396 31.0251 11.496 31.4251 11.496C31.8331 11.496 32.2171 11.392 32.5771 11.184C32.9451 10.976 33.2011 10.704 33.3451 10.368L34.0531 10.56C33.9251 10.856 33.7291 11.124 33.4651 11.364C33.2011 11.604 32.8891 11.792 32.5291 11.928C32.1771 12.056 31.7971 12.12 31.3891 12.12ZM29.0851 8.58H33.7051C33.6731 8.124 33.5491 7.724 33.3331 7.38C33.1251 7.036 32.8491 6.768 32.5051 6.576C32.1691 6.376 31.7971 6.276 31.3891 6.276C30.9811 6.276 30.6091 6.376 30.2731 6.576C29.9371 6.768 29.6611 7.04 29.4451 7.392C29.2371 7.736 29.1171 8.132 29.0851 8.58ZM38.852 6.468C38.308 6.484 37.828 6.636 37.412 6.924C37.004 7.212 36.716 7.608 36.548 8.112V12H35.732V5.748H36.5V7.248C36.716 6.808 37 6.452 37.352 6.18C37.712 5.908 38.092 5.756 38.492 5.724C38.572 5.716 38.64 5.712 38.696 5.712C38.76 5.712 38.812 5.716 38.852 5.724V6.468ZM41.7991 12L39.2671 5.748H40.1191L42.2551 11.184L44.4031 5.748H45.2071L42.6751 12H41.7991ZM46.3375 12V5.748H47.1535V12H46.3375ZM46.3375 4.44V3.24H47.1535V4.44H46.3375ZM54.2068 12H53.3908V8.508C53.3908 7.772 53.2828 7.236 53.0668 6.9C52.8508 6.556 52.5108 6.384 52.0468 6.384C51.7268 6.384 51.4108 6.464 51.0988 6.624C50.7868 6.776 50.5108 6.988 50.2708 7.26C50.0388 7.524 49.8708 7.828 49.7668 8.172V12H48.9508V5.748H49.6948V7.164C49.8628 6.86 50.0828 6.596 50.3548 6.372C50.6268 6.14 50.9348 5.96 51.2788 5.832C51.6228 5.704 51.9788 5.64 52.3468 5.64C52.6908 5.64 52.9828 5.704 53.2228 5.832C53.4628 5.96 53.6548 6.144 53.7988 6.384C53.9428 6.616 54.0468 6.9 54.1108 7.236C54.1748 7.564 54.2068 7.932 54.2068 8.34V12ZM58.4549 12.084C58.0309 12.084 57.6389 11.996 57.2789 11.82C56.9189 11.644 56.6069 11.408 56.3429 11.112C56.0869 10.808 55.8869 10.464 55.7429 10.08C55.5989 9.696 55.5269 9.3 55.5269 8.892C55.5269 8.452 55.5949 8.04 55.7309 7.656C55.8749 7.264 56.0749 6.916 56.3309 6.612C56.5949 6.308 56.9029 6.072 57.2549 5.904C57.6069 5.728 57.9989 5.64 58.4309 5.64C58.9669 5.64 59.4309 5.776 59.8229 6.048C60.2229 6.32 60.5589 6.656 60.8309 7.056V5.748H61.5629V12.024C61.5629 12.6 61.4229 13.084 61.1429 13.476C60.8709 13.876 60.4989 14.176 60.0269 14.376C59.5629 14.576 59.0549 14.676 58.5029 14.676C57.7909 14.676 57.2149 14.548 56.7749 14.292C56.3349 14.036 55.9749 13.692 55.6949 13.26L56.1989 12.864C56.4469 13.256 56.7749 13.548 57.1829 13.74C57.5989 13.932 58.0389 14.028 58.5029 14.028C58.9109 14.028 59.2829 13.952 59.6189 13.8C59.9629 13.656 60.2349 13.436 60.4349 13.14C60.6429 12.844 60.7469 12.472 60.7469 12.024V10.788C60.5069 11.18 60.1789 11.496 59.7629 11.736C59.3469 11.968 58.9109 12.084 58.4549 12.084ZM58.6829 11.4C58.9309 11.4 59.1669 11.356 59.3909 11.268C59.6229 11.18 59.8349 11.064 60.0269 10.92C60.2189 10.768 60.3789 10.6 60.5069 10.416C60.6349 10.232 60.7149 10.044 60.7469 9.852V7.92C60.6269 7.616 60.4549 7.348 60.2309 7.116C60.0069 6.876 59.7509 6.692 59.4629 6.564C59.1829 6.428 58.8909 6.36 58.5869 6.36C58.2349 6.36 57.9189 6.436 57.6389 6.588C57.3669 6.732 57.1349 6.928 56.9429 7.176C56.7589 7.416 56.6149 7.688 56.5109 7.992C56.4069 8.296 56.3549 8.6 56.3549 8.904C56.3549 9.24 56.4149 9.56 56.5349 9.864C56.6549 10.16 56.8189 10.428 57.0269 10.668C57.2429 10.9 57.4909 11.08 57.7709 11.208C58.0589 11.336 58.3629 11.4 58.6829 11.4Z" fill="#727272"/>
</svg>
