<svg width="4" height="12" viewBox="0 0 4 12" fill="none" xmlns="http://www.w3.org/2000/svg">
<path d="M1.99996 0C1.26663 0 0.666626 0.6 0.666626 1.33333C0.666626 2.06667 1.26663 2.66667 1.99996 2.66667C2.73329 2.66667 3.33329 2.06667 3.33329 1.33333C3.33329 0.6 2.73329 0 1.99996 0ZM1.99996 9.33333C1.26663 9.33333 0.666626 9.93333 0.666626 10.6667C0.666626 11.4 1.26663 12 1.99996 12C2.73329 12 3.33329 11.4 3.33329 10.6667C3.33329 9.93333 2.73329 9.33333 1.99996 9.33333ZM1.99996 4.66667C1.26663 4.66667 0.666626 5.26667 0.666626 6C0.666626 6.73333 1.26663 7.33333 1.99996 7.33333C2.73329 7.33333 3.33329 6.73333 3.33329 6C3.33329 5.26667 2.73329 4.66667 1.99996 4.66667Z" fill="black"/>
</svg>
