<svg width="27" height="19" viewBox="0 0 27 19" fill="none" xmlns="http://www.w3.org/2000/svg">
<path fill-rule="evenodd" clip-rule="evenodd" d="M22.9497 11.7746H13.0518C13.0518 11.7746 12.302 11.9477 12.302 12.7876C12.302 13.6316 13.0518 13.8768 13.0518 13.8768H22.3421L21.6984 16.0944H10.0076L9.18506 9.40659H23.6357L22.9495 11.7765L22.9497 11.7746ZM25.0447 7.14816H9.14485C9.06968 7.169 8.99694 7.19805 8.92788 7.23483L8.91768 7.14816C8.91768 7.14816 8.67826 5.06474 8.54294 4.2045C8.40823 3.33842 6.29084 2.25733 1.73909 0.0674502C0.668552 -0.390902 -0.226654 1.60772 1.73909 2.65402L5.32869 4.36471C5.32869 4.36471 6.16368 4.85994 6.23532 5.52351C6.30697 6.19021 7.76346 17.2115 7.76346 17.2115C7.76346 17.2115 7.82163 18.7457 9.1871 18.7457H22.1815C23.3279 18.7457 23.5508 17.523 23.5508 17.523L26.2654 9.29513C26.2654 9.29513 27.0702 7.14775 25.0451 7.14775L25.0447 7.14816Z" fill="white"/>
</svg>
