<svg width="25" height="20" viewBox="0 0 25 20" fill="none" xmlns="http://www.w3.org/2000/svg">
<path d="M7.36659 11.9667L6.13325 13.2C5.87325 13.46 5.45992 13.46 5.19325 13.2067C5.11992 13.1334 5.04659 13.0667 4.97325 12.9934C4.28659 12.3 3.66659 11.5734 3.11325 10.8134C2.56659 10.0534 2.12659 9.29337 1.80659 8.54004C1.49325 7.78004 1.33325 7.05337 1.33325 6.36004C1.33325 5.90671 1.41325 5.47337 1.57325 5.07337C1.73325 4.66671 1.98659 4.29337 2.33992 3.96004C2.76659 3.54004 3.23325 3.33337 3.72659 3.33337C3.91325 3.33337 4.09992 3.37337 4.26659 3.45337C4.43992 3.53337 4.59325 3.65337 4.71325 3.82671L6.25992 6.00671C6.37992 6.17337 6.46659 6.32671 6.52659 6.47337C6.58659 6.61337 6.61992 6.75337 6.61992 6.88004C6.61992 7.04004 6.57325 7.20004 6.47992 7.35337C6.39325 7.50671 6.26658 7.66671 6.10659 7.82671L5.59992 8.35337C5.52658 8.42671 5.49325 8.51337 5.49325 8.62004C5.49325 8.67337 5.49992 8.72004 5.51325 8.77337C5.53325 8.82671 5.55325 8.86671 5.56659 8.90671C5.68659 9.12671 5.89325 9.41337 6.18658 9.76004C6.48658 10.1067 6.80658 10.46 7.15325 10.8134C7.21992 10.88 7.29325 10.9467 7.35992 11.0134C7.62659 11.2734 7.63325 11.7 7.36659 11.9667Z" fill="#727272"/>
<path d="M14.6466 14.22C14.6466 14.4067 14.6132 14.6 14.5466 14.7867C14.5266 14.84 14.5066 14.8933 14.4799 14.9467C14.3666 15.1867 14.2199 15.4133 14.0266 15.6267C13.6999 15.9867 13.3399 16.2467 12.9332 16.4133C12.9266 16.4133 12.9199 16.42 12.9132 16.42C12.5199 16.58 12.0932 16.6667 11.6332 16.6667C10.9532 16.6667 10.2266 16.5067 9.4599 16.18C8.69324 15.8533 7.92657 15.4133 7.16657 14.86C6.90657 14.6667 6.64657 14.4733 6.3999 14.2667L8.5799 12.0867C8.76657 12.2267 8.93324 12.3333 9.07324 12.4067C9.10657 12.42 9.14657 12.44 9.19324 12.46C9.24657 12.48 9.2999 12.4867 9.3599 12.4867C9.47324 12.4867 9.5599 12.4467 9.63324 12.3733L10.1399 11.8733C10.3066 11.7067 10.4666 11.58 10.6199 11.5C10.7732 11.4067 10.9266 11.36 11.0932 11.36C11.2199 11.36 11.3532 11.3867 11.4999 11.4467C11.6466 11.5067 11.7999 11.5933 11.9666 11.7067L14.1732 13.2733C14.3466 13.3933 14.4666 13.5333 14.5399 13.7C14.6066 13.8667 14.6466 14.0333 14.6466 14.22Z" fill="#727272"/>
<line x1="24.5" y1="0.5" x2="24.5" y2="19.5" stroke="#CDCDCD"/>
</svg>
