<svg width="44" height="44" viewBox="0 0 44 44" fill="none" xmlns="http://www.w3.org/2000/svg">
<rect width="44" height="44" rx="8" fill="#DC0019" fill-opacity="0.1"/>
<path d="M22 12C24.5 12 26.75 12.9 28.5 14.4C27.4014 15.3381 26.5195 16.5034 25.9153 17.8156C25.311 19.1277 24.9987 20.5554 25 22C25 25.04 26.36 27.77 28.5 29.6C26.75 31.1 24.5 32 22 32C19.5 32 17.25 31.1 15.5 29.6C16.5986 28.6619 17.4805 27.4966 18.0848 26.1844C18.689 24.8723 19.0013 23.4446 19 22C19 18.96 17.64 16.23 15.5 14.4C17.25 12.9 19.5 12 22 12ZM32 22C32 24.32 31.21 26.45 29.88 28.15C28.9779 27.3992 28.2522 26.4589 27.7545 25.396C27.2568 24.3331 26.9992 23.1737 27 22C27 19.53 28.12 17.32 29.88 15.85C31.2567 17.604 32.0034 19.7702 32 22ZM12 22C12 19.68 12.79 17.55 14.12 15.85C15.0221 16.6008 15.7478 17.5411 16.2455 18.604C16.7433 19.6669 17.0009 20.8263 17 22C17 24.47 15.88 26.68 14.12 28.15C12.7433 26.396 11.9966 24.2298 12 22Z" fill="#DC0019"/>
</svg>
