<svg width="25" height="20" viewBox="0 0 25 20" fill="none" xmlns="http://www.w3.org/2000/svg">
<path d="M14.6668 14.6667V16.6667H1.3335V14.6667C1.3335 14.3 1.6335 14 2.00016 14H14.0002C14.3668 14 14.6668 14.3 14.6668 14.6667Z" fill="#727272" stroke="#727272" stroke-width="1.5" stroke-miterlimit="10" stroke-linecap="round" stroke-linejoin="round"/>
<path d="M4.66683 9.33301H3.3335V13.9997H4.66683V9.33301Z" fill="#727272"/>
<path d="M7.33333 9.33301H6V13.9997H7.33333V9.33301Z" fill="#727272"/>
<path d="M9.99984 9.33301H8.6665V13.9997H9.99984V9.33301Z" fill="#727272"/>
<path d="M12.6668 9.33301H11.3335V13.9997H12.6668V9.33301Z" fill="#727272"/>
<path d="M15.3332 17.167H0.666504C0.393171 17.167 0.166504 16.9403 0.166504 16.667C0.166504 16.3937 0.393171 16.167 0.666504 16.167H15.3332C15.6065 16.167 15.8332 16.3937 15.8332 16.667C15.8332 16.9403 15.6065 17.167 15.3332 17.167Z" fill="#727272"/>
<path d="M14.2468 5.83355L8.24683 3.43355C8.1135 3.38022 7.88683 3.38022 7.7535 3.43355L1.7535 5.83355C1.52016 5.92689 1.3335 6.20022 1.3335 6.45355V8.66689C1.3335 9.03355 1.6335 9.33355 2.00016 9.33355H14.0002C14.3668 9.33355 14.6668 9.03355 14.6668 8.66689V6.45355C14.6668 6.20022 14.4802 5.92689 14.2468 5.83355ZM8.00016 7.66689C7.44683 7.66689 7.00016 7.22022 7.00016 6.66689C7.00016 6.11355 7.44683 5.66689 8.00016 5.66689C8.5535 5.66689 9.00016 6.11355 9.00016 6.66689C9.00016 7.22022 8.5535 7.66689 8.00016 7.66689Z" fill="#727272"/>
<line x1="24.5" y1="0.5" x2="24.5" y2="19.5" stroke="#CDCDCD"/>
</svg>
