<svg width="25" height="23" viewBox="0 0 25 23" fill="none" xmlns="http://www.w3.org/2000/svg">
<path d="M0.46875 19.0625C0.46875 18.5102 0.916465 18.0625 1.46875 18.0625H3.84375C4.39603 18.0625 4.84375 18.5102 4.84375 19.0625V21.4375C4.84375 21.9898 4.39603 22.4375 3.84375 22.4375H1.46875C0.916465 22.4375 0.46875 21.9898 0.46875 21.4375V19.0625ZM7.03125 14.6875C7.03125 14.1352 7.47897 13.6875 8.03125 13.6875H10.4062C10.9585 13.6875 11.4062 14.1352 11.4062 14.6875V21.4375C11.4062 21.9898 10.9585 22.4375 10.4062 22.4375H8.03125C7.47897 22.4375 7.03125 21.9898 7.03125 21.4375V14.6875ZM13.5938 8.125C13.5938 7.57272 14.0415 7.125 14.5938 7.125H16.9688C17.521 7.125 17.9688 7.57272 17.9688 8.125V21.4375C17.9688 21.9898 17.521 22.4375 16.9688 22.4375H14.5938C14.0415 22.4375 13.5938 21.9898 13.5938 21.4375V8.125ZM20.1562 1.5625C20.1562 1.01021 20.604 0.5625 21.1562 0.5625H23.5312C24.0835 0.5625 24.5312 1.01022 24.5312 1.5625V21.4375C24.5312 21.9898 24.0835 22.4375 23.5312 22.4375H21.1562C20.604 22.4375 20.1562 21.9898 20.1562 21.4375V1.5625Z" fill="#EB001B"/>
</svg>
