<svg width="19" height="25" viewBox="0 0 19 25" fill="none" xmlns="http://www.w3.org/2000/svg">
<path fill-rule="evenodd" clip-rule="evenodd" d="M12.8942 0.319946H17.0371C17.6777 0.319946 18.1971 0.839296 18.1971 1.47995V12.3143V23.5199C18.1971 24.1606 17.6777 24.6799 17.0371 24.6799H12.8942C12.8942 22.758 11.3362 21.1999 9.41421 21.1999C7.49226 21.1999 5.93421 22.758 5.93421 24.6799H1.96005C1.3194 24.6799 0.800049 24.1606 0.800049 23.5199L0.800053 23.517L0.828447 12.4419L0.800081 1.48295C0.798423 0.842301 1.31643 0.321608 1.95708 0.31995L1.96008 0.319946H5.93421C5.93421 2.2419 7.49226 3.79995 9.41421 3.79995C11.3362 3.79995 12.8942 2.2419 12.8942 0.319946ZM1.95058 8.43995H3.69707C4.0174 8.43995 4.27707 8.18027 4.27707 7.85995C4.27707 7.53962 4.0174 7.27995 3.69707 7.27995H1.95058C1.63025 7.27995 1.37058 7.53962 1.37058 7.85995C1.37058 8.18027 1.63025 8.43995 1.95058 8.43995ZM17.0371 7.27995H15.2971C14.9767 7.27995 14.7171 7.53962 14.7171 7.85995C14.7171 8.18027 14.9767 8.43995 15.2971 8.43995H17.0371C17.3574 8.43995 17.6171 8.18027 17.6171 7.85995C17.6171 7.53962 17.3574 7.27995 17.0371 7.27995ZM6.01707 8.43995H8.33707C8.6574 8.43995 8.91707 8.18027 8.91707 7.85995C8.91707 7.53962 8.6574 7.27995 8.33707 7.27995H6.01707C5.69675 7.27995 5.43707 7.53962 5.43707 7.85995C5.43707 8.18027 5.69675 8.43995 6.01707 8.43995ZM10.6571 8.43995H12.9771C13.2974 8.43995 13.5571 8.18027 13.5571 7.85995C13.5571 7.53962 13.2974 7.27995 12.9771 7.27995H10.6571C10.3367 7.27995 10.0771 7.53962 10.0771 7.85995C10.0771 8.18027 10.3367 8.43995 10.6571 8.43995Z" fill="#EB001B"/>
</svg>
