<svg width="44" height="44" viewBox="0 0 44 44" fill="none" xmlns="http://www.w3.org/2000/svg">
<rect width="44" height="44" rx="8" fill="#DC0019" fill-opacity="0.1"/>
<path d="M25.2602 32.0004C25.2002 32.0004 25.1302 31.9904 25.0702 31.9704C23.0602 31.4004 20.9502 31.4004 18.9402 31.9704C18.5702 32.0704 18.1802 31.8604 18.0802 31.4904C17.9702 31.1204 18.1902 30.7304 18.5602 30.6304C20.8202 29.9904 23.2002 29.9904 25.4602 30.6304C25.8302 30.7404 26.0502 31.1204 25.9402 31.4904C25.8402 31.8004 25.5602 32.0004 25.2602 32.0004Z" fill="#DC0019"/>
<path d="M29.2102 16.3595C28.1702 14.2595 26.1602 12.7095 23.8302 12.1995C21.3902 11.6595 18.8902 12.2395 16.9802 13.7795C15.0602 15.3095 13.9702 17.5995 13.9702 20.0495C13.9702 22.6395 15.5202 25.3495 17.8602 26.9195V27.7495C17.8502 28.0295 17.8402 28.4595 18.1802 28.8095C18.5302 29.1695 19.0502 29.2095 19.4602 29.2095H24.5902C25.1302 29.2095 25.5402 29.0595 25.8202 28.7795C26.2002 28.3895 26.1902 27.8895 26.1802 27.6195V26.9195C29.2802 24.8295 31.2302 20.4195 29.2102 16.3595ZM23.7202 21.6195L22.6502 23.4795C22.5102 23.7195 22.2602 23.8595 22.0002 23.8595C21.8702 23.8595 21.7402 23.8295 21.6302 23.7595C21.2702 23.5495 21.1502 23.0895 21.3502 22.7395L22.2002 21.2595H21.3602C20.8602 21.2595 20.4502 21.0395 20.2302 20.6695C20.0102 20.2895 20.0302 19.8295 20.2802 19.3895L21.3502 17.5295C21.5602 17.1695 22.0202 17.0495 22.3702 17.2495C22.7302 17.4595 22.8502 17.9195 22.6502 18.2695L21.8002 19.7495H22.6402C23.1402 19.7495 23.5502 19.9695 23.7702 20.3395C23.9902 20.7195 23.9702 21.1895 23.7202 21.6195Z" fill="#DC0019"/>
</svg>
