<svg width="44" height="44" viewBox="0 0 44 44" fill="none" xmlns="http://www.w3.org/2000/svg">
<rect width="44" height="44" rx="8" fill="#DC0019" fill-opacity="0.1"/>
<g clip-path="url(#clip0_254_21377)">
<path d="M26.95 14.0072C27.1322 13.8186 27.233 13.566 27.2307 13.3038C27.2284 13.0416 27.1232 12.7908 26.9378 12.6054C26.7524 12.42 26.5016 12.3148 26.2394 12.3125C25.9772 12.3103 25.7246 12.4111 25.536 12.5932L21.646 16.4822C21.5522 16.5759 21.4251 16.6286 21.2925 16.6286C21.1599 16.6286 21.0328 16.5759 20.939 16.4822L18.464 14.0072C18.2747 13.8294 18.0236 13.7323 17.7639 13.7363C17.5042 13.7403 17.2563 13.8452 17.0726 14.0288C16.8889 14.2124 16.7838 14.4603 16.7796 14.7199C16.7754 14.9796 16.8723 15.2308 17.05 15.4202L18.464 16.8342C18.521 16.8912 18.58 16.9462 18.639 16.9992H15C14.4696 16.9992 13.9609 17.2099 13.5858 17.585C13.2107 17.9601 13 18.4688 13 18.9992V28.9992C13 29.5296 13.2107 30.0384 13.5858 30.4134C13.9609 30.7885 14.4696 30.9992 15 30.9992H29C29.5304 30.9992 30.0391 30.7885 30.4142 30.4134C30.7893 30.0384 31 29.5296 31 28.9992V19.0002C31 18.4698 30.7893 17.9611 30.4142 17.586C30.0391 17.2109 29.5304 17.0002 29 17.0002H23.947C24.0065 16.9468 24.0645 16.8918 24.121 16.8352L26.95 14.0072Z" fill="#DC0019"/>
</g>
<defs>
<clipPath id="clip0_254_21377">
<rect width="24" height="24" fill="white" transform="translate(10 10)"/>
</clipPath>
</defs>
</svg>
