<svg width="44" height="44" viewBox="0 0 44 44" fill="none" xmlns="http://www.w3.org/2000/svg">
<rect width="44" height="44" rx="8" fill="#DC0019" fill-opacity="0.1"/>
<path d="M26.8301 25.6402C27.5001 25.2002 28.3801 25.6802 28.3801 26.4802V27.7702C28.3801 29.0402 27.3901 30.4002 26.2001 30.8002L23.0101 31.8602C22.4501 32.0502 21.5401 32.0502 20.9901 31.8602L17.8001 30.8002C16.6001 30.4002 15.6201 29.0402 15.6201 27.7702V26.4702C15.6201 25.6802 16.5001 25.2002 17.1601 25.6302L19.2201 26.9702C20.0101 27.5002 21.0101 27.7602 22.0101 27.7602C23.0101 27.7602 24.0101 27.5002 24.8001 26.9702L26.8301 25.6402Z" fill="#DC0019"/>
<path d="M29.98 16.4596L23.99 12.5296C22.91 11.8196 21.13 11.8196 20.05 12.5296L14.03 16.4596C12.1 17.7096 12.1 20.5396 14.03 21.7996L15.63 22.8396L20.05 25.7196C21.13 26.4296 22.91 26.4296 23.99 25.7196L28.38 22.8396L29.75 21.9396V24.9996C29.75 25.4096 30.09 25.7496 30.5 25.7496C30.91 25.7496 31.25 25.4096 31.25 24.9996V20.0796C31.65 18.7896 31.24 17.2896 29.98 16.4596Z" fill="#DC0019"/>
</svg>
