<svg width="143" height="51" viewBox="0 0 143 51" fill="none" xmlns="http://www.w3.org/2000/svg">
<path fill-rule="evenodd" clip-rule="evenodd" d="M23.539 3.90765C30.5553 3.90765 36.8531 6.9782 41.1656 11.848L28.6577 24.4349L21.9401 17.5474L17.3477 22.054L28.572 33.3636L44.7361 17.2C46.2361 20.2979 47.0779 23.7736 47.0779 27.4466C47.0779 40.4469 36.5392 50.9856 23.539 50.9856C10.5392 50.9856 0 40.4469 0 27.4466C0 14.4464 10.5392 3.90765 23.539 3.90765Z" fill="#EB001B"/>
<path fill-rule="evenodd" clip-rule="evenodd" d="M21.94 17.5469L17.3477 22.0536L28.572 33.3631L28.5725 33.3626L21.94 17.5469ZM30.5893 0.000445795L22.0252 8.61825L30.5893 -6.10352e-05V0.000445795Z" fill="#F79E1B"/>
<path d="M62.6471 40.345C60.0548 40.345 57.8773 39.4808 56.1491 37.7181C54.3863 35.9554 53.5217 33.8119 53.5217 31.2195C53.5217 28.6272 54.3863 26.4842 56.1491 24.7209C57.8773 22.9582 60.0548 22.0941 62.6471 22.0941C64.3409 22.0941 65.8617 22.5089 67.2446 23.3041C68.6275 24.0992 69.664 25.2047 70.3902 26.5531L66.5534 28.8001C66.2076 28.0744 65.6893 27.5212 64.9976 27.1064C64.2719 26.6916 63.4768 26.4842 62.6127 26.4842C61.2648 26.4842 60.1588 26.9335 59.2947 27.7976C58.4305 28.6962 57.9812 29.8367 57.9812 31.2195C57.9812 32.5674 58.4305 33.7084 59.2947 34.5725C60.1588 35.4711 61.2648 35.9204 62.6127 35.9204C63.5113 35.9204 64.3064 35.713 65.0321 35.2982C65.7233 34.9179 66.2415 34.3651 66.5879 33.639L70.4592 35.851C69.699 37.1989 68.627 38.3049 67.2446 39.1C65.8617 39.9296 64.3414 40.3444 62.6471 40.3444V40.345Z" fill="#1E1E1E"/>
<path d="M81.4066 22.0947C83.3077 22.0947 84.863 22.7169 86.1074 23.9958C87.3174 25.2748 87.9396 27.003 87.9396 29.2495V39.8612H83.4806V29.8027C83.4806 28.6623 83.1693 27.7637 82.5475 27.1414C81.9253 26.5537 81.0957 26.2428 80.0587 26.2428C78.9182 26.2428 77.9846 26.5882 77.2934 27.3144C76.6022 28.04 76.2569 29.1116 76.2569 30.5289V39.8612H71.7979V15.6661H76.2569V24.5146C77.3284 22.8903 79.0561 22.0952 81.4071 22.0952L81.4066 22.0947Z" fill="#1E1E1E"/>
<path d="M94.4977 33.0518C95.0854 35.2293 96.7097 36.3008 99.3715 36.3008C101.065 36.3008 102.379 35.7131 103.243 34.5726L106.838 36.6461C105.144 39.1006 102.621 40.345 99.3025 40.345C96.4338 40.345 94.1524 39.4809 92.4241 37.7527C90.6959 36.0239 89.8318 33.8464 89.8318 31.2196C89.8318 28.6272 90.6964 26.4497 92.3896 24.687C94.0834 22.9588 96.2954 22.0947 98.9567 22.0947C101.48 22.0947 103.589 22.9588 105.247 24.7215C106.872 26.4847 107.702 28.6277 107.702 31.2201C107.702 31.8078 107.633 32.3956 107.529 33.0523H94.4977V33.0518ZM94.4287 29.5953H103.243C103.001 28.4198 102.482 27.5557 101.687 26.9685C100.892 26.3807 99.9587 26.1039 98.9562 26.1039C97.7467 26.1039 96.7787 26.4152 95.9835 27.0025C95.1889 27.6247 94.6701 28.4888 94.4282 29.5953H94.4287Z" fill="#1E1E1E"/>
<path d="M117.889 40.345C115.297 40.345 113.119 39.4808 111.391 37.7181C109.628 35.9554 108.764 33.8119 108.764 31.2195C108.764 28.6272 109.628 26.4842 111.391 24.7209C113.119 22.9582 115.297 22.0941 117.889 22.0941C119.583 22.0941 121.104 22.5089 122.487 23.3041C123.869 24.0992 124.906 25.2047 125.632 26.5531L121.795 28.8001C121.45 28.0744 120.931 27.5212 120.24 27.1064C119.514 26.6916 118.719 26.4842 117.855 26.4842C116.507 26.4842 115.401 26.9335 114.537 27.7976C113.673 28.6962 113.224 29.8367 113.224 31.2195C113.224 32.5674 113.673 33.7084 114.537 34.5725C115.401 35.4711 116.507 35.9204 117.855 35.9204C118.754 35.9204 119.549 35.713 120.275 35.2982C120.966 34.9179 121.484 34.3651 121.83 33.639L125.702 35.851C124.941 37.1989 123.869 38.3049 122.487 39.1C121.104 39.9296 119.584 40.3444 117.89 40.3444L117.889 40.345Z" fill="#1E1E1E"/>
<path d="M142.975 39.8612H137.79L131.499 32.0148V39.8612H127.04V15.6661H131.499V30.1831L137.444 22.579H142.767L135.819 31.1167L142.974 39.8618L142.975 39.8612Z" fill="#1E1E1E"/>
</svg>
