<svg width="32" height="32" viewBox="0 0 32 32" fill="none" xmlns="http://www.w3.org/2000/svg">
<rect width="32" height="32" rx="8" fill="#DC0019" fill-opacity="0.1"/>
<path d="M20 7.66663H17.8333C15.1667 7.66663 13.5 9.33329 13.5 12V15.375H18.7083C19.05 15.375 19.3333 15.6583 19.3333 16C19.3333 16.3416 19.05 16.625 18.7083 16.625H13.5V20C13.5 22.6666 15.1667 24.3333 17.8333 24.3333H19.9917C22.6583 24.3333 24.325 22.6666 24.325 20V12C24.3333 9.33329 22.6667 7.66663 20 7.66663Z" fill="#DC0019"/>
<path d="M9.8002 15.375L11.5252 13.65C11.6502 13.525 11.7085 13.3667 11.7085 13.2084C11.7085 13.05 11.6502 12.8834 11.5252 12.7667C11.2835 12.525 10.8835 12.525 10.6419 12.7667L7.8502 15.5584C7.60853 15.8 7.60853 16.2 7.8502 16.4417L10.6419 19.2334C10.8835 19.475 11.2835 19.475 11.5252 19.2334C11.7669 18.9917 11.7669 18.5917 11.5252 18.35L9.8002 16.625H13.5002V15.375H9.8002Z" fill="#DC0019"/>
</svg>
