<svg width="32" height="33" viewBox="0 0 32 33" fill="none" xmlns="http://www.w3.org/2000/svg">
<rect y="0.5" width="32" height="32" rx="8" fill="#DC0019" fill-opacity="0.1"/>
<path d="M7.66699 14.625C7.32533 14.625 7.04199 14.3417 7.04199 14V11.9167C7.04199 9.50002 9.00866 7.54169 11.417 7.54169H13.5003C13.842 7.54169 14.1253 7.82502 14.1253 8.16669C14.1253 8.50835 13.842 8.79169 13.5003 8.79169H11.417C9.69199 8.79169 8.29199 10.1917 8.29199 11.9167V14C8.29199 14.3417 8.00866 14.625 7.66699 14.625Z" fill="#DC0019"/>
<path d="M24.3333 14.625C23.9917 14.625 23.7083 14.3417 23.7083 14V11.9167C23.7083 10.1917 22.3083 8.79169 20.5833 8.79169H18.5C18.1583 8.79169 17.875 8.50835 17.875 8.16669C17.875 7.82502 18.1583 7.54169 18.5 7.54169H20.5833C22.9917 7.54169 24.9583 9.50002 24.9583 11.9167V14C24.9583 14.3417 24.675 14.625 24.3333 14.625Z" fill="#DC0019"/>
<path d="M20.583 25.4583H19.333C18.9913 25.4583 18.708 25.175 18.708 24.8333C18.708 24.4916 18.9913 24.2083 19.333 24.2083H20.583C22.308 24.2083 23.708 22.8083 23.708 21.0833V19.8333C23.708 19.4916 23.9913 19.2083 24.333 19.2083C24.6747 19.2083 24.958 19.4916 24.958 19.8333V21.0833C24.958 23.5 22.9913 25.4583 20.583 25.4583Z" fill="#DC0019"/>
<path d="M13.5003 25.4583H11.417C9.00866 25.4583 7.04199 23.5 7.04199 21.0833V19C7.04199 18.6583 7.32533 18.375 7.66699 18.375C8.00866 18.375 8.29199 18.6583 8.29199 19V21.0833C8.29199 22.8083 9.69199 24.2083 11.417 24.2083H13.5003C13.842 24.2083 14.1253 24.4917 14.1253 24.8333C14.1253 25.175 13.842 25.4583 13.5003 25.4583Z" fill="#DC0019"/>
<path d="M13.5 10.875H11.8333C10.8833 10.875 10.375 11.375 10.375 12.3333V14C10.375 14.9583 10.8833 15.4583 11.8333 15.4583H13.5C14.45 15.4583 14.9583 14.9583 14.9583 14V12.3333C14.9583 11.375 14.45 10.875 13.5 10.875Z" fill="#DC0019"/>
<path d="M20.167 10.875H18.5003C17.5503 10.875 17.042 11.375 17.042 12.3333V14C17.042 14.9583 17.5503 15.4583 18.5003 15.4583H20.167C21.117 15.4583 21.6253 14.9583 21.6253 14V12.3333C21.6253 11.375 21.117 10.875 20.167 10.875Z" fill="#DC0019"/>
<path d="M13.5 17.5417H11.8333C10.8833 17.5417 10.375 18.0417 10.375 19V20.6667C10.375 21.625 10.8833 22.125 11.8333 22.125H13.5C14.45 22.125 14.9583 21.625 14.9583 20.6667V19C14.9583 18.0417 14.45 17.5417 13.5 17.5417Z" fill="#DC0019"/>
<path d="M20.167 17.5417H18.5003C17.5503 17.5417 17.042 18.0417 17.042 19V20.6667C17.042 21.625 17.5503 22.125 18.5003 22.125H20.167C21.117 22.125 21.6253 21.625 21.6253 20.6667V19C21.6253 18.0417 21.117 17.5417 20.167 17.5417Z" fill="#DC0019"/>
</svg>
