<svg width="32" height="33" viewBox="0 0 32 33" fill="none" xmlns="http://www.w3.org/2000/svg">
<rect y="0.5" width="32" height="32" rx="8" fill="#DC0019" fill-opacity="0.1"/>
<path d="M20.167 8.52502H11.8337C9.33366 8.52502 7.66699 10.1917 7.66699 12.6917V17.6917C7.66699 20.1917 9.33366 21.8584 11.8337 21.8584V23.6334C11.8337 24.3 12.5753 24.7 13.1253 24.325L16.8337 21.8584H20.167C22.667 21.8584 24.3337 20.1917 24.3337 17.6917V12.6917C24.3337 10.1917 22.667 8.52502 20.167 8.52502ZM16.0003 18.6667C15.6503 18.6667 15.3753 18.3834 15.3753 18.0417C15.3753 17.7 15.6503 17.4167 16.0003 17.4167C16.3503 17.4167 16.6253 17.7 16.6253 18.0417C16.6253 18.3834 16.3503 18.6667 16.0003 18.6667ZM17.0503 15.2084C16.7253 15.425 16.6253 15.5667 16.6253 15.8V15.975C16.6253 16.3167 16.342 16.6 16.0003 16.6C15.6587 16.6 15.3753 16.3167 15.3753 15.975V15.8C15.3753 14.8334 16.0837 14.3584 16.3503 14.175C16.6587 13.9667 16.7587 13.825 16.7587 13.6084C16.7587 13.1917 16.417 12.85 16.0003 12.85C15.5837 12.85 15.242 13.1917 15.242 13.6084C15.242 13.95 14.9587 14.2334 14.617 14.2334C14.2753 14.2334 13.992 13.95 13.992 13.6084C13.992 12.5 14.892 11.6 16.0003 11.6C17.1087 11.6 18.0087 12.5 18.0087 13.6084C18.0087 14.5584 17.3087 15.0334 17.0503 15.2084Z" fill="#DC0019"/>
</svg>
