<svg width="32" height="33" viewBox="0 0 32 33" fill="none" xmlns="http://www.w3.org/2000/svg">
<rect y="0.5" width="32" height="32" rx="8" fill="#DC0019" fill-opacity="0.1"/>
<path d="M16.8838 13.2589L18.0623 14.4374C20.3404 16.7155 20.3404 20.409 18.0623 22.687L17.7677 22.9816C15.4897 25.2597 11.7962 25.2597 9.51811 22.9816C7.24006 20.7035 7.24006 17.0101 9.51811 14.732L10.6966 15.9105C9.06944 17.5377 9.06944 20.176 10.6966 21.8031C12.3238 23.4303 14.962 23.4303 16.5892 21.8031L16.8838 21.5085C18.511 19.8813 18.511 17.2431 16.8838 15.616L15.7053 14.4374L16.8838 13.2589ZM22.4817 18.2675L21.3032 17.089C22.9304 15.4619 22.9304 12.8237 21.3032 11.1965C19.6761 9.56932 17.0378 9.56932 15.4107 11.1965L15.1161 11.4911C13.4889 13.1183 13.4889 15.7565 15.1161 17.3837L16.2946 18.5622L15.1161 19.7407L13.9375 18.5622C11.6595 16.2841 11.6595 12.5907 13.9375 10.3126L14.2322 10.018C16.5102 7.73993 20.2037 7.73993 22.4817 10.018C24.7598 12.2961 24.7598 15.9895 22.4817 18.2675Z" fill="#DC0019"/>
</svg>
