<svg width="32" height="33" viewBox="0 0 32 33" fill="none" xmlns="http://www.w3.org/2000/svg">
<rect y="0.5" width="32" height="32" rx="8" fill="#DC0019" fill-opacity="0.1"/>
<path d="M21.625 13.1667V14.9167C21.2583 14.8667 20.8417 14.8417 20.375 14.8334V13.1667C20.375 10.5417 19.6333 8.79169 16 8.79169C12.3667 8.79169 11.625 10.5417 11.625 13.1667V14.8334C11.1583 14.8417 10.7417 14.8667 10.375 14.9167V13.1667C10.375 10.75 10.9583 7.54169 16 7.54169C21.0417 7.54169 21.625 10.75 21.625 13.1667Z" fill="#DC0019"/>
<path d="M21.6253 14.9166C21.2587 14.8666 20.842 14.8416 20.3753 14.8333H11.6253C11.1587 14.8416 10.742 14.8666 10.3753 14.9166C8.25033 15.175 7.66699 16.2166 7.66699 19V20.6666C7.66699 24 8.50033 24.8333 11.8337 24.8333H20.167C23.5003 24.8333 24.3337 24 24.3337 20.6666V19C24.3337 16.2166 23.7503 15.175 21.6253 14.9166ZM13.2587 20.425C13.1003 20.575 12.8837 20.6666 12.667 20.6666C12.5587 20.6666 12.4503 20.6416 12.3503 20.6C12.242 20.5583 12.1587 20.5 12.0753 20.425C11.9253 20.2666 11.8337 20.05 11.8337 19.8333C11.8337 19.725 11.8587 19.6166 11.9003 19.5166C11.942 19.4166 12.0003 19.325 12.0753 19.2416C12.1587 19.1666 12.242 19.1083 12.3503 19.0666C12.6587 18.9333 13.0253 19.0083 13.2587 19.2416C13.3337 19.325 13.392 19.4166 13.4337 19.5166C13.4753 19.6166 13.5003 19.725 13.5003 19.8333C13.5003 20.05 13.4087 20.2666 13.2587 20.425ZM16.767 20.15C16.7253 20.25 16.667 20.3416 16.592 20.425C16.4337 20.575 16.217 20.6666 16.0003 20.6666C15.7753 20.6666 15.567 20.575 15.4087 20.425C15.3337 20.3416 15.2753 20.25 15.2337 20.15C15.192 20.05 15.167 19.9416 15.167 19.8333C15.167 19.6083 15.2587 19.4 15.4087 19.2416C15.717 18.9333 16.2753 18.9333 16.592 19.2416C16.742 19.4 16.8337 19.6083 16.8337 19.8333C16.8337 19.9416 16.8087 20.05 16.767 20.15ZM19.9253 20.425C19.767 20.575 19.5503 20.6666 19.3337 20.6666C19.117 20.6666 18.9003 20.575 18.742 20.425C18.592 20.2666 18.5003 20.0583 18.5003 19.8333C18.5003 19.6083 18.592 19.4 18.742 19.2416C19.0587 18.9333 19.617 18.9333 19.9253 19.2416C19.9587 19.2833 19.992 19.325 20.0253 19.375C20.0587 19.4166 20.0837 19.4666 20.1003 19.5166C20.1253 19.5666 20.142 19.6166 20.1503 19.6666C20.1587 19.725 20.167 19.7833 20.167 19.8333C20.167 20.05 20.0753 20.2666 19.9253 20.425Z" fill="#DC0019"/>
</svg>
