<svg width="32" height="33" viewBox="0 0 32 33" fill="none" xmlns="http://www.w3.org/2000/svg">
<rect y="0.5" width="32" height="32" rx="8" fill="#DC0019" fill-opacity="0.1"/>
<path d="M22.1163 18.575L21.283 17.1917C21.108 16.8834 20.9496 16.3 20.9496 15.9584V13.85C20.9496 11.8917 19.7996 10.2 18.1413 9.40835C17.708 8.64169 16.908 8.16669 15.9913 8.16669C15.083 8.16669 14.2663 8.65835 13.833 9.43335C12.208 10.2417 11.083 11.9167 11.083 13.85V15.9584C11.083 16.3 10.9246 16.8834 10.7496 17.1834L9.90796 18.575C9.57463 19.1334 9.49963 19.75 9.70796 20.3167C9.90796 20.875 10.383 21.3084 10.9996 21.5167C12.6163 22.0667 14.3163 22.3334 16.0163 22.3334C17.7163 22.3334 19.4163 22.0667 21.033 21.525C21.6163 21.3334 22.0663 20.8917 22.283 20.3167C22.4996 19.7417 22.4413 19.1084 22.1163 18.575Z" fill="#DC0019"/>
<path d="M18.3587 23.175C18.0087 24.1417 17.0837 24.8334 16.0004 24.8334C15.3421 24.8334 14.6921 24.5667 14.2337 24.0917C13.9671 23.8417 13.7671 23.5084 13.6504 23.1667C13.7587 23.1834 13.8671 23.1917 13.9837 23.2084C14.1754 23.2334 14.3754 23.2584 14.5754 23.275C15.0504 23.3167 15.5337 23.3417 16.0171 23.3417C16.4921 23.3417 16.9671 23.3167 17.4337 23.275C17.6087 23.2584 17.7837 23.25 17.9504 23.225C18.0837 23.2084 18.2171 23.1917 18.3587 23.175Z" fill="#DC0019"/>
</svg>
