<svg width="32" height="33" viewBox="0 0 32 33" fill="none" xmlns="http://www.w3.org/2000/svg">
<rect y="0.5" width="32" height="32" rx="8" fill="#DC0019" fill-opacity="0.1"/>
<path d="M23.9419 19.7751C23.8086 19.5501 23.4336 19.2001 22.5002 19.3667C21.9836 19.4584 21.4586 19.5001 20.9336 19.4751C18.9919 19.3917 17.2336 18.5001 16.0086 17.1251C14.9252 15.9167 14.2586 14.3417 14.2502 12.6417C14.2502 11.6917 14.4336 10.7751 14.8086 9.90839C15.1752 9.06672 14.9169 8.62506 14.7336 8.44172C14.5419 8.25006 14.0919 7.98339 13.2086 8.35006C9.80024 9.78339 7.69191 13.2001 7.94191 16.8584C8.19191 20.3001 10.6086 23.2417 13.8086 24.3501C14.5752 24.6167 15.3836 24.7751 16.2169 24.8084C16.3502 24.8167 16.4836 24.8251 16.6169 24.8251C19.4086 24.8251 22.0252 23.5084 23.6752 21.2667C24.2336 20.4917 24.0836 20.0001 23.9419 19.7751Z" fill="#DC0019"/>
</svg>
