<svg width="50" height="17" viewBox="0 0 50 17" fill="none" xmlns="http://www.w3.org/2000/svg">
<path d="M10.6663 9.10004V11.9C10.6663 14.2334 9.73301 15.1667 7.39967 15.1667H4.59967C2.26634 15.1667 1.33301 14.2334 1.33301 11.9V9.10004C1.33301 6.76671 2.26634 5.83337 4.59967 5.83337H7.39967C9.73301 5.83337 10.6663 6.76671 10.6663 9.10004Z" fill="#DC0019"/>
<path d="M11.3998 1.83337H8.59984C6.67914 1.83337 5.71152 2.47031 5.42907 3.99264C5.32748 4.54021 5.79484 5.00004 6.35175 5.00004H7.39984C10.1998 5.00004 11.4998 6.30004 11.4998 9.10004V10.1481C11.4998 10.705 11.9597 11.1724 12.5072 11.0708C14.0296 10.7884 14.6665 9.82074 14.6665 7.90004V5.10004C14.6665 2.76671 13.7332 1.83337 11.3998 1.83337Z" fill="#DC0019"/>
<path d="M20.42 8.18C20.42 7.66 20.512 7.152 20.696 6.656C20.88 6.152 21.148 5.696 21.5 5.288C21.86 4.872 22.296 4.544 22.808 4.304C23.32 4.056 23.9 3.932 24.548 3.932C25.316 3.932 25.98 4.108 26.54 4.46C27.1 4.804 27.516 5.248 27.788 5.792L26.732 6.5C26.572 6.156 26.368 5.884 26.12 5.684C25.88 5.484 25.616 5.344 25.328 5.264C25.048 5.184 24.772 5.144 24.5 5.144C24.052 5.144 23.66 5.236 23.324 5.42C22.988 5.596 22.704 5.832 22.472 6.128C22.248 6.424 22.076 6.756 21.956 7.124C21.844 7.492 21.788 7.86 21.788 8.228C21.788 8.636 21.856 9.032 21.992 9.416C22.128 9.792 22.316 10.128 22.556 10.424C22.804 10.712 23.096 10.94 23.432 11.108C23.768 11.276 24.136 11.36 24.536 11.36C24.808 11.36 25.092 11.312 25.388 11.216C25.684 11.12 25.956 10.972 26.204 10.772C26.46 10.564 26.66 10.292 26.804 9.956L27.92 10.592C27.744 11.016 27.468 11.376 27.092 11.672C26.724 11.968 26.308 12.192 25.844 12.344C25.388 12.496 24.936 12.572 24.488 12.572C23.888 12.572 23.34 12.448 22.844 12.2C22.348 11.944 21.92 11.608 21.56 11.192C21.2 10.768 20.92 10.296 20.72 9.776C20.52 9.248 20.42 8.716 20.42 8.18ZM31.8034 12.62C31.3074 12.62 30.8634 12.536 30.4714 12.368C30.0794 12.192 29.7394 11.952 29.4514 11.648C29.1714 11.344 28.9554 11 28.8034 10.616C28.6514 10.224 28.5754 9.808 28.5754 9.368C28.5754 8.928 28.6514 8.512 28.8034 8.12C28.9554 7.728 29.1714 7.384 29.4514 7.088C29.7394 6.784 30.0794 6.548 30.4714 6.38C30.8714 6.204 31.3154 6.116 31.8034 6.116C32.2914 6.116 32.7314 6.204 33.1234 6.38C33.5234 6.548 33.8634 6.784 34.1434 7.088C34.4314 7.384 34.6514 7.728 34.8034 8.12C34.9554 8.512 35.0314 8.928 35.0314 9.368C35.0314 9.808 34.9554 10.224 34.8034 10.616C34.6514 11 34.4314 11.344 34.1434 11.648C33.8634 11.952 33.5234 12.192 33.1234 12.368C32.7314 12.536 32.2914 12.62 31.8034 12.62ZM29.9314 9.38C29.9314 9.78 30.0154 10.14 30.1834 10.46C30.3514 10.78 30.5754 11.032 30.8554 11.216C31.1354 11.4 31.4514 11.492 31.8034 11.492C32.1474 11.492 32.4594 11.4 32.7394 11.216C33.0274 11.024 33.2554 10.768 33.4234 10.448C33.5914 10.12 33.6754 9.76 33.6754 9.368C33.6754 8.968 33.5914 8.608 33.4234 8.288C33.2554 7.968 33.0274 7.716 32.7394 7.532C32.4594 7.34 32.1474 7.244 31.8034 7.244C31.4514 7.244 31.1354 7.34 30.8554 7.532C30.5754 7.724 30.3514 7.98 30.1834 8.3C30.0154 8.612 29.9314 8.972 29.9314 9.38ZM39.7662 12.62C39.2622 12.62 38.8182 12.5 38.4342 12.26C38.0502 12.02 37.7462 11.708 37.5222 11.324V15.056H36.2022V6.224H37.3662V7.352C37.6062 6.976 37.9182 6.676 38.3022 6.452C38.6862 6.228 39.1142 6.116 39.5862 6.116C40.0182 6.116 40.4142 6.204 40.7742 6.38C41.1342 6.548 41.4462 6.784 41.7102 7.088C41.9742 7.392 42.1782 7.74 42.3222 8.132C42.4742 8.516 42.5502 8.924 42.5502 9.356C42.5502 9.956 42.4302 10.504 42.1902 11C41.9582 11.496 41.6302 11.892 41.2062 12.188C40.7902 12.476 40.3102 12.62 39.7662 12.62ZM39.3342 11.492C39.6142 11.492 39.8662 11.432 40.0902 11.312C40.3222 11.192 40.5182 11.032 40.6782 10.832C40.8462 10.632 40.9742 10.404 41.0622 10.148C41.1502 9.892 41.1942 9.628 41.1942 9.356C41.1942 9.068 41.1462 8.796 41.0502 8.54C40.9542 8.284 40.8142 8.06 40.6302 7.868C40.4542 7.676 40.2462 7.524 40.0062 7.412C39.7742 7.3 39.5182 7.244 39.2382 7.244C39.0702 7.244 38.8942 7.276 38.7102 7.34C38.5262 7.404 38.3542 7.492 38.1942 7.604C38.0342 7.716 37.8942 7.848 37.7742 8C37.6542 8.152 37.5702 8.312 37.5222 8.48V10.124C37.6342 10.38 37.7822 10.612 37.9662 10.82C38.1502 11.02 38.3622 11.184 38.6022 11.312C38.8422 11.432 39.0862 11.492 39.3342 11.492ZM43.7424 13.976C43.8624 13.992 43.9784 14.008 44.0904 14.024C44.2104 14.048 44.3064 14.06 44.3784 14.06C44.5144 14.06 44.6304 14.016 44.7264 13.928C44.8304 13.848 44.9344 13.696 45.0384 13.472C45.1424 13.248 45.2704 12.924 45.4224 12.5L42.8424 6.224H44.2224L46.1424 11.156L47.8464 6.224H49.1184L46.2744 13.952C46.1864 14.184 46.0584 14.396 45.8904 14.588C45.7224 14.788 45.5144 14.944 45.2664 15.056C45.0184 15.168 44.7264 15.224 44.3904 15.224C44.2944 15.224 44.1944 15.216 44.0904 15.2C43.9864 15.184 43.8704 15.16 43.7424 15.128V13.976Z" fill="#DC0019"/>
</svg>
