<svg width="16" height="16" viewBox="0 0 16 16" fill="none" xmlns="http://www.w3.org/2000/svg">
<path d="M10.6663 8.59998V11.4C10.6663 13.7333 9.73301 14.6666 7.39967 14.6666H4.59967C2.26634 14.6666 1.33301 13.7333 1.33301 11.4V8.59998C1.33301 6.26665 2.26634 5.33331 4.59967 5.33331H7.39967C9.73301 5.33331 10.6663 6.26665 10.6663 8.59998Z" fill="#DC0019"/>
<path d="M11.3998 1.33331H8.59984C6.67914 1.33331 5.71152 1.97024 5.42907 3.49258C5.32748 4.04015 5.79484 4.49998 6.35175 4.49998H7.39984C10.1998 4.49998 11.4998 5.79998 11.4998 8.59998V9.64808C11.4998 10.205 11.9597 10.6723 12.5072 10.5707C14.0296 10.2883 14.6665 9.32068 14.6665 7.39998V4.59998C14.6665 2.26665 13.7332 1.33331 11.3998 1.33331Z" fill="#DC0019"/>
</svg>
