<svg width="20" height="22" viewBox="0 0 20 22" fill="none" xmlns="http://www.w3.org/2000/svg">
<path d="M4.17 17C4.3766 16.4145 4.75974 15.9074 5.2666 15.5488C5.77346 15.1902 6.37909 14.9976 7 14.9976C7.62091 14.9976 8.22654 15.1902 8.7334 15.5488C9.24026 15.9074 9.6234 16.4145 9.83 17H20V19H9.83C9.6234 19.5855 9.24026 20.0926 8.7334 20.4512C8.22654 20.8099 7.62091 21.0025 7 21.0025C6.37909 21.0025 5.77346 20.8099 5.2666 20.4512C4.75974 20.0926 4.3766 19.5855 4.17 19H0V17H4.17ZM10.17 10C10.3766 9.41448 10.7597 8.90744 11.2666 8.5488C11.7735 8.19015 12.3791 7.99756 13 7.99756C13.6209 7.99756 14.2265 8.19015 14.7334 8.5488C15.2403 8.90744 15.6234 9.41448 15.83 10H20V12H15.83C15.6234 12.5855 15.2403 13.0926 14.7334 13.4512C14.2265 13.8099 13.6209 14.0025 13 14.0025C12.3791 14.0025 11.7735 13.8099 11.2666 13.4512C10.7597 13.0926 10.3766 12.5855 10.17 12H0V10H10.17ZM4.17 3.00001C4.3766 2.41448 4.75974 1.90744 5.2666 1.5488C5.77346 1.19015 6.37909 0.997559 7 0.997559C7.62091 0.997559 8.22654 1.19015 8.7334 1.5488C9.24026 1.90744 9.6234 2.41448 9.83 3.00001H20V5.00001H9.83C9.6234 5.58554 9.24026 6.09258 8.7334 6.45122C8.22654 6.80986 7.62091 7.00246 7 7.00246C6.37909 7.00246 5.77346 6.80986 5.2666 6.45122C4.75974 6.09258 4.3766 5.58554 4.17 5.00001H0V3.00001H4.17Z" fill="#727272"/>
</svg>
