<svg width="25" height="20" viewBox="0 0 25 20" fill="none" xmlns="http://www.w3.org/2000/svg">
<path d="M11.3335 4.33331H4.66683C2.66683 4.33331 1.3335 5.33331 1.3335 7.66665V12.3333C1.3335 14.6666 2.66683 15.6666 4.66683 15.6666H11.3335C13.3335 15.6666 14.6668 14.6666 14.6668 12.3333V7.66665C14.6668 5.33331 13.3335 4.33331 11.3335 4.33331ZM11.6468 8.39331L9.56016 10.06C9.12016 10.4133 8.56016 10.5866 8.00016 10.5866C7.44016 10.5866 6.8735 10.4133 6.44016 10.06L4.3535 8.39331C4.14016 8.21998 4.10683 7.89998 4.2735 7.68665C4.44683 7.47331 4.76016 7.43331 4.9735 7.60665L7.06016 9.27331C7.56683 9.67998 8.42683 9.67998 8.9335 9.27331L11.0202 7.60665C11.2335 7.43331 11.5535 7.46665 11.7202 7.68665C11.8935 7.89998 11.8602 8.21998 11.6468 8.39331Z" fill="#727272"/>
<line x1="24.5" y1="0.5" x2="24.5" y2="19.5" stroke="#CDCDCD"/>
</svg>
