<svg width="14" height="14" viewBox="0 0 14 14" fill="none" xmlns="http://www.w3.org/2000/svg">
<path d="M6.99992 13.6667C3.32659 13.6667 0.333252 10.6734 0.333252 7.00002C0.333252 3.32669 3.32659 0.333353 6.99992 0.333353C10.6733 0.333353 13.6666 3.32669 13.6666 7.00002C13.6666 10.6734 10.6733 13.6667 6.99992 13.6667ZM6.49992 9.66669C6.49992 9.94002 6.72659 10.1667 6.99992 10.1667C7.27325 10.1667 7.49992 9.94002 7.49992 9.66669V6.33335C7.49992 6.06002 7.27325 5.83335 6.99992 5.83335C6.72659 5.83335 6.49992 6.06002 6.49992 6.33335V9.66669ZM7.61325 4.08002C7.57992 3.99335 7.53325 3.92669 7.47325 3.86002C7.40659 3.80002 7.33325 3.75335 7.25325 3.72002C7.17325 3.68669 7.08659 3.66669 6.99992 3.66669C6.91325 3.66669 6.82659 3.68669 6.74659 3.72002C6.66659 3.75335 6.59325 3.80002 6.52659 3.86002C6.46659 3.92669 6.41992 3.99335 6.38659 4.08002C6.35325 4.16002 6.33325 4.24669 6.33325 4.33335C6.33325 4.42002 6.35325 4.50669 6.38659 4.58669C6.41992 4.66669 6.46659 4.74002 6.52659 4.80669C6.59325 4.86669 6.66659 4.91335 6.74659 4.94669C6.90659 5.01335 7.09325 5.01335 7.25325 4.94669C7.33325 4.91335 7.40659 4.86669 7.47325 4.80669C7.53325 4.74002 7.57992 4.66669 7.61325 4.58669C7.64659 4.50669 7.66659 4.42002 7.66659 4.33335C7.66659 4.24669 7.64659 4.16002 7.61325 4.08002Z" fill="#C57600"/>
</svg>
