<svg width="24" height="24" viewBox="0 0 24 24" fill="none" xmlns="http://www.w3.org/2000/svg">
<path d="M8.68183 0H2.17046C0.971747 0 0 0.971747 0 2.17046V8.68183C0 9.88054 0.971747 10.8523 2.17046 10.8523H8.68183C9.88054 10.8523 10.8523 9.88054 10.8523 8.68183V2.17046C10.8523 0.971747 9.88054 0 8.68183 0Z" fill="#1E1E1E"/>
<path d="M8.68183 13.0228H2.17046C0.971747 13.0228 0 13.9946 0 15.1933V21.7047C0 22.9034 0.971747 23.8751 2.17046 23.8751H8.68183C9.88054 23.8751 10.8523 22.9034 10.8523 21.7047V15.1933C10.8523 13.9946 9.88054 13.0228 8.68183 13.0228Z" fill="#1E1E1E"/>
<path d="M21.7048 0H15.1934C13.9947 0 13.0229 0.971747 13.0229 2.17046V8.68183C13.0229 9.88054 13.9947 10.8523 15.1934 10.8523H21.7048C22.9035 10.8523 23.8752 9.88054 23.8752 8.68183V2.17046C23.8752 0.971747 22.9035 0 21.7048 0Z" fill="#1E1E1E"/>
<path d="M14.1082 19.5342C14.396 19.5342 14.672 19.4198 14.8755 19.2163C15.0791 19.0128 15.1934 18.7368 15.1934 18.449V14.1081C15.1934 13.8202 15.0791 13.5442 14.8756 13.3407C14.672 13.1372 14.396 13.0228 14.1082 13.0228C13.8204 13.0228 13.5443 13.1372 13.3408 13.3407C13.1373 13.5442 13.0229 13.8202 13.0229 14.1081V18.449C13.023 18.7368 13.1373 19.0128 13.3408 19.2163C13.5443 19.4198 13.8204 19.5342 14.1082 19.5342Z" fill="#1E1E1E"/>
<path d="M22.79 15.1933H19.5343V14.1081C19.5343 13.8202 19.42 13.5442 19.2165 13.3407C19.0129 13.1372 18.7369 13.0228 18.4491 13.0228C18.1613 13.0228 17.8852 13.1372 17.6817 13.3407C17.4782 13.5442 17.3639 13.8202 17.3639 14.1081V21.7047H14.1082C13.8204 21.7047 13.5443 21.819 13.3408 22.0225C13.1373 22.226 13.0229 22.5021 13.0229 22.7899C13.0229 23.0777 13.1373 23.3537 13.3408 23.5573C13.5443 23.7608 13.8204 23.8751 14.1082 23.8751H18.4491C18.7369 23.8751 19.0129 23.7608 19.2164 23.5572C19.42 23.3537 19.5343 23.0777 19.5343 22.7899V17.3637H22.79C23.0778 17.3637 23.3539 17.2494 23.5574 17.0459C23.7609 16.8424 23.8752 16.5663 23.8752 16.2785C23.8752 15.9907 23.7609 15.7147 23.5574 15.5111C23.3539 15.3076 23.0778 15.1933 22.79 15.1933ZM22.79 19.5342C22.5022 19.5342 22.2262 19.6486 22.0226 19.8521C21.8191 20.0556 21.7048 20.3316 21.7048 20.6194V22.7899C21.7048 23.0777 21.8191 23.3537 22.0226 23.5573C22.2262 23.7608 22.5022 23.8751 22.79 23.8751C23.0778 23.8751 23.3539 23.7608 23.5574 23.5573C23.7609 23.3537 23.8752 23.0777 23.8752 22.7899V20.6194C23.8752 20.3316 23.7609 20.0556 23.5574 19.8521C23.3538 19.6486 23.0778 19.5342 22.79 19.5342Z" fill="#1E1E1E"/>
</svg>
