<svg width="44" height="44" viewBox="0 0 44 44" fill="none" xmlns="http://www.w3.org/2000/svg">
<rect width="44" height="44" rx="8" fill="#DC0019" fill-opacity="0.1"/>
<path d="M23.25 32C23.25 32.41 23.59 32.75 24 32.75H25C29.41 32.75 30.75 31.41 30.75 27V20.75H28.5C28.09 20.75 27.75 20.41 27.75 20C27.75 19.59 28.09 19.25 28.5 19.25H30.75V17C30.75 12.59 29.41 11.25 25 11.25H24.5C24.09 11.25 23.75 11.59 23.75 12C23.75 12.96 22.96 13.75 22 13.75C21.04 13.75 20.25 12.96 20.25 12C20.25 11.59 19.91 11.25 19.5 11.25H19C14.59 11.25 13.25 12.59 13.25 17V19.25H15.5C15.91 19.25 16.25 19.59 16.25 20C16.25 20.41 15.91 20.75 15.5 20.75H13.25V27C13.25 31.41 14.59 32.75 19 32.75C19.41 32.75 19.75 32.41 19.75 32C19.75 31.04 20.54 30.25 21.5 30.25C22.46 30.25 23.25 31.04 23.25 32ZM19.83 20.75C19.42 20.75 19.08 20.41 19.08 20C19.08 19.59 19.42 19.25 19.83 19.25H24.17C24.58 19.25 24.92 19.59 24.92 20C24.92 20.41 24.58 20.75 24.17 20.75H19.83Z" fill="#DC0019"/>
</svg>
