<svg width="16" height="17" viewBox="0 0 16 17" fill="none" xmlns="http://www.w3.org/2000/svg">
<path d="M7.99992 15.1665C4.32659 15.1665 1.33325 12.1732 1.33325 8.49984C1.33325 4.8265 4.32659 1.83317 7.99992 1.83317C11.6733 1.83317 14.6666 4.8265 14.6666 8.49984C14.6666 12.1732 11.6733 15.1665 7.99992 15.1665ZM7.49992 11.1665C7.49992 11.4398 7.72659 11.6665 7.99992 11.6665C8.27325 11.6665 8.49992 11.4398 8.49992 11.1665V7.83317C8.49992 7.55984 8.27325 7.33317 7.99992 7.33317C7.72659 7.33317 7.49992 7.55984 7.49992 7.83317V11.1665ZM8.61325 5.57984C8.57992 5.49317 8.53325 5.4265 8.47325 5.35984C8.40659 5.29984 8.33325 5.25317 8.25325 5.21984C8.17325 5.1865 8.08659 5.1665 7.99992 5.1665C7.91325 5.1665 7.82659 5.1865 7.74659 5.21984C7.66659 5.25317 7.59325 5.29984 7.52659 5.35984C7.46659 5.4265 7.41992 5.49317 7.38659 5.57984C7.35325 5.65984 7.33325 5.7465 7.33325 5.83317C7.33325 5.91984 7.35325 6.0065 7.38659 6.0865C7.41992 6.1665 7.46659 6.23984 7.52659 6.3065C7.59325 6.3665 7.66659 6.41317 7.74659 6.4465C7.90659 6.51317 8.09325 6.51317 8.25325 6.4465C8.33325 6.41317 8.40659 6.3665 8.47325 6.3065C8.53325 6.23984 8.57992 6.1665 8.61325 6.0865C8.64659 6.0065 8.66659 5.91984 8.66659 5.83317C8.66659 5.7465 8.64659 5.65984 8.61325 5.57984Z" fill="#727272"/>
</svg>
