<svg width="32" height="32" viewBox="0 0 32 32" fill="none" xmlns="http://www.w3.org/2000/svg">
<rect width="32" height="32" rx="8" fill="#DC0019" fill-opacity="0.1"/>
<path d="M20.167 8.91669H11.8337C9.33366 8.91669 7.66699 10.1667 7.66699 13.0834V18.9167C7.66699 21.8334 9.33366 23.0834 11.8337 23.0834H20.167C22.667 23.0834 24.3337 21.8334 24.3337 18.9167V13.0834C24.3337 10.1667 22.667 8.91669 20.167 8.91669ZM20.5587 13.9917L17.9503 16.075C17.4003 16.5167 16.7003 16.7334 16.0003 16.7334C15.3003 16.7334 14.592 16.5167 14.0503 16.075L11.442 13.9917C11.1753 13.775 11.1337 13.375 11.342 13.1084C11.5587 12.8417 11.9503 12.7917 12.217 13.0084L14.8253 15.0917C15.4587 15.6 16.5337 15.6 17.167 15.0917L19.7753 13.0084C20.042 12.7917 20.442 12.8334 20.6503 13.1084C20.867 13.375 20.8253 13.775 20.5587 13.9917Z" fill="#DC0019"/>
</svg>
