<svg width="31" height="31" viewBox="0 0 31 31" fill="none" xmlns="http://www.w3.org/2000/svg">
<path d="M23.2499 2.58337H7.74992C7.40735 2.58337 7.07881 2.71946 6.83657 2.96169C6.59434 3.20393 6.45825 3.53247 6.45825 3.87504V20.6667H24.5416V3.87504C24.5416 3.53247 24.4055 3.20393 24.1633 2.96169C23.921 2.71946 23.5925 2.58337 23.2499 2.58337ZM6.45825 27.125C6.45825 27.4676 6.59434 27.7962 6.83657 28.0384C7.07881 28.2806 7.40735 28.4167 7.74992 28.4167H23.2499C23.5925 28.4167 23.921 28.2806 24.1633 28.0384C24.4055 27.7962 24.5416 27.4676 24.5416 27.125V23.25H6.45825V27.125ZM15.4999 23.9346C15.7554 23.9346 16.0051 24.0104 16.2175 24.1523C16.4299 24.2942 16.5955 24.496 16.6933 24.732C16.791 24.968 16.8166 25.2277 16.7668 25.4783C16.7169 25.7288 16.5939 25.959 16.4133 26.1396C16.2326 26.3203 16.0025 26.4433 15.7519 26.4931C15.5014 26.543 15.2416 26.5174 15.0056 26.4196C14.7696 26.3219 14.5679 26.1563 14.4259 25.9439C14.284 25.7315 14.2083 25.4818 14.2083 25.2263C14.2083 24.8837 14.3443 24.5552 14.5866 24.3129C14.8288 24.0707 15.1573 23.9346 15.4999 23.9346Z" fill="#EB001B"/>
</svg>
