<svg width="25" height="20" viewBox="0 0 25 20" fill="none" xmlns="http://www.w3.org/2000/svg">
<path d="M12.7801 6.42668C12.4935 4.98001 11.4201 4.34668 9.9268 4.34668H4.07347C2.31347 4.34668 1.14014 5.22668 1.14014 7.28001V10.7133C1.14014 12.1933 1.7468 13.06 2.7468 13.4333C2.89347 13.4867 3.05347 13.5333 3.22014 13.56C3.4868 13.62 3.77347 13.6467 4.07347 13.6467H9.93347C11.6935 13.6467 12.8668 12.7667 12.8668 10.7133V7.28001C12.8668 6.96668 12.8401 6.68668 12.7801 6.42668ZM3.6868 10C3.6868 10.2733 3.46014 10.5 3.1868 10.5C2.91347 10.5 2.6868 10.2733 2.6868 10V8.00001C2.6868 7.72668 2.91347 7.50001 3.1868 7.50001C3.46014 7.50001 3.6868 7.72668 3.6868 8.00001V10ZM7.00014 10.76C6.0268 10.76 5.24014 9.97335 5.24014 9.00001C5.24014 8.02668 6.0268 7.24001 7.00014 7.24001C7.97347 7.24001 8.76014 8.02668 8.76014 9.00001C8.76014 9.97335 7.97347 10.76 7.00014 10.76ZM11.3068 10C11.3068 10.2733 11.0801 10.5 10.8068 10.5C10.5335 10.5 10.3068 10.2733 10.3068 10V8.00001C10.3068 7.72668 10.5335 7.50001 10.8068 7.50001C11.0801 7.50001 11.3068 7.72668 11.3068 8.00001V10Z" fill="#727272"/>
<path d="M14.8665 9.27998V12.7133C14.8665 14.7666 13.6932 15.6533 11.9265 15.6533H6.07318C5.57318 15.6533 5.12651 15.58 4.73985 15.4333C4.42651 15.32 4.15318 15.1533 3.93318 14.94C3.81318 14.8266 3.90651 14.6466 4.07318 14.6466H9.92651C12.3932 14.6466 13.8598 13.18 13.8598 10.72V7.27998C13.8598 7.11998 14.0398 7.01998 14.1532 7.13998C14.6065 7.61998 14.8665 8.31998 14.8665 9.27998Z" fill="#727272"/>
<line x1="24.5" y1="0.5" x2="24.5" y2="19.5" stroke="#CDCDCD"/>
</svg>
