<svg width="19" height="24" viewBox="0 0 19 24" fill="none" xmlns="http://www.w3.org/2000/svg">
<path d="M9.5 23.5833C10.8292 23.5833 11.9167 22.4958 11.9167 21.1666H7.08333C7.08333 22.4958 8.15875 23.5833 9.5 23.5833ZM16.75 16.3333V10.2916C16.75 6.58206 14.7683 3.47665 11.3125 2.65498V1.83331C11.3125 0.830396 10.5029 0.020813 9.5 0.020813C8.49708 0.020813 7.6875 0.830396 7.6875 1.83331V2.65498C4.21958 3.47665 2.25 6.56998 2.25 10.2916V16.3333L0.691251 17.8921C-0.0699988 18.6533 0.461668 19.9583 1.53708 19.9583H17.4508C18.5263 19.9583 19.07 18.6533 18.3088 17.8921L16.75 16.3333Z" fill="#1E1E1E"/>
</svg>
