<svg width="162" height="120" viewBox="0 0 162 120" fill="none" xmlns="http://www.w3.org/2000/svg">
<path d="M8.56 18.24C8.56 17.5467 8.68267 16.8693 8.928 16.208C9.17333 15.536 9.53067 14.928 10 14.384C10.48 13.8293 11.0613 13.392 11.744 13.072C12.4267 12.7413 13.2 12.576 14.064 12.576C15.088 12.576 15.9733 12.8107 16.72 13.28C17.4667 13.7387 18.0213 14.3307 18.384 15.056L16.976 16C16.7627 15.5413 16.4907 15.1787 16.16 14.912C15.84 14.6453 15.488 14.4587 15.104 14.352C14.7307 14.2453 14.3627 14.192 14 14.192C13.4027 14.192 12.88 14.3147 12.432 14.56C11.984 14.7947 11.6053 15.1093 11.296 15.504C10.9973 15.8987 10.768 16.3413 10.608 16.832C10.4587 17.3227 10.384 17.8133 10.384 18.304C10.384 18.848 10.4747 19.376 10.656 19.888C10.8373 20.3893 11.088 20.8373 11.408 21.232C11.7387 21.616 12.128 21.92 12.576 22.144C13.024 22.368 13.5147 22.48 14.048 22.48C14.4107 22.48 14.7893 22.416 15.184 22.288C15.5787 22.16 15.9413 21.9627 16.272 21.696C16.6133 21.4187 16.88 21.056 17.072 20.608L18.56 21.456C18.3253 22.0213 17.9573 22.5013 17.456 22.896C16.9653 23.2907 16.4107 23.5893 15.792 23.792C15.184 23.9947 14.5813 24.096 13.984 24.096C13.184 24.096 12.4533 23.9307 11.792 23.6C11.1307 23.2587 10.56 22.8107 10.08 22.256C9.6 21.6907 9.22667 21.0613 8.96 20.368C8.69333 19.664 8.56 18.9547 8.56 18.24ZM27.2575 24H25.4975V19.312C25.4975 18.5547 25.3588 17.9893 25.0815 17.616C24.8042 17.2427 24.4148 17.056 23.9135 17.056C23.6042 17.056 23.2842 17.1413 22.9535 17.312C22.6228 17.4827 22.3295 17.7173 22.0735 18.016C21.8175 18.304 21.6308 18.64 21.5135 19.024V24H19.7535V12.32H21.5135V17.312C21.8335 16.7467 22.2708 16.304 22.8255 15.984C23.3802 15.6533 23.9775 15.488 24.6175 15.488C25.1402 15.488 25.5722 15.5787 25.9135 15.76C26.2548 15.9413 26.5215 16.192 26.7135 16.512C26.9162 16.8213 27.0548 17.184 27.1295 17.6C27.2148 18.0053 27.2575 18.4373 27.2575 18.896V24ZM32.8524 24.16C32.2017 24.16 31.6097 24.048 31.0764 23.824C30.5537 23.5893 30.1004 23.2747 29.7164 22.88C29.3324 22.4747 29.0337 22.016 28.8204 21.504C28.6177 20.9813 28.5164 20.4267 28.5164 19.84C28.5164 19.0507 28.6977 18.3307 29.0604 17.68C29.423 17.0187 29.9297 16.4907 30.5804 16.096C31.231 15.6907 31.9937 15.488 32.8684 15.488C33.743 15.488 34.495 15.6907 35.1244 16.096C35.7644 16.4907 36.2604 17.0133 36.6124 17.664C36.9644 18.3147 37.1404 19.0133 37.1404 19.76C37.1404 19.888 37.135 20.0107 37.1244 20.128C37.1137 20.2347 37.103 20.3253 37.0924 20.4H30.3884C30.4204 20.8907 30.5537 21.3227 30.7884 21.696C31.0337 22.0587 31.343 22.3467 31.7164 22.56C32.0897 22.7627 32.4897 22.864 32.9164 22.864C33.3857 22.864 33.8284 22.7467 34.2444 22.512C34.671 22.2773 34.959 21.968 35.1084 21.584L36.6124 22.016C36.431 22.4213 36.1537 22.7893 35.7804 23.12C35.4177 23.44 34.9857 23.696 34.4844 23.888C33.983 24.0693 33.439 24.16 32.8524 24.16ZM30.3404 19.232H35.3964C35.3644 18.752 35.2257 18.3307 34.9804 17.968C34.7457 17.5947 34.4417 17.3067 34.0684 17.104C33.7057 16.8907 33.3004 16.784 32.8524 16.784C32.415 16.784 32.0097 16.8907 31.6364 17.104C31.2737 17.3067 30.975 17.5947 30.7404 17.968C30.5057 18.3307 30.3724 18.752 30.3404 19.232ZM42.128 24.16C41.4773 24.16 40.8853 24.048 40.352 23.824C39.8293 23.5893 39.376 23.2693 38.992 22.864C38.608 22.4587 38.3093 21.9947 38.096 21.472C37.8933 20.9493 37.792 20.3947 37.792 19.808C37.792 19.0187 37.968 18.2987 38.32 17.648C38.6827 16.9973 39.184 16.4747 39.824 16.08C40.4747 15.6853 41.2427 15.488 42.128 15.488C42.9813 15.488 43.7227 15.68 44.352 16.064C44.992 16.4373 45.4613 16.9387 45.76 17.568L44.048 18.112C43.856 17.76 43.584 17.488 43.232 17.296C42.8907 17.0933 42.512 16.992 42.096 16.992C41.6267 16.992 41.2 17.1147 40.816 17.36C40.4427 17.5947 40.144 17.9253 39.92 18.352C39.7067 18.768 39.6 19.2533 39.6 19.808C39.6 20.3413 39.712 20.8267 39.936 21.264C40.16 21.6907 40.4587 22.032 40.832 22.288C41.216 22.5333 41.6427 22.656 42.112 22.656C42.4 22.656 42.6773 22.608 42.944 22.512C43.2213 22.4053 43.4613 22.2667 43.664 22.096C43.8667 21.9147 44.0107 21.7173 44.096 21.504L45.824 22.016C45.6427 22.432 45.3707 22.8 45.008 23.12C44.656 23.44 44.2347 23.696 43.744 23.888C43.264 24.0693 42.7253 24.16 42.128 24.16ZM52.8575 24L50.1695 20.144L48.7935 21.456V24H47.0335V12.32H48.7935V19.68L52.6655 15.648H54.5535L51.3055 19.152L54.7295 24H52.8575ZM59.4963 24V12.64H64.4403C64.9523 12.64 65.4216 12.7467 65.8483 12.96C66.2749 13.1733 66.6429 13.456 66.9523 13.808C67.2723 14.16 67.5176 14.5547 67.6883 14.992C67.8696 15.4293 67.9603 15.8773 67.9603 16.336C67.9603 16.8373 67.8696 17.3173 67.6883 17.776C67.5069 18.2347 67.2456 18.6293 66.9043 18.96C66.5736 19.2907 66.1843 19.5307 65.7363 19.68L68.4083 24H66.3923L63.9283 20.048H61.2883V24H59.4963ZM61.2883 18.464H64.4243C64.7549 18.464 65.0483 18.368 65.3043 18.176C65.5603 17.984 65.7629 17.728 65.9123 17.408C66.0616 17.0773 66.1363 16.72 66.1363 16.336C66.1363 15.9413 66.0509 15.5893 65.8803 15.28C65.7096 14.96 65.4856 14.704 65.2083 14.512C64.9416 14.32 64.6483 14.224 64.3283 14.224H61.2883V18.464ZM73.1367 24.16C72.4861 24.16 71.8941 24.048 71.3607 23.824C70.8381 23.5893 70.3847 23.2747 70.0007 22.88C69.6167 22.4747 69.3181 22.016 69.1047 21.504C68.9021 20.9813 68.8007 20.4267 68.8007 19.84C68.8007 19.0507 68.9821 18.3307 69.3447 17.68C69.7074 17.0187 70.2141 16.4907 70.8647 16.096C71.5154 15.6907 72.2781 15.488 73.1528 15.488C74.0274 15.488 74.7794 15.6907 75.4088 16.096C76.0487 16.4907 76.5447 17.0133 76.8968 17.664C77.2488 18.3147 77.4248 19.0133 77.4248 19.76C77.4248 19.888 77.4194 20.0107 77.4088 20.128C77.3981 20.2347 77.3874 20.3253 77.3767 20.4H70.6727C70.7047 20.8907 70.8381 21.3227 71.0727 21.696C71.3181 22.0587 71.6274 22.3467 72.0007 22.56C72.3741 22.7627 72.7741 22.864 73.2007 22.864C73.6701 22.864 74.1127 22.7467 74.5287 22.512C74.9554 22.2773 75.2434 21.968 75.3928 21.584L76.8968 22.016C76.7154 22.4213 76.4381 22.7893 76.0648 23.12C75.7021 23.44 75.2701 23.696 74.7688 23.888C74.2674 24.0693 73.7234 24.16 73.1367 24.16ZM70.6247 19.232H75.6807C75.6487 18.752 75.5101 18.3307 75.2648 17.968C75.0301 17.5947 74.7261 17.3067 74.3527 17.104C73.9901 16.8907 73.5848 16.784 73.1367 16.784C72.6994 16.784 72.2941 16.8907 71.9207 17.104C71.5581 17.3067 71.2594 17.5947 71.0247 17.968C70.7901 18.3307 70.6567 18.752 70.6247 19.232ZM81.5964 24.16C80.8924 24.16 80.2257 24.048 79.5964 23.824C78.967 23.5893 78.4284 23.2427 77.9804 22.784L78.6364 21.6C79.1164 22.0267 79.5964 22.336 80.0764 22.528C80.567 22.72 81.0524 22.816 81.5324 22.816C82.023 22.816 82.423 22.7253 82.7324 22.544C83.0417 22.352 83.1964 22.0747 83.1964 21.712C83.1964 21.4453 83.1164 21.248 82.9564 21.12C82.7964 20.992 82.5617 20.88 82.2524 20.784C81.9537 20.688 81.591 20.5813 81.1644 20.464C80.567 20.2827 80.0657 20.096 79.6604 19.904C79.255 19.7013 78.951 19.456 78.7484 19.168C78.5457 18.88 78.4444 18.512 78.4444 18.064C78.4444 17.52 78.583 17.056 78.8604 16.672C79.1377 16.288 79.5217 15.9947 80.0124 15.792C80.5137 15.5893 81.0897 15.488 81.7404 15.488C82.3484 15.488 82.9084 15.584 83.4204 15.776C83.943 15.9573 84.4017 16.2453 84.7964 16.64L84.0444 17.808C83.671 17.4667 83.287 17.216 82.8924 17.056C82.5084 16.896 82.0924 16.816 81.6444 16.816C81.3884 16.816 81.143 16.848 80.9084 16.912C80.6737 16.9653 80.4764 17.072 80.3164 17.232C80.167 17.3813 80.0924 17.5947 80.0924 17.872C80.0924 18.096 80.1564 18.2773 80.2844 18.416C80.4124 18.5547 80.6044 18.672 80.8604 18.768C81.1164 18.864 81.431 18.9707 81.8044 19.088C82.455 19.28 83.0097 19.472 83.4684 19.664C83.927 19.8453 84.279 20.0853 84.5244 20.384C84.7804 20.672 84.9084 21.072 84.9084 21.584C84.9084 22.3947 84.6044 23.0293 83.9964 23.488C83.399 23.936 82.599 24.16 81.5964 24.16ZM90.8801 23.568C90.7308 23.6427 90.5441 23.7227 90.3201 23.808C90.0961 23.8933 89.8401 23.968 89.5521 24.032C89.2748 24.096 88.9868 24.128 88.6881 24.128C88.3255 24.128 87.9895 24.064 87.6801 23.936C87.3708 23.808 87.1201 23.6053 86.9281 23.328C86.7468 23.04 86.6561 22.672 86.6561 22.224V16.992H85.5521V15.632H86.6561V12.88H88.4161V15.632H90.2401V16.992H88.4161V21.664C88.4375 21.952 88.5281 22.1653 88.6881 22.304C88.8588 22.4427 89.0668 22.512 89.3121 22.512C89.5575 22.512 89.7921 22.4693 90.0161 22.384C90.2401 22.2987 90.4055 22.2293 90.5121 22.176L90.8801 23.568ZM91.2511 21.552C91.2511 21.0187 91.4005 20.5547 91.6991 20.16C92.0085 19.7547 92.4298 19.4453 92.9631 19.232C93.4965 19.008 94.1151 18.896 94.8191 18.896C95.1925 18.896 95.5711 18.9227 95.9551 18.976C96.3498 19.0293 96.6965 19.1147 96.9951 19.232V18.704C96.9951 18.1173 96.8191 17.6587 96.4671 17.328C96.1151 16.9973 95.6085 16.832 94.9471 16.832C94.4778 16.832 94.0351 16.9173 93.6191 17.088C93.2031 17.248 92.7605 17.4773 92.2911 17.776L91.6991 16.592C92.2538 16.2187 92.8085 15.9413 93.3631 15.76C93.9285 15.5787 94.5205 15.488 95.1391 15.488C96.2591 15.488 97.1391 15.7867 97.7791 16.384C98.4298 16.9707 98.7551 17.808 98.7551 18.896V22.016C98.7551 22.2187 98.7871 22.3627 98.8511 22.448C98.9258 22.5333 99.0485 22.5813 99.2191 22.592V24C99.0591 24.032 98.9151 24.0533 98.7871 24.064C98.6591 24.0747 98.5525 24.08 98.4671 24.08C98.0938 24.08 97.8111 23.9893 97.6191 23.808C97.4271 23.6267 97.3151 23.4133 97.2831 23.168L97.2351 22.688C96.8725 23.1573 96.4085 23.52 95.8431 23.776C95.2778 24.032 94.7071 24.16 94.1311 24.16C93.5765 24.16 93.0805 24.048 92.6431 23.824C92.2058 23.5893 91.8645 23.2747 91.6191 22.88C91.3738 22.4853 91.2511 22.0427 91.2511 21.552ZM96.5791 22.064C96.7071 21.9253 96.8085 21.7867 96.8831 21.648C96.9578 21.5093 96.9951 21.3867 96.9951 21.28V20.32C96.6965 20.2027 96.3818 20.1173 96.0511 20.064C95.7205 20 95.3951 19.968 95.0751 19.968C94.4351 19.968 93.9125 20.096 93.5071 20.352C93.1125 20.608 92.9151 20.96 92.9151 21.408C92.9151 21.6533 92.9791 21.888 93.1071 22.112C93.2458 22.336 93.4378 22.5173 93.6831 22.656C93.9391 22.7947 94.2538 22.864 94.6271 22.864C95.0111 22.864 95.3791 22.7893 95.7311 22.64C96.0831 22.4907 96.3658 22.2987 96.5791 22.064ZM100.57 20.752V15.632H102.33V20.4C102.33 21.1467 102.464 21.712 102.73 22.096C103.008 22.4693 103.408 22.656 103.93 22.656C104.261 22.656 104.581 22.5867 104.89 22.448C105.21 22.3093 105.498 22.1067 105.754 21.84C106.021 21.5627 106.234 21.232 106.394 20.848V15.632H108.154V22.016C108.154 22.2187 108.192 22.3627 108.266 22.448C108.341 22.5333 108.464 22.5813 108.634 22.592V24C108.453 24.032 108.304 24.0533 108.186 24.064C108.069 24.0747 107.957 24.08 107.85 24.08C107.53 24.08 107.264 23.9947 107.05 23.824C106.837 23.6427 106.714 23.4133 106.682 23.136L106.65 22.304C106.277 22.912 105.792 23.376 105.194 23.696C104.597 24.0053 103.941 24.16 103.226 24.16C102.352 24.16 101.69 23.872 101.242 23.296C100.794 22.72 100.57 21.872 100.57 20.752ZM114.864 17.152C114.182 17.1627 113.574 17.3173 113.04 17.616C112.518 17.9147 112.144 18.336 111.92 18.88V24H110.16V15.632H111.792V17.504C112.08 16.928 112.459 16.4693 112.928 16.128C113.398 15.776 113.894 15.584 114.416 15.552C114.523 15.552 114.608 15.552 114.672 15.552C114.747 15.552 114.811 15.5573 114.864 15.568V17.152ZM115.281 21.552C115.281 21.0187 115.43 20.5547 115.729 20.16C116.038 19.7547 116.46 19.4453 116.993 19.232C117.526 19.008 118.145 18.896 118.849 18.896C119.222 18.896 119.601 18.9227 119.985 18.976C120.38 19.0293 120.726 19.1147 121.025 19.232V18.704C121.025 18.1173 120.849 17.6587 120.497 17.328C120.145 16.9973 119.638 16.832 118.977 16.832C118.508 16.832 118.065 16.9173 117.649 17.088C117.233 17.248 116.79 17.4773 116.321 17.776L115.729 16.592C116.284 16.2187 116.838 15.9413 117.393 15.76C117.958 15.5787 118.55 15.488 119.169 15.488C120.289 15.488 121.169 15.7867 121.809 16.384C122.46 16.9707 122.785 17.808 122.785 18.896V22.016C122.785 22.2187 122.817 22.3627 122.881 22.448C122.956 22.5333 123.078 22.5813 123.249 22.592V24C123.089 24.032 122.945 24.0533 122.817 24.064C122.689 24.0747 122.582 24.08 122.497 24.08C122.124 24.08 121.841 23.9893 121.649 23.808C121.457 23.6267 121.345 23.4133 121.313 23.168L121.265 22.688C120.902 23.1573 120.438 23.52 119.873 23.776C119.308 24.032 118.737 24.16 118.161 24.16C117.606 24.16 117.11 24.048 116.673 23.824C116.236 23.5893 115.894 23.2747 115.649 22.88C115.404 22.4853 115.281 22.0427 115.281 21.552ZM120.609 22.064C120.737 21.9253 120.838 21.7867 120.913 21.648C120.988 21.5093 121.025 21.3867 121.025 21.28V20.32C120.726 20.2027 120.412 20.1173 120.081 20.064C119.75 20 119.425 19.968 119.105 19.968C118.465 19.968 117.942 20.096 117.537 20.352C117.142 20.608 116.945 20.96 116.945 21.408C116.945 21.6533 117.009 21.888 117.137 22.112C117.276 22.336 117.468 22.5173 117.713 22.656C117.969 22.7947 118.284 22.864 118.657 22.864C119.041 22.864 119.409 22.7893 119.761 22.64C120.113 22.4907 120.396 22.2987 120.609 22.064ZM132.184 24H130.424V19.312C130.424 18.5333 130.296 17.9627 130.04 17.6C129.795 17.2373 129.427 17.056 128.936 17.056C128.595 17.056 128.254 17.1413 127.912 17.312C127.582 17.4827 127.283 17.7173 127.016 18.016C126.75 18.304 126.558 18.64 126.44 19.024V24H124.68V15.632H126.28V17.312C126.494 16.9387 126.771 16.6187 127.112 16.352C127.464 16.0747 127.859 15.8613 128.296 15.712C128.734 15.5627 129.198 15.488 129.688 15.488C130.19 15.488 130.6 15.5787 130.92 15.76C131.251 15.9413 131.507 16.192 131.688 16.512C131.88 16.8213 132.008 17.184 132.072 17.6C132.147 18.0053 132.184 18.4373 132.184 18.896V24ZM138.581 23.568C138.431 23.6427 138.245 23.7227 138.021 23.808C137.797 23.8933 137.541 23.968 137.253 24.032C136.975 24.096 136.687 24.128 136.389 24.128C136.026 24.128 135.69 24.064 135.381 23.936C135.071 23.808 134.821 23.6053 134.629 23.328C134.447 23.04 134.357 22.672 134.357 22.224V16.992H133.253V15.632H134.357V12.88H136.117V15.632H137.941V16.992H136.117V21.664C136.138 21.952 136.229 22.1653 136.389 22.304C136.559 22.4427 136.767 22.512 137.013 22.512C137.258 22.512 137.493 22.4693 137.717 22.384C137.941 22.2987 138.106 22.2293 138.213 22.176L138.581 23.568Z" fill="#1F1F1F"/>
<path d="M15.9999 39.3335C12.3266 39.3335 9.33325 42.3268 9.33325 46.0002C9.33325 49.6735 12.3266 52.6668 15.9999 52.6668C19.6733 52.6668 22.6666 49.6735 22.6666 46.0002C22.6666 42.3268 19.6733 39.3335 15.9999 39.3335ZM18.8999 48.3802C18.8066 48.5402 18.6399 48.6268 18.4666 48.6268C18.3799 48.6268 18.2933 48.6068 18.2133 48.5535L16.1466 47.3202C15.6333 47.0135 15.2533 46.3402 15.2533 45.7468V43.0135C15.2533 42.7402 15.4799 42.5135 15.7533 42.5135C16.0266 42.5135 16.2533 42.7402 16.2533 43.0135V45.7468C16.2533 45.9868 16.4533 46.3402 16.6599 46.4602L18.7266 47.6935C18.9666 47.8335 19.0466 48.1402 18.8999 48.3802Z" fill="#727272"/>
<path d="M28.432 46.088C28.432 46.624 28.56 47.108 28.816 47.54C29.08 47.972 29.436 48.316 29.884 48.572C30.332 48.828 30.828 48.956 31.372 48.956C31.708 48.956 32.02 48.9 32.308 48.788C32.596 48.676 32.848 48.516 33.064 48.308C33.288 48.1 33.456 47.86 33.568 47.588C33.56 48.292 33.464 48.892 33.28 49.388C33.104 49.884 32.852 50.264 32.524 50.528C32.204 50.792 31.824 50.924 31.384 50.924C30.968 50.924 30.584 50.812 30.232 50.588C29.888 50.364 29.628 50.068 29.452 49.7L28.804 50.336C29.06 50.808 29.412 51.176 29.86 51.44C30.316 51.712 30.82 51.848 31.372 51.848C32.012 51.848 32.572 51.66 33.052 51.284C33.532 50.916 33.904 50.36 34.168 49.616C34.432 48.872 34.564 47.94 34.564 46.82C34.564 46.052 34.432 45.396 34.168 44.852C33.912 44.3 33.552 43.88 33.088 43.592C32.632 43.296 32.096 43.148 31.48 43.148C30.912 43.148 30.396 43.28 29.932 43.544C29.468 43.808 29.1 44.164 28.828 44.612C28.564 45.052 28.432 45.544 28.432 46.088ZM31.468 44.06C31.836 44.06 32.172 44.152 32.476 44.336C32.788 44.52 33.036 44.768 33.22 45.08C33.404 45.384 33.496 45.72 33.496 46.088C33.496 46.456 33.404 46.792 33.22 47.096C33.036 47.4 32.792 47.644 32.488 47.828C32.184 48.012 31.844 48.104 31.468 48.104C31.1 48.104 30.76 48.012 30.448 47.828C30.144 47.644 29.9 47.4 29.716 47.096C29.532 46.792 29.44 46.456 29.44 46.088C29.44 45.712 29.532 45.372 29.716 45.068C29.9 44.764 30.144 44.52 30.448 44.336C30.76 44.152 31.1 44.06 31.468 44.06ZM40.8586 41.48H41.7706L45.2506 50H44.0986L43.0906 47.504H39.5146L38.5186 50H37.3666L40.8586 41.48ZM42.8506 46.664L41.3146 42.728L39.7306 46.664H42.8506ZM53.5157 50V43.496L50.7077 48.5H50.0477L47.2277 43.496V50H46.1477V41.48H47.2877L50.3717 47.012L53.4677 41.48H54.5957V50H53.5157ZM58.9391 47.204V46.244H62.4791V47.204H58.9391ZM72.3885 47.588C72.3885 48.092 72.2485 48.532 71.9685 48.908C71.6965 49.284 71.3285 49.576 70.8645 49.784C70.4085 49.992 69.9085 50.096 69.3645 50.096C68.7965 50.096 68.2885 49.984 67.8405 49.76C67.3925 49.528 67.0365 49.22 66.7725 48.836C66.5165 48.452 66.3885 48.02 66.3885 47.54C66.3885 47.188 66.4685 46.872 66.6285 46.592C66.7885 46.312 66.9885 46.076 67.2285 45.884C67.4765 45.684 67.7285 45.536 67.9845 45.44C67.7525 45.336 67.5365 45.2 67.3365 45.032C67.1365 44.864 66.9765 44.668 66.8565 44.444C66.7365 44.22 66.6765 43.976 66.6765 43.712C66.6765 43.352 66.7565 43.036 66.9165 42.764C67.0765 42.484 67.2885 42.248 67.5525 42.056C67.8165 41.864 68.1085 41.72 68.4285 41.624C68.7485 41.528 69.0685 41.48 69.3885 41.48C69.7085 41.48 70.0285 41.528 70.3485 41.624C70.6685 41.72 70.9605 41.864 71.2245 42.056C71.4965 42.24 71.7125 42.472 71.8725 42.752C72.0325 43.024 72.1125 43.34 72.1125 43.7C72.1125 43.964 72.0525 44.212 71.9325 44.444C71.8125 44.668 71.6485 44.864 71.4405 45.032C71.2405 45.2 71.0205 45.336 70.7805 45.44C71.0685 45.552 71.3325 45.712 71.5725 45.92C71.8205 46.12 72.0165 46.36 72.1605 46.64C72.3125 46.92 72.3885 47.236 72.3885 47.588ZM71.3205 47.516C71.3205 47.26 71.2645 47.032 71.1525 46.832C71.0405 46.624 70.8885 46.452 70.6965 46.316C70.5045 46.172 70.2925 46.064 70.0605 45.992C69.8365 45.92 69.6085 45.884 69.3765 45.884C69.0565 45.884 68.7485 45.952 68.4525 46.088C68.1645 46.224 67.9285 46.416 67.7445 46.664C67.5605 46.904 67.4685 47.192 67.4685 47.528C67.4685 47.776 67.5245 48 67.6365 48.2C67.7485 48.4 67.8965 48.572 68.0805 48.716C68.2725 48.86 68.4805 48.968 68.7045 49.04C68.9365 49.112 69.1685 49.148 69.4005 49.148C69.7205 49.148 70.0245 49.08 70.3125 48.944C70.6085 48.808 70.8485 48.616 71.0325 48.368C71.2245 48.12 71.3205 47.836 71.3205 47.516ZM67.7445 43.748C67.7445 44.028 67.8285 44.268 67.9965 44.468C68.1645 44.668 68.3765 44.82 68.6325 44.924C68.8885 45.02 69.1405 45.068 69.3885 45.068C69.6445 45.068 69.8965 45.016 70.1445 44.912C70.4005 44.808 70.6125 44.656 70.7805 44.456C70.9485 44.256 71.0325 44.012 71.0325 43.724C71.0325 43.452 70.9525 43.22 70.7925 43.028C70.6405 42.836 70.4365 42.688 70.1805 42.584C69.9325 42.48 69.6645 42.428 69.3765 42.428C69.0965 42.428 68.8285 42.484 68.5725 42.596C68.3245 42.7 68.1245 42.852 67.9725 43.052C67.8205 43.244 67.7445 43.476 67.7445 43.748ZM76.5475 50V41.48H80.0995C80.4755 41.48 80.8195 41.56 81.1315 41.72C81.4435 41.872 81.7155 42.08 81.9475 42.344C82.1795 42.6 82.3595 42.892 82.4875 43.22C82.6155 43.54 82.6795 43.868 82.6795 44.204C82.6795 44.668 82.5755 45.112 82.3675 45.536C82.1595 45.952 81.8675 46.292 81.4915 46.556C81.1155 46.812 80.6755 46.94 80.1715 46.94H77.6275V50H76.5475ZM77.6275 45.98H80.1115C80.4075 45.98 80.6635 45.9 80.8795 45.74C81.1035 45.58 81.2755 45.364 81.3955 45.092C81.5235 44.82 81.5875 44.524 81.5875 44.204C81.5875 43.868 81.5155 43.568 81.3715 43.304C81.2275 43.032 81.0395 42.82 80.8075 42.668C80.5755 42.516 80.3195 42.44 80.0395 42.44H77.6275V45.98ZM91.1521 50V43.496L88.3441 48.5H87.6841L84.8641 43.496V50H83.7841V41.48H84.9241L88.0081 47.012L91.1041 41.48H92.2321V50H91.1521Z" fill="#727272"/>
<rect x="102" y="37" width="52" height="18" rx="4" fill="#FF0000" fill-opacity="0.1"/>
<path d="M108.42 45.68C108.42 45.16 108.512 44.652 108.696 44.156C108.88 43.652 109.148 43.196 109.5 42.788C109.86 42.372 110.296 42.044 110.808 41.804C111.32 41.556 111.9 41.432 112.548 41.432C113.316 41.432 113.98 41.608 114.54 41.96C115.1 42.304 115.516 42.748 115.788 43.292L114.732 44C114.572 43.656 114.368 43.384 114.12 43.184C113.88 42.984 113.616 42.844 113.328 42.764C113.048 42.684 112.772 42.644 112.5 42.644C112.052 42.644 111.66 42.736 111.324 42.92C110.988 43.096 110.704 43.332 110.472 43.628C110.248 43.924 110.076 44.256 109.956 44.624C109.844 44.992 109.788 45.36 109.788 45.728C109.788 46.136 109.856 46.532 109.992 46.916C110.128 47.292 110.316 47.628 110.556 47.924C110.804 48.212 111.096 48.44 111.432 48.608C111.768 48.776 112.136 48.86 112.536 48.86C112.808 48.86 113.092 48.812 113.388 48.716C113.684 48.62 113.956 48.472 114.204 48.272C114.46 48.064 114.66 47.792 114.804 47.456L115.92 48.092C115.744 48.516 115.468 48.876 115.092 49.172C114.724 49.468 114.308 49.692 113.844 49.844C113.388 49.996 112.936 50.072 112.488 50.072C111.888 50.072 111.34 49.948 110.844 49.7C110.348 49.444 109.92 49.108 109.56 48.692C109.2 48.268 108.92 47.796 108.72 47.276C108.52 46.748 108.42 46.216 108.42 45.68ZM117.007 41.24H118.327V48.188C118.327 48.508 118.375 48.712 118.471 48.8C118.567 48.888 118.687 48.932 118.831 48.932C118.991 48.932 119.139 48.916 119.275 48.884C119.419 48.852 119.543 48.812 119.647 48.764L119.839 49.808C119.647 49.888 119.419 49.956 119.155 50.012C118.891 50.068 118.655 50.096 118.447 50.096C117.999 50.096 117.647 49.972 117.391 49.724C117.135 49.468 117.007 49.116 117.007 48.668V41.24ZM123.425 50.12C122.929 50.12 122.485 50.036 122.093 49.868C121.701 49.692 121.361 49.452 121.073 49.148C120.793 48.844 120.577 48.5 120.425 48.116C120.273 47.724 120.197 47.308 120.197 46.868C120.197 46.428 120.273 46.012 120.425 45.62C120.577 45.228 120.793 44.884 121.073 44.588C121.361 44.284 121.701 44.048 122.093 43.88C122.493 43.704 122.937 43.616 123.425 43.616C123.913 43.616 124.353 43.704 124.745 43.88C125.145 44.048 125.485 44.284 125.765 44.588C126.053 44.884 126.273 45.228 126.424 45.62C126.577 46.012 126.653 46.428 126.653 46.868C126.653 47.308 126.577 47.724 126.424 48.116C126.273 48.5 126.053 48.844 125.765 49.148C125.485 49.452 125.145 49.692 124.745 49.868C124.353 50.036 123.913 50.12 123.425 50.12ZM121.553 46.88C121.553 47.28 121.637 47.64 121.805 47.96C121.973 48.28 122.197 48.532 122.477 48.716C122.757 48.9 123.073 48.992 123.425 48.992C123.769 48.992 124.081 48.9 124.361 48.716C124.649 48.524 124.877 48.268 125.045 47.948C125.213 47.62 125.297 47.26 125.297 46.868C125.297 46.468 125.213 46.108 125.045 45.788C124.877 45.468 124.649 45.216 124.361 45.032C124.081 44.84 123.769 44.744 123.425 44.744C123.073 44.744 122.757 44.84 122.477 45.032C122.197 45.224 121.973 45.48 121.805 45.8C121.637 46.112 121.553 46.472 121.553 46.88ZM130.055 50.12C129.527 50.12 129.027 50.036 128.555 49.868C128.083 49.692 127.679 49.432 127.343 49.088L127.835 48.2C128.195 48.52 128.555 48.752 128.915 48.896C129.283 49.04 129.647 49.112 130.007 49.112C130.375 49.112 130.675 49.044 130.907 48.908C131.139 48.764 131.255 48.556 131.255 48.284C131.255 48.084 131.195 47.936 131.075 47.84C130.955 47.744 130.779 47.66 130.547 47.588C130.323 47.516 130.051 47.436 129.731 47.348C129.283 47.212 128.907 47.072 128.603 46.928C128.299 46.776 128.071 46.592 127.919 46.376C127.767 46.16 127.691 45.884 127.691 45.548C127.691 45.14 127.795 44.792 128.003 44.504C128.211 44.216 128.499 43.996 128.867 43.844C129.243 43.692 129.675 43.616 130.163 43.616C130.619 43.616 131.039 43.688 131.423 43.832C131.815 43.968 132.159 44.184 132.455 44.48L131.891 45.356C131.611 45.1 131.323 44.912 131.027 44.792C130.739 44.672 130.427 44.612 130.091 44.612C129.899 44.612 129.715 44.636 129.539 44.684C129.363 44.724 129.215 44.804 129.095 44.924C128.983 45.036 128.927 45.196 128.927 45.404C128.927 45.572 128.975 45.708 129.071 45.812C129.167 45.916 129.311 46.004 129.503 46.076C129.695 46.148 129.931 46.228 130.211 46.316C130.699 46.46 131.115 46.604 131.459 46.748C131.803 46.884 132.067 47.064 132.251 47.288C132.443 47.504 132.539 47.804 132.539 48.188C132.539 48.796 132.311 49.272 131.855 49.616C131.407 49.952 130.807 50.12 130.055 50.12ZM136.562 50.12C136.074 50.12 135.63 50.036 135.23 49.868C134.838 49.692 134.498 49.456 134.21 49.16C133.922 48.856 133.698 48.512 133.538 48.128C133.386 47.736 133.31 47.32 133.31 46.88C133.31 46.288 133.446 45.748 133.718 45.26C133.99 44.764 134.37 44.368 134.858 44.072C135.346 43.768 135.918 43.616 136.574 43.616C137.23 43.616 137.794 43.768 138.266 44.072C138.746 44.368 139.118 44.76 139.382 45.248C139.646 45.736 139.778 46.26 139.778 46.82C139.778 46.916 139.774 47.008 139.766 47.096C139.758 47.176 139.75 47.244 139.742 47.3H134.714C134.738 47.668 134.838 47.992 135.014 48.272C135.198 48.544 135.43 48.76 135.71 48.92C135.99 49.072 136.29 49.148 136.61 49.148C136.962 49.148 137.294 49.06 137.606 48.884C137.926 48.708 138.142 48.476 138.254 48.188L139.382 48.512C139.246 48.816 139.038 49.092 138.758 49.34C138.486 49.58 138.162 49.772 137.786 49.916C137.41 50.052 137.002 50.12 136.562 50.12ZM134.678 46.424H138.47C138.446 46.064 138.342 45.748 138.158 45.476C137.982 45.196 137.754 44.98 137.474 44.828C137.202 44.668 136.898 44.588 136.562 44.588C136.234 44.588 135.93 44.668 135.65 44.828C135.378 44.98 135.154 45.196 134.978 45.476C134.802 45.748 134.702 46.064 134.678 46.424ZM140.458 46.868C140.458 46.268 140.579 45.724 140.819 45.236C141.067 44.74 141.403 44.348 141.826 44.06C142.251 43.764 142.739 43.616 143.291 43.616C143.771 43.616 144.203 43.74 144.587 43.988C144.979 44.236 145.283 44.544 145.499 44.912V41.24H146.819V48.512C146.819 48.664 146.847 48.772 146.903 48.836C146.959 48.9 147.051 48.936 147.179 48.944V50C146.931 50.04 146.739 50.06 146.603 50.06C146.355 50.06 146.143 49.988 145.967 49.844C145.799 49.7 145.711 49.528 145.703 49.328L145.691 48.86C145.451 49.26 145.127 49.572 144.719 49.796C144.311 50.012 143.887 50.12 143.447 50.12C143.015 50.12 142.615 50.036 142.247 49.868C141.887 49.7 141.571 49.464 141.299 49.16C141.035 48.856 140.827 48.508 140.675 48.116C140.531 47.724 140.458 47.308 140.458 46.868ZM145.499 47.744V46.1C145.411 45.844 145.267 45.616 145.067 45.416C144.875 45.208 144.655 45.044 144.407 44.924C144.167 44.804 143.927 44.744 143.687 44.744C143.407 44.744 143.151 44.804 142.919 44.924C142.695 45.044 142.499 45.204 142.331 45.404C142.171 45.604 142.047 45.832 141.959 46.088C141.871 46.344 141.826 46.612 141.826 46.892C141.826 47.18 141.875 47.452 141.971 47.708C142.067 47.956 142.203 48.18 142.379 48.38C142.563 48.572 142.771 48.724 143.003 48.836C143.243 48.94 143.503 48.992 143.783 48.992C143.959 48.992 144.135 48.96 144.311 48.896C144.495 48.832 144.667 48.744 144.827 48.632C144.995 48.52 145.135 48.388 145.247 48.236C145.367 48.084 145.451 47.92 145.499 47.744Z" fill="#FF0000"/>
<path d="M21.7467 71.6332C21.0467 68.5532 18.3601 67.1665 16.0001 67.1665C16.0001 67.1665 16.0001 67.1665 15.9934 67.1665C13.6401 67.1665 10.9467 68.5465 10.2467 71.6265C9.46673 75.0665 11.5734 77.9798 13.4801 79.8132C14.1867 80.4932 15.0934 80.8332 16.0001 80.8332C16.9067 80.8332 17.8134 80.4932 18.5134 79.8132C20.4201 77.9798 22.5267 75.0732 21.7467 71.6332ZM16.0001 74.9732C14.8401 74.9732 13.9001 74.0332 13.9001 72.8732C13.9001 71.7132 14.8401 70.7732 16.0001 70.7732C17.1601 70.7732 18.1001 71.7132 18.1001 72.8732C18.1001 74.0332 17.1601 74.9732 16.0001 74.9732Z" fill="#727272"/>
<path d="M34.72 74.484C34.72 75.188 34.588 75.816 34.324 76.368C34.06 76.912 33.7 77.34 33.244 77.652C32.788 77.964 32.268 78.12 31.684 78.12C31.1 78.12 30.58 77.964 30.124 77.652C29.668 77.34 29.308 76.912 29.044 76.368C28.78 75.816 28.648 75.188 28.648 74.484C28.648 73.78 28.78 73.156 29.044 72.612C29.308 72.06 29.668 71.628 30.124 71.316C30.58 70.996 31.1 70.836 31.684 70.836C32.268 70.836 32.788 70.996 33.244 71.316C33.7 71.628 34.06 72.06 34.324 72.612C34.588 73.156 34.72 73.78 34.72 74.484ZM33.652 74.484C33.652 73.956 33.568 73.492 33.4 73.092C33.232 72.692 33 72.38 32.704 72.156C32.408 71.932 32.068 71.82 31.684 71.82C31.292 71.82 30.948 71.932 30.652 72.156C30.356 72.38 30.124 72.692 29.956 73.092C29.788 73.492 29.704 73.956 29.704 74.484C29.704 75.012 29.788 75.476 29.956 75.876C30.124 76.268 30.356 76.576 30.652 76.8C30.948 77.024 31.292 77.136 31.684 77.136C32.068 77.136 32.408 77.024 32.704 76.8C33 76.576 33.232 76.268 33.4 75.876C33.568 75.476 33.652 75.012 33.652 74.484ZM35.8991 78V76.656H36.7871V78H35.8991ZM40.4609 79.788C39.8529 79.788 39.3049 79.644 38.8169 79.356C38.3289 79.068 37.9609 78.684 37.7129 78.204L38.3729 77.628C38.5969 77.996 38.8929 78.292 39.2609 78.516C39.6369 78.74 40.0409 78.852 40.4729 78.852C40.8409 78.852 41.1689 78.772 41.4569 78.612C41.7449 78.452 41.9729 78.232 42.1409 77.952C42.3089 77.664 42.3929 77.336 42.3929 76.968C42.3929 76.608 42.3089 76.292 42.1409 76.02C41.9809 75.748 41.7609 75.536 41.4809 75.384C41.2089 75.232 40.9009 75.156 40.5569 75.156C40.2129 75.156 39.8889 75.232 39.5849 75.384C39.2889 75.536 39.0449 75.752 38.8529 76.032H37.9049L38.8649 71.148H43.0049V72.12H39.6449L39.1289 74.832C39.3049 74.648 39.5249 74.504 39.7889 74.4C40.0609 74.288 40.3609 74.232 40.6889 74.232C41.2169 74.232 41.6889 74.348 42.1049 74.58C42.5289 74.812 42.8609 75.132 43.1009 75.54C43.3489 75.948 43.4729 76.42 43.4729 76.956C43.4729 77.516 43.3369 78.008 43.0649 78.432C42.8009 78.864 42.4409 79.196 41.9849 79.428C41.5289 79.668 41.0209 79.788 40.4609 79.788ZM44.6711 78V69.492H45.7511V74.196L50.1431 69.48H51.3071L47.8871 73.236L51.4991 78H50.2871L47.2031 73.884L45.7511 75.396V78H44.6711ZM59.6272 78V71.496L56.8192 76.5H56.1592L53.3392 71.496V78H52.2592V69.48H53.3992L56.4832 75.012L59.5792 69.48H60.7072V78H59.6272ZM67.5197 69.48H68.4317L71.9117 78H70.7597L69.7517 75.504H66.1757L65.1797 78H64.0277L67.5197 69.48ZM69.5117 74.664L67.9757 70.728L66.3917 74.664H69.5117ZM80.0669 71.736H81.0869L78.4229 78H77.4989L76.2869 75.048L75.0869 78H74.1629L71.4989 71.736H72.5069L74.6669 76.956L75.6749 74.388L74.6189 71.748H75.5429L76.2869 73.74L77.0309 71.748H77.9549L76.9109 74.388L77.9189 76.956L80.0669 71.736ZM81.19 76.188C81.19 75.788 81.302 75.444 81.526 75.156C81.758 74.86 82.074 74.632 82.474 74.472C82.874 74.312 83.338 74.232 83.866 74.232C84.146 74.232 84.442 74.256 84.754 74.304C85.066 74.344 85.342 74.408 85.582 74.496V74.04C85.582 73.56 85.438 73.184 85.15 72.912C84.862 72.632 84.454 72.492 83.926 72.492C83.582 72.492 83.25 72.556 82.93 72.684C82.618 72.804 82.286 72.98 81.934 73.212L81.55 72.468C81.958 72.188 82.366 71.98 82.774 71.844C83.182 71.7 83.606 71.628 84.046 71.628C84.846 71.628 85.478 71.852 85.942 72.3C86.406 72.74 86.638 73.356 86.638 74.148V76.8C86.638 76.928 86.662 77.024 86.71 77.088C86.766 77.144 86.854 77.176 86.974 77.184V78C86.87 78.016 86.778 78.028 86.698 78.036C86.626 78.044 86.566 78.048 86.518 78.048C86.27 78.048 86.082 77.98 85.954 77.844C85.834 77.708 85.766 77.564 85.75 77.412L85.726 77.016C85.454 77.368 85.098 77.64 84.658 77.832C84.218 78.024 83.782 78.12 83.35 78.12C82.934 78.12 82.562 78.036 82.234 77.868C81.906 77.692 81.65 77.46 81.466 77.172C81.282 76.876 81.19 76.548 81.19 76.188ZM85.27 76.632C85.366 76.52 85.442 76.408 85.498 76.296C85.554 76.176 85.582 76.076 85.582 75.996V75.216C85.334 75.12 85.074 75.048 84.802 75C84.53 74.944 84.262 74.916 83.998 74.916C83.462 74.916 83.026 75.024 82.69 75.24C82.362 75.448 82.198 75.736 82.198 76.104C82.198 76.304 82.25 76.5 82.354 76.692C82.466 76.876 82.626 77.028 82.834 77.148C83.05 77.268 83.314 77.328 83.626 77.328C83.954 77.328 84.266 77.264 84.562 77.136C84.858 77 85.094 76.832 85.27 76.632ZM88.1753 79.704C88.2793 79.712 88.3833 79.72 88.4873 79.728C88.5913 79.744 88.6713 79.752 88.7273 79.752C88.8553 79.752 88.9673 79.708 89.0633 79.62C89.1593 79.532 89.2633 79.36 89.3753 79.104C89.4953 78.856 89.6473 78.488 89.8313 78L87.1793 71.736H88.2953L90.4073 76.932L92.3153 71.736H93.3593L90.3113 79.644C90.2393 79.828 90.1313 80 89.9873 80.16C89.8513 80.328 89.6753 80.46 89.4593 80.556C89.2433 80.652 88.9833 80.7 88.6793 80.7C88.6073 80.7 88.5313 80.696 88.4513 80.688C88.3793 80.68 88.2873 80.664 88.1753 80.64V79.704Z" fill="#727272"/>
<g clip-path="url(#clip0_1953_24639)">
<path d="M18.6666 94.6665C19.0348 94.6665 19.3333 94.965 19.3333 95.3332V95.9998H22.6666V99.9998H21.3206L23.1513 105.03C23.2688 105.33 23.3333 105.658 23.3333 106C23.3333 107.473 22.1393 108.667 20.6666 108.667C19.424 108.667 18.38 107.817 18.0839 106.667H15.2492C14.9532 107.817 13.9091 108.667 12.6666 108.667C11.3703 108.667 10.29 107.742 10.0497 106.516C9.62389 106.293 9.33325 105.847 9.33325 105.333V98.6665C9.33325 98.2983 9.63173 97.9998 9.99992 97.9998H14.6666C15.0348 97.9998 15.3333 98.2983 15.3333 98.6665V102C15.3333 102.368 15.6317 102.667 15.9999 102.667H17.3333C17.7014 102.667 17.9999 102.368 17.9999 102V95.9998H15.9999V94.6665H18.6666ZM20.6666 104.667C19.9302 104.667 19.3333 105.263 19.3333 106C19.3333 106.736 19.9302 107.333 20.6666 107.333C21.403 107.333 21.9999 106.736 21.9999 106C21.9999 105.84 21.9717 105.686 21.9198 105.544L21.9089 105.515C21.7149 105.018 21.2318 104.667 20.6666 104.667ZM12.6666 104.667C11.9302 104.667 11.3333 105.263 11.3333 106C11.3333 106.736 11.9302 107.333 12.6666 107.333C13.403 107.333 13.9999 106.736 13.9999 106C13.9999 105.263 13.403 104.667 12.6666 104.667ZM13.9999 99.3332H10.6666V100.667H13.9999V99.3332ZM21.3333 97.3332H19.3333V98.6665H21.3333V97.3332Z" fill="#727272"/>
</g>
<path d="M29.02 106V97.48H31.972C32.884 97.48 33.644 97.672 34.252 98.056C34.868 98.432 35.328 98.944 35.632 99.592C35.936 100.232 36.088 100.944 36.088 101.728C36.088 102.592 35.92 103.344 35.584 103.984C35.248 104.624 34.772 105.12 34.156 105.472C33.54 105.824 32.812 106 31.972 106H29.02ZM34.996 101.728C34.996 101.088 34.876 100.52 34.636 100.024C34.404 99.528 34.064 99.14 33.616 98.86C33.168 98.58 32.62 98.44 31.972 98.44H30.1V105.04H31.972C32.628 105.04 33.18 104.896 33.628 104.608C34.076 104.312 34.416 103.916 34.648 103.42C34.88 102.916 34.996 102.352 34.996 101.728ZM39.9738 106.12C39.5018 106.12 39.0698 106.036 38.6778 105.868C38.2938 105.692 37.9578 105.456 37.6698 105.16C37.3898 104.856 37.1698 104.508 37.0098 104.116C36.8578 103.724 36.7818 103.308 36.7818 102.868C36.7818 102.276 36.9178 101.736 37.1898 101.248C37.4618 100.76 37.8378 100.368 38.3178 100.072C38.8058 99.776 39.3618 99.628 39.9858 99.628C40.6178 99.628 41.1658 99.78 41.6298 100.084C42.1018 100.38 42.4658 100.772 42.7218 101.26C42.9858 101.74 43.1178 102.26 43.1178 102.82C43.1178 102.9 43.1138 102.98 43.1058 103.06C43.1058 103.132 43.1018 103.188 43.0938 103.228H37.8978C37.9298 103.636 38.0418 104 38.2338 104.32C38.4338 104.632 38.6898 104.88 39.0018 105.064C39.3138 105.24 39.6498 105.328 40.0098 105.328C40.3938 105.328 40.7538 105.232 41.0898 105.04C41.4338 104.848 41.6698 104.596 41.7978 104.284L42.7098 104.536C42.5738 104.84 42.3698 105.112 42.0978 105.352C41.8338 105.592 41.5178 105.78 41.1498 105.916C40.7898 106.052 40.3978 106.12 39.9738 106.12ZM37.8618 102.496H42.1338C42.1018 102.088 41.9858 101.728 41.7858 101.416C41.5858 101.104 41.3298 100.86 41.0178 100.684C40.7058 100.508 40.3618 100.42 39.9858 100.42C39.6178 100.42 39.2778 100.508 38.9658 100.684C38.6538 100.86 38.3978 101.104 38.1978 101.416C38.0058 101.728 37.8938 102.088 37.8618 102.496ZM44.0757 97.24H45.1317V104.38C45.1317 104.724 45.1797 104.936 45.2757 105.016C45.3717 105.096 45.4877 105.136 45.6237 105.136C45.7917 105.136 45.9517 105.12 46.1037 105.088C46.2557 105.048 46.3837 105.008 46.4877 104.968L46.6557 105.832C46.4797 105.904 46.2717 105.964 46.0317 106.012C45.7917 106.06 45.5797 106.084 45.3957 106.084C44.9877 106.084 44.6637 105.968 44.4237 105.736C44.1917 105.504 44.0757 105.18 44.0757 104.764V97.24ZM47.2453 106V99.736H48.3013V106H47.2453ZM47.2453 98.56V97.24H48.3013V98.56H47.2453ZM51.5709 106L49.1109 99.736H50.2149L52.1829 104.992L54.1509 99.736H55.1829L52.7229 106H51.5709ZM58.5607 106.12C58.0887 106.12 57.6567 106.036 57.2647 105.868C56.8807 105.692 56.5447 105.456 56.2567 105.16C55.9767 104.856 55.7567 104.508 55.5967 104.116C55.4447 103.724 55.3687 103.308 55.3687 102.868C55.3687 102.276 55.5047 101.736 55.7767 101.248C56.0487 100.76 56.4247 100.368 56.9047 100.072C57.3927 99.776 57.9487 99.628 58.5727 99.628C59.2047 99.628 59.7527 99.78 60.2167 100.084C60.6887 100.38 61.0527 100.772 61.3087 101.26C61.5727 101.74 61.7047 102.26 61.7047 102.82C61.7047 102.9 61.7007 102.98 61.6927 103.06C61.6927 103.132 61.6887 103.188 61.6807 103.228H56.4847C56.5167 103.636 56.6287 104 56.8207 104.32C57.0207 104.632 57.2767 104.88 57.5887 105.064C57.9007 105.24 58.2367 105.328 58.5967 105.328C58.9807 105.328 59.3407 105.232 59.6767 105.04C60.0207 104.848 60.2567 104.596 60.3847 104.284L61.2967 104.536C61.1607 104.84 60.9567 105.112 60.6847 105.352C60.4207 105.592 60.1047 105.78 59.7367 105.916C59.3767 106.052 58.9847 106.12 58.5607 106.12ZM56.4487 102.496H60.7207C60.6887 102.088 60.5727 101.728 60.3727 101.416C60.1727 101.104 59.9167 100.86 59.6047 100.684C59.2927 100.508 58.9487 100.42 58.5727 100.42C58.2047 100.42 57.8647 100.508 57.5527 100.684C57.2407 100.86 56.9847 101.104 56.7847 101.416C56.5927 101.728 56.4807 102.088 56.4487 102.496ZM65.9506 100.66C65.4226 100.668 64.9546 100.804 64.5466 101.068C64.1466 101.324 63.8626 101.68 63.6946 102.136V106H62.6386V99.736H63.6226V101.188C63.8386 100.756 64.1226 100.408 64.4746 100.144C64.8346 99.872 65.2106 99.72 65.6026 99.688C65.6826 99.688 65.7506 99.688 65.8066 99.688C65.8626 99.688 65.9106 99.692 65.9506 99.7V100.66ZM67.0459 107.704C67.1499 107.712 67.2539 107.72 67.3579 107.728C67.4619 107.744 67.5419 107.752 67.5979 107.752C67.7259 107.752 67.8379 107.708 67.9339 107.62C68.0299 107.532 68.1339 107.36 68.2459 107.104C68.3659 106.856 68.5179 106.488 68.7019 106L66.0499 99.736H67.1659L69.2779 104.932L71.1859 99.736H72.2299L69.1819 107.644C69.1099 107.828 69.0019 108 68.8579 108.16C68.7219 108.328 68.5459 108.46 68.3299 108.556C68.1139 108.652 67.8539 108.7 67.5499 108.7C67.4779 108.7 67.4019 108.696 67.3219 108.688C67.2499 108.68 67.1579 108.664 67.0459 108.64V107.704ZM77.909 97.48H78.821L82.301 106H81.149L80.141 103.504H76.565L75.569 106H74.417L77.909 97.48ZM79.901 102.664L78.365 98.728L76.781 102.664H79.901ZM84.4317 106L81.9717 99.736H83.0757L85.0437 104.992L87.0117 99.736H88.0437L85.5837 106H84.4317ZM88.2161 104.188C88.2161 103.788 88.3281 103.444 88.5521 103.156C88.7841 102.86 89.1001 102.632 89.5001 102.472C89.9001 102.312 90.3641 102.232 90.8921 102.232C91.1721 102.232 91.4681 102.256 91.7801 102.304C92.0921 102.344 92.3681 102.408 92.6081 102.496V102.04C92.6081 101.56 92.4641 101.184 92.1761 100.912C91.8881 100.632 91.4801 100.492 90.9521 100.492C90.6081 100.492 90.2761 100.556 89.9561 100.684C89.6441 100.804 89.3121 100.98 88.9601 101.212L88.5761 100.468C88.9841 100.188 89.3921 99.98 89.8001 99.844C90.2081 99.7 90.6321 99.628 91.0721 99.628C91.8721 99.628 92.5041 99.852 92.9681 100.3C93.4321 100.74 93.6641 101.356 93.6641 102.148V104.8C93.6641 104.928 93.6881 105.024 93.7361 105.088C93.7921 105.144 93.8801 105.176 94.0001 105.184V106C93.8961 106.016 93.8041 106.028 93.7241 106.036C93.6521 106.044 93.5921 106.048 93.5441 106.048C93.2961 106.048 93.1081 105.98 92.9801 105.844C92.8601 105.708 92.7921 105.564 92.7761 105.412L92.7521 105.016C92.4801 105.368 92.1241 105.64 91.6841 105.832C91.2441 106.024 90.8081 106.12 90.3761 106.12C89.9601 106.12 89.5881 106.036 89.2601 105.868C88.9321 105.692 88.6761 105.46 88.4921 105.172C88.3081 104.876 88.2161 104.548 88.2161 104.188ZM92.2961 104.632C92.3921 104.52 92.4681 104.408 92.5241 104.296C92.5801 104.176 92.6081 104.076 92.6081 103.996V103.216C92.3601 103.12 92.1001 103.048 91.8281 103C91.5561 102.944 91.2881 102.916 91.0241 102.916C90.4881 102.916 90.0521 103.024 89.7161 103.24C89.3881 103.448 89.2241 103.736 89.2241 104.104C89.2241 104.304 89.2761 104.5 89.3801 104.692C89.4921 104.876 89.6521 105.028 89.8601 105.148C90.0761 105.268 90.3401 105.328 90.6521 105.328C90.9801 105.328 91.2921 105.264 91.5881 105.136C91.8841 105 92.1201 104.832 92.2961 104.632ZM95.1126 106V99.736H96.1686V106H95.1126ZM95.1126 98.56V97.24H96.1686V98.56H95.1126ZM97.6622 97.24H98.7182V104.38C98.7182 104.724 98.7662 104.936 98.8622 105.016C98.9582 105.096 99.0742 105.136 99.2102 105.136C99.3782 105.136 99.5382 105.12 99.6902 105.088C99.8422 105.048 99.9702 105.008 100.074 104.968L100.242 105.832C100.066 105.904 99.8582 105.964 99.6182 106.012C99.3782 106.06 99.1662 106.084 98.9822 106.084C98.5742 106.084 98.2502 105.968 98.0102 105.736C97.7782 105.504 97.6622 105.18 97.6622 104.764V97.24ZM100.34 104.188C100.34 103.788 100.452 103.444 100.676 103.156C100.908 102.86 101.224 102.632 101.624 102.472C102.024 102.312 102.488 102.232 103.016 102.232C103.296 102.232 103.592 102.256 103.904 102.304C104.216 102.344 104.492 102.408 104.732 102.496V102.04C104.732 101.56 104.588 101.184 104.3 100.912C104.012 100.632 103.604 100.492 103.076 100.492C102.732 100.492 102.4 100.556 102.08 100.684C101.768 100.804 101.436 100.98 101.084 101.212L100.7 100.468C101.108 100.188 101.516 99.98 101.924 99.844C102.332 99.7 102.756 99.628 103.196 99.628C103.996 99.628 104.628 99.852 105.092 100.3C105.556 100.74 105.788 101.356 105.788 102.148V104.8C105.788 104.928 105.812 105.024 105.86 105.088C105.916 105.144 106.004 105.176 106.124 105.184V106C106.02 106.016 105.928 106.028 105.848 106.036C105.776 106.044 105.716 106.048 105.668 106.048C105.42 106.048 105.232 105.98 105.104 105.844C104.984 105.708 104.916 105.564 104.9 105.412L104.876 105.016C104.604 105.368 104.248 105.64 103.808 105.832C103.368 106.024 102.932 106.12 102.5 106.12C102.084 106.12 101.712 106.036 101.384 105.868C101.056 105.692 100.8 105.46 100.616 105.172C100.432 104.876 100.34 104.548 100.34 104.188ZM104.42 104.632C104.516 104.52 104.592 104.408 104.648 104.296C104.704 104.176 104.732 104.076 104.732 103.996V103.216C104.484 103.12 104.224 103.048 103.952 103C103.68 102.944 103.412 102.916 103.148 102.916C102.612 102.916 102.176 103.024 101.84 103.24C101.512 103.448 101.348 103.736 101.348 104.104C101.348 104.304 101.4 104.5 101.504 104.692C101.616 104.876 101.776 105.028 101.984 105.148C102.2 105.268 102.464 105.328 102.776 105.328C103.104 105.328 103.416 105.264 103.712 105.136C104.008 105 104.244 104.832 104.42 104.632ZM110.452 106.12C109.964 106.12 109.52 106 109.12 105.76C108.72 105.52 108.404 105.208 108.172 104.824V106H107.236V97.24H108.292V100.984C108.556 100.576 108.88 100.248 109.264 100C109.648 99.752 110.096 99.628 110.608 99.628C111.04 99.628 111.428 99.72 111.772 99.904C112.116 100.08 112.408 100.324 112.648 100.636C112.896 100.94 113.084 101.288 113.212 101.68C113.348 102.064 113.416 102.468 113.416 102.892C113.416 103.332 113.34 103.748 113.188 104.14C113.044 104.524 112.836 104.868 112.564 105.172C112.292 105.468 111.976 105.7 111.616 105.868C111.264 106.036 110.876 106.12 110.452 106.12ZM110.188 105.208C110.5 105.208 110.788 105.144 111.052 105.016C111.316 104.888 111.544 104.716 111.736 104.5C111.928 104.284 112.076 104.036 112.18 103.756C112.284 103.476 112.336 103.188 112.336 102.892C112.336 102.484 112.248 102.1 112.072 101.74C111.904 101.38 111.664 101.092 111.352 100.876C111.048 100.652 110.692 100.54 110.284 100.54C109.988 100.54 109.712 100.608 109.456 100.744C109.2 100.88 108.972 101.06 108.772 101.284C108.58 101.5 108.42 101.74 108.292 102.004V103.816C108.332 104.016 108.416 104.2 108.544 104.368C108.672 104.536 108.828 104.684 109.012 104.812C109.196 104.932 109.388 105.028 109.588 105.1C109.796 105.172 109.996 105.208 110.188 105.208ZM114.497 97.24H115.553V104.38C115.553 104.724 115.601 104.936 115.697 105.016C115.793 105.096 115.909 105.136 116.045 105.136C116.213 105.136 116.373 105.12 116.525 105.088C116.677 105.048 116.805 105.008 116.909 104.968L117.077 105.832C116.901 105.904 116.693 105.964 116.453 106.012C116.213 106.06 116.001 106.084 115.817 106.084C115.409 106.084 115.085 105.968 114.845 105.736C114.613 105.504 114.497 105.18 114.497 104.764V97.24ZM120.439 106.12C119.967 106.12 119.535 106.036 119.143 105.868C118.759 105.692 118.423 105.456 118.135 105.16C117.855 104.856 117.635 104.508 117.475 104.116C117.323 103.724 117.247 103.308 117.247 102.868C117.247 102.276 117.383 101.736 117.655 101.248C117.927 100.76 118.303 100.368 118.783 100.072C119.271 99.776 119.827 99.628 120.451 99.628C121.083 99.628 121.631 99.78 122.095 100.084C122.567 100.38 122.931 100.772 123.187 101.26C123.451 101.74 123.583 102.26 123.583 102.82C123.583 102.9 123.579 102.98 123.571 103.06C123.571 103.132 123.567 103.188 123.559 103.228H118.363C118.395 103.636 118.507 104 118.699 104.32C118.899 104.632 119.155 104.88 119.467 105.064C119.779 105.24 120.115 105.328 120.475 105.328C120.859 105.328 121.219 105.232 121.555 105.04C121.899 104.848 122.135 104.596 122.263 104.284L123.175 104.536C123.039 104.84 122.835 105.112 122.563 105.352C122.299 105.592 121.983 105.78 121.615 105.916C121.255 106.052 120.863 106.12 120.439 106.12ZM118.327 102.496H122.599C122.567 102.088 122.451 101.728 122.251 101.416C122.051 101.104 121.795 100.86 121.483 100.684C121.171 100.508 120.827 100.42 120.451 100.42C120.083 100.42 119.743 100.508 119.431 100.684C119.119 100.86 118.863 101.104 118.663 101.416C118.471 101.728 118.359 102.088 118.327 102.496Z" fill="#727272"/>
<defs>
<clipPath id="clip0_1953_24639">
<rect width="16" height="16" fill="white" transform="translate(8 94)"/>
</clipPath>
</defs>
</svg>
