<svg width="184" height="120" viewBox="0 0 184 120" fill="none" xmlns="http://www.w3.org/2000/svg">
<path d="M9.28 24V12.64H11.072V24H9.28ZM20.6794 24H18.9194V19.312C18.9194 18.5333 18.7914 17.9627 18.5354 17.6C18.29 17.2373 17.922 17.056 17.4314 17.056C17.09 17.056 16.7487 17.1413 16.4074 17.312C16.0767 17.4827 15.778 17.7173 15.5114 18.016C15.2447 18.304 15.0527 18.64 14.9354 19.024V24H13.1754V15.632H14.7754V17.312C14.9887 16.9387 15.266 16.6187 15.6074 16.352C15.9594 16.0747 16.354 15.8613 16.7914 15.712C17.2287 15.5627 17.6927 15.488 18.1834 15.488C18.6847 15.488 19.0954 15.5787 19.4154 15.76C19.746 15.9413 20.002 16.192 20.1834 16.512C20.3754 16.8213 20.5034 17.184 20.5674 17.6C20.642 18.0053 20.6794 18.4373 20.6794 18.896V24ZM25.4583 24.16C24.7543 24.16 24.0876 24.048 23.4583 23.824C22.8289 23.5893 22.2903 23.2427 21.8423 22.784L22.4983 21.6C22.9783 22.0267 23.4583 22.336 23.9383 22.528C24.4289 22.72 24.9143 22.816 25.3943 22.816C25.8849 22.816 26.2849 22.7253 26.5943 22.544C26.9036 22.352 27.0583 22.0747 27.0583 21.712C27.0583 21.4453 26.9783 21.248 26.8183 21.12C26.6583 20.992 26.4236 20.88 26.1143 20.784C25.8156 20.688 25.4529 20.5813 25.0263 20.464C24.4289 20.2827 23.9276 20.096 23.5223 19.904C23.1169 19.7013 22.8129 19.456 22.6103 19.168C22.4076 18.88 22.3063 18.512 22.3063 18.064C22.3063 17.52 22.4449 17.056 22.7223 16.672C22.9996 16.288 23.3836 15.9947 23.8743 15.792C24.3756 15.5893 24.9516 15.488 25.6023 15.488C26.2103 15.488 26.7703 15.584 27.2823 15.776C27.8049 15.9573 28.2636 16.2453 28.6583 16.64L27.9063 17.808C27.5329 17.4667 27.1489 17.216 26.7543 17.056C26.3703 16.896 25.9543 16.816 25.5063 16.816C25.2503 16.816 25.0049 16.848 24.7703 16.912C24.5356 16.9653 24.3383 17.072 24.1783 17.232C24.0289 17.3813 23.9543 17.5947 23.9543 17.872C23.9543 18.096 24.0183 18.2773 24.1463 18.416C24.2743 18.5547 24.4663 18.672 24.7223 18.768C24.9783 18.864 25.2929 18.9707 25.6663 19.088C26.3169 19.28 26.8716 19.472 27.3303 19.664C27.7889 19.8453 28.1409 20.0853 28.3863 20.384C28.6423 20.672 28.7703 21.072 28.7703 21.584C28.7703 22.3947 28.4663 23.0293 27.8583 23.488C27.2609 23.936 26.4609 24.16 25.4583 24.16ZM34.742 23.568C34.5927 23.6427 34.406 23.7227 34.182 23.808C33.958 23.8933 33.702 23.968 33.414 24.032C33.1367 24.096 32.8487 24.128 32.55 24.128C32.1873 24.128 31.8513 24.064 31.542 23.936C31.2327 23.808 30.982 23.6053 30.79 23.328C30.6087 23.04 30.518 22.672 30.518 22.224V16.992H29.414V15.632H30.518V12.88H32.278V15.632H34.102V16.992H32.278V21.664C32.2993 21.952 32.39 22.1653 32.55 22.304C32.7207 22.4427 32.9287 22.512 33.174 22.512C33.4193 22.512 33.654 22.4693 33.878 22.384C34.102 22.2987 34.2673 22.2293 34.374 22.176L34.742 23.568ZM35.113 21.552C35.113 21.0187 35.2623 20.5547 35.561 20.16C35.8703 19.7547 36.2917 19.4453 36.825 19.232C37.3583 19.008 37.977 18.896 38.681 18.896C39.0543 18.896 39.433 18.9227 39.817 18.976C40.2117 19.0293 40.5583 19.1147 40.857 19.232V18.704C40.857 18.1173 40.681 17.6587 40.329 17.328C39.977 16.9973 39.4703 16.832 38.809 16.832C38.3397 16.832 37.897 16.9173 37.481 17.088C37.065 17.248 36.6223 17.4773 36.153 17.776L35.561 16.592C36.1157 16.2187 36.6703 15.9413 37.225 15.76C37.7903 15.5787 38.3823 15.488 39.001 15.488C40.121 15.488 41.001 15.7867 41.641 16.384C42.2917 16.9707 42.617 17.808 42.617 18.896V22.016C42.617 22.2187 42.649 22.3627 42.713 22.448C42.7877 22.5333 42.9103 22.5813 43.081 22.592V24C42.921 24.032 42.777 24.0533 42.649 24.064C42.521 24.0747 42.4143 24.08 42.329 24.08C41.9557 24.08 41.673 23.9893 41.481 23.808C41.289 23.6267 41.177 23.4133 41.145 23.168L41.097 22.688C40.7343 23.1573 40.2703 23.52 39.705 23.776C39.1397 24.032 38.569 24.16 37.993 24.16C37.4383 24.16 36.9423 24.048 36.505 23.824C36.0677 23.5893 35.7263 23.2747 35.481 22.88C35.2357 22.4853 35.113 22.0427 35.113 21.552ZM40.441 22.064C40.569 21.9253 40.6703 21.7867 40.745 21.648C40.8197 21.5093 40.857 21.3867 40.857 21.28V20.32C40.5583 20.2027 40.2437 20.1173 39.913 20.064C39.5823 20 39.257 19.968 38.937 19.968C38.297 19.968 37.7743 20.096 37.369 20.352C36.9743 20.608 36.777 20.96 36.777 21.408C36.777 21.6533 36.841 21.888 36.969 22.112C37.1077 22.336 37.2997 22.5173 37.545 22.656C37.801 22.7947 38.1157 22.864 38.489 22.864C38.873 22.864 39.241 22.7893 39.593 22.64C39.945 22.4907 40.2277 22.2987 40.441 22.064ZM49.2642 24.16C48.5922 24.16 48.0002 24 47.4882 23.68C46.9762 23.36 46.5709 22.944 46.2722 22.432V27.408H44.5122V15.632H46.0642V17.136C46.3842 16.6347 46.8002 16.2347 47.3122 15.936C47.8242 15.6373 48.3949 15.488 49.0242 15.488C49.6002 15.488 50.1282 15.6053 50.6082 15.84C51.0882 16.064 51.5042 16.3787 51.8562 16.784C52.2082 17.1893 52.4802 17.6533 52.6722 18.176C52.8749 18.688 52.9762 19.232 52.9762 19.808C52.9762 20.608 52.8162 21.3387 52.4962 22C52.1869 22.6613 51.7496 23.1893 51.1842 23.584C50.6296 23.968 49.9896 24.16 49.2642 24.16ZM48.6882 22.656C49.0616 22.656 49.3976 22.576 49.6962 22.416C50.0056 22.256 50.2669 22.0427 50.4802 21.776C50.7042 21.5093 50.8749 21.2053 50.9922 20.864C51.1096 20.5227 51.1682 20.1707 51.1682 19.808C51.1682 19.424 51.1042 19.0613 50.9762 18.72C50.8482 18.3787 50.6616 18.08 50.4162 17.824C50.1816 17.568 49.9042 17.3653 49.5842 17.216C49.2749 17.0667 48.9336 16.992 48.5602 16.992C48.3362 16.992 48.1016 17.0347 47.8562 17.12C47.6109 17.2053 47.3816 17.3227 47.1682 17.472C46.9549 17.6213 46.7682 17.7973 46.6082 18C46.4482 18.2027 46.3362 18.416 46.2722 18.64V20.832C46.4216 21.1733 46.6189 21.4827 46.8642 21.76C47.1096 22.0267 47.3922 22.2453 47.7122 22.416C48.0322 22.576 48.3576 22.656 48.6882 22.656ZM61.8231 24H60.0631V19.312C60.0631 18.5547 59.9245 17.9893 59.6471 17.616C59.3698 17.2427 58.9805 17.056 58.4791 17.056C58.1698 17.056 57.8498 17.1413 57.5191 17.312C57.1885 17.4827 56.8951 17.7173 56.6391 18.016C56.3831 18.304 56.1965 18.64 56.0791 19.024V24H54.3191V12.32H56.0791V17.312C56.3991 16.7467 56.8365 16.304 57.3911 15.984C57.9458 15.6533 58.5431 15.488 59.1831 15.488C59.7058 15.488 60.1378 15.5787 60.4791 15.76C60.8205 15.9413 61.0871 16.192 61.2791 16.512C61.4818 16.8213 61.6205 17.184 61.6951 17.6C61.7805 18.0053 61.8231 18.4373 61.8231 18.896V24ZM63.018 21.552C63.018 21.0187 63.1673 20.5547 63.466 20.16C63.7753 19.7547 64.1967 19.4453 64.73 19.232C65.2633 19.008 65.882 18.896 66.586 18.896C66.9593 18.896 67.338 18.9227 67.722 18.976C68.1167 19.0293 68.4633 19.1147 68.762 19.232V18.704C68.762 18.1173 68.586 17.6587 68.234 17.328C67.882 16.9973 67.3753 16.832 66.714 16.832C66.2447 16.832 65.802 16.9173 65.386 17.088C64.97 17.248 64.5273 17.4773 64.058 17.776L63.466 16.592C64.0207 16.2187 64.5753 15.9413 65.13 15.76C65.6953 15.5787 66.2873 15.488 66.906 15.488C68.026 15.488 68.906 15.7867 69.546 16.384C70.1967 16.9707 70.522 17.808 70.522 18.896V22.016C70.522 22.2187 70.554 22.3627 70.618 22.448C70.6927 22.5333 70.8153 22.5813 70.986 22.592V24C70.826 24.032 70.682 24.0533 70.554 24.064C70.426 24.0747 70.3193 24.08 70.234 24.08C69.8607 24.08 69.578 23.9893 69.386 23.808C69.194 23.6267 69.082 23.4133 69.05 23.168L69.002 22.688C68.6393 23.1573 68.1753 23.52 67.61 23.776C67.0447 24.032 66.474 24.16 65.898 24.16C65.3433 24.16 64.8473 24.048 64.41 23.824C63.9727 23.5893 63.6313 23.2747 63.386 22.88C63.1407 22.4853 63.018 22.0427 63.018 21.552ZM68.346 22.064C68.474 21.9253 68.5753 21.7867 68.65 21.648C68.7247 21.5093 68.762 21.3867 68.762 21.28V20.32C68.4633 20.2027 68.1487 20.1173 67.818 20.064C67.4873 20 67.162 19.968 66.842 19.968C66.202 19.968 65.6793 20.096 65.274 20.352C64.8793 20.608 64.682 20.96 64.682 21.408C64.682 21.6533 64.746 21.888 64.874 22.112C65.0127 22.336 65.2047 22.5173 65.45 22.656C65.706 22.7947 66.0207 22.864 66.394 22.864C66.778 22.864 67.146 22.7893 67.498 22.64C67.85 22.4907 68.1327 22.2987 68.346 22.064ZM77.1213 17.152C76.4386 17.1627 75.8306 17.3173 75.2973 17.616C74.7746 17.9147 74.4013 18.336 74.1773 18.88V24H72.4173V15.632H74.0493V17.504C74.3373 16.928 74.7159 16.4693 75.1853 16.128C75.6546 15.776 76.1506 15.584 76.6733 15.552C76.7799 15.552 76.8653 15.552 76.9293 15.552C77.0039 15.552 77.0679 15.5573 77.1213 15.568V17.152ZM90.9616 24H89.2016V19.312C89.2016 18.5333 89.0736 17.9627 88.8176 17.6C88.5616 17.2373 88.1883 17.056 87.6976 17.056C87.207 17.056 86.7483 17.2427 86.3216 17.616C85.9056 17.9787 85.6123 18.4533 85.4416 19.04V24H83.6816V19.312C83.6816 18.5333 83.5536 17.9627 83.2976 17.6C83.0416 17.2373 82.6736 17.056 82.1936 17.056C81.703 17.056 81.2443 17.2373 80.8176 17.6C80.4016 17.9627 80.103 18.4373 79.9216 19.024V24H78.1616V15.632H79.7616V17.312C80.0923 16.7253 80.5243 16.2773 81.0576 15.968C81.6016 15.648 82.2203 15.488 82.9136 15.488C83.607 15.488 84.151 15.6693 84.5456 16.032C84.951 16.3947 85.2016 16.848 85.2976 17.392C85.6603 16.7733 86.103 16.304 86.6256 15.984C87.159 15.6533 87.767 15.488 88.4496 15.488C88.9403 15.488 89.351 15.5787 89.6816 15.76C90.0123 15.9413 90.2683 16.192 90.4496 16.512C90.631 16.8213 90.759 17.184 90.8336 17.6C90.919 18.0053 90.9616 18.4373 90.9616 18.896V24ZM96.6869 24V12.64H101.631C102.143 12.64 102.612 12.7467 103.039 12.96C103.466 13.1733 103.834 13.456 104.143 13.808C104.463 14.16 104.708 14.5547 104.879 14.992C105.06 15.4293 105.151 15.8773 105.151 16.336C105.151 16.8373 105.06 17.3173 104.879 17.776C104.698 18.2347 104.436 18.6293 104.095 18.96C103.764 19.2907 103.375 19.5307 102.927 19.68L105.599 24H103.583L101.119 20.048H98.4789V24H96.6869ZM98.4789 18.464H101.615C101.946 18.464 102.239 18.368 102.495 18.176C102.751 17.984 102.954 17.728 103.103 17.408C103.252 17.0773 103.327 16.72 103.327 16.336C103.327 15.9413 103.242 15.5893 103.071 15.28C102.9 14.96 102.676 14.704 102.399 14.512C102.132 14.32 101.839 14.224 101.519 14.224H98.4789V18.464ZM110.327 24.16C109.677 24.16 109.085 24.048 108.551 23.824C108.029 23.5893 107.575 23.2747 107.191 22.88C106.807 22.4747 106.509 22.016 106.295 21.504C106.093 20.9813 105.991 20.4267 105.991 19.84C105.991 19.0507 106.173 18.3307 106.535 17.68C106.898 17.0187 107.405 16.4907 108.055 16.096C108.706 15.6907 109.469 15.488 110.343 15.488C111.218 15.488 111.97 15.6907 112.599 16.096C113.239 16.4907 113.735 17.0133 114.087 17.664C114.439 18.3147 114.615 19.0133 114.615 19.76C114.615 19.888 114.61 20.0107 114.599 20.128C114.589 20.2347 114.578 20.3253 114.567 20.4H107.863C107.895 20.8907 108.029 21.3227 108.263 21.696C108.509 22.0587 108.818 22.3467 109.191 22.56C109.565 22.7627 109.965 22.864 110.391 22.864C110.861 22.864 111.303 22.7467 111.719 22.512C112.146 22.2773 112.434 21.968 112.583 21.584L114.087 22.016C113.906 22.4213 113.629 22.7893 113.255 23.12C112.893 23.44 112.461 23.696 111.959 23.888C111.458 24.0693 110.914 24.16 110.327 24.16ZM107.815 19.232H112.871C112.839 18.752 112.701 18.3307 112.455 17.968C112.221 17.5947 111.917 17.3067 111.543 17.104C111.181 16.8907 110.775 16.784 110.327 16.784C109.89 16.784 109.485 16.8907 109.111 17.104C108.749 17.3067 108.45 17.5947 108.215 17.968C107.981 18.3307 107.847 18.752 107.815 19.232ZM118.787 24.16C118.083 24.16 117.416 24.048 116.787 23.824C116.158 23.5893 115.619 23.2427 115.171 22.784L115.827 21.6C116.307 22.0267 116.787 22.336 117.267 22.528C117.758 22.72 118.243 22.816 118.723 22.816C119.214 22.816 119.614 22.7253 119.923 22.544C120.232 22.352 120.387 22.0747 120.387 21.712C120.387 21.4453 120.307 21.248 120.147 21.12C119.987 20.992 119.752 20.88 119.443 20.784C119.144 20.688 118.782 20.5813 118.355 20.464C117.758 20.2827 117.256 20.096 116.851 19.904C116.446 19.7013 116.142 19.456 115.939 19.168C115.736 18.88 115.635 18.512 115.635 18.064C115.635 17.52 115.774 17.056 116.051 16.672C116.328 16.288 116.712 15.9947 117.203 15.792C117.704 15.5893 118.28 15.488 118.931 15.488C119.539 15.488 120.099 15.584 120.611 15.776C121.134 15.9573 121.592 16.2453 121.987 16.64L121.235 17.808C120.862 17.4667 120.478 17.216 120.083 17.056C119.699 16.896 119.283 16.816 118.835 16.816C118.579 16.816 118.334 16.848 118.099 16.912C117.864 16.9653 117.667 17.072 117.507 17.232C117.358 17.3813 117.283 17.5947 117.283 17.872C117.283 18.096 117.347 18.2773 117.475 18.416C117.603 18.5547 117.795 18.672 118.051 18.768C118.307 18.864 118.622 18.9707 118.995 19.088C119.646 19.28 120.2 19.472 120.659 19.664C121.118 19.8453 121.47 20.0853 121.715 20.384C121.971 20.672 122.099 21.072 122.099 21.584C122.099 22.3947 121.795 23.0293 121.187 23.488C120.59 23.936 119.79 24.16 118.787 24.16ZM128.071 23.568C127.921 23.6427 127.735 23.7227 127.511 23.808C127.287 23.8933 127.031 23.968 126.743 24.032C126.465 24.096 126.177 24.128 125.879 24.128C125.516 24.128 125.18 24.064 124.871 23.936C124.561 23.808 124.311 23.6053 124.119 23.328C123.937 23.04 123.847 22.672 123.847 22.224V16.992H122.743V15.632H123.847V12.88H125.607V15.632H127.431V16.992H125.607V21.664C125.628 21.952 125.719 22.1653 125.879 22.304C126.049 22.4427 126.257 22.512 126.503 22.512C126.748 22.512 126.983 22.4693 127.207 22.384C127.431 22.2987 127.596 22.2293 127.703 22.176L128.071 23.568ZM128.442 21.552C128.442 21.0187 128.591 20.5547 128.89 20.16C129.199 19.7547 129.62 19.4453 130.154 19.232C130.687 19.008 131.306 18.896 132.01 18.896C132.383 18.896 132.762 18.9227 133.146 18.976C133.54 19.0293 133.887 19.1147 134.186 19.232V18.704C134.186 18.1173 134.01 17.6587 133.658 17.328C133.306 16.9973 132.799 16.832 132.138 16.832C131.668 16.832 131.226 16.9173 130.81 17.088C130.394 17.248 129.951 17.4773 129.482 17.776L128.89 16.592C129.444 16.2187 129.999 15.9413 130.554 15.76C131.119 15.5787 131.711 15.488 132.33 15.488C133.45 15.488 134.33 15.7867 134.97 16.384C135.62 16.9707 135.946 17.808 135.946 18.896V22.016C135.946 22.2187 135.978 22.3627 136.042 22.448C136.116 22.5333 136.239 22.5813 136.41 22.592V24C136.25 24.032 136.106 24.0533 135.978 24.064C135.85 24.0747 135.743 24.08 135.658 24.08C135.284 24.08 135.002 23.9893 134.81 23.808C134.618 23.6267 134.506 23.4133 134.474 23.168L134.426 22.688C134.063 23.1573 133.599 23.52 133.034 23.776C132.468 24.032 131.898 24.16 131.322 24.16C130.767 24.16 130.271 24.048 129.834 23.824C129.396 23.5893 129.055 23.2747 128.81 22.88C128.564 22.4853 128.442 22.0427 128.442 21.552ZM133.77 22.064C133.898 21.9253 133.999 21.7867 134.074 21.648C134.148 21.5093 134.186 21.3867 134.186 21.28V20.32C133.887 20.2027 133.572 20.1173 133.242 20.064C132.911 20 132.586 19.968 132.266 19.968C131.626 19.968 131.103 20.096 130.698 20.352C130.303 20.608 130.106 20.96 130.106 21.408C130.106 21.6533 130.17 21.888 130.298 22.112C130.436 22.336 130.628 22.5173 130.874 22.656C131.13 22.7947 131.444 22.864 131.818 22.864C132.202 22.864 132.57 22.7893 132.922 22.64C133.274 22.4907 133.556 22.2987 133.77 22.064ZM137.761 20.752V15.632H139.521V20.4C139.521 21.1467 139.654 21.712 139.921 22.096C140.198 22.4693 140.598 22.656 141.121 22.656C141.452 22.656 141.772 22.5867 142.081 22.448C142.401 22.3093 142.689 22.1067 142.945 21.84C143.212 21.5627 143.425 21.232 143.585 20.848V15.632H145.345V22.016C145.345 22.2187 145.382 22.3627 145.457 22.448C145.532 22.5333 145.654 22.5813 145.825 22.592V24C145.644 24.032 145.494 24.0533 145.377 24.064C145.26 24.0747 145.148 24.08 145.041 24.08C144.721 24.08 144.454 23.9947 144.241 23.824C144.028 23.6427 143.905 23.4133 143.873 23.136L143.841 22.304C143.468 22.912 142.982 23.376 142.385 23.696C141.788 24.0053 141.132 24.16 140.417 24.16C139.542 24.16 138.881 23.872 138.433 23.296C137.985 22.72 137.761 21.872 137.761 20.752ZM152.055 17.152C151.372 17.1627 150.764 17.3173 150.231 17.616C149.708 17.9147 149.335 18.336 149.111 18.88V24H147.351V15.632H148.983V17.504C149.271 16.928 149.65 16.4693 150.119 16.128C150.588 15.776 151.084 15.584 151.607 15.552C151.714 15.552 151.799 15.552 151.863 15.552C151.938 15.552 152.002 15.5573 152.055 15.568V17.152ZM152.472 21.552C152.472 21.0187 152.621 20.5547 152.92 20.16C153.229 19.7547 153.65 19.4453 154.184 19.232C154.717 19.008 155.336 18.896 156.04 18.896C156.413 18.896 156.792 18.9227 157.176 18.976C157.57 19.0293 157.917 19.1147 158.216 19.232V18.704C158.216 18.1173 158.04 17.6587 157.688 17.328C157.336 16.9973 156.829 16.832 156.168 16.832C155.698 16.832 155.256 16.9173 154.84 17.088C154.424 17.248 153.981 17.4773 153.512 17.776L152.92 16.592C153.474 16.2187 154.029 15.9413 154.584 15.76C155.149 15.5787 155.741 15.488 156.36 15.488C157.48 15.488 158.36 15.7867 159 16.384C159.65 16.9707 159.976 17.808 159.976 18.896V22.016C159.976 22.2187 160.008 22.3627 160.072 22.448C160.146 22.5333 160.269 22.5813 160.44 22.592V24C160.28 24.032 160.136 24.0533 160.008 24.064C159.88 24.0747 159.773 24.08 159.688 24.08C159.314 24.08 159.032 23.9893 158.84 23.808C158.648 23.6267 158.536 23.4133 158.504 23.168L158.456 22.688C158.093 23.1573 157.629 23.52 157.064 23.776C156.498 24.032 155.928 24.16 155.352 24.16C154.797 24.16 154.301 24.048 153.864 23.824C153.426 23.5893 153.085 23.2747 152.84 22.88C152.594 22.4853 152.472 22.0427 152.472 21.552ZM157.8 22.064C157.928 21.9253 158.029 21.7867 158.104 21.648C158.178 21.5093 158.216 21.3867 158.216 21.28V20.32C157.917 20.2027 157.602 20.1173 157.272 20.064C156.941 20 156.616 19.968 156.296 19.968C155.656 19.968 155.133 20.096 154.728 20.352C154.333 20.608 154.136 20.96 154.136 21.408C154.136 21.6533 154.2 21.888 154.328 22.112C154.466 22.336 154.658 22.5173 154.904 22.656C155.16 22.7947 155.474 22.864 155.848 22.864C156.232 22.864 156.6 22.7893 156.952 22.64C157.304 22.4907 157.586 22.2987 157.8 22.064ZM169.375 24H167.615V19.312C167.615 18.5333 167.487 17.9627 167.231 17.6C166.986 17.2373 166.618 17.056 166.127 17.056C165.786 17.056 165.444 17.1413 165.103 17.312C164.772 17.4827 164.474 17.7173 164.207 18.016C163.94 18.304 163.748 18.64 163.631 19.024V24H161.871V15.632H163.471V17.312C163.684 16.9387 163.962 16.6187 164.303 16.352C164.655 16.0747 165.05 15.8613 165.487 15.712C165.924 15.5627 166.388 15.488 166.879 15.488C167.38 15.488 167.791 15.5787 168.111 15.76C168.442 15.9413 168.698 16.192 168.879 16.512C169.071 16.8213 169.199 17.184 169.263 17.6C169.338 18.0053 169.375 18.4373 169.375 18.896V24ZM175.771 23.568C175.622 23.6427 175.435 23.7227 175.211 23.808C174.987 23.8933 174.731 23.968 174.443 24.032C174.166 24.096 173.878 24.128 173.579 24.128C173.217 24.128 172.881 24.064 172.571 23.936C172.262 23.808 172.011 23.6053 171.819 23.328C171.638 23.04 171.547 22.672 171.547 22.224V16.992H170.443V15.632H171.547V12.88H173.307V15.632H175.131V16.992H173.307V21.664C173.329 21.952 173.419 22.1653 173.579 22.304C173.75 22.4427 173.958 22.512 174.203 22.512C174.449 22.512 174.683 22.4693 174.907 22.384C175.131 22.2987 175.297 22.2293 175.403 22.176L175.771 23.568Z" fill="#1F1F1F"/>
<path d="M15.9999 39.3335C12.3266 39.3335 9.33325 42.3268 9.33325 46.0002C9.33325 49.6735 12.3266 52.6668 15.9999 52.6668C19.6733 52.6668 22.6666 49.6735 22.6666 46.0002C22.6666 42.3268 19.6733 39.3335 15.9999 39.3335ZM18.8999 48.3802C18.8066 48.5402 18.6399 48.6268 18.4666 48.6268C18.3799 48.6268 18.2933 48.6068 18.2133 48.5535L16.1466 47.3202C15.6333 47.0135 15.2533 46.3402 15.2533 45.7468V43.0135C15.2533 42.7402 15.4799 42.5135 15.7533 42.5135C16.0266 42.5135 16.2533 42.7402 16.2533 43.0135V45.7468C16.2533 45.9868 16.4533 46.3402 16.6599 46.4602L18.7266 47.6935C18.9666 47.8335 19.0466 48.1402 18.8999 48.3802Z" fill="#727272"/>
<path d="M28.432 46.088C28.432 46.624 28.56 47.108 28.816 47.54C29.08 47.972 29.436 48.316 29.884 48.572C30.332 48.828 30.828 48.956 31.372 48.956C31.708 48.956 32.02 48.9 32.308 48.788C32.596 48.676 32.848 48.516 33.064 48.308C33.288 48.1 33.456 47.86 33.568 47.588C33.56 48.292 33.464 48.892 33.28 49.388C33.104 49.884 32.852 50.264 32.524 50.528C32.204 50.792 31.824 50.924 31.384 50.924C30.968 50.924 30.584 50.812 30.232 50.588C29.888 50.364 29.628 50.068 29.452 49.7L28.804 50.336C29.06 50.808 29.412 51.176 29.86 51.44C30.316 51.712 30.82 51.848 31.372 51.848C32.012 51.848 32.572 51.66 33.052 51.284C33.532 50.916 33.904 50.36 34.168 49.616C34.432 48.872 34.564 47.94 34.564 46.82C34.564 46.052 34.432 45.396 34.168 44.852C33.912 44.3 33.552 43.88 33.088 43.592C32.632 43.296 32.096 43.148 31.48 43.148C30.912 43.148 30.396 43.28 29.932 43.544C29.468 43.808 29.1 44.164 28.828 44.612C28.564 45.052 28.432 45.544 28.432 46.088ZM31.468 44.06C31.836 44.06 32.172 44.152 32.476 44.336C32.788 44.52 33.036 44.768 33.22 45.08C33.404 45.384 33.496 45.72 33.496 46.088C33.496 46.456 33.404 46.792 33.22 47.096C33.036 47.4 32.792 47.644 32.488 47.828C32.184 48.012 31.844 48.104 31.468 48.104C31.1 48.104 30.76 48.012 30.448 47.828C30.144 47.644 29.9 47.4 29.716 47.096C29.532 46.792 29.44 46.456 29.44 46.088C29.44 45.712 29.532 45.372 29.716 45.068C29.9 44.764 30.144 44.52 30.448 44.336C30.76 44.152 31.1 44.06 31.468 44.06ZM40.8586 41.48H41.7706L45.2506 50H44.0986L43.0906 47.504H39.5146L38.5186 50H37.3666L40.8586 41.48ZM42.8506 46.664L41.3146 42.728L39.7306 46.664H42.8506ZM53.5157 50V43.496L50.7077 48.5H50.0477L47.2277 43.496V50H46.1477V41.48H47.2877L50.3717 47.012L53.4677 41.48H54.5957V50H53.5157ZM58.9391 47.204V46.244H62.4791V47.204H58.9391ZM72.3885 47.588C72.3885 48.092 72.2485 48.532 71.9685 48.908C71.6965 49.284 71.3285 49.576 70.8645 49.784C70.4085 49.992 69.9085 50.096 69.3645 50.096C68.7965 50.096 68.2885 49.984 67.8405 49.76C67.3925 49.528 67.0365 49.22 66.7725 48.836C66.5165 48.452 66.3885 48.02 66.3885 47.54C66.3885 47.188 66.4685 46.872 66.6285 46.592C66.7885 46.312 66.9885 46.076 67.2285 45.884C67.4765 45.684 67.7285 45.536 67.9845 45.44C67.7525 45.336 67.5365 45.2 67.3365 45.032C67.1365 44.864 66.9765 44.668 66.8565 44.444C66.7365 44.22 66.6765 43.976 66.6765 43.712C66.6765 43.352 66.7565 43.036 66.9165 42.764C67.0765 42.484 67.2885 42.248 67.5525 42.056C67.8165 41.864 68.1085 41.72 68.4285 41.624C68.7485 41.528 69.0685 41.48 69.3885 41.48C69.7085 41.48 70.0285 41.528 70.3485 41.624C70.6685 41.72 70.9605 41.864 71.2245 42.056C71.4965 42.24 71.7125 42.472 71.8725 42.752C72.0325 43.024 72.1125 43.34 72.1125 43.7C72.1125 43.964 72.0525 44.212 71.9325 44.444C71.8125 44.668 71.6485 44.864 71.4405 45.032C71.2405 45.2 71.0205 45.336 70.7805 45.44C71.0685 45.552 71.3325 45.712 71.5725 45.92C71.8205 46.12 72.0165 46.36 72.1605 46.64C72.3125 46.92 72.3885 47.236 72.3885 47.588ZM71.3205 47.516C71.3205 47.26 71.2645 47.032 71.1525 46.832C71.0405 46.624 70.8885 46.452 70.6965 46.316C70.5045 46.172 70.2925 46.064 70.0605 45.992C69.8365 45.92 69.6085 45.884 69.3765 45.884C69.0565 45.884 68.7485 45.952 68.4525 46.088C68.1645 46.224 67.9285 46.416 67.7445 46.664C67.5605 46.904 67.4685 47.192 67.4685 47.528C67.4685 47.776 67.5245 48 67.6365 48.2C67.7485 48.4 67.8965 48.572 68.0805 48.716C68.2725 48.86 68.4805 48.968 68.7045 49.04C68.9365 49.112 69.1685 49.148 69.4005 49.148C69.7205 49.148 70.0245 49.08 70.3125 48.944C70.6085 48.808 70.8485 48.616 71.0325 48.368C71.2245 48.12 71.3205 47.836 71.3205 47.516ZM67.7445 43.748C67.7445 44.028 67.8285 44.268 67.9965 44.468C68.1645 44.668 68.3765 44.82 68.6325 44.924C68.8885 45.02 69.1405 45.068 69.3885 45.068C69.6445 45.068 69.8965 45.016 70.1445 44.912C70.4005 44.808 70.6125 44.656 70.7805 44.456C70.9485 44.256 71.0325 44.012 71.0325 43.724C71.0325 43.452 70.9525 43.22 70.7925 43.028C70.6405 42.836 70.4365 42.688 70.1805 42.584C69.9325 42.48 69.6645 42.428 69.3765 42.428C69.0965 42.428 68.8285 42.484 68.5725 42.596C68.3245 42.7 68.1245 42.852 67.9725 43.052C67.8205 43.244 67.7445 43.476 67.7445 43.748ZM76.5475 50V41.48H80.0995C80.4755 41.48 80.8195 41.56 81.1315 41.72C81.4435 41.872 81.7155 42.08 81.9475 42.344C82.1795 42.6 82.3595 42.892 82.4875 43.22C82.6155 43.54 82.6795 43.868 82.6795 44.204C82.6795 44.668 82.5755 45.112 82.3675 45.536C82.1595 45.952 81.8675 46.292 81.4915 46.556C81.1155 46.812 80.6755 46.94 80.1715 46.94H77.6275V50H76.5475ZM77.6275 45.98H80.1115C80.4075 45.98 80.6635 45.9 80.8795 45.74C81.1035 45.58 81.2755 45.364 81.3955 45.092C81.5235 44.82 81.5875 44.524 81.5875 44.204C81.5875 43.868 81.5155 43.568 81.3715 43.304C81.2275 43.032 81.0395 42.82 80.8075 42.668C80.5755 42.516 80.3195 42.44 80.0395 42.44H77.6275V45.98ZM91.1521 50V43.496L88.3441 48.5H87.6841L84.8641 43.496V50H83.7841V41.48H84.9241L88.0081 47.012L91.1041 41.48H92.2321V50H91.1521Z" fill="#727272"/>
<rect x="102" y="37" width="43" height="18" rx="4" fill="#008000" fill-opacity="0.1"/>
<path d="M112.5 50.06C111.884 50.06 111.328 49.94 110.832 49.7C110.336 49.46 109.908 49.136 109.548 48.728C109.188 48.312 108.908 47.848 108.708 47.336C108.516 46.816 108.42 46.284 108.42 45.74C108.42 45.172 108.524 44.632 108.732 44.12C108.94 43.6 109.228 43.14 109.596 42.74C109.964 42.332 110.396 42.012 110.892 41.78C111.396 41.54 111.94 41.42 112.524 41.42C113.132 41.42 113.684 41.544 114.18 41.792C114.684 42.04 115.112 42.372 115.464 42.788C115.824 43.204 116.1 43.668 116.292 44.18C116.492 44.692 116.592 45.216 116.592 45.752C116.592 46.32 116.488 46.864 116.28 47.384C116.08 47.896 115.796 48.356 115.428 48.764C115.06 49.164 114.624 49.48 114.12 49.712C113.624 49.944 113.084 50.06 112.5 50.06ZM109.788 45.74C109.788 46.14 109.852 46.528 109.98 46.904C110.108 47.28 110.288 47.616 110.52 47.912C110.76 48.2 111.048 48.428 111.384 48.596C111.72 48.764 112.096 48.848 112.512 48.848C112.944 48.848 113.328 48.76 113.664 48.584C114 48.408 114.28 48.172 114.504 47.876C114.736 47.572 114.912 47.236 115.032 46.868C115.152 46.492 115.212 46.116 115.212 45.74C115.212 45.34 115.148 44.956 115.02 44.588C114.9 44.212 114.72 43.88 114.48 43.592C114.24 43.296 113.952 43.064 113.616 42.896C113.288 42.728 112.92 42.644 112.512 42.644C112.08 42.644 111.696 42.732 111.36 42.908C111.024 43.084 110.74 43.32 110.508 43.616C110.276 43.912 110.096 44.244 109.968 44.612C109.848 44.98 109.788 45.356 109.788 45.74ZM121.321 50.12C120.817 50.12 120.373 50 119.989 49.76C119.605 49.52 119.301 49.208 119.077 48.824V52.556H117.757V43.724H118.921V44.852C119.161 44.476 119.473 44.176 119.857 43.952C120.241 43.728 120.669 43.616 121.141 43.616C121.573 43.616 121.969 43.704 122.329 43.88C122.689 44.048 123.001 44.284 123.265 44.588C123.529 44.892 123.733 45.24 123.877 45.632C124.029 46.016 124.105 46.424 124.105 46.856C124.105 47.456 123.985 48.004 123.745 48.5C123.513 48.996 123.185 49.392 122.761 49.688C122.345 49.976 121.865 50.12 121.321 50.12ZM120.889 48.992C121.169 48.992 121.421 48.932 121.645 48.812C121.877 48.692 122.073 48.532 122.233 48.332C122.401 48.132 122.529 47.904 122.617 47.648C122.705 47.392 122.749 47.128 122.749 46.856C122.749 46.568 122.701 46.296 122.605 46.04C122.509 45.784 122.369 45.56 122.185 45.368C122.009 45.176 121.801 45.024 121.561 44.912C121.329 44.8 121.073 44.744 120.793 44.744C120.625 44.744 120.449 44.776 120.265 44.84C120.081 44.904 119.909 44.992 119.749 45.104C119.589 45.216 119.449 45.348 119.329 45.5C119.209 45.652 119.125 45.812 119.077 45.98V47.624C119.189 47.88 119.337 48.112 119.521 48.32C119.705 48.52 119.917 48.684 120.157 48.812C120.397 48.932 120.641 48.992 120.889 48.992ZM128.136 50.12C127.648 50.12 127.204 50.036 126.804 49.868C126.412 49.692 126.072 49.456 125.784 49.16C125.496 48.856 125.272 48.512 125.112 48.128C124.96 47.736 124.884 47.32 124.884 46.88C124.884 46.288 125.02 45.748 125.292 45.26C125.564 44.764 125.944 44.368 126.432 44.072C126.92 43.768 127.492 43.616 128.148 43.616C128.804 43.616 129.368 43.768 129.84 44.072C130.32 44.368 130.692 44.76 130.956 45.248C131.22 45.736 131.352 46.26 131.352 46.82C131.352 46.916 131.348 47.008 131.34 47.096C131.332 47.176 131.324 47.244 131.316 47.3H126.288C126.312 47.668 126.412 47.992 126.588 48.272C126.772 48.544 127.004 48.76 127.284 48.92C127.564 49.072 127.864 49.148 128.184 49.148C128.536 49.148 128.868 49.06 129.18 48.884C129.5 48.708 129.716 48.476 129.828 48.188L130.956 48.512C130.82 48.816 130.612 49.092 130.332 49.34C130.06 49.58 129.736 49.772 129.36 49.916C128.984 50.052 128.576 50.12 128.136 50.12ZM126.252 46.424H130.044C130.02 46.064 129.916 45.748 129.732 45.476C129.556 45.196 129.328 44.98 129.048 44.828C128.776 44.668 128.472 44.588 128.136 44.588C127.808 44.588 127.504 44.668 127.224 44.828C126.952 44.98 126.728 45.196 126.552 45.476C126.376 45.748 126.276 46.064 126.252 46.424ZM138.057 50H136.737V46.484C136.737 45.9 136.641 45.472 136.449 45.2C136.265 44.928 135.989 44.792 135.621 44.792C135.365 44.792 135.109 44.856 134.853 44.984C134.605 45.112 134.381 45.288 134.181 45.512C133.981 45.728 133.837 45.98 133.749 46.268V50H132.429V43.724H133.629V44.984C133.789 44.704 133.997 44.464 134.253 44.264C134.517 44.056 134.813 43.896 135.141 43.784C135.469 43.672 135.817 43.616 136.185 43.616C136.561 43.616 136.869 43.684 137.109 43.82C137.357 43.956 137.549 44.144 137.685 44.384C137.829 44.616 137.925 44.888 137.973 45.2C138.029 45.504 138.057 45.828 138.057 46.172V50Z" fill="#008000"/>
<path d="M21.7467 71.6332C21.0467 68.5532 18.3601 67.1665 16.0001 67.1665C16.0001 67.1665 16.0001 67.1665 15.9934 67.1665C13.6401 67.1665 10.9467 68.5465 10.2467 71.6265C9.46673 75.0665 11.5734 77.9798 13.4801 79.8132C14.1867 80.4932 15.0934 80.8332 16.0001 80.8332C16.9067 80.8332 17.8134 80.4932 18.5134 79.8132C20.4201 77.9798 22.5267 75.0732 21.7467 71.6332ZM16.0001 74.9732C14.8401 74.9732 13.9001 74.0332 13.9001 72.8732C13.9001 71.7132 14.8401 70.7732 16.0001 70.7732C17.1601 70.7732 18.1001 71.7132 18.1001 72.8732C18.1001 74.0332 17.1601 74.9732 16.0001 74.9732Z" fill="#727272"/>
<path d="M34.72 74.484C34.72 75.188 34.588 75.816 34.324 76.368C34.06 76.912 33.7 77.34 33.244 77.652C32.788 77.964 32.268 78.12 31.684 78.12C31.1 78.12 30.58 77.964 30.124 77.652C29.668 77.34 29.308 76.912 29.044 76.368C28.78 75.816 28.648 75.188 28.648 74.484C28.648 73.78 28.78 73.156 29.044 72.612C29.308 72.06 29.668 71.628 30.124 71.316C30.58 70.996 31.1 70.836 31.684 70.836C32.268 70.836 32.788 70.996 33.244 71.316C33.7 71.628 34.06 72.06 34.324 72.612C34.588 73.156 34.72 73.78 34.72 74.484ZM33.652 74.484C33.652 73.956 33.568 73.492 33.4 73.092C33.232 72.692 33 72.38 32.704 72.156C32.408 71.932 32.068 71.82 31.684 71.82C31.292 71.82 30.948 71.932 30.652 72.156C30.356 72.38 30.124 72.692 29.956 73.092C29.788 73.492 29.704 73.956 29.704 74.484C29.704 75.012 29.788 75.476 29.956 75.876C30.124 76.268 30.356 76.576 30.652 76.8C30.948 77.024 31.292 77.136 31.684 77.136C32.068 77.136 32.408 77.024 32.704 76.8C33 76.576 33.232 76.268 33.4 75.876C33.568 75.476 33.652 75.012 33.652 74.484ZM35.8991 78V76.656H36.7871V78H35.8991ZM40.4609 79.788C39.8529 79.788 39.3049 79.644 38.8169 79.356C38.3289 79.068 37.9609 78.684 37.7129 78.204L38.3729 77.628C38.5969 77.996 38.8929 78.292 39.2609 78.516C39.6369 78.74 40.0409 78.852 40.4729 78.852C40.8409 78.852 41.1689 78.772 41.4569 78.612C41.7449 78.452 41.9729 78.232 42.1409 77.952C42.3089 77.664 42.3929 77.336 42.3929 76.968C42.3929 76.608 42.3089 76.292 42.1409 76.02C41.9809 75.748 41.7609 75.536 41.4809 75.384C41.2089 75.232 40.9009 75.156 40.5569 75.156C40.2129 75.156 39.8889 75.232 39.5849 75.384C39.2889 75.536 39.0449 75.752 38.8529 76.032H37.9049L38.8649 71.148H43.0049V72.12H39.6449L39.1289 74.832C39.3049 74.648 39.5249 74.504 39.7889 74.4C40.0609 74.288 40.3609 74.232 40.6889 74.232C41.2169 74.232 41.6889 74.348 42.1049 74.58C42.5289 74.812 42.8609 75.132 43.1009 75.54C43.3489 75.948 43.4729 76.42 43.4729 76.956C43.4729 77.516 43.3369 78.008 43.0649 78.432C42.8009 78.864 42.4409 79.196 41.9849 79.428C41.5289 79.668 41.0209 79.788 40.4609 79.788ZM44.6711 78V69.492H45.7511V74.196L50.1431 69.48H51.3071L47.8871 73.236L51.4991 78H50.2871L47.2031 73.884L45.7511 75.396V78H44.6711ZM59.6272 78V71.496L56.8192 76.5H56.1592L53.3392 71.496V78H52.2592V69.48H53.3992L56.4832 75.012L59.5792 69.48H60.7072V78H59.6272ZM67.5197 69.48H68.4317L71.9117 78H70.7597L69.7517 75.504H66.1757L65.1797 78H64.0277L67.5197 69.48ZM69.5117 74.664L67.9757 70.728L66.3917 74.664H69.5117ZM80.0669 71.736H81.0869L78.4229 78H77.4989L76.2869 75.048L75.0869 78H74.1629L71.4989 71.736H72.5069L74.6669 76.956L75.6749 74.388L74.6189 71.748H75.5429L76.2869 73.74L77.0309 71.748H77.9549L76.9109 74.388L77.9189 76.956L80.0669 71.736ZM81.19 76.188C81.19 75.788 81.302 75.444 81.526 75.156C81.758 74.86 82.074 74.632 82.474 74.472C82.874 74.312 83.338 74.232 83.866 74.232C84.146 74.232 84.442 74.256 84.754 74.304C85.066 74.344 85.342 74.408 85.582 74.496V74.04C85.582 73.56 85.438 73.184 85.15 72.912C84.862 72.632 84.454 72.492 83.926 72.492C83.582 72.492 83.25 72.556 82.93 72.684C82.618 72.804 82.286 72.98 81.934 73.212L81.55 72.468C81.958 72.188 82.366 71.98 82.774 71.844C83.182 71.7 83.606 71.628 84.046 71.628C84.846 71.628 85.478 71.852 85.942 72.3C86.406 72.74 86.638 73.356 86.638 74.148V76.8C86.638 76.928 86.662 77.024 86.71 77.088C86.766 77.144 86.854 77.176 86.974 77.184V78C86.87 78.016 86.778 78.028 86.698 78.036C86.626 78.044 86.566 78.048 86.518 78.048C86.27 78.048 86.082 77.98 85.954 77.844C85.834 77.708 85.766 77.564 85.75 77.412L85.726 77.016C85.454 77.368 85.098 77.64 84.658 77.832C84.218 78.024 83.782 78.12 83.35 78.12C82.934 78.12 82.562 78.036 82.234 77.868C81.906 77.692 81.65 77.46 81.466 77.172C81.282 76.876 81.19 76.548 81.19 76.188ZM85.27 76.632C85.366 76.52 85.442 76.408 85.498 76.296C85.554 76.176 85.582 76.076 85.582 75.996V75.216C85.334 75.12 85.074 75.048 84.802 75C84.53 74.944 84.262 74.916 83.998 74.916C83.462 74.916 83.026 75.024 82.69 75.24C82.362 75.448 82.198 75.736 82.198 76.104C82.198 76.304 82.25 76.5 82.354 76.692C82.466 76.876 82.626 77.028 82.834 77.148C83.05 77.268 83.314 77.328 83.626 77.328C83.954 77.328 84.266 77.264 84.562 77.136C84.858 77 85.094 76.832 85.27 76.632ZM88.1753 79.704C88.2793 79.712 88.3833 79.72 88.4873 79.728C88.5913 79.744 88.6713 79.752 88.7273 79.752C88.8553 79.752 88.9673 79.708 89.0633 79.62C89.1593 79.532 89.2633 79.36 89.3753 79.104C89.4953 78.856 89.6473 78.488 89.8313 78L87.1793 71.736H88.2953L90.4073 76.932L92.3153 71.736H93.3593L90.3113 79.644C90.2393 79.828 90.1313 80 89.9873 80.16C89.8513 80.328 89.6753 80.46 89.4593 80.556C89.2433 80.652 88.9833 80.7 88.6793 80.7C88.6073 80.7 88.5313 80.696 88.4513 80.688C88.3793 80.68 88.2873 80.664 88.1753 80.64V79.704Z" fill="#727272"/>
<g clip-path="url(#clip0_1953_24531)">
<path d="M18.6666 94.6665C19.0348 94.6665 19.3333 94.965 19.3333 95.3332V95.9998H22.6666V99.9998H21.3206L23.1513 105.03C23.2688 105.33 23.3333 105.658 23.3333 106C23.3333 107.473 22.1393 108.667 20.6666 108.667C19.424 108.667 18.38 107.817 18.0839 106.667H15.2492C14.9532 107.817 13.9091 108.667 12.6666 108.667C11.3703 108.667 10.29 107.742 10.0497 106.516C9.62389 106.293 9.33325 105.847 9.33325 105.333V98.6665C9.33325 98.2983 9.63173 97.9998 9.99992 97.9998H14.6666C15.0348 97.9998 15.3333 98.2983 15.3333 98.6665V102C15.3333 102.368 15.6317 102.667 15.9999 102.667H17.3333C17.7014 102.667 17.9999 102.368 17.9999 102V95.9998H15.9999V94.6665H18.6666ZM20.6666 104.667C19.9302 104.667 19.3333 105.263 19.3333 106C19.3333 106.736 19.9302 107.333 20.6666 107.333C21.403 107.333 21.9999 106.736 21.9999 106C21.9999 105.84 21.9717 105.686 21.9198 105.544L21.9089 105.515C21.7149 105.018 21.2318 104.667 20.6666 104.667ZM12.6666 104.667C11.9302 104.667 11.3333 105.263 11.3333 106C11.3333 106.736 11.9302 107.333 12.6666 107.333C13.403 107.333 13.9999 106.736 13.9999 106C13.9999 105.263 13.403 104.667 12.6666 104.667ZM13.9999 99.3332H10.6666V100.667H13.9999V99.3332ZM21.3333 97.3332H19.3333V98.6665H21.3333V97.3332Z" fill="#727272"/>
</g>
<path d="M29.02 106V97.48H31.972C32.884 97.48 33.644 97.672 34.252 98.056C34.868 98.432 35.328 98.944 35.632 99.592C35.936 100.232 36.088 100.944 36.088 101.728C36.088 102.592 35.92 103.344 35.584 103.984C35.248 104.624 34.772 105.12 34.156 105.472C33.54 105.824 32.812 106 31.972 106H29.02ZM34.996 101.728C34.996 101.088 34.876 100.52 34.636 100.024C34.404 99.528 34.064 99.14 33.616 98.86C33.168 98.58 32.62 98.44 31.972 98.44H30.1V105.04H31.972C32.628 105.04 33.18 104.896 33.628 104.608C34.076 104.312 34.416 103.916 34.648 103.42C34.88 102.916 34.996 102.352 34.996 101.728ZM39.9738 106.12C39.5018 106.12 39.0698 106.036 38.6778 105.868C38.2938 105.692 37.9578 105.456 37.6698 105.16C37.3898 104.856 37.1698 104.508 37.0098 104.116C36.8578 103.724 36.7818 103.308 36.7818 102.868C36.7818 102.276 36.9178 101.736 37.1898 101.248C37.4618 100.76 37.8378 100.368 38.3178 100.072C38.8058 99.776 39.3618 99.628 39.9858 99.628C40.6178 99.628 41.1658 99.78 41.6298 100.084C42.1018 100.38 42.4658 100.772 42.7218 101.26C42.9858 101.74 43.1178 102.26 43.1178 102.82C43.1178 102.9 43.1138 102.98 43.1058 103.06C43.1058 103.132 43.1018 103.188 43.0938 103.228H37.8978C37.9298 103.636 38.0418 104 38.2338 104.32C38.4338 104.632 38.6898 104.88 39.0018 105.064C39.3138 105.24 39.6498 105.328 40.0098 105.328C40.3938 105.328 40.7538 105.232 41.0898 105.04C41.4338 104.848 41.6698 104.596 41.7978 104.284L42.7098 104.536C42.5738 104.84 42.3698 105.112 42.0978 105.352C41.8338 105.592 41.5178 105.78 41.1498 105.916C40.7898 106.052 40.3978 106.12 39.9738 106.12ZM37.8618 102.496H42.1338C42.1018 102.088 41.9858 101.728 41.7858 101.416C41.5858 101.104 41.3298 100.86 41.0178 100.684C40.7058 100.508 40.3618 100.42 39.9858 100.42C39.6178 100.42 39.2778 100.508 38.9658 100.684C38.6538 100.86 38.3978 101.104 38.1978 101.416C38.0058 101.728 37.8938 102.088 37.8618 102.496ZM44.0757 97.24H45.1317V104.38C45.1317 104.724 45.1797 104.936 45.2757 105.016C45.3717 105.096 45.4877 105.136 45.6237 105.136C45.7917 105.136 45.9517 105.12 46.1037 105.088C46.2557 105.048 46.3837 105.008 46.4877 104.968L46.6557 105.832C46.4797 105.904 46.2717 105.964 46.0317 106.012C45.7917 106.06 45.5797 106.084 45.3957 106.084C44.9877 106.084 44.6637 105.968 44.4237 105.736C44.1917 105.504 44.0757 105.18 44.0757 104.764V97.24ZM47.2453 106V99.736H48.3013V106H47.2453ZM47.2453 98.56V97.24H48.3013V98.56H47.2453ZM51.5709 106L49.1109 99.736H50.2149L52.1829 104.992L54.1509 99.736H55.1829L52.7229 106H51.5709ZM58.5607 106.12C58.0887 106.12 57.6567 106.036 57.2647 105.868C56.8807 105.692 56.5447 105.456 56.2567 105.16C55.9767 104.856 55.7567 104.508 55.5967 104.116C55.4447 103.724 55.3687 103.308 55.3687 102.868C55.3687 102.276 55.5047 101.736 55.7767 101.248C56.0487 100.76 56.4247 100.368 56.9047 100.072C57.3927 99.776 57.9487 99.628 58.5727 99.628C59.2047 99.628 59.7527 99.78 60.2167 100.084C60.6887 100.38 61.0527 100.772 61.3087 101.26C61.5727 101.74 61.7047 102.26 61.7047 102.82C61.7047 102.9 61.7007 102.98 61.6927 103.06C61.6927 103.132 61.6887 103.188 61.6807 103.228H56.4847C56.5167 103.636 56.6287 104 56.8207 104.32C57.0207 104.632 57.2767 104.88 57.5887 105.064C57.9007 105.24 58.2367 105.328 58.5967 105.328C58.9807 105.328 59.3407 105.232 59.6767 105.04C60.0207 104.848 60.2567 104.596 60.3847 104.284L61.2967 104.536C61.1607 104.84 60.9567 105.112 60.6847 105.352C60.4207 105.592 60.1047 105.78 59.7367 105.916C59.3767 106.052 58.9847 106.12 58.5607 106.12ZM56.4487 102.496H60.7207C60.6887 102.088 60.5727 101.728 60.3727 101.416C60.1727 101.104 59.9167 100.86 59.6047 100.684C59.2927 100.508 58.9487 100.42 58.5727 100.42C58.2047 100.42 57.8647 100.508 57.5527 100.684C57.2407 100.86 56.9847 101.104 56.7847 101.416C56.5927 101.728 56.4807 102.088 56.4487 102.496ZM65.9506 100.66C65.4226 100.668 64.9546 100.804 64.5466 101.068C64.1466 101.324 63.8626 101.68 63.6946 102.136V106H62.6386V99.736H63.6226V101.188C63.8386 100.756 64.1226 100.408 64.4746 100.144C64.8346 99.872 65.2106 99.72 65.6026 99.688C65.6826 99.688 65.7506 99.688 65.8066 99.688C65.8626 99.688 65.9106 99.692 65.9506 99.7V100.66ZM67.0459 107.704C67.1499 107.712 67.2539 107.72 67.3579 107.728C67.4619 107.744 67.5419 107.752 67.5979 107.752C67.7259 107.752 67.8379 107.708 67.9339 107.62C68.0299 107.532 68.1339 107.36 68.2459 107.104C68.3659 106.856 68.5179 106.488 68.7019 106L66.0499 99.736H67.1659L69.2779 104.932L71.1859 99.736H72.2299L69.1819 107.644C69.1099 107.828 69.0019 108 68.8579 108.16C68.7219 108.328 68.5459 108.46 68.3299 108.556C68.1139 108.652 67.8539 108.7 67.5499 108.7C67.4779 108.7 67.4019 108.696 67.3219 108.688C67.2499 108.68 67.1579 108.664 67.0459 108.64V107.704ZM77.909 97.48H78.821L82.301 106H81.149L80.141 103.504H76.565L75.569 106H74.417L77.909 97.48ZM79.901 102.664L78.365 98.728L76.781 102.664H79.901ZM84.4317 106L81.9717 99.736H83.0757L85.0437 104.992L87.0117 99.736H88.0437L85.5837 106H84.4317ZM88.2161 104.188C88.2161 103.788 88.3281 103.444 88.5521 103.156C88.7841 102.86 89.1001 102.632 89.5001 102.472C89.9001 102.312 90.3641 102.232 90.8921 102.232C91.1721 102.232 91.4681 102.256 91.7801 102.304C92.0921 102.344 92.3681 102.408 92.6081 102.496V102.04C92.6081 101.56 92.4641 101.184 92.1761 100.912C91.8881 100.632 91.4801 100.492 90.9521 100.492C90.6081 100.492 90.2761 100.556 89.9561 100.684C89.6441 100.804 89.3121 100.98 88.9601 101.212L88.5761 100.468C88.9841 100.188 89.3921 99.98 89.8001 99.844C90.2081 99.7 90.6321 99.628 91.0721 99.628C91.8721 99.628 92.5041 99.852 92.9681 100.3C93.4321 100.74 93.6641 101.356 93.6641 102.148V104.8C93.6641 104.928 93.6881 105.024 93.7361 105.088C93.7921 105.144 93.8801 105.176 94.0001 105.184V106C93.8961 106.016 93.8041 106.028 93.7241 106.036C93.6521 106.044 93.5921 106.048 93.5441 106.048C93.2961 106.048 93.1081 105.98 92.9801 105.844C92.8601 105.708 92.7921 105.564 92.7761 105.412L92.7521 105.016C92.4801 105.368 92.1241 105.64 91.6841 105.832C91.2441 106.024 90.8081 106.12 90.3761 106.12C89.9601 106.12 89.5881 106.036 89.2601 105.868C88.9321 105.692 88.6761 105.46 88.4921 105.172C88.3081 104.876 88.2161 104.548 88.2161 104.188ZM92.2961 104.632C92.3921 104.52 92.4681 104.408 92.5241 104.296C92.5801 104.176 92.6081 104.076 92.6081 103.996V103.216C92.3601 103.12 92.1001 103.048 91.8281 103C91.5561 102.944 91.2881 102.916 91.0241 102.916C90.4881 102.916 90.0521 103.024 89.7161 103.24C89.3881 103.448 89.2241 103.736 89.2241 104.104C89.2241 104.304 89.2761 104.5 89.3801 104.692C89.4921 104.876 89.6521 105.028 89.8601 105.148C90.0761 105.268 90.3401 105.328 90.6521 105.328C90.9801 105.328 91.2921 105.264 91.5881 105.136C91.8841 105 92.1201 104.832 92.2961 104.632ZM95.1126 106V99.736H96.1686V106H95.1126ZM95.1126 98.56V97.24H96.1686V98.56H95.1126ZM97.6622 97.24H98.7182V104.38C98.7182 104.724 98.7662 104.936 98.8622 105.016C98.9582 105.096 99.0742 105.136 99.2102 105.136C99.3782 105.136 99.5382 105.12 99.6902 105.088C99.8422 105.048 99.9702 105.008 100.074 104.968L100.242 105.832C100.066 105.904 99.8582 105.964 99.6182 106.012C99.3782 106.06 99.1662 106.084 98.9822 106.084C98.5742 106.084 98.2502 105.968 98.0102 105.736C97.7782 105.504 97.6622 105.18 97.6622 104.764V97.24ZM100.34 104.188C100.34 103.788 100.452 103.444 100.676 103.156C100.908 102.86 101.224 102.632 101.624 102.472C102.024 102.312 102.488 102.232 103.016 102.232C103.296 102.232 103.592 102.256 103.904 102.304C104.216 102.344 104.492 102.408 104.732 102.496V102.04C104.732 101.56 104.588 101.184 104.3 100.912C104.012 100.632 103.604 100.492 103.076 100.492C102.732 100.492 102.4 100.556 102.08 100.684C101.768 100.804 101.436 100.98 101.084 101.212L100.7 100.468C101.108 100.188 101.516 99.98 101.924 99.844C102.332 99.7 102.756 99.628 103.196 99.628C103.996 99.628 104.628 99.852 105.092 100.3C105.556 100.74 105.788 101.356 105.788 102.148V104.8C105.788 104.928 105.812 105.024 105.86 105.088C105.916 105.144 106.004 105.176 106.124 105.184V106C106.02 106.016 105.928 106.028 105.848 106.036C105.776 106.044 105.716 106.048 105.668 106.048C105.42 106.048 105.232 105.98 105.104 105.844C104.984 105.708 104.916 105.564 104.9 105.412L104.876 105.016C104.604 105.368 104.248 105.64 103.808 105.832C103.368 106.024 102.932 106.12 102.5 106.12C102.084 106.12 101.712 106.036 101.384 105.868C101.056 105.692 100.8 105.46 100.616 105.172C100.432 104.876 100.34 104.548 100.34 104.188ZM104.42 104.632C104.516 104.52 104.592 104.408 104.648 104.296C104.704 104.176 104.732 104.076 104.732 103.996V103.216C104.484 103.12 104.224 103.048 103.952 103C103.68 102.944 103.412 102.916 103.148 102.916C102.612 102.916 102.176 103.024 101.84 103.24C101.512 103.448 101.348 103.736 101.348 104.104C101.348 104.304 101.4 104.5 101.504 104.692C101.616 104.876 101.776 105.028 101.984 105.148C102.2 105.268 102.464 105.328 102.776 105.328C103.104 105.328 103.416 105.264 103.712 105.136C104.008 105 104.244 104.832 104.42 104.632ZM110.452 106.12C109.964 106.12 109.52 106 109.12 105.76C108.72 105.52 108.404 105.208 108.172 104.824V106H107.236V97.24H108.292V100.984C108.556 100.576 108.88 100.248 109.264 100C109.648 99.752 110.096 99.628 110.608 99.628C111.04 99.628 111.428 99.72 111.772 99.904C112.116 100.08 112.408 100.324 112.648 100.636C112.896 100.94 113.084 101.288 113.212 101.68C113.348 102.064 113.416 102.468 113.416 102.892C113.416 103.332 113.34 103.748 113.188 104.14C113.044 104.524 112.836 104.868 112.564 105.172C112.292 105.468 111.976 105.7 111.616 105.868C111.264 106.036 110.876 106.12 110.452 106.12ZM110.188 105.208C110.5 105.208 110.788 105.144 111.052 105.016C111.316 104.888 111.544 104.716 111.736 104.5C111.928 104.284 112.076 104.036 112.18 103.756C112.284 103.476 112.336 103.188 112.336 102.892C112.336 102.484 112.248 102.1 112.072 101.74C111.904 101.38 111.664 101.092 111.352 100.876C111.048 100.652 110.692 100.54 110.284 100.54C109.988 100.54 109.712 100.608 109.456 100.744C109.2 100.88 108.972 101.06 108.772 101.284C108.58 101.5 108.42 101.74 108.292 102.004V103.816C108.332 104.016 108.416 104.2 108.544 104.368C108.672 104.536 108.828 104.684 109.012 104.812C109.196 104.932 109.388 105.028 109.588 105.1C109.796 105.172 109.996 105.208 110.188 105.208ZM114.497 97.24H115.553V104.38C115.553 104.724 115.601 104.936 115.697 105.016C115.793 105.096 115.909 105.136 116.045 105.136C116.213 105.136 116.373 105.12 116.525 105.088C116.677 105.048 116.805 105.008 116.909 104.968L117.077 105.832C116.901 105.904 116.693 105.964 116.453 106.012C116.213 106.06 116.001 106.084 115.817 106.084C115.409 106.084 115.085 105.968 114.845 105.736C114.613 105.504 114.497 105.18 114.497 104.764V97.24ZM120.439 106.12C119.967 106.12 119.535 106.036 119.143 105.868C118.759 105.692 118.423 105.456 118.135 105.16C117.855 104.856 117.635 104.508 117.475 104.116C117.323 103.724 117.247 103.308 117.247 102.868C117.247 102.276 117.383 101.736 117.655 101.248C117.927 100.76 118.303 100.368 118.783 100.072C119.271 99.776 119.827 99.628 120.451 99.628C121.083 99.628 121.631 99.78 122.095 100.084C122.567 100.38 122.931 100.772 123.187 101.26C123.451 101.74 123.583 102.26 123.583 102.82C123.583 102.9 123.579 102.98 123.571 103.06C123.571 103.132 123.567 103.188 123.559 103.228H118.363C118.395 103.636 118.507 104 118.699 104.32C118.899 104.632 119.155 104.88 119.467 105.064C119.779 105.24 120.115 105.328 120.475 105.328C120.859 105.328 121.219 105.232 121.555 105.04C121.899 104.848 122.135 104.596 122.263 104.284L123.175 104.536C123.039 104.84 122.835 105.112 122.563 105.352C122.299 105.592 121.983 105.78 121.615 105.916C121.255 106.052 120.863 106.12 120.439 106.12ZM118.327 102.496H122.599C122.567 102.088 122.451 101.728 122.251 101.416C122.051 101.104 121.795 100.86 121.483 100.684C121.171 100.508 120.827 100.42 120.451 100.42C120.083 100.42 119.743 100.508 119.431 100.684C119.119 100.86 118.863 101.104 118.663 101.416C118.471 101.728 118.359 102.088 118.327 102.496Z" fill="#727272"/>
<defs>
<clipPath id="clip0_1953_24531">
<rect width="16" height="16" fill="white" transform="translate(8 94)"/>
</clipPath>
</defs>
</svg>
