<svg width="25" height="20" viewBox="0 0 25 20" fill="none" xmlns="http://www.w3.org/2000/svg">
<path d="M12.5 7.33331V8.73331C12.2067 8.69331 11.8733 8.67331 11.5 8.66665V7.33331C11.5 5.23331 10.9067 3.83331 8 3.83331C5.09333 3.83331 4.5 5.23331 4.5 7.33331V8.66665C4.12667 8.67331 3.79333 8.69331 3.5 8.73331V7.33331C3.5 5.39998 3.96667 2.83331 8 2.83331C12.0333 2.83331 12.5 5.39998 12.5 7.33331Z" fill="#727272"/>
<path d="M12.5002 8.73335C12.2068 8.69335 11.8735 8.67335 11.5002 8.66669H4.50016C4.12683 8.67335 3.7935 8.69335 3.50016 8.73335C1.80016 8.94002 1.3335 9.77335 1.3335 12V13.3334C1.3335 16 2.00016 16.6667 4.66683 16.6667H11.3335C14.0002 16.6667 14.6668 16 14.6668 13.3334V12C14.6668 9.77335 14.2002 8.94002 12.5002 8.73335ZM5.80683 13.14C5.68016 13.26 5.50683 13.3334 5.3335 13.3334C5.24683 13.3334 5.16016 13.3134 5.08016 13.28C4.9935 13.2467 4.92683 13.2 4.86016 13.14C4.74016 13.0134 4.66683 12.84 4.66683 12.6667C4.66683 12.58 4.68683 12.4934 4.72016 12.4134C4.7535 12.3334 4.80016 12.26 4.86016 12.1934C4.92683 12.1334 4.9935 12.0867 5.08016 12.0534C5.32683 11.9467 5.62016 12.0067 5.80683 12.1934C5.86683 12.26 5.9135 12.3334 5.94683 12.4134C5.98016 12.4934 6.00016 12.58 6.00016 12.6667C6.00016 12.84 5.92683 13.0134 5.80683 13.14ZM8.6135 12.92C8.58016 13 8.5335 13.0734 8.4735 13.14C8.34683 13.26 8.1735 13.3334 8.00016 13.3334C7.82016 13.3334 7.6535 13.26 7.52683 13.14C7.46683 13.0734 7.42016 13 7.38683 12.92C7.3535 12.84 7.3335 12.7534 7.3335 12.6667C7.3335 12.4867 7.40683 12.32 7.52683 12.1934C7.7735 11.9467 8.22016 11.9467 8.4735 12.1934C8.5935 12.32 8.66683 12.4867 8.66683 12.6667C8.66683 12.7534 8.64683 12.84 8.6135 12.92ZM11.1402 13.14C11.0135 13.26 10.8402 13.3334 10.6668 13.3334C10.4935 13.3334 10.3202 13.26 10.1935 13.14C10.0735 13.0134 10.0002 12.8467 10.0002 12.6667C10.0002 12.4867 10.0735 12.32 10.1935 12.1934C10.4468 11.9467 10.8935 11.9467 11.1402 12.1934C11.1668 12.2267 11.1935 12.26 11.2202 12.3C11.2468 12.3334 11.2668 12.3734 11.2802 12.4134C11.3002 12.4534 11.3135 12.4934 11.3202 12.5334C11.3268 12.58 11.3335 12.6267 11.3335 12.6667C11.3335 12.84 11.2602 13.0134 11.1402 13.14Z" fill="#727272"/>
<line x1="24.5" y1="0.5" x2="24.5" y2="19.5" stroke="#CDCDCD"/>
</svg>
