<svg width="32" height="32" viewBox="0 0 32 32" fill="none" xmlns="http://www.w3.org/2000/svg">
<rect width="32" height="32" rx="8" fill="#DC0019" fill-opacity="0.1"/>
<path d="M15.2087 18.4584L13.667 20C13.342 20.325 12.8253 20.325 12.492 20.0084C12.4003 19.9167 12.3087 19.8334 12.217 19.7417C11.3587 18.875 10.5837 17.9667 9.89199 17.0167C9.20866 16.0667 8.65866 15.1167 8.25866 14.175C7.86699 13.225 7.66699 12.3167 7.66699 11.45C7.66699 10.8834 7.76699 10.3417 7.96699 9.84169C8.16699 9.33335 8.48366 8.86669 8.92533 8.45002C9.45866 7.92502 10.042 7.66669 10.6587 7.66669C10.892 7.66669 11.1253 7.71669 11.3337 7.81669C11.5503 7.91669 11.742 8.06669 11.892 8.28335L13.8253 11.0084C13.9753 11.2167 14.0837 11.4084 14.1587 11.5917C14.2337 11.7667 14.2753 11.9417 14.2753 12.1C14.2753 12.3 14.217 12.5 14.1003 12.6917C13.992 12.8834 13.8337 13.0834 13.6337 13.2834L13.0003 13.9417C12.9087 14.0334 12.867 14.1417 12.867 14.275C12.867 14.3417 12.8753 14.4 12.892 14.4667C12.917 14.5334 12.942 14.5834 12.9587 14.6334C13.1087 14.9084 13.367 15.2667 13.7337 15.7C14.1087 16.1334 14.5087 16.575 14.942 17.0167C15.0253 17.1 15.117 17.1834 15.2003 17.2667C15.5337 17.5917 15.542 18.125 15.2087 18.4584Z" fill="#DC0019"/>
<path d="M24.3083 21.275C24.3083 21.5083 24.2667 21.75 24.1833 21.9833C24.1583 22.05 24.1333 22.1167 24.1 22.1833C23.9583 22.4833 23.775 22.7667 23.5333 23.0333C23.125 23.4833 22.675 23.8083 22.1667 24.0167C22.1583 24.0167 22.15 24.025 22.1417 24.025C21.65 24.225 21.1167 24.3333 20.5417 24.3333C19.6917 24.3333 18.7833 24.1333 17.825 23.725C16.8667 23.3167 15.9083 22.7667 14.9583 22.075C14.6333 21.8333 14.3083 21.5917 14 21.3333L16.725 18.6083C16.9583 18.7833 17.1667 18.9167 17.3417 19.0083C17.3833 19.025 17.4333 19.05 17.4917 19.075C17.5583 19.1 17.625 19.1083 17.7 19.1083C17.8417 19.1083 17.95 19.0583 18.0417 18.9667L18.675 18.3417C18.8833 18.1333 19.0833 17.975 19.275 17.875C19.4667 17.7583 19.6583 17.7 19.8667 17.7C20.025 17.7 20.1917 17.7333 20.375 17.8083C20.5583 17.8833 20.75 17.9917 20.9583 18.1333L23.7167 20.0917C23.9333 20.2417 24.0833 20.4167 24.175 20.625C24.2583 20.8333 24.3083 21.0417 24.3083 21.275Z" fill="#DC0019"/>
</svg>
