<svg width="14" height="14" viewBox="0 0 14 14" fill="none" xmlns="http://www.w3.org/2000/svg">
<path d="M9.79325 0.333313H4.20659C1.77992 0.333313 0.333252 1.77998 0.333252 4.20665V9.78665C0.333252 12.22 1.77992 13.6666 4.20659 13.6666H9.78659C12.2133 13.6666 13.6599 12.22 13.6599 9.79331V4.20665C13.6666 1.77998 12.2199 0.333313 9.79325 0.333313ZM10.9999 7.49998H7.49992V11C7.49992 11.2733 7.27325 11.5 6.99992 11.5C6.72659 11.5 6.49992 11.2733 6.49992 11V7.49998H2.99992C2.72659 7.49998 2.49992 7.27331 2.49992 6.99998C2.49992 6.72665 2.72659 6.49998 2.99992 6.49998H6.49992V2.99998C6.49992 2.72665 6.72659 2.49998 6.99992 2.49998C7.27325 2.49998 7.49992 2.72665 7.49992 2.99998V6.49998H10.9999C11.2733 6.49998 11.4999 6.72665 11.4999 6.99998C11.4999 7.27331 11.2733 7.49998 10.9999 7.49998Z" fill="white"/>
</svg>
