<svg width="44" height="44" viewBox="0 0 44 44" fill="none" xmlns="http://www.w3.org/2000/svg">
<rect width="44" height="44" rx="8" fill="#DC0019" fill-opacity="0.1"/>
<path d="M32 14V15H15C14.7348 15 14.4804 15.1054 14.2929 15.2929C14.1054 15.4804 14 15.7348 14 16C14 16.2652 14.1054 16.5196 14.2929 16.7071C14.4804 16.8946 14.7348 17 15 17H31C31.2652 17 31.5196 17.1054 31.7071 17.2929C31.8946 17.4804 32 17.7348 32 18V29C32 29.5304 31.7893 30.0391 31.4142 30.4142C31.0391 30.7893 30.5304 31 30 31H23V24.414L24.293 25.707C24.4816 25.8892 24.7342 25.99 24.9964 25.9877C25.2586 25.9854 25.5094 25.8802 25.6948 25.6948C25.8802 25.5094 25.9854 25.2586 25.9877 24.9964C25.99 24.7342 25.8892 24.4816 25.707 24.293L22.707 21.293C22.6141 21.1999 22.5038 21.126 22.3823 21.0756C22.2608 21.0252 22.1305 20.9992 21.999 20.9992C21.8675 20.9992 21.7372 21.0252 21.6157 21.0756C21.4942 21.126 21.3839 21.1999 21.291 21.293L18.291 24.293C18.1088 24.4816 18.008 24.7342 18.0103 24.9964C18.0126 25.2586 18.1178 25.5094 18.3032 25.6948C18.4886 25.8802 18.7394 25.9854 19.0016 25.9877C19.2638 25.99 19.5164 25.8892 19.705 25.707L21 24.414V31H14C13.4696 31 12.9609 30.7893 12.5858 30.4142C12.2107 30.0391 12 29.5304 12 29V15C12 14.4696 12.2107 13.9609 12.5858 13.5858C12.9609 13.2107 13.4696 13 14 13H31C31.2652 13 31.5196 13.1054 31.7071 13.2929C31.8946 13.4804 32 13.7348 32 14Z" fill="#EB001B"/>
</svg>
