<svg width="25" height="23" viewBox="0 0 25 23" fill="none" xmlns="http://www.w3.org/2000/svg">
<path d="M24.5834 1.83333V3.04167H4.04175C3.72128 3.04167 3.41393 3.16897 3.18733 3.39558C2.96072 3.62219 2.83341 3.92953 2.83341 4.25C2.83341 4.57047 2.96072 4.87781 3.18733 5.10442C3.41393 5.33103 3.72128 5.45833 4.04175 5.45833H23.3751C23.6955 5.45833 24.0029 5.58564 24.2295 5.81225C24.4561 6.03885 24.5834 6.3462 24.5834 6.66667V19.9583C24.5834 20.5993 24.3288 21.214 23.8756 21.6672C23.4224 22.1204 22.8077 22.375 22.1667 22.375H13.7084V14.4169L15.2708 15.9793C15.4987 16.1994 15.8039 16.3212 16.1207 16.3184C16.4376 16.3157 16.7406 16.1886 16.9647 15.9646C17.1887 15.7405 17.3158 15.4375 17.3185 15.1207C17.3213 14.8038 17.1995 14.4986 16.9794 14.2707L13.3544 10.6457C13.2421 10.5332 13.1088 10.4439 12.962 10.383C12.8152 10.3221 12.6578 10.2907 12.4989 10.2907C12.3399 10.2907 12.1826 10.3221 12.0358 10.383C11.889 10.4439 11.7556 10.5332 11.6434 10.6457L8.01837 14.2707C7.79827 14.4986 7.67647 14.8038 7.67923 15.1207C7.68198 15.4375 7.80906 15.7405 8.03309 15.9646C8.25713 16.1886 8.56019 16.3157 8.87701 16.3184C9.19383 16.3212 9.49906 16.1994 9.72696 15.9793L11.2917 14.4169V22.375H2.83341C2.19247 22.375 1.57779 22.1204 1.12457 21.6672C0.67136 21.214 0.416748 20.5993 0.416748 19.9583V3.04167C0.416748 2.40073 0.67136 1.78604 1.12457 1.33283C1.57779 0.879612 2.19247 0.625 2.83341 0.625H23.3751C23.6955 0.625 24.0029 0.752306 24.2295 0.978913C24.4561 1.20552 24.5834 1.51286 24.5834 1.83333Z" fill="#EB001B"/>
</svg>
