<svg width="44" height="44" viewBox="0 0 44 44" fill="none" xmlns="http://www.w3.org/2000/svg">
<rect width="44" height="44" rx="8" fill="#DC0019" fill-opacity="0.1"/>
<path d="M32.0002 20.97V23.03C32.0002 23.58 31.5602 24.03 31.0002 24.05H29.0402C27.9602 24.05 26.9702 23.26 26.8802 22.18C26.8202 21.55 27.0602 20.96 27.4802 20.55C27.8502 20.17 28.3602 19.95 28.9202 19.95H31.0002C31.5602 19.97 32.0002 20.42 32.0002 20.97Z" fill="#DC0019"/>
<path d="M30.47 25.55H29.04C27.14 25.55 25.54 24.12 25.38 22.3C25.29 21.26 25.67 20.22 26.43 19.48C27.07 18.82 27.96 18.45 28.92 18.45H30.47C30.76 18.45 31 18.21 30.97 17.92C30.75 15.49 29.14 13.83 26.75 13.55C26.51 13.51 26.26 13.5 26 13.5H17C16.72 13.5 16.45 13.52 16.19 13.56C13.64 13.88 12 15.78 12 18.5V25.5C12 28.26 14.24 30.5 17 30.5H26C28.8 30.5 30.73 28.75 30.97 26.08C31 25.79 30.76 25.55 30.47 25.55ZM23 19.75H17C16.59 19.75 16.25 19.41 16.25 19C16.25 18.59 16.59 18.25 17 18.25H23C23.41 18.25 23.75 18.59 23.75 19C23.75 19.41 23.41 19.75 23 19.75Z" fill="#DC0019"/>
</svg>
