<svg width="14" height="14" viewBox="0 0 14 14" fill="none" xmlns="http://www.w3.org/2000/svg">
<path d="M6.99992 0.333374C3.32659 0.333374 0.333252 3.32671 0.333252 7.00004C0.333252 10.6734 3.32659 13.6667 6.99992 13.6667C10.6733 13.6667 13.6666 10.6734 13.6666 7.00004C13.6666 3.32671 10.6733 0.333374 6.99992 0.333374ZM6.49992 4.33337C6.49992 4.06004 6.72659 3.83337 6.99992 3.83337C7.27325 3.83337 7.49992 4.06004 7.49992 4.33337V7.66671C7.49992 7.94004 7.27325 8.16671 6.99992 8.16671C6.72659 8.16671 6.49992 7.94004 6.49992 7.66671V4.33337ZM7.61325 9.92004C7.57992 10.0067 7.53325 10.0734 7.47325 10.14C7.40659 10.2 7.33325 10.2467 7.25325 10.28C7.17325 10.3134 7.08659 10.3334 6.99992 10.3334C6.91325 10.3334 6.82659 10.3134 6.74659 10.28C6.66659 10.2467 6.59325 10.2 6.52659 10.14C6.46659 10.0734 6.41992 10.0067 6.38659 9.92004C6.35325 9.84004 6.33325 9.75337 6.33325 9.66671C6.33325 9.58004 6.35325 9.49337 6.38659 9.41337C6.41992 9.33337 6.46659 9.26004 6.52659 9.19337C6.59325 9.13337 6.66659 9.08671 6.74659 9.05337C6.90659 8.98671 7.09325 8.98671 7.25325 9.05337C7.33325 9.08671 7.40659 9.13337 7.47325 9.19337C7.53325 9.26004 7.57992 9.33337 7.61325 9.41337C7.64659 9.49337 7.66659 9.58004 7.66659 9.66671C7.66659 9.75337 7.64659 9.84004 7.61325 9.92004Z" fill="#DC0019"/>
</svg>
