<svg width="16" height="16" viewBox="0 0 16 16" fill="none" xmlns="http://www.w3.org/2000/svg">
<path d="M7.99992 1.3335C4.32659 1.3335 1.33325 4.32683 1.33325 8.00016C1.33325 11.6735 4.32659 14.6668 7.99992 14.6668C11.6733 14.6668 14.6666 11.6735 14.6666 8.00016C14.6666 4.32683 11.6733 1.3335 7.99992 1.3335ZM10.8999 10.3802C10.8066 10.5402 10.6399 10.6268 10.4666 10.6268C10.3799 10.6268 10.2933 10.6068 10.2133 10.5535L8.14659 9.32016C7.63325 9.0135 7.25325 8.34016 7.25325 7.74683V5.0135C7.25325 4.74016 7.47992 4.5135 7.75325 4.5135C8.02659 4.5135 8.25325 4.74016 8.25325 5.0135V7.74683C8.25325 7.98683 8.45325 8.34016 8.65992 8.46016L10.7266 9.6935C10.9666 9.8335 11.0466 10.1402 10.8999 10.3802Z" fill="#727272"/>
</svg>
